<svg width="59" height="55" viewBox="0 0 59 55" fill="none" xmlns="http://www.w3.org/2000/svg">
<g clip-path="url(#clip0_1612_4877)">
<path d="M19.1726 33.6459C17.7011 32.8125 16.389 32.072 14.9102 31.2348C17.2008 27.2126 19.3839 23.3056 21.6412 19.4434C22.3157 18.2899 22.527 17.5011 21.5485 16.2397C18.6908 12.5561 19.1244 7.27616 22.3009 3.84552C25.4996 0.388833 30.7888 -0.292086 34.7621 2.24555C38.6947 4.75713 40.3367 9.7096 38.6799 14.0779C36.9972 18.5132 32.4233 21.0917 27.742 20.2471C27.5048 20.2062 27.2676 20.1764 26.9044 20.1206C24.3469 24.5893 21.7968 29.0544 19.1726 33.6459ZM24.6212 10.6324C24.6508 13.3635 26.8673 15.5588 29.5582 15.5142C32.2677 15.4695 34.3952 13.2556 34.3656 10.5021C34.3396 7.75987 32.1528 5.60549 29.4285 5.6427C26.7079 5.6799 24.5915 7.87522 24.6175 10.6324H24.6212Z" fill="#009BD2"/>
<path d="M42.2289 37.925C39.7419 33.5418 37.2252 29.1139 34.5898 24.474C35.9798 23.674 37.3252 22.9001 38.8301 22.0294C41.4617 26.6321 44.0118 31.0897 46.5396 35.5064C52.507 34.7659 56.8029 37.0989 58.4634 41.8988C59.983 46.2969 58.1965 51.2084 54.2046 53.601C50.2276 55.9823 45.0496 55.2195 41.925 51.7926C38.4594 47.9899 38.541 43.1714 42.2289 37.925ZM49.2231 50.0624C51.8955 50.0327 54.1379 47.7332 54.1008 45.069C54.0601 42.3863 51.7657 40.1314 49.1119 40.1724C46.4321 40.2133 44.2304 42.4867 44.2601 45.1844C44.2897 47.8932 46.5322 50.0959 49.2268 50.0624H49.2231Z" fill="#009BD2"/>
<path d="M34.5678 42.6727V47.562H31.0652C28.3669 47.562 25.6574 47.6922 22.9702 47.521C20.6537 47.3759 19.2192 47.8038 18.0443 50.2335C16.0947 54.2632 11.2503 55.8632 6.97669 54.5535C2.69939 53.2437 -0.13237 49.281 0.00477005 44.7899C0.14191 40.2653 3.28872 36.511 7.80324 35.4878C12.0361 34.5278 16.4245 36.6003 18.4705 40.5444C18.8078 41.1918 19.0747 41.8728 19.4342 42.6727H34.5678ZM9.74544 50.0624C12.4364 50.107 14.701 47.9117 14.7455 45.2104C14.79 42.5202 12.592 40.2281 9.91223 40.1723C7.25468 40.1165 4.95294 42.349 4.89364 45.0429C4.83433 47.7071 7.07306 50.0177 9.74544 50.0624Z" fill="#009BD2"/>
</g>
<defs>
<clipPath id="clip0_1612_4877">
<rect width="59" height="54.28" fill="white" transform="translate(0 0.719971)"/>
</clipPath>
</defs>
</svg>
