<?xml version="1.0" encoding="UTF-8"?> <svg xmlns="http://www.w3.org/2000/svg" xmlns:xlink="http://www.w3.org/1999/xlink" width="725px" height="295px" viewBox="0 0 725 295"><title>service flow</title><defs><circle id="path-1" cx="454" cy="152" r="94"></circle><filter x="-19.9%" y="-19.9%" width="139.9%" height="139.9%" id="filter-2"><feOffset dx="0" dy="0" in="SourceAlpha" result="shadowOffsetOuter1"></feOffset><feGaussianBlur stdDeviation="12.5" in="shadowOffsetOuter1" result="shadowBlurOuter1"></feGaussianBlur><feColorMatrix values="0 0 0 0 0 0 0 0 0 0.619607843 0 0 0 0 0.835294118 0 0 0 0.3886309 0" type="matrix" in="shadowBlurOuter1"></feColorMatrix></filter><circle id="path-3" cx="94" cy="94" r="94"></circle><filter x="-19.9%" y="-19.9%" width="139.9%" height="139.9%" id="filter-4"><feOffset dx="0" dy="0" in="SourceAlpha" result="shadowOffsetOuter1"></feOffset><feGaussianBlur stdDeviation="12.5" in="shadowOffsetOuter1" result="shadowBlurOuter1"></feGaussianBlur><feColorMatrix values="0 0 0 0 0 0 0 0 0 0.619607843 0 0 0 0 0.835294118 0 0 0 0.3886309 0" type="matrix" in="shadowBlurOuter1"></feColorMatrix></filter><circle id="path-5" cx="122" cy="122" r="122"></circle><filter x="-15.4%" y="-15.4%" width="130.7%" height="130.7%" id="filter-6"><feOffset dx="0" dy="0" in="SourceAlpha" result="shadowOffsetOuter1"></feOffset><feGaussianBlur stdDeviation="12.5" in="shadowOffsetOuter1" result="shadowBlurOuter1"></feGaussianBlur><feColorMatrix values="0 0 0 0 0 0 0 0 0 0.619607843 0 0 0 0 0.835294118 0 0 0 0.3886309 0" type="matrix" in="shadowBlurOuter1"></feColorMatrix></filter><polygon id="path-7" points="0.232410067 0.00377735849 20.9207226 0.00377735849 20.9207226 27.1845698 0.232410067 27.1845698"></polygon><polygon id="path-9" points="0.196931321 0.11675625 34.5408317 0.11675625 34.5408317 38.7561651 0.196931321 38.7561651"></polygon><polygon id="path-11" points="2.70399121e-05 0.11675625 34.5926762 0.11675625 34.5926762 38.7561651 2.70399121e-05 38.7561651"></polygon><polygon id="path-13" points="0 31.4583 34.919 31.4583 34.919 0.0003 0 0.0003"></polygon><polygon id="path-15" points="0 0.95815 27.815 0.95815 27.815 23 0 23"></polygon><polygon id="path-17" points="0 22 35.652 22 35.652 0.7 0 0.7"></polygon><polygon id="path-19" points="0.0005 0.98025 25.896 0.98025 25.896 27 0.0005 27"></polygon></defs><g id="3.0" stroke="none" stroke-width="1" fill="none" fill-rule="evenodd"><g id="BlueX_01_landing" transform="translate(-358.000000, -1688.000000)"><g id="page" transform="translate(-386.000000, 0.000000)"><g id="Group-27" transform="translate(386.000000, 1397.000000)"><g id="service-flow" transform="translate(383.000000, 287.000000)"><g id="Group-11"><g id="Group-8-Copy" transform="translate(127.000000, 0.000000)"><g id="Oval-Copy" opacity="0.899679129"><use fill="black" fill-opacity="1" filter="url(#filter-2)" xlink:href="#path-1"></use><use fill="#FFFFFF" fill-rule="evenodd" xlink:href="#path-1"></use></g><g id="Group-10" transform="translate(293.000000, 0.000000)"><g id="Group-2" transform="translate(64.500000, 55.000000) scale(1, -1) rotate(147.000000) translate(-64.500000, -55.000000) translate(13.000000, 23.000000)"><path d="M102.156867,63.545334 C82.7785751,32.7737817 50.1411674,11.1919796 12.262774,6.81805798" id="Path" stroke="#049BD2" stroke-width="4"></path><polygon id="Triangle-Copy" fill="#009BD2" transform="translate(7.500000, 7.500000) rotate(-92.000000) translate(-7.500000, -7.500000) " points="7.5 1 14 14 1 14"></polygon></g><g id="Group-2-Copy" transform="translate(61.500000, 247.000000) scale(-1, 1) rotate(151.000000) translate(-61.500000, -247.000000) translate(10.000000, 215.000000)"><path d="M102.156867,63.545334 C82.7785751,32.7737817 50.1411674,11.1919796 12.262774,6.81805798" id="Path" stroke="#049BD2" stroke-width="4"></path><polygon id="Triangle-Copy" fill="#009BD2" transform="translate(7.500000, 7.500000) rotate(-92.000000) translate(-7.500000, -7.500000) " points="7.5 1 14 14 1 14"></polygon></g></g><g id="Group-10-Copy" transform="translate(63.000000, 150.000000) scale(-1, 1) translate(-63.000000, -150.000000) "><g id="Group-2" transform="translate(64.500000, 55.000000) scale(1, -1) rotate(147.000000) translate(-64.500000, -55.000000) translate(13.000000, 23.000000)"><path d="M102.156867,63.545334 C82.7785751,32.7737817 50.1411674,11.1919796 12.262774,6.81805798" id="Path" stroke="#049BD2" stroke-width="4"></path><polygon id="Triangle-Copy" fill="#009BD2" transform="translate(7.500000, 7.500000) rotate(-92.000000) translate(-7.500000, -7.500000) " points="7.5 1 14 14 1 14"></polygon></g><g id="Group-2-Copy" transform="translate(61.500000, 247.000000) scale(-1, 1) rotate(151.000000) translate(-61.500000, -247.000000) translate(10.000000, 215.000000)"><path d="M102.156867,63.545334 C82.7785751,32.7737817 50.1411674,11.1919796 12.262774,6.81805798" id="Path" stroke="#049BD2" stroke-width="4"></path><polygon id="Triangle-Copy" fill="#009BD2" transform="translate(7.500000, 7.500000) rotate(-92.000000) translate(-7.500000, -7.500000) " points="7.5 1 14 14 1 14"></polygon></g></g><g id="warehouse-(2)" transform="translate(420.000000, 84.000000)"><path d="M54.6816916,0.00045 L56.8575087,5.4103 L54.6806031,8.77419355 L54.6806031,15.3548387 L64,16.7509711 L64,59 L3,59 L3,16.4999711 L15,16.5 L15,6.58064516 L12,6.58064516 L12.156,-2.88974811e-05 L54.6816916,0.00045 Z" id="Combined-Shape" fill="#FFFFFF"></path><rect id="Rectangle" fill="#FFFFFF" x="2" y="48" width="20" height="18"></rect><g id="Group" transform="translate(9.000000, 10.000000)" fill="#97E4FF" fill-rule="nonzero"><polygon id="Path" points="28 34.1794872 36.6153846 34.1794872 36.6153846 38.5897436 28 38.5897436"></polygon><polygon id="Path" points="15.0769231 20.9487179 23.6923077 20.9487179 23.6923077 25.3589744 15.0769231 25.3589744"></polygon><polygon id="Path" points="0 36.3846154 8.61538462 36.3846154 8.61538462 43 0 43"></polygon><path d="M20.4615385,8.82051282 L11.8461538,8.82051282 C10.6583077,8.82051282 9.69230769,7.83151282 9.69230769,6.61538462 L9.69230769,2.20512821 C9.69230769,0.989 10.6583077,0 11.8461538,0 L20.4615385,0 C21.6493846,0 22.6153846,0.989 22.6153846,2.20512821 L22.6153846,6.61538462 C22.6153846,7.83151282 21.6493846,8.82051282 20.4615385,8.82051282 Z" id="Path"></path><path d="M39.8461538,8.82051282 L31.2307692,8.82051282 C30.0429231,8.82051282 29.0769231,7.83151282 29.0769231,6.61538462 L29.0769231,2.20512821 C29.0769231,0.989 30.0429231,0 31.2307692,0 L39.8461538,0 C41.034,0 42,0.989 42,2.20512821 L42,6.61538462 C42,7.83151282 41.034,8.82051282 39.8461538,8.82051282 Z" id="Path"></path></g><path d="M68,32.9032258 L64.2676954,15.3548387 L54.6806031,15.3548387 L54.6806031,8.77419355 C55.8811666,8.77419355 56.8575087,7.7903871 56.8575087,6.58064516 L56.8575087,2.19354839 C56.8575087,0.983806452 55.8811666,0 54.6806031,0 L13.3193969,0 C12.1188334,0 11.1424913,0.983806452 11.1424913,2.19354839 L11.1424913,6.58064516 C11.1424913,7.7903871 12.1188334,8.77419355 13.3193969,8.77419355 L13.3193969,15.3548387 L3.73121619,15.3548387 L0,32.9032258 L2.43486891,32.9032258 L2.43486891,46.2663226 C1.17117521,46.7203871 0.257963313,47.9268387 0.257963313,49.3548387 L0.257963313,64.7096774 C0.257963313,66.5237419 1.72302078,68 3.5233217,68 L20.9385664,68 C22.7388674,68 24.2039248,66.5237419 24.2039248,64.7096774 L24.2039248,59.2258065 L34,59.2258065 L47.0614336,59.2258065 L65.5651311,59.2258065 L65.5651311,32.9032258 L68,32.9032258 Z M62.5076672,17.5483871 L65.3060793,30.7096774 L54.6806031,30.7096774 L54.6806031,17.5483871 L62.5076672,17.5483871 Z M54.6806031,48.2580645 L59.0344143,48.2580645 L59.0344143,52.6451613 L54.6806031,52.6451613 L54.6806031,48.2580645 Z M54.6806031,37.2903226 L59.0344143,37.2903226 L59.0344143,41.6774194 L54.6806031,41.6774194 L54.6806031,37.2903226 Z M13.3193969,2.19354839 L54.6806031,2.19354839 L54.6816916,6.58064516 L13.3193969,6.58064516 L13.3193969,2.19354839 Z M52.5036975,8.77419355 L52.5036975,57.0322581 L50.3267919,57.0322581 L50.3267919,55.9354839 L50.3267919,47.1612903 L50.3267919,29.6129032 C50.3267919,26.5890968 47.8853923,24.1290323 44.884528,24.1290323 L23.115472,24.1290323 C20.1146077,24.1290323 17.6732081,26.5890968 17.6732081,29.6129032 L17.6732081,34 L17.6732081,42.7741935 L17.6732081,46.0645161 L15.4963025,46.0645161 L15.4963025,8.77419355 L52.5036975,8.77419355 Z M20.9385664,43.8709677 C20.3377405,43.8709677 19.8501136,43.3796129 19.8501136,42.7741935 L19.8501136,34 C19.8501136,33.3956774 20.3377405,32.9032258 20.9385664,32.9032258 L34,32.9032258 C34.6008259,32.9032258 35.0884528,33.3956774 35.0884528,34 L35.0884528,42.7741935 C35.0884528,43.3796129 34.6008259,43.8709677 34,43.8709677 L20.9385664,43.8709677 Z M34,30.7096774 L20.9385664,30.7096774 C20.5554311,30.7096774 20.1918878,30.7886452 19.8501136,30.9114839 L19.8501136,29.6129032 C19.8501136,27.7988387 21.3151711,26.3225806 23.115472,26.3225806 L44.884528,26.3225806 C46.6848289,26.3225806 48.1498864,27.7988387 48.1498864,29.6129032 L48.1498864,44.0727742 C47.8081122,43.9499355 47.4445689,43.8709677 47.0614336,43.8709677 L37.0650831,43.8709677 C37.1869898,43.5265806 37.2653584,43.1602581 37.2653584,42.7741935 L37.2653584,34 C37.2653584,32.1859355 35.8003009,30.7096774 34,30.7096774 Z M13.3193969,41.6774194 L8.96558568,41.6774194 L8.96558568,37.2903226 L13.3193969,37.2903226 L13.3193969,41.6774194 Z M5.49233281,17.5483871 L13.3193969,17.5483871 L13.3193969,30.7096774 L2.69283222,30.7096774 L5.49233281,17.5483871 Z M13.3193969,32.9032258 L13.3193969,35.0967742 L6.78868009,35.0967742 L6.78868009,43.8709677 L13.3193969,43.8709677 L13.3193969,46.0645161 L4.6117745,46.0645161 L4.6117745,32.9032258 L13.3193969,32.9032258 Z M22.0270192,64.7096774 C22.0270192,65.3150968 21.5393924,65.8064516 20.9385664,65.8064516 L3.5233217,65.8064516 C2.92249576,65.8064516 2.43486891,65.3150968 2.43486891,64.7096774 L2.43486891,49.3548387 C2.43486891,48.7494194 2.92249576,48.2580645 3.5233217,48.2580645 L20.9385664,48.2580645 C21.5393924,48.2580645 22.0270192,48.7494194 22.0270192,49.3548387 L22.0270192,64.7096774 Z M20.9385664,46.0645161 L19.8501136,46.0645161 L19.8501136,45.8627097 C20.1918878,45.9855484 20.5554311,46.0645161 20.9385664,46.0645161 L30.9349169,46.0645161 C30.8130102,46.4089032 30.7346416,46.7752258 30.7346416,47.1612903 L30.7346416,55.9354839 C30.7346416,56.3215484 30.8130102,56.687871 30.9349169,57.0322581 L24.2039248,57.0322581 L24.2039248,49.3548387 C24.2039248,47.5407742 22.7388674,46.0645161 20.9385664,46.0645161 L20.9385664,46.0645161 Z M34,57.0322581 C33.3991741,57.0322581 32.9115472,56.5409032 32.9115472,55.9354839 L32.9115472,47.1612903 C32.9115472,46.555871 33.3991741,46.0645161 34,46.0645161 L47.0614336,46.0645161 C47.6622595,46.0645161 48.1498864,46.555871 48.1498864,47.1612903 L48.1498864,55.9354839 C48.1498864,56.5409032 47.6622595,57.0322581 47.0614336,57.0322581 L34,57.0322581 Z M63.3882255,57.0322581 L54.6806031,57.0322581 L54.6806031,54.8387097 L61.2113199,54.8387097 L61.2113199,46.0645161 L54.6806031,46.0645161 L54.6806031,43.8709677 L61.2113199,43.8709677 L61.2113199,35.0967742 L54.6806031,35.0967742 L54.6806031,32.9032258 L63.3882255,32.9032258 L63.3882255,57.0322581 Z" id="Shape" fill="#1D6781" fill-rule="nonzero"></path><polygon id="Path" fill="#1D6781" fill-rule="nonzero" transform="translate(59.641004, 20.775763) rotate(-12.118760) translate(-59.641004, -20.775763) " points="58.5663413 19.6833669 60.7234066 19.6756312 60.715667 21.8681581 58.5586017 21.8758938"></polygon><polygon id="Path" fill="#1D6781" fill-rule="nonzero" transform="translate(60.541440, 25.096683) rotate(-12.118760) translate(-60.541440, -25.096683) " points="59.466238 24.0042896 61.6243824 23.99655 61.6166428 26.1890769 59.4584984 26.1968165"></polygon><polygon id="Path" fill="#1D6781" fill-rule="nonzero" transform="translate(8.820514, 23.038603) rotate(-77.881240) translate(-8.820514, -23.038603) " points="7.72811824 21.96394 9.92064517 21.9562004 9.91290944 24.1132658 7.72038251 24.1210054"></polygon><polygon id="Path" fill="#1D6781" fill-rule="nonzero" transform="translate(7.916637, 27.314902) rotate(-77.881240) translate(-7.916637, -27.314902) " points="6.82424318 26.2397 9.01677011 26.2319604 9.00903052 28.3901049 6.81650358 28.3978445"></polygon><polygon id="Path" fill="#1D6781" fill-rule="nonzero" points="15 60 17 60 17 62 15 62"></polygon><polygon id="Path" fill="#1D6781" fill-rule="nonzero" points="10 60 12 60 12 62 10 62"></polygon><polygon id="Path" fill="#1D6781" fill-rule="nonzero" points="6 60 8 60 8 62 6 62"></polygon><polygon id="Path" fill="#1D6781" fill-rule="nonzero" points="45 33 47 33 47 35 45 35"></polygon><polygon id="Path" fill="#1D6781" fill-rule="nonzero" points="45 36 47 36 47 38 45 38"></polygon><polygon id="Path" fill="#1D6781" fill-rule="nonzero" points="45 30 47 30 47 32 45 32"></polygon></g><text id="Shippers,-BCOs-Freig" font-family="Roboto-Medium, Roboto" font-size="12" font-weight="400" fill="#009BD2"><tspan x="412.580078" y="178">Shippers, BCOs</tspan><tspan x="403.172852" y="196">Freight Forwarders</tspan></text></g><g id="Group-8" transform="translate(0.000000, 58.000000)"><g id="Oval-Copy-4" opacity="0.899679129"><use fill="black" fill-opacity="1" filter="url(#filter-4)" xlink:href="#path-3"></use><use fill="#FFFFFF" fill-rule="evenodd" xlink:href="#path-3"></use></g><g id="Group-4-Copy" transform="translate(56.000000, 25.000000)"><text id="Ocean-Freight-Carrie" font-family="Roboto-Medium, Roboto" font-size="12" font-weight="400" fill="#009BD2"><tspan x="0.03515625" y="95">Ocean Freight</tspan><tspan x="16.1601562" y="113">Carriers</tspan></text><path d="M55.5862069,4.93548387 L60.2580645,7.83870968 L62.6774194,12.6774194 L57.3548387,18.483871 L62.8883981,22.3548387 L68,30.0967742 L67.9996545,37.4964839 L66.0645161,39.7741935 L62.1935484,39.7741935 L62.150781,58.862069 L59.6436545,61.9994839 L47.7306545,61.9994839 L46.7870968,58.9234494 L46.7096774,52.6551724 L42.8387097,52.6551724 L41.3956545,61.9994839 L23.4836545,61.9994839 L23.483871,49.7519466 L9,35.9032258 L8.99965453,32.9994839 L10.4125806,33 L12.0190323,19.8262681 L14.1824761,19.8262681 L15.2413793,14.6129032 L19.6129032,14.6129032 L19.2058494,19.8262681 L22.4827586,19.8262681 L22.4827586,10.7419355 L26.3870968,12.6774194 L26.3870968,18.483871 L30.3296774,18.483871 L30.3296774,29.4256452 L40.9032258,28.1612903 L44.7741935,22.6551724 L50.9503226,19.8262681 L45.4429032,12.6774194 L39.26,10.7419355 L39.26,7.83870968 L46.7870968,6.71199157 L49.6129032,4.93548387 L55.5862069,4.93548387 Z" id="Combined-Shape" fill="#FFFFFF"></path><g id="shipping" transform="translate(5.000000, 0.000000)" fill-rule="nonzero"><g id="Group" transform="translate(8.000000, 22.000000)" fill="#97E4FF"><polygon id="Path" points="40.063679 5.32258065 44.2809083 5.32258065 44.2809083 9.58064516 40.063679 9.58064516"></polygon><polygon id="Path" points="14.7603028 8.51612903 0 8.51612903 0 0 14.7603028 0"></polygon><polygon id="Path" points="14.7603028 26.6129032 23.1947615 26.6129032 23.1947615 33 14.7603028 33"></polygon></g><path d="M54.9215806,17.8050968 C57.7255161,16.1316774 59.6129032,13.0765161 59.6129032,9.58064516 C59.6129032,4.29745161 55.3143871,0 50.0322581,0 C46.8376452,0 43.8612581,1.62445161 42.0899032,4.25806452 L36.1935484,4.25806452 C34.4328387,4.25806452 33,5.69090323 33,7.4516129 C33,9.21232258 34.4328387,10.6451613 36.1935484,10.6451613 L40.5144194,10.6451613 C40.8529355,13.6918065 42.6285484,16.304129 45.1429355,17.8050968 C40.4132903,19.3305484 36.6544839,23.0084516 34.9959677,27.6774194 L26.6192903,27.6774194 L25.4366129,17.0322581 L21.2903226,17.0322581 L21.2903226,8.51612903 L14.9032258,8.51612903 L14.9032258,17.0322581 L12.7741935,17.0322581 L12.7741935,12.7741935 L6.38709677,12.7741935 L6.38709677,17.0322581 L4.39964516,17.0322581 L2.2706129,31.9354839 L0,31.9354839 L0,37.4518065 L0.0670645161,37.6327742 C2.68364516,44.6064194 8.07009677,50.2196129 14.9032258,53.1459677 L14.9032258,62.8064516 C14.9032258,64.5671613 16.3360645,66 18.0967742,66 L35.1290323,66 C36.8897419,66 38.3225806,64.5671613 38.3225806,62.8064516 L38.3225806,55.3548387 L40.4516129,55.3548387 L40.4516129,60.6774194 C40.4516129,63.6122903 42.8393226,66 45.7741935,66 C47.5210645,66 49.0614194,65.142 50.0322581,63.8379677 C51.0030968,65.142 52.5434516,66 54.2903226,66 C57.2251935,66 59.6129032,63.6122903 59.6129032,60.6774194 L59.6129032,43.6451613 L59.6129032,41.516129 L59.6129032,40.4516129 L61.7419355,40.4516129 C64.0902581,40.4516129 66,38.541871 66,36.1935484 L66,33 C66,25.9007419 61.3406129,19.8755806 54.9215806,17.8050968 Z M50.0322581,19.1612903 C50.751871,19.1612903 51.4533871,19.2336774 52.1431935,19.340129 C52.0505806,20.429129 51.1457419,21.2903226 50.0322581,21.2903226 C48.9187742,21.2903226 48.0139355,20.429129 47.9213226,19.340129 C48.611129,19.2336774 49.3126452,19.1612903 50.0322581,19.1612903 Z M57.3987097,8.51612903 L49.6256129,8.51612903 L48.9677419,7.2003871 C48.147,5.55890323 46.5747097,4.48906452 44.781,4.29851613 C46.1606129,2.9306129 48.045871,2.12903226 50.0322581,2.12903226 C53.7782903,2.12903226 56.8792258,4.91167742 57.3987097,8.51612903 Z M35.1290323,7.4516129 C35.1290323,6.864 35.607,6.38709677 36.1935484,6.38709677 L44.2072258,6.38709677 C45.4250323,6.38709677 46.5193548,7.06412903 47.0633226,8.15206452 L47.2453548,8.51612903 L36.1935484,8.51612903 C35.607,8.51612903 35.1290323,8.03922581 35.1290323,7.4516129 Z M42.6658065,10.6451613 L57.3987097,10.6451613 C56.8792258,14.2496129 53.7782903,17.0322581 50.0322581,17.0322581 C46.2862258,17.0322581 43.1852903,14.2496129 42.6658065,10.6451613 Z M34.0645161,33 L34.0645161,36.1935484 L25.5483871,36.1935484 L25.5483871,30.8709677 C25.5483871,30.2833548 26.0263548,29.8064516 26.6129032,29.8064516 L34.386,29.8064516 C34.1762903,30.8390323 34.0645161,31.9067419 34.0645161,33 Z M17.0322581,10.6451613 L19.1612903,10.6451613 L19.1612903,17.0322581 L17.0322581,17.0322581 L17.0322581,10.6451613 Z M8.51612903,14.9032258 L10.6451613,14.9032258 L10.6451613,17.0322581 L8.51612903,17.0322581 L8.51612903,14.9032258 Z M6.24551613,19.1612903 L23.531129,19.1612903 L24.5626452,28.4428065 C23.8696452,29.0293548 23.4193548,29.8937419 23.4193548,30.8709677 L23.4193548,36.1935484 L17.4729677,36.1935484 L13.2149032,31.9354839 L4.42093548,31.9354839 L6.24551613,19.1612903 Z M12.3334839,34.0645161 L16.5915484,38.3225806 L34.6563871,38.3225806 C35.3951613,39.5893548 36.7534839,40.4516129 38.3225806,40.4516129 L15.3439355,40.4516129 L11.085871,36.1935484 L2.12903226,36.1935484 L2.12903226,34.0645161 L12.3334839,34.0645161 Z M36.1935484,62.8064516 C36.1935484,63.3940645 35.7155806,63.8709677 35.1290323,63.8709677 L18.0967742,63.8709677 C17.5102258,63.8709677 17.0322581,63.3940645 17.0322581,62.8064516 L17.0322581,50.0322581 C17.0322581,49.4446452 17.5102258,48.9677419 18.0967742,48.9677419 L35.1290323,48.9677419 C35.7155806,48.9677419 36.1935484,49.4446452 36.1935484,50.0322581 L36.1935484,62.8064516 Z M38.3225806,53.2258065 L38.3225806,50.0322581 C38.3225806,48.2715484 36.8897419,46.8387097 35.1290323,46.8387097 L18.0967742,46.8387097 C16.3360645,46.8387097 14.9032258,48.2715484 14.9032258,50.0322581 L14.9032258,50.8157419 C9.46780645,48.2491935 5.1086129,43.8069677 2.65383871,38.3225806 L10.2044516,38.3225806 L14.4625161,42.5806452 L40.4516129,42.5806452 L40.4516129,43.6451613 L40.4516129,53.2258065 L38.3225806,53.2258065 Z M45.7741935,63.8709677 C44.0134839,63.8709677 42.5806452,62.438129 42.5806452,60.6774194 L42.5806452,46.6428387 C42.9149032,46.7620645 43.2704516,46.8387097 43.6451613,46.8387097 L48.9677419,46.8387097 L48.9677419,60.6774194 C48.9677419,62.438129 47.5349032,63.8709677 45.7741935,63.8709677 Z M54.2903226,63.8709677 C52.5296129,63.8709677 51.0967742,62.438129 51.0967742,60.6774194 L51.0967742,46.8387097 L56.4193548,46.8387097 C56.7940645,46.8387097 57.1496129,46.7620645 57.483871,46.6428387 L57.483871,60.6774194 C57.483871,62.438129 56.0510323,63.8709677 54.2903226,63.8709677 Z M57.483871,41.516129 L57.483871,43.6451613 C57.483871,44.2327742 57.0059032,44.7096774 56.4193548,44.7096774 L43.6451613,44.7096774 C43.0586129,44.7096774 42.5806452,44.2327742 42.5806452,43.6451613 L42.5806452,41.516129 L42.5806452,40.4516129 L44.7096774,40.4516129 C47.058,40.4516129 48.9677419,38.541871 48.9677419,36.1935484 C48.9677419,33.8452258 47.058,31.9354839 44.7096774,31.9354839 L42.5806452,31.9354839 L42.5806452,28.7419355 C42.5806452,28.1543226 43.0586129,27.6774194 43.6451613,27.6774194 L56.4193548,27.6774194 C57.0059032,27.6774194 57.483871,28.1543226 57.483871,28.7419355 L57.483871,31.9354839 L55.3548387,31.9354839 C53.0065161,31.9354839 51.0967742,33.8452258 51.0967742,36.1935484 C51.0967742,38.541871 53.0065161,40.4516129 55.3548387,40.4516129 L57.483871,40.4516129 L57.483871,41.516129 Z M63.8709677,36.1935484 C63.8709677,37.3677097 62.9160968,38.3225806 61.7419355,38.3225806 L55.3548387,38.3225806 C54.1806774,38.3225806 53.2258065,37.3677097 53.2258065,36.1935484 C53.2258065,35.0193871 54.1806774,34.0645161 55.3548387,34.0645161 L61.7419355,34.0645161 L61.7419355,31.9354839 L59.6129032,31.9354839 L59.6129032,28.7419355 C59.6129032,26.9812258 58.1800645,25.5483871 56.4193548,25.5483871 L43.6451613,25.5483871 C41.8844516,25.5483871 40.4516129,26.9812258 40.4516129,28.7419355 L40.4516129,31.9354839 L38.3225806,31.9354839 L38.3225806,34.0645161 L44.7096774,34.0645161 C45.8838387,34.0645161 46.8387097,35.0193871 46.8387097,36.1935484 C46.8387097,37.3677097 45.8838387,38.3225806 44.7096774,38.3225806 L38.3225806,38.3225806 C37.1484194,38.3225806 36.1935484,37.3677097 36.1935484,36.1935484 L36.1935484,33 C36.1935484,26.831129 40.2536129,21.5947742 45.8401935,19.8138387 C46.1574194,21.8513226 47.9074839,23.4193548 50.0322581,23.4193548 C52.1570323,23.4193548 53.9070968,21.8513226 54.2243226,19.8138387 C59.8109032,21.5947742 63.8709677,26.831129 63.8709677,33 L63.8709677,36.1935484 Z" id="Shape" fill="#1D6781"></path><polygon id="Path" fill="#1D6781" points="14 22 16 22 16 30 14 30"></polygon><polygon id="Path" fill="#1D6781" points="27 59 29 59 29 61 27 61"></polygon><polygon id="Path" fill="#1D6781" points="24 59 26 59 26 61 24 61"></polygon><polygon id="Path" fill="#1D6781" points="32 59 34 59 34 61 32 61"></polygon></g></g></g><g id="Group-15" transform="translate(191.000000, 4.000000)"><g id="Group-9" transform="translate(26.000000, 26.000000)"><g id="Oval-Copy-3" opacity="0.899679129"><use fill="black" fill-opacity="1" filter="url(#filter-6)" xlink:href="#path-5"></use><use fill="#FFFFFF" fill-rule="evenodd" xlink:href="#path-5"></use></g><g id="bluex_logo" transform="translate(39.000000, 98.000000)"><g><path d="M58.6706897,29.6620257 C59.508746,29.6620257 60.2462053,29.559068 60.8785294,29.3484726 C61.5108534,29.1425571 62.0400593,28.852896 62.466399,28.4866324 C62.8927387,28.1179057 63.2162123,27.6821826 63.4365676,27.1841429 C63.6571751,26.6814233 63.7676049,26.1501317 63.7676049,25.5804157 C63.7676049,24.3976331 63.3168093,23.4734764 62.4124447,22.8081919 C61.5108534,22.1426612 60.1287161,21.8074327 58.2662847,21.8074327 L55.8985992,21.8074327 C55.4049427,21.8074327 55.0048237,22.1983273 55.0048237,22.6806031 L55.0048237,28.7888553 C55.0048237,29.2711311 55.4049427,29.6620257 55.8985992,29.6620257 L58.6706897,29.6620257 Z M62.8511384,14.0607236 C62.8511384,13.5459348 62.7651645,13.0791766 62.5939731,12.6624194 C62.4247987,12.2459084 62.1502369,11.8917141 61.7730612,11.602053 C61.3979024,11.3099288 60.9128181,11.0850474 60.3248676,10.924453 C59.7341438,10.766568 59.0186192,10.6852856 58.1805629,10.6852856 L55.8985992,10.6852856 C55.4049427,10.6852856 55.0048237,11.0759339 55.0048237,11.5582097 L55.0048237,17.0179266 C55.0048237,17.5002024 55.4049427,17.8908507 55.8985992,17.8908507 L58.1805629,17.8908507 C59.0332424,17.8908507 59.7563306,17.790356 60.3442811,17.5893667 C60.9347528,17.3881311 61.4178201,17.1105393 61.7949959,16.7563449 C62.1724237,16.4019042 62.4419431,15.9972162 62.606075,15.540064 C62.7676858,15.0804488 62.8511384,14.5873353 62.8511384,14.0607236 L62.8511384,14.0607236 Z M49.8,32.9758862 L49.8,7.49581195 C49.8,7.01353615 50.2001189,6.62264151 50.6937754,6.62264151 L58.7980118,6.62264151 C61.9689606,6.62264151 64.3459747,7.1660023 65.931323,8.24829029 C67.5166714,9.33033198 68.3083371,10.9700205 68.3083371,13.1651389 C68.3083371,13.845202 68.2274057,14.5058066 68.0632737,15.1523714 C67.9014109,15.79869 67.6490359,16.3922981 67.3058967,16.9334421 C66.9652788,17.4743398 66.5389391,17.9556303 66.0268776,18.3721413 C65.5148161,18.7886522 64.9117383,19.1142746 64.2158793,19.3512252 C64.9117383,19.4613259 65.576082,19.6815275 66.2081539,20.0071498 C66.8402259,20.3327722 67.3966609,20.7564261 67.8719125,21.2761411 C68.3474161,21.7978266 68.724844,22.41311 69.001927,23.1217451 C69.2785058,23.8279171 69.4181818,24.6227608 69.4181818,25.4942071 C69.4181818,28.2735739 68.4651575,30.3585916 66.5611259,31.7566496 C64.654573,33.1500276 61.9051735,33.8490566 58.3081371,33.8490566 L50.6937754,33.8490566 C50.2001189,33.8490566 49.8,33.458162 49.8,32.9758862 L49.8,32.9758862 Z" id="Fill-1" fill="#009BD2"></path><path d="M73.9454545,32.9758862 L73.9454545,7.49581195 C73.9454545,7.01353615 74.3514941,6.62264151 74.8524553,6.62264151 L78.4495002,6.62264151 C78.9504614,6.62264151 79.3562452,7.01353615 79.3562452,7.49581195 L79.3562452,28.5804767 C79.3562452,29.0627525 79.7625406,29.4536471 80.2632459,29.4536471 L90.3929992,29.4536471 C90.8939604,29.4536471 91.3,29.8445418 91.3,30.3268176 L91.3,32.9758862 C91.3,33.458162 90.8939604,33.8490566 90.3929992,33.8490566 L74.8524553,33.8490566 C74.3514941,33.8490566 73.9454545,33.458162 73.9454545,32.9758862" id="Fill-3" fill="#009BD2"></path><path d="M116.2,23.5305597 C116.2,25.2384889 115.961393,26.7348634 115.481647,28.0240401 C115.004685,29.3156374 114.318467,30.3905968 113.428307,31.2494025 C112.535617,32.1082081 111.448599,32.7573955 110.164723,33.1950282 C108.881101,33.6324188 107.440094,33.8490566 105.841449,33.8490566 C104.04367,33.8490566 102.504234,33.6324188 101.220612,33.1950282 C99.9369894,32.7573955 98.8939989,32.1292668 98.0946764,31.310642 C97.295607,30.4917751 96.717686,29.4966934 96.3634437,28.3205556 C96.0046469,27.1487748 95.8272727,25.8312778 95.8272727,24.3726637 L95.8272727,7.48072102 C95.8272727,7.00678035 96.2288317,6.62264151 96.7242648,6.62264151 L100.195839,6.62264151 C100.691019,6.62264151 101.092578,7.00678035 101.092578,7.48072102 L101.092578,24.0647717 C101.092578,24.9656947 101.173801,25.7632608 101.338777,26.4596486 C101.500969,27.1560364 101.786134,27.7464048 102.194272,28.2309958 C102.600132,28.7155869 103.109229,29.0779409 103.724093,29.3248354 C104.336426,29.571972 105.106144,29.694209 106.035777,29.694209 C106.903923,29.694209 107.639229,29.5884316 108.239164,29.3766348 C108.839351,29.1650801 109.33605,28.8240268 109.736849,28.3534749 C110.135372,27.882923 110.435466,27.2782734 110.634601,26.5419468 C110.836266,25.8031996 110.934441,24.9092962 110.934441,23.8599945 L110.934441,7.48072102 C110.934441,7.00678035 111.336,6.62264151 111.831433,6.62264151 L115.303008,6.62264151 C115.798188,6.62264151 116.2,7.00678035 116.2,7.48072102 L116.2,23.5305597 Z" id="Fill-5" fill="#009BD2"></path><path d="M122.236364,32.8019999 L122.544302,7.48022559 C122.550193,7.00115838 122.96129,6.6170723 123.462802,6.62264151 L138.69361,6.79185717 C139.194866,6.7974875 139.596485,7.19038626 139.590909,7.66945347 L139.559602,10.2403088 C139.553711,10.7196208 139.142614,11.1034621 138.641102,11.0978317 L128.824731,10.9888972 C128.323218,10.9832669 127.911866,11.3671081 127.906231,11.8464202 L127.845271,16.8392944 C127.839636,17.3183616 128.241255,17.7112603 128.742511,17.7168907 L138.01895,17.8199501 C138.520463,17.8255804 138.922338,18.2184792 138.916447,18.6977912 L138.886479,21.1660766 C138.880588,21.6453887 138.469492,22.0294747 137.96798,22.0238444 L128.69154,21.920785 C128.190028,21.9151547 127.779188,22.2992407 127.77304,22.7783079 L127.70286,28.5560005 C127.696968,29.0353125 128.098844,29.4282112 128.600356,29.4338416 L138.416728,29.5430209 C138.91824,29.5484064 139.31986,29.94155 139.314225,30.4206172 L139.282976,32.9914725 C139.276829,33.4705397 138.865732,33.8546258 138.364476,33.8490566 L123.133668,33.6798409 C122.632156,33.6742106 122.230537,33.2813119 122.236364,32.8019999" id="Fill-7" fill="#009BD2"></path><g id="Group-11" transform="translate(144.872727, 6.622642)"><mask id="mask-8" fill="white"><use xlink:href="#path-7"></use></mask><g id="Clip-10"></g><path d="M16.6619615,27.1845698 L20.0383482,27.1845698 C20.7236175,27.1845698 21.1464116,26.4467585 20.7934618,25.8671547 L5.29548877,0.425173585 C5.13616428,0.163701887 4.84957904,0.00377735849 4.54012663,0.00377735849 L1.11477433,0.00377735849 C0.429007914,0.00377735849 0.00621390374,0.742815094 0.360406417,1.32217358 L15.9075936,26.7641547 C16.0669181,27.0251358 16.3532548,27.1845698 16.6619615,27.1845698" id="Fill-9" fill="#97E4FF" mask="url(#mask-8)"></path></g><path d="M149.821015,33.8490566 L146.496171,33.8490566 C145.821608,33.8490566 145.405024,33.1100069 145.752585,32.5294302 L161.014213,7.04474504 C161.171106,6.78283447 161.453316,6.62264151 161.758044,6.62264151 L165.131106,6.62264151 C165.806403,6.62264151 166.222743,7.36291971 165.873958,7.94325065 L150.563867,33.4279358 C150.406974,33.689355 150.125009,33.8490566 149.821015,33.8490566" id="Fill-12" fill="#97E4FF"></path><g id="Group-16" transform="translate(6.036364, 0.000000)"><mask id="mask-10" fill="white"><use xlink:href="#path-9"></use></mask><g id="Clip-15"></g><path d="M1.49331494,35.4015431 C5.95430709,35.0422556 13.0212278,31.1576119 19.291088,25.0372931 C20.9358994,23.4314681 22.4181523,21.7781119 23.7231143,20.1225619 C24.013522,19.7542556 24.013522,19.2406744 23.7231143,18.8723681 C22.4181523,17.2170619 20.9358994,15.5634619 19.2908383,13.9576369 C14.0365312,8.82864938 8.09128838,5.46563063 3.55937982,3.95048063 C3.55937982,3.95048063 0.69250879,3.18583688 0.46078191,2.11260563 C0.229055029,1.03888688 1.45436085,0.528718125 1.81168969,0.402211875 C6.78382939,-1.03761938 15.771736,3.05469938 23.6397126,10.7355056 C24.6912232,11.7619369 25.6750637,12.8081119 26.5897356,13.8613556 C26.9580515,14.2862119 27.6427445,14.2018744 27.8961958,13.7034056 C29.4109105,10.7294119 30.2371866,8.01476813 30.1982325,5.75569313 C30.1795046,4.54035563 30.8105109,4.08746813 31.6949684,4.16595563 C32.283275,4.21836188 33.0321424,4.71439313 33.6923643,5.75301188 C35.4745138,8.60123063 34.3708146,13.5361931 31.1168998,18.9596306 C30.9176346,19.2916181 30.9176346,19.7037994 31.1168998,20.0355431 C34.7268949,26.0522681 35.6597954,31.5378619 32.9794545,34.1542744 C32.6720668,34.4540869 32.3149877,34.6932056 31.9331877,34.9006369 C30.8966593,35.3091619 30.1745105,34.5983869 30.1670193,33.2129119 C30.1864964,30.9682181 29.3936808,28.2316369 27.8964455,25.2917681 C27.6427445,24.7932994 26.9580515,24.7089619 26.5897356,25.1338181 C25.6750637,26.1873056 24.6912232,27.2332369 23.6397126,28.2599119 C15.3397452,36.3619181 6.07915993,40.3379681 1.31652331,38.1715181 C-0.416184474,37.2001744 0.035283414,35.4600431 1.49331494,35.4015431" id="Fill-14" fill="#009BD2" mask="url(#mask-10)"></path></g><g id="Group-19"><mask id="mask-12" fill="white"><use xlink:href="#path-11"></use></mask><g id="Clip-18"></g><path d="M33.2868985,35.4015431 C28.7935803,35.0422556 21.67545,31.1576119 15.3604076,25.0372931 C13.7036773,23.4314681 12.2106833,21.7781119 10.8960136,20.1225619 C10.6035015,19.7542556 10.6035015,19.2406744 10.8960136,18.8723681 C12.2106833,17.2170619 13.7036773,15.5634619 15.3604076,13.9576369 C20.6530409,8.82864938 26.6411136,5.46563063 31.2058621,3.95048063 C31.2058621,3.95048063 34.0935076,3.18583688 34.3271652,2.11260563 C34.5603197,1.03888688 33.3261348,0.528718125 32.9662167,0.402211875 C27.9582985,-1.03761938 18.9052621,3.05469938 10.9800197,10.7355056 C9.92114091,11.7619369 8.9299197,12.8081119 8.00887121,13.8613556 C7.63763485,14.2862119 6.94823182,14.2018744 6.69269242,13.7034056 C5.16700152,10.7294119 4.33498939,8.01476813 4.37397424,5.75569313 C4.39283788,4.54035563 3.75725909,4.08746813 2.86639242,4.16595563 C2.27382273,4.21836188 1.51952879,4.71439313 0.854522727,5.75301188 C-0.940289394,8.60123063 0.171156061,13.5361931 3.44890152,18.9596306 C3.64935909,19.2916181 3.64935909,19.7037994 3.44890152,20.0355431 C-0.18725303,26.0522681 -1.12691364,31.5378619 1.57259848,34.1542744 C1.88221364,34.4540869 2.2418803,34.6932056 2.62644697,34.9006369 C3.67048636,35.3091619 4.3981197,34.5983869 4.40541364,33.2129119 C4.38579545,30.9682181 5.18460758,28.2316369 6.69269242,25.2917681 C6.94823182,24.7932994 7.63763485,24.7089619 8.0086197,25.1338181 C8.9299197,26.1873056 9.92114091,27.2332369 10.9800197,28.2599119 C19.3403833,36.3619181 28.6678227,40.3379681 33.4649712,38.1715181 C35.2102348,37.2001744 34.7554955,35.4600431 33.2868985,35.4015431" id="Fill-17" fill="#97E4FF" mask="url(#mask-12)"></path></g></g></g><text id="Open-Freight-Marketp" font-family="Roboto-Medium, Roboto" font-size="12" font-weight="400" fill="#009BD2"><tspan x="74.1572266" y="158">Freight Commerce</tspan><tspan x="90.5283203" y="176">Marketplace</tspan></text></g><g id="Group-5" transform="translate(71.000000, 0.000000)"><circle id="Oval" fill="#91D3F1" cx="33.5" cy="33.5" r="33.5"></circle><text id="Booking" font-family="Roboto-Medium, Roboto" font-size="9" font-weight="400" fill="#0F324C"><tspan x="17" y="54">Booking</tspan></text><g id="Group-18" transform="translate(16.000000, 11.000000)"><path d="M27.7167,22.5001 L2.7837,22.5001 C1.5227,22.5001 0.4997,21.4781 0.4997,20.2161 L0.4997,2.7831 C0.4997,1.5221 1.5227,0.5001 2.7837,0.5001 L27.7167,0.5001 C28.9777,0.5001 29.9997,1.5221 29.9997,2.7831 L29.9997,20.2161 C29.9997,21.4781 28.9777,22.5001 27.7167,22.5001" id="Fill-1" fill="#FEFEFE"></path><path d="M27.7167,22.5001 L2.7837,22.5001 C1.5227,22.5001 0.4997,21.4781 0.4997,20.2161 L0.4997,2.7831 C0.4997,1.5221 1.5227,0.5001 2.7837,0.5001 L27.7167,0.5001 C28.9777,0.5001 29.9997,1.5221 29.9997,2.7831 L29.9997,20.2161 C29.9997,21.4781 28.9777,22.5001 27.7167,22.5001 Z" id="Stroke-3" stroke="#0F324C"></path><mask id="mask-14" fill="white"><use xlink:href="#path-13"></use></mask><g id="Clip-6"></g><polygon id="Fill-5" fill="#FEFEFE" mask="url(#mask-14)" points="7.187 28.8333 23.312 28.8333 23.312 26.3643 7.187 26.3643"></polygon><polygon id="Stroke-7" stroke="#0F324C" mask="url(#mask-14)" points="7.187 28.8333 23.312 28.8333 23.312 26.3643 7.187 26.3643"></polygon><polygon id="Fill-8" fill="#FEFEFE" mask="url(#mask-14)" points="12.562 26.3643 17.937 26.3643 17.937 22.5003 12.562 22.5003"></polygon><polygon id="Stroke-9" stroke="#0F324C" mask="url(#mask-14)" points="12.562 26.3643 17.937 26.3643 17.937 22.5003 12.562 22.5003"></polygon><path d="M32.2616,30.9581 L23.6316,30.9581 C22.4406,30.9581 21.4746,29.9921 21.4746,28.8021 L21.4746,14.6151 C21.4746,13.4241 22.4406,12.4581 23.6316,12.4581 L32.2616,12.4581 C33.4526,12.4581 34.4186,13.4241 34.4186,14.6151 L34.4186,28.8021 C34.4186,29.9921 33.4526,30.9581 32.2616,30.9581" id="Fill-10" fill="#FEFEFE" mask="url(#mask-14)"></path><path d="M32.2616,30.9581 L23.6316,30.9581 C22.4406,30.9581 21.4746,29.9921 21.4746,28.8021 L21.4746,14.6151 C21.4746,13.4241 22.4406,12.4581 23.6316,12.4581 L32.2616,12.4581 C33.4526,12.4581 34.4186,13.4241 34.4186,14.6151 L34.4186,28.8021 C34.4186,29.9921 33.4526,30.9581 32.2616,30.9581 Z" id="Stroke-11" stroke="#0F324C" mask="url(#mask-14)"></path><g id="Group-14" mask="url(#mask-14)"><g transform="translate(10.000000, 6.458300)"><polyline id="Fill-12" stroke="none" fill="#FEFEFE" fill-rule="evenodd" points="0.7723 4.7811 4.0853 8.2091 10.5853 0.2811"></polyline><polyline id="Stroke-13" stroke="#0F324C" stroke-width="1" fill="none" points="0.7723 4.7811 4.0853 8.2091 10.5853 0.2811"></polyline></g></g><g id="Group-17" mask="url(#mask-14)"><g transform="translate(25.000000, 18.458300)"><polyline id="Fill-15" stroke="none" fill="#FEFEFE" fill-rule="evenodd" points="0.0936 3.6482 2.3416 5.9732 6.7536 0.5932"></polyline><polyline id="Stroke-16" stroke="#0F324C" stroke-width="1" fill="none" points="0.0936 3.6482 2.3416 5.9732 6.7536 0.5932"></polyline></g></g></g></g><g id="Group-4" transform="translate(0.000000, 68.000000)"><circle id="Oval-Copy-2" fill="#91D3F1" cx="33.5" cy="33.5" r="33.5"></circle><g id="Group-25-Copy" transform="translate(18.000000, 13.000000)"><path d="M12.8276,6.6636 C12.8276,10.0676 10.0676,12.8276 6.6636,12.8276 C3.2596,12.8276 0.5006,10.0676 0.5006,6.6636 C0.5006,3.2596 3.2596,0.4996 6.6636,0.4996 C10.0676,0.4996 12.8276,3.2596 12.8276,6.6636" id="Fill-1" fill="#FEFEFE"></path><path d="M12.8276,6.6636 C12.8276,10.0676 10.0676,12.8276 6.6636,12.8276 C3.2596,12.8276 0.5006,10.0676 0.5006,6.6636 C0.5006,3.2596 3.2596,0.4996 6.6636,0.4996 C10.0676,0.4996 12.8276,3.2596 12.8276,6.6636 Z" id="Stroke-3" stroke="#0F324C"></path><path d="M5.1215,8.2066 C5.1215,9.0586 5.8115,9.7486 6.6635,9.7486 C7.5165,9.7486 8.2065,9.0586 8.2065,8.2066 C8.2065,7.3536 7.5165,6.6636 6.6635,6.6636 C5.8115,6.6636 5.1215,5.9736 5.1215,5.1216 C5.1215,4.2686 5.8115,3.5786 6.6635,3.5786 C7.5165,3.5786 8.2065,4.2686 8.2065,5.1216" id="Stroke-5" stroke="#0F324C"></path><line x1="6.6635" y1="2.4254" x2="6.6635" y2="10.9034" id="Stroke-7" stroke="#0F324C"></line><path d="M18.9916,22.7965 C18.9916,26.2005 16.2316,28.9605 12.8276,28.9605 C9.4236,28.9605 6.6636,26.2005 6.6636,22.7965 C6.6636,19.3925 9.4236,16.6335 12.8276,16.6335 C16.2316,16.6335 18.9916,19.3925 18.9916,22.7965" id="Fill-9" fill="#FEFEFE"></path><path d="M18.9916,22.7965 C18.9916,26.2005 16.2316,28.9605 12.8276,28.9605 C9.4236,28.9605 6.6636,26.2005 6.6636,22.7965 C6.6636,19.3925 9.4236,16.6335 12.8276,16.6335 C16.2316,16.6335 18.9916,19.3925 18.9916,22.7965 Z" id="Stroke-11" stroke="#0F324C"></path><path d="M11.2846,24.3394 C11.2846,25.1914 11.9756,25.8814 12.8276,25.8814 C13.6796,25.8814 14.3706,25.1914 14.3706,24.3394 C14.3706,23.4864 13.6796,22.7964 12.8276,22.7964 C11.9756,22.7964 11.2846,22.1064 11.2846,21.2544 C11.2846,20.4014 11.9756,19.7114 12.8276,19.7114 C13.6796,19.7114 14.3706,20.4014 14.3706,21.2544" id="Stroke-13" stroke="#0F324C"></path><line x1="12.8276" y1="18.5582" x2="12.8276" y2="27.0362" id="Stroke-15" stroke="#0F324C"></line><path d="M30.3188,10.0611 C30.3188,13.4651 27.5588,16.2251 24.1558,16.2251 C20.7518,16.2251 17.9918,13.4651 17.9918,10.0611 C17.9918,6.6571 20.7518,3.8981 24.1558,3.8981 C27.5588,3.8981 30.3188,6.6571 30.3188,10.0611" id="Fill-17" fill="#FEFEFE"></path><path d="M30.3188,10.0611 C30.3188,13.4651 27.5588,16.2251 24.1558,16.2251 C20.7518,16.2251 17.9918,13.4651 17.9918,10.0611 C17.9918,6.6571 20.7518,3.8981 24.1558,3.8981 C27.5588,3.8981 30.3188,6.6571 30.3188,10.0611 Z" id="Stroke-19" stroke="#0F324C"></path><path d="M22.6127,11.6041 C22.6127,12.4561 23.3027,13.1471 24.1557,13.1471 C25.0077,13.1471 25.6977,12.4561 25.6977,11.6041 C25.6977,10.7521 25.0077,10.0611 24.1557,10.0611 C23.3027,10.0611 22.6127,9.3711 22.6127,8.5191 C22.6127,7.6661 23.3027,6.9761 24.1557,6.9761 C25.0077,6.9761 25.6977,7.6661 25.6977,8.5191" id="Stroke-21" stroke="#0F324C"></path><line x1="24.1557" y1="5.8228" x2="24.1557" y2="14.3008" id="Stroke-23" stroke="#0F324C"></line></g><text id="Financing" font-family="Roboto-Medium, Roboto" font-size="9" font-weight="400" fill="#0F324C"><tspan x="13" y="54">Payments</tspan></text></g><g id="Group-4-Copy-2" transform="translate(71.000000, 226.000000)"><circle id="Oval-Copy-2" fill="#91D3F1" cx="33.5" cy="33.5" r="33.5"></circle><rect id="Rectangle" fill="#FFFFFF" x="21" y="27" width="26" height="12"></rect><circle id="Oval" fill="#FFFFFF" cx="34" cy="10" r="1"></circle><g id="container" transform="translate(20.000000, 8.000000)" fill="#0F324C" fill-rule="nonzero"><path d="M4.5,20 C4.22385763,20 4,20.2323724 4,20.5190183 L4,28.4809817 C4,28.7676276 4.22385763,29 4.5,29 C4.77614237,29 5,28.7676276 5,28.4809817 L5,20.5190183 C5,20.2323724 4.77614237,20 4.5,20 L4.5,20 Z" id="Path"></path><path d="M9.5,20 C9.22385763,20 9,20.2323724 9,20.5190183 L9,28.4809817 C9,28.7676276 9.22385763,29 9.5,29 C9.77614237,29 10,28.7676276 10,28.4809817 L10,20.5190183 C10,20.2323724 9.77614237,20 9.5,20 L9.5,20 Z" id="Path"></path><path d="M14.5,20 C14.2238576,20 14,20.2323724 14,20.5190183 L14,28.4809817 C14,28.7676276 14.2238576,29 14.5,29 C14.7761424,29 15,28.7676276 15,28.4809817 L15,20.5190183 C15,20.2323724 14.7761424,20 14.5,20 L14.5,20 Z" id="Path"></path><path d="M18.5,20 C18.2238576,20 18,20.2323724 18,20.5190183 L18,28.4809817 C18,28.7676276 18.2238576,29 18.5,29 C18.7761424,29 19,28.7676276 19,28.4809817 L19,20.5190183 C19,20.2323724 18.7761424,20 18.5,20 L18.5,20 Z" id="Path"></path><path d="M23.5,20 C23.2238576,20 23,20.2323724 23,20.5190183 L23,28.4809817 C23,28.7676276 23.2238576,29 23.5,29 C23.7761424,29 24,28.7676276 24,28.4809817 L24,20.5190183 C24,20.2323724 23.7761424,20 23.5,20 L23.5,20 Z" id="Path"></path><path d="M0.473370175,32 L27.5265552,32 C27.7905857,31.9934615 28.0009847,31.7737343 27.9999895,31.5055794 L27.9999895,18.416 C27.9999895,18.4011674 27.9991067,18.3864721 27.9977541,18.3718455 C27.9977541,18.3703348 27.9977541,18.368824 27.9977541,18.3673133 C27.9966043,18.3556395 27.9945753,18.3441717 27.9925463,18.3329785 C27.9843166,18.2853493 27.9689912,18.2392703 27.947097,18.1963262 C27.9460825,18.1943348 27.9452709,18.192206 27.9441888,18.1902146 C27.9394545,18.1812189 27.9341114,18.1727039 27.9288361,18.1640515 C27.9259955,18.1593133 27.9233578,18.1544378 27.9203143,18.1498369 C27.9164592,18.144 27.9121307,18.1385064 27.9080051,18.1328069 C27.9030003,18.1259399 27.8981307,18.119073 27.8926524,18.112206 C27.89015,18.1091845 27.8873771,18.1063691 27.8848747,18.1034163 C27.8773674,18.0945579 27.8697925,18.0857682 27.8616765,18.0775279 L27.8599181,18.0758798 C27.837882,18.0537331 27.8137565,18.0338378 27.787889,18.0164807 C27.7759856,18.0084464 27.763744,18.0008927 27.7510967,17.9939571 L27.7502174,17.9935451 C27.7364081,17.9859607 27.7222324,17.9790851 27.7077439,17.9729442 L27.6972608,17.9729442 L14.6086594,12.4991588 L14.6086594,11.5410129 C15.590328,11.252478 16.2693502,10.3443016 16.2791935,9.30671245 C16.2821376,8.21065965 15.5289617,7.26214989 14.4733934,7.03258369 L14.4733934,4.6695279 L14.9078,4.6695279 C15.1256902,4.6679047 15.3147679,4.51649538 15.3670954,4.30173391 L16.2749327,0.612944206 C16.3102632,0.466836245 16.2785878,0.312342868 16.1887683,0.192686695 C16.0998966,0.0739760038 15.9624684,0.00300741023 15.8156372,0 L12.1842882,0 C12.0376366,0.00317769996 11.9003349,0.0737782341 11.8110311,0.191928898 C11.7217273,0.310079562 11.6900783,0.463003909 11.7249927,0.607656652 L12.63283,4.30001717 C12.6849708,4.51515351 12.8739279,4.66717261 13.0921254,4.6695279 L13.526532,4.6695279 L13.526532,7.46327897 C13.526532,7.7287549 13.7384941,7.94396567 13.9999627,7.94396567 C14.5428558,7.94396567 15.0322908,8.27601242 15.2400407,8.78527008 C15.4477906,9.29452775 15.3329415,9.88070435 14.9490485,10.2704614 C14.5651554,10.6602185 13.9878213,10.7767983 13.4862614,10.5658387 C12.9847014,10.3548791 12.6576916,9.85792609 12.6577189,9.30671245 C12.6577189,9.04123652 12.4457568,8.82602575 12.1842882,8.82602575 C11.9208683,8.82523276 11.7056083,9.03929656 11.7009154,9.30671245 C11.7092517,10.4586212 12.54027,11.4338588 13.6617979,11.607897 L13.6617979,12.4963433 L0.286500299,17.9708155 C0.285688704,17.9708155 0.289949581,17.9715708 0.289137985,17.9719142 C0.27851961,17.976309 0.270741819,17.9813906 0.260529242,17.9865408 C0.256403631,17.9886009 0.253427781,17.9904549 0.249437436,17.9925837 C0.241253847,17.9970472 0.23401712,18.0020601 0.226171697,18.0069356 C0.220490528,18.0104378 0.214876992,18.0138026 0.209398722,18.0174421 C0.20500258,18.0204635 0.201012235,18.023897 0.196751358,18.0270558 C0.105338308,18.0931674 0.0404964035,18.1905554 0.0141423591,18.3013219 C0.0127896998,18.3068155 0.0111665087,18.3121717 0.0100167484,18.3176652 C0.00886698799,18.3231588 0.00798775947,18.3305064 0.00690563207,18.3368927 C0.00535007393,18.3464378 0.00365924987,18.3559142 0.00264475543,18.3655279 C0.00217132469,18.3698541 0.00210369173,18.3743176 0.00176552691,18.3786438 C0.000818665439,18.3905236 3.5224018e-06,18.4023348 3.5224018e-06,18.4143519 L3.5224018e-06,18.4166867 L3.5224018e-06,31.5055794 C-0.000992496274,31.7737082 0.209366288,31.9934248 0.473370175,32 Z M13.4617396,3.70815451 L12.7906853,0.961373391 L15.2092401,0.961373391 L14.5381858,3.70815451 L13.4617396,3.70815451 Z M14.1530837,13.3266266 L25.1355947,17.9227468 L2.91573172,17.9227468 L14.1530837,13.3266266 Z M0.946800913,18.8841202 L27.0531245,18.8841202 L27.0531245,31.0386266 L0.946800913,31.0386266 L0.946800913,18.8841202 Z" id="Shape"></path></g><text id="Customs" font-family="Roboto-Medium, Roboto" font-size="9" font-weight="400" fill="#0F324C"><tspan x="15" y="54">Customs</tspan></text></g><g id="Group-5-Copy" transform="translate(1.000000, 169.000000)"><circle id="Oval" fill="#91D3F1" cx="33.5" cy="33.5" r="33.5"></circle><g id="Group-26-Copy" transform="translate(19.000000, 12.000000)"><path d="M4.7247,12.9117 C3.4297,12.9117 2.3767,11.8587 2.3767,10.5647 C2.3767,9.2707 3.4297,8.2187 4.7247,8.2187 C6.0187,8.2187 7.0717,9.2707 7.0717,10.5647 C7.0717,11.8587 6.0187,12.9117 4.7247,12.9117 M8.1287,12.2877 C8.6607,10.7257 8.1257,8.7237 6.9127,7.7277 C6.2787,7.2077 5.5007,6.9477 4.7247,6.9477 C3.9477,6.9477 3.1697,7.2077 2.5367,7.7277 C1.3517,8.6987 0.8027,10.5667 1.2587,12.0717 C1.7647,13.7387 3.2797,15.1517 4.7247,16.3567 C6.0897,15.2267 7.5657,13.9447 8.1287,12.2877" id="Fill-1" fill="#FEFEFE"></path><path d="M22.5382,18.4576 C21.7142,18.4576 21.0432,19.1286 21.0432,19.9516 C21.0432,20.7756 21.7142,21.4466 22.5382,21.4466 C23.3622,21.4466 24.0322,20.7756 24.0322,19.9516 C24.0322,19.1286 23.3622,18.4576 22.5382,18.4576" id="Fill-3" fill="#FEFEFE"></path><path d="M16.5695,4.2662 C16.5695,3.0792 17.5355,2.1132 18.7225,2.1132 C19.9105,2.1132 20.8765,3.0792 20.8765,4.2662 C20.8765,5.4532 19.9105,6.4192 18.7225,6.4192 C17.5355,6.4192 16.5695,5.4532 16.5695,4.2662 M21.7055,5.7852 C22.1725,4.4122 21.7035,2.6542 20.6375,1.7802 C20.0835,1.3252 19.4025,1.0972 18.7225,1.0972 C18.0435,1.0972 17.3625,1.3252 16.8075,1.7802 C15.7685,2.6322 15.2875,4.2722 15.6875,5.5932 C16.1295,7.0522 17.4525,8.2952 18.7235,9.3572 C19.9245,8.3632 21.2135,7.2332 21.7055,5.7852" id="Fill-5" fill="#FEFEFE"></path><path d="M18.7228,3.2105 C18.1408,3.2105 17.6668,3.6845 17.6668,4.2665 C17.6668,4.8485 18.1408,5.3215 18.7228,5.3215 C19.3048,5.3215 19.7788,4.8485 19.7788,4.2665 C19.7788,3.6845 19.3048,3.2105 18.7228,3.2105" id="Fill-7" fill="#FEFEFE"></path><path d="M4.7247,9.316 C4.0357,9.316 3.4757,9.877 3.4757,10.565 C3.4757,11.253 4.0357,11.814 4.7247,11.814 C5.4127,11.814 5.9727,11.253 5.9727,10.565 C5.9727,9.877 5.4127,9.316 4.7247,9.316" id="Fill-9" fill="#FEFEFE"></path><path d="M22.5382,22.5445 C21.1082,22.5445 19.9452,21.3815 19.9452,19.9515 C19.9452,18.5235 21.1082,17.3595 22.5382,17.3595 C23.9682,17.3595 25.1312,18.5235 25.1312,19.9515 C25.1312,21.3815 23.9682,22.5445 22.5382,22.5445 M25.0722,16.6695 C24.3662,16.0905 23.4672,15.7715 22.5382,15.7715 C21.6092,15.7715 20.7102,16.0905 20.0042,16.6695 C18.6362,17.7915 18.0012,19.9475 18.5282,21.6865 C19.1132,23.6185 20.8732,25.2475 22.5382,26.6315 C24.1112,25.3315 25.8242,23.8565 26.4782,21.9345 C27.0922,20.1315 26.4742,17.8185 25.0722,16.6695" id="Fill-11" fill="#FEFEFE"></path><path d="M18.7228,5.3219 C18.1408,5.3219 17.6668,4.8479 17.6668,4.2659 C17.6668,3.6839 18.1408,3.2109 18.7228,3.2109 C19.3048,3.2109 19.7788,3.6839 19.7788,4.2659 C19.7788,4.8479 19.3048,5.3219 18.7228,5.3219 M20.8758,4.2659 C20.8758,3.0789 19.9098,2.1129 18.7228,2.1129 C17.5358,2.1129 16.5698,3.0789 16.5698,4.2659 C16.5698,5.4539 17.5358,6.4199 18.7228,6.4199 C19.9098,6.4199 20.8758,5.4539 20.8758,4.2659" id="Fill-13" fill="#0A304A"></path><path d="M4.7247,11.814 C4.0357,11.814 3.4757,11.253 3.4757,10.565 C3.4757,9.877 4.0357,9.316 4.7247,9.316 C5.4127,9.316 5.9727,9.877 5.9727,10.565 C5.9727,11.253 5.4127,11.814 4.7247,11.814 M7.0717,10.565 C7.0717,9.271 6.0187,8.218 4.7247,8.218 C3.4297,8.218 2.3767,9.271 2.3767,10.565 C2.3767,11.859 3.4297,12.912 4.7247,12.912 C6.0187,12.912 7.0717,11.859 7.0717,10.565" id="Fill-15" fill="#0A304A"></path><g id="Group-19" transform="translate(0.000000, 4.891800)"><mask id="mask-16" fill="white"><use xlink:href="#path-15"></use></mask><g id="Clip-18"></g><path d="M26.4787,17.0424 C25.8247,18.9644 24.1117,20.4394 22.5387,21.7394 C20.8737,20.3554 19.1137,18.7274 18.5287,16.7944 C18.0007,15.0564 18.6357,12.8994 20.0037,11.7774 C20.7097,11.1984 21.6097,10.8794 22.5387,10.8794 C23.4667,10.8794 24.3667,11.1984 25.0727,11.7774 C26.4737,12.9274 27.0917,15.2394 26.4787,17.0424 M1.2587,7.1804 C0.8027,5.6754 1.3517,3.8074 2.5367,2.8364 C3.1697,2.3154 3.9477,2.0564 4.7247,2.0564 C5.5007,2.0564 6.2787,2.3154 6.9127,2.8364 C8.1257,3.8314 8.6607,5.8344 8.1287,7.3964 C7.5657,9.0534 6.0897,10.3354 4.7247,11.4654 C3.2797,10.2604 1.7647,8.8474 1.2587,7.1804 M25.7687,10.9284 C23.8967,9.3934 21.1797,9.3934 19.3077,10.9284 C17.5887,12.3384 16.8187,14.9394 17.4777,17.1124 C18.0497,19.0014 19.5107,20.5624 21.0367,21.9014 L14.3297,21.9014 L5.7037,14.8354 L10.4967,12.2294 C11.1157,11.8934 10.5907,10.9274 9.9707,11.2644 L5.2737,13.8194 L5.2737,12.4364 C6.7227,11.2404 8.4857,9.7584 9.1677,7.7504 C9.8477,5.7514 9.1777,3.2734 7.6087,1.9864 C5.9377,0.6154 3.5107,0.6154 1.8397,1.9864 C0.3077,3.2434 -0.3783,5.5624 0.2077,7.4984 C0.8187,9.5134 2.5627,11.1024 4.1757,12.4364 L4.1757,14.7424 C4.1757,14.9044 4.2507,15.0644 4.3757,15.1674 L13.7857,22.8754 C13.8827,22.9554 14.0057,23.0004 14.1327,23.0004 L22.5387,23.0004 C22.7327,23.0004 22.8677,22.8924 23.0097,22.7734 C24.6677,21.4064 26.7327,19.7064 27.5177,17.3964 C28.2817,15.1524 27.5297,12.3724 25.7687,10.9284" id="Fill-17" fill="#0A304A" mask="url(#mask-16)"></path></g><path d="M22.5382,21.4469 C21.7142,21.4469 21.0432,20.7759 21.0432,19.9519 C21.0432,19.1289 21.7142,18.4579 22.5382,18.4579 C23.3622,18.4579 24.0322,19.1289 24.0322,19.9519 C24.0322,20.7759 23.3622,21.4469 22.5382,21.4469 M22.5382,17.3599 C21.1082,17.3599 19.9452,18.5229 19.9452,19.9519 C19.9452,21.3819 21.1082,22.5449 22.5382,22.5449 C23.9682,22.5449 25.1312,21.3819 25.1312,19.9519 C25.1312,18.5229 23.9682,17.3599 22.5382,17.3599" id="Fill-20" fill="#0A304A"></path><path d="M15.6876,5.5933 C15.2876,4.2723 15.7686,2.6323 16.8076,1.7803 C17.3626,1.3243 18.0426,1.0973 18.7226,1.0973 C19.4026,1.0973 20.0836,1.3243 20.6376,1.7803 C21.7036,2.6543 22.1716,4.4123 21.7056,5.7843 C21.2126,7.2333 19.9246,8.3633 18.7236,9.3573 C17.4526,8.2953 16.1286,7.0523 15.6876,5.5933 M14.1256,15.0713 C14.2146,15.0713 14.3046,15.0493 14.3876,15.0043 L18.9856,12.5043 C19.1626,12.4073 19.2716,12.2233 19.2716,12.0223 L19.2716,10.3283 C20.5666,9.2613 22.1326,7.9363 22.7446,6.1383 C23.3586,4.3323 22.7516,2.0943 21.3336,0.9313 C19.8216,-0.3097 17.6246,-0.3097 16.1116,0.9313 C14.7266,2.0673 14.1056,4.1613 14.6366,5.9113 C15.1836,7.7163 16.7346,9.1373 18.1736,10.3283 L18.1736,11.6953 L13.8636,14.0393 C13.3746,14.3053 13.5706,15.0713 14.1256,15.0713" id="Fill-22" fill="#0A304A"></path><path d="M12.1798,16.066 C12.4788,16.066 12.7288,15.815 12.7288,15.517 C12.7288,15.218 12.4788,14.968 12.1798,14.968 C11.8908,14.968 11.6448,15.204 11.6318,15.493 C11.6178,15.8 11.8718,16.066 12.1798,16.066" id="Fill-24" fill="#0A304A"></path></g><text id="Tracking" font-family="Roboto-Medium, Roboto" font-size="9" font-weight="400" fill="#0F324C"><tspan x="17" y="54">Tracking</tspan></text></g><g id="Group-3" transform="translate(159.000000, 226.000000)"><circle id="Oval-Copy-5" fill="#91D3F1" cx="33.5" cy="33.5" r="33.5"></circle><g id="Group-20-Copy" transform="translate(21.000000, 13.000000)"><polygon id="Fill-1" fill="#FEFEFE" points="0.5004 0.5 0.5004 28.499 23.4994 28.499 23.4994 5.361 18.1254 0.5"></polygon><polygon id="Stroke-2" stroke="#0F324C" points="23.5002 28.4987 0.5002 28.4987 0.5002 0.4997 18.1252 0.4997 23.5002 5.3607"></polygon><polygon id="Fill-4" fill="#FEFEFE" points="18.1251 5.3609 23.5001 5.3609 18.1251 0.4999"></polygon><g id="Group-19" transform="translate(5.000000, -0.001500)"><polygon id="Stroke-5" stroke="#0F324C" stroke-linecap="round" stroke-linejoin="round" points="13.1252 0.5012 18.5002 5.3622 13.1252 5.3622"></polygon><path d="M7.0002,5.3049 L1.8812,8.2959 C1.8812,8.2959 1.8812,16.4429 7.0002,18.0339 C12.1192,16.4429 12.1182,8.2959 12.1182,8.2959 L7.0002,5.3049 Z" id="Fill-7" fill="#FEFEFE"></path><path d="M7.0002,5.3049 L1.8812,8.2959 C1.8812,8.2959 1.8812,16.4429 7.0002,18.0339 C12.1192,16.4429 12.1182,8.2959 12.1182,8.2959 L7.0002,5.3049 Z" id="Stroke-9" stroke="#0F324C"></path><g id="Group-14" transform="translate(2.000000, 20.000000)"><line x1="0.6281" y1="1.1184" x2="9.3721" y2="1.1184" id="Fill-11" fill="#FEFEFE"></line><line x1="0.6281" y1="1.1184" x2="9.3721" y2="1.1184" id="Stroke-13" stroke="#0F324C"></line></g><g id="Group-18" transform="translate(0.000000, 23.000000)"><line x1="0.1281" y1="0.6965" x2="13.8721" y2="0.6965" id="Fill-15" fill="#FEFEFE"></line><line x1="0.1281" y1="0.6965" x2="13.8721" y2="0.6965" id="Stroke-17" stroke="#0F324C"></line></g></g></g><text id="Insurance" font-family="Roboto-Medium, Roboto" font-size="9" font-weight="400" fill="#0F324C"><tspan x="13" y="53">Insurance</tspan></text></g><g id="Group-3-Copy" transform="translate(162.000000, 1.000000)"><circle id="Oval-Copy-5" fill="#91D3F1" cx="33.5" cy="33.5" r="33.5"></circle><g id="Group-23-Copy" transform="translate(15.000000, 15.000000)"><polygon id="Fill-1" fill="#FEFEFE" points="2.233 18.5225 22.116 18.5225 22.116 1.5005 2.233 1.5005"></polygon><polygon id="Stroke-2" stroke="#0F324C" points="2.233 18.5225 22.116 18.5225 22.116 1.5005 2.233 1.5005"></polygon><polygon id="Fill-4" fill="#FEFEFE" points="22.1166 5.4857 22.1166 18.5217 35.1516 18.5217 35.1516 10.8217 30.7026 5.4857"></polygon><g id="Group-22" transform="translate(0.000000, 0.299500)"><polygon id="Stroke-5" stroke="#0F324C" points="22.1164 18.2228 35.1514 18.2228 35.1514 10.5228 30.7024 5.1868 22.1164 5.1868"></polygon><path d="M11.0031,18.8478 C11.0031,20.3128 9.8161,21.4998 8.3521,21.4998 C6.8871,21.4998 5.6991,20.3128 5.6991,18.8478 C5.6991,17.3838 6.8871,16.1968 8.3521,16.1968 C9.8161,16.1968 11.0031,17.3838 11.0031,18.8478" id="Fill-7" fill="#FEFEFE"></path><path d="M11.0031,18.8478 C11.0031,20.3128 9.8161,21.4998 8.3521,21.4998 C6.8871,21.4998 5.6991,20.3128 5.6991,18.8478 C5.6991,17.3838 6.8871,16.1968 8.3521,16.1968 C9.8161,16.1968 11.0031,17.3838 11.0031,18.8478 Z" id="Stroke-9" stroke="#0F324C"></path><path d="M28.634,18.8478 C28.634,20.3128 27.447,21.4998 25.982,21.4998 C24.518,21.4998 23.33,20.3128 23.33,18.8478 C23.33,17.3838 24.518,16.1968 25.982,16.1968 C27.447,16.1968 28.634,17.3838 28.634,18.8478" id="Fill-11" fill="#FEFEFE"></path><path d="M28.634,18.8478 C28.634,20.3128 27.447,21.4998 25.982,21.4998 C24.518,21.4998 23.33,20.3128 23.33,18.8478 C23.33,17.3838 24.518,16.1968 25.982,16.1968 C27.447,16.1968 28.634,17.3838 28.634,18.8478 Z" id="Stroke-13" stroke="#0F324C"></path><polygon id="Fill-15" fill="#FEFEFE" points="35.1516 11.7042 26.6386 11.7042 26.6386 8.4452 33.4206 8.4452 35.1516 10.5222"></polygon><polygon id="Stroke-17" stroke="#0F324C" points="35.1516 11.7042 26.6386 11.7042 26.6386 8.4452 33.4206 8.4452 35.1516 10.5222"></polygon><mask id="mask-18" fill="white"><use xlink:href="#path-17"></use></mask><g id="Clip-20"></g><polygon id="Fill-19" fill="#FEFEFE" mask="url(#mask-18)" points="0.501 18.223 2.234 18.223 2.234 14.17 0.501 14.17"></polygon><polygon id="Stroke-21" stroke="#0F324C" mask="url(#mask-18)" points="0.501 18.223 2.234 18.223 2.234 14.17 0.501 14.17"></polygon></g></g><text id="Trucking" font-family="Roboto-Medium, Roboto" font-size="9" font-weight="400" fill="#0F324C"><tspan x="15" y="53">Trucking</tspan></text></g><g id="Group-7" transform="translate(226.000000, 169.000000)"><circle id="Oval-Copy-6" fill="#91D3F1" cx="33.5" cy="33.5" r="33.5"></circle><text id="Financing-Copy-2" font-family="Roboto-Medium, Roboto" font-size="9" font-weight="400" fill="#0F324C"><tspan x="13" y="54">Financing</tspan></text><g id="Group-14-Copy" transform="translate(22.000000, 11.000000)"><polygon id="Fill-1" fill="#FEFEFE" points="0.5004 0.4999 0.5004 27.7889 2.7374 29.9899 5.7694 27.3159 8.4884 29.9899 11.5194 27.3159 14.2384 29.9899 17.2694 27.3159 19.9884 29.9899 22.5014 27.7739 22.5014 5.0829 17.4334 0.4999"></polygon><path d="M0.0009,0.0004 L0.0009,27.9984 L2.7189,30.6724 L5.7499,27.9984 L8.4689,30.6724 L11.4999,27.9984 L14.2189,30.6724 L17.2499,27.9984 L19.9689,30.6724 L22.9999,27.9984 L22.9999,4.8614 L17.6269,0.0004 L0.0009,0.0004 Z M1.0009,27.5804 L1.0009,0.9994 L17.2399,0.9994 L22.0009,5.3044 L22.0009,27.5474 L20.0059,29.3064 L17.9509,27.2854 L17.2859,26.6324 L16.5889,27.2484 L14.2559,29.3064 L12.1999,27.2854 L11.5359,26.6324 L10.8389,27.2484 L8.5059,29.3064 L6.4499,27.2854 L5.7869,26.6324 L5.0889,27.2484 L2.7569,29.3064 L1.0009,27.5804 Z" id="Fill-2" fill="#0F324C"></path><path d="M4.6287,21.6166 L15.8717,21.6166 L4.6287,21.6166 Z" id="Fill-3" fill="#FEFEFE"></path><line x1="4.6284" y1="21.617" x2="15.8714" y2="21.617" id="Stroke-4" stroke="#0F324C"></line><path d="M4.6287,18.5323 L11.4997,18.5323 L4.6287,18.5323 Z" id="Fill-5" fill="#FEFEFE"></path><line x1="4.6284" y1="18.532" x2="11.4994" y2="18.532" id="Stroke-6" stroke="#0F324C"></line><path d="M4.6287,24.1951 L18.3717,24.1951 L4.6287,24.1951 Z" id="Fill-7" fill="#FEFEFE"></path><line x1="4.6284" y1="24.1951" x2="18.3714" y2="24.1951" id="Stroke-8" stroke="#0F324C"></line><g id="Group-13" transform="translate(10.000000, 2.672400)" stroke="#0F324C"><path d="M0.0532,8.0237 C0.0532,9.0757 0.9062,9.9277 1.9572,9.9277 C3.0092,9.9277 3.8622,9.0757 3.8622,8.0237 C3.8622,6.9717 3.0092,6.1197 1.9572,6.1197 C0.9062,6.1197 0.0532,5.2667 0.0532,4.2157 C0.0532,3.1647 0.9062,2.3117 1.9572,2.3117 C3.0092,2.3117 3.8622,3.1647 3.8622,4.2157" id="Stroke-9"></path><line x1="1.9575" y1="0.8879" x2="1.9575" y2="11.3519" id="Stroke-11"></line></g></g></g><g id="Group-6" transform="translate(226.000000, 68.000000)"><circle id="Oval-Copy-7" fill="#91D3F1" cx="33.5" cy="33.5" r="33.5"></circle><g id="Group-13-Copy" transform="translate(20.000000, 11.000000)"><polygon id="Fill-1" fill="#FEFEFE" points="12.9456 2.2883 2.1536 10.5323 23.7906 10.5323"></polygon><polygon id="Fill-2" fill="#FEFEFE" points="5.032 25.9142 20.802 25.9142 20.802 23.9772 5.032 23.9772"></polygon><g id="Group-12" transform="translate(0.000000, 0.020200)"><mask id="mask-20" fill="white"><use xlink:href="#path-19"></use></mask><g id="Clip-4"></g><path d="M3.814,14.66 L6.085,14.66 L6.085,13.554 L3.814,13.554 L3.814,14.66 Z M7.797,14.66 L10.068,14.66 L10.068,13.554 L7.797,13.554 L7.797,14.66 Z M11.781,14.66 L14.052,14.66 L14.052,13.554 L11.781,13.554 L11.781,14.66 Z M15.823,14.66 L18.094,14.66 L18.094,13.554 L15.823,13.554 L15.823,14.66 Z M19.807,14.66 L22.078,14.66 L22.078,13.554 L19.807,13.554 L19.807,14.66 Z M1.101,25.894 L3.925,25.894 L3.925,17.538 C3.925,17.208 4.149,16.985 4.478,16.985 L21.354,16.985 C21.684,16.985 21.908,17.208 21.908,17.538 L21.908,25.894 L24.785,25.894 L24.785,11.619 L1.101,11.619 L1.101,25.894 Z" id="Fill-3" fill="#FEFEFE" mask="url(#mask-20)"></path><polygon id="Fill-5" fill="#FEFEFE" mask="url(#mask-20)" points="5.032 19.974 20.802 19.974 20.802 18.091 5.032 18.091"></polygon><polygon id="Fill-5" fill="#FEFEFE" mask="url(#mask-20)" points="5.032 22.974 20.802 22.974 20.802 21.091 5.032 21.091"></polygon><path d="M24.7845,25.894 L21.9075,25.894 L21.9075,17.538 C21.9075,17.208 21.6835,16.985 21.3535,16.985 L4.4775,16.985 C4.1485,16.985 3.9255,17.208 3.9255,17.538 L3.9255,25.894 L1.1005,25.894 L1.1005,11.619 L24.7845,11.619 L24.7845,25.894 Z M5.0315,19.974 L20.8015,19.974 L20.8015,18.091 L5.0315,18.091 L5.0315,19.974 Z M5.0315,22.851 L20.8015,22.851 L20.8015,21.08 L5.0315,21.08 L5.0315,22.851 Z M5.0315,25.894 L20.8015,25.894 L20.8015,23.957 L5.0315,23.957 L5.0315,25.894 Z M12.9455,2.268 L23.7905,10.512 L2.1535,10.512 L12.9455,2.268 Z M13.2755,1.104 C13.1105,0.939 12.8335,0.939 12.6105,1.104 L0.3075,10.512 C0.1435,10.623 0.0005,11.012 0.0005,11.23 L0.0005,26.447 C0.0005,26.777 0.2225,27 0.5535,27 L25.3435,27 C25.6735,27 25.8965,26.777 25.8965,26.447 L25.8965,11.23 C25.8905,10.997 25.8275,10.73 25.6305,10.549 L13.2755,1.104 Z" id="Fill-6" fill="#0A304A" mask="url(#mask-20)"></path><polygon id="Fill-7" fill="#0A304A" mask="url(#mask-20)" points="3.813 14.66 6.084 14.66 6.084 13.554 3.813 13.554"></polygon><polygon id="Fill-8" fill="#0A304A" mask="url(#mask-20)" points="7.797 14.66 10.068 14.66 10.068 13.554 7.797 13.554"></polygon><polygon id="Fill-9" fill="#0A304A" mask="url(#mask-20)" points="11.781 14.66 14.052 14.66 14.052 13.554 11.781 13.554"></polygon><polygon id="Fill-10" fill="#0A304A" mask="url(#mask-20)" points="15.823 14.66 18.094 14.66 18.094 13.554 15.823 13.554"></polygon><polygon id="Fill-11" fill="#0A304A" mask="url(#mask-20)" points="19.806 14.66 22.077 14.66 22.077 13.554 19.806 13.554"></polygon></g></g><text id="Warehousing" font-family="Roboto-Medium, Roboto" font-size="8" font-weight="400" fill="#0F324C"><tspan x="10" y="52">Warehousing</tspan></text></g></g></g></g></g></g></g></g></svg> 