<svg xmlns="http://www.w3.org/2000/svg" width="480" height="212" viewBox="0 0 480 212">
    <defs>
        <linearGradient id="xt7qpky6sa" x1="0%" x2="100%" y1="50%" y2="50%">
            <stop offset="0%" stop-color="#C40100"/>
            <stop offset="52.728%" stop-color="#FFBB28"/>
            <stop offset="82.272%" stop-color="#7AD032"/>
            <stop offset="100%" stop-color="#00C156"/>
        </linearGradient>
    </defs>
    <g fill="none" fill-rule="evenodd">
        <rect width="480" height="212" fill="#00335A" opacity=".906" rx="8"/>
        <rect width="448" height="95" x="17" y="95" fill="#FFF" opacity=".906" rx="8"/>
        <g stroke="#E1E1E1" stroke-dasharray="2 2">
            <path d="M0 .599L403 .506M0 15.757L403 15.664M0 31.389L403 31.296M0 46.546l386.53-.089 16.47-.003M0 61.704l386.53-.089 16.47-.004" transform="translate(44 111)"/>
        </g>
        <g>
            <g>
                <path fill="#009ED5" d="M0 14H7V65H0z" transform="translate(58 113) translate(0 12)"/>
                <path fill="#E88E61" d="M12 0H19V65H12z" transform="translate(58 113) translate(0 12)"/>
            </g>
            <g>
                <path fill="#009ED5" d="M0 5H7V65H0z" transform="translate(58 113) translate(58 12)"/>
                <path fill="#E88E61" d="M11 0H18V65H11z" transform="translate(58 113) translate(58 12)"/>
            </g>
            <g>
                <path fill="#009ED5" d="M0 0H7V64H0z" transform="translate(58 113) translate(115 13)"/>
                <path fill="#E88E61" d="M11 4H18V64H11z" transform="translate(58 113) translate(115 13)"/>
            </g>
            <g>
                <path fill="#009ED5" d="M0 0H7V65H0z" transform="translate(58 113) translate(171 12)"/>
                <path fill="#E88E61" d="M11 9H18V65H11z" transform="translate(58 113) translate(171 12)"/>
            </g>
            <g>
                <path fill="#009ED5" d="M0 0H7V70H0z" transform="translate(58 113) translate(228 7)"/>
                <path fill="#E88E61" d="M12 5H19V70H12z" transform="translate(58 113) translate(228 7)"/>
            </g>
            <g>
                <path fill="#009ED5" d="M0 0H7V77H0z" transform="translate(58 113) translate(286)"/>
                <path fill="#E88E61" d="M11 16H18V77H11z" transform="translate(58 113) translate(286)"/>
            </g>
            <g>
                <path fill="#009ED5" d="M0 3H7V69H0z" transform="translate(58 113) translate(343 8)"/>
                <path fill="#E88E61" d="M11 0H18V69H11z" transform="translate(58 113) translate(343 8)"/>
            </g>
        </g>
        <g transform="translate(17 19)">
            <rect width="448" height="14" fill="url(#xt7qpky6sa)" rx="2" transform="translate(0 40)"/>
            <g transform="translate(344)">
                <rect width="37" height="37" fill="#F08A1E" rx="4"/>
                <path fill="#F08A1E" d="M19 37L27 43 11 43z" transform="matrix(1 0 0 -1 0 80)"/>
                <path fill="#FFF" fill-rule="nonzero" d="M14.453 18.156c.531 0 1.024-.07 1.477-.21.453-.141.846-.35 1.18-.626.333-.276.593-.616.78-1.02.188-.403.282-.87.282-1.402 0-.312-.043-.608-.129-.886-.086-.279-.21-.535-.371-.77-.162-.234-.357-.444-.586-.629-.23-.185-.484-.342-.766-.472.495-.25.886-.593 1.172-1.028.287-.435.43-.93.43-1.488 0-.505-.086-.954-.258-1.348-.172-.393-.411-.724-.719-.992-.307-.268-.674-.471-1.101-.61-.427-.137-.893-.206-1.399-.206-.505 0-.97.069-1.394.207-.425.138-.79.34-1.098.61-.307.267-.547.598-.719.991-.171.394-.257.843-.257 1.348 0 .557.141 1.053.425 1.488.284.435.67.778 1.16 1.028-.28.125-.536.28-.765.468-.23.188-.423.399-.582.633-.159.235-.281.491-.367.77-.086.278-.13.574-.13.886 0 .532.096 1 .286 1.403.19.403.453.743.789 1.02.336.275.73.484 1.184.624.453.14.945.211 1.476.211zm0-6.758c-.245 0-.465-.04-.66-.12-.195-.081-.36-.196-.496-.344-.136-.149-.24-.329-.313-.54-.073-.21-.109-.443-.109-.699 0-.526.14-.941.422-1.246.281-.304.664-.457 1.148-.457.24 0 .459.042.657.125.197.084.364.2.5.352.135.15.24.33.316.539.075.208.113.437.113.687 0 .256-.036.489-.11.7-.072.21-.176.39-.312.539-.135.148-.3.263-.496.343-.195.081-.415.121-.66.121zm0 5.243c-.281 0-.535-.042-.762-.125-.226-.084-.419-.205-.578-.364-.159-.159-.281-.351-.367-.578-.086-.226-.129-.483-.129-.77 0-.28.043-.537.13-.769.085-.232.206-.43.362-.594.157-.164.347-.291.57-.382.225-.092.477-.137.758-.137.277 0 .528.045.754.137.227.09.42.218.579.382.158.164.282.362.37.594.09.232.133.488.133.77 0 .578-.16 1.028-.48 1.351-.32.323-.767.485-1.34.485zm9.102 1.515c.562 0 1.071-.088 1.527-.265.456-.177.845-.463 1.168-.856.323-.393.573-.903.75-1.531.177-.628.266-1.392.266-2.293v-1.836c0-.901-.089-1.664-.266-2.29-.177-.624-.428-1.13-.754-1.519-.325-.388-.717-.668-1.176-.84-.458-.171-.968-.257-1.53-.257-.558 0-1.066.086-1.524.258-.459.171-.85.451-1.176.84-.326.387-.577.894-.754 1.519-.177.625-.266 1.388-.266 2.289v1.836c0 .901.09 1.665.27 2.293.18.628.433 1.138.762 1.531.328.393.72.679 1.18.856.458.177.965.265 1.523.265zm0-1.515c-.292 0-.552-.058-.782-.172-.229-.115-.421-.297-.578-.547-.156-.25-.276-.576-.36-.977-.082-.4-.124-.888-.124-1.46v-2.4c0-.577.04-1.063.121-1.456.08-.393.2-.711.355-.953.157-.242.348-.417.575-.524.226-.106.485-.16.777-.16.292 0 .55.054.777.16.227.107.418.282.575.524.156.242.274.56.355.953.08.393.121.879.121 1.457v2.398c0 .573-.039 1.06-.117 1.461-.078.401-.194.727-.348.977-.153.25-.342.432-.566.547-.224.114-.484.172-.781.172zM8.457 31.117c.477 0 .892-.042 1.245-.126.354-.084.656-.187.908-.31s.458-.256.619-.399c.16-.142.285-.272.375-.39v-3.269H8.369v1.125h1.758v1.67c-.05.055-.116.112-.196.173-.08.06-.183.116-.308.167-.125.05-.278.093-.46.126s-.4.05-.653.05c-.344 0-.652-.065-.923-.194-.272-.129-.502-.316-.691-.562-.19-.246-.335-.55-.437-.911-.102-.362-.152-.777-.152-1.246v-.574c0-.46.042-.872.126-1.233.084-.361.21-.666.38-.914s.383-.437.64-.566c.255-.129.557-.193.904-.193.29 0 .539.04.747.117.21.078.385.186.528.322.142.137.255.3.337.487.082.187.14.392.176.615h1.453c-.051-.398-.153-.765-.305-1.099-.152-.334-.361-.622-.627-.864s-.592-.43-.979-.565c-.386-.135-.84-.202-1.359-.202-.55 0-1.043.091-1.476.275-.434.184-.801.451-1.102.803-.3.351-.531.782-.691 1.292-.16.51-.24 1.089-.24 1.737v.562c0 .653.088 1.233.266 1.74.178.509.427.936.747 1.284s.704.613 1.151.797c.448.183.939.275 1.474.275zm7.324 0c.461 0 .874-.08 1.24-.243.365-.162.673-.387.925-.674.252-.287.445-.628.577-1.022.133-.395.2-.823.2-1.283v-.124c0-.46-.067-.887-.2-1.28-.132-.392-.325-.733-.577-1.022-.252-.29-.561-.516-.928-.68-.368-.164-.784-.246-1.248-.246-.461 0-.874.082-1.237.246-.363.164-.67.39-.923.68-.252.289-.445.63-.58 1.022-.134.393-.202.82-.202 1.28v.124c0 .46.068.888.202 1.283.135.394.328.735.58 1.022.252.287.56.512.926.674.365.162.78.243 1.245.243zm0-1.137c-.265 0-.495-.054-.688-.164-.194-.109-.353-.258-.478-.448s-.217-.411-.275-.665c-.059-.254-.088-.523-.088-.808v-.124c0-.28.03-.547.088-.8.058-.251.15-.472.275-.661.125-.19.282-.341.472-.455.19-.113.417-.17.683-.17.265 0 .495.057.688.17.193.114.353.265.478.455.125.189.217.41.278.662.06.252.09.518.09.8v.123c0 .285-.03.554-.09.808s-.152.476-.276.665c-.123.19-.28.339-.474.448-.193.11-.421.164-.683.164zm6.832 1.137c.461 0 .874-.08 1.24-.243.365-.162.673-.387.925-.674.252-.287.445-.628.577-1.022.133-.395.2-.823.2-1.283v-.124c0-.46-.067-.887-.2-1.28-.132-.392-.325-.733-.577-1.022-.252-.29-.561-.516-.928-.68-.368-.164-.784-.246-1.248-.246-.461 0-.873.082-1.237.246-.363.164-.67.39-.923.68-.252.289-.445.63-.58 1.022-.134.393-.202.82-.202 1.28v.124c0 .46.068.888.202 1.283.135.394.328.735.58 1.022.252.287.56.512.926.674.365.162.78.243 1.245.243zm0-1.137c-.265 0-.495-.054-.688-.164-.194-.109-.353-.258-.478-.448s-.217-.411-.275-.665c-.059-.254-.088-.523-.088-.808v-.124c0-.28.03-.547.088-.8.058-.251.15-.472.275-.661.125-.19.282-.341.472-.455.19-.113.417-.17.683-.17.265 0 .495.057.688.17.193.114.353.265.478.455.125.189.217.41.278.662.06.252.09.518.09.8v.123c0 .285-.03.554-.09.808s-.152.476-.275.665c-.124.19-.282.339-.475.448-.193.11-.421.164-.683.164zm6.37 1.137c.374 0 .702-.067.98-.202.28-.135.521-.325.724-.571l.07.656h1.29v-9h-1.424v3.246c-.2-.226-.433-.4-.7-.521-.268-.121-.577-.182-.929-.182-.387 0-.734.078-1.043.234-.308.157-.571.377-.788.662-.217.286-.383.627-.498 1.026-.115.398-.173.838-.173 1.318v.123c0 .461.059.888.176 1.28.117.393.283.732.498 1.017.215.285.476.509.782.671.307.162.652.243 1.034.243zm.363-1.16c-.258 0-.477-.054-.657-.161-.18-.108-.327-.255-.442-.442-.115-.188-.2-.406-.252-.654-.053-.248-.079-.512-.079-.794v-.123c0-.285.027-.554.082-.805.055-.252.14-.472.255-.66.115-.187.264-.336.445-.445.182-.11.402-.164.66-.164.308 0 .566.068.773.205.207.137.371.322.492.557v2.707c-.121.234-.284.423-.49.565-.204.143-.467.214-.787.214z"/>
            </g>
        </g>
        <path fill="#009ED5" fill-rule="nonzero" d="M26.133 44v-4.227h2.375c.661 0 1.249-.08 1.762-.242.513-.161.946-.393 1.3-.695.354-.302.624-.672.809-1.11.185-.437.277-.932.277-1.484 0-.52-.092-1.002-.277-1.445-.185-.443-.455-.826-.809-1.149-.354-.322-.787-.574-1.3-.753-.513-.18-1.1-.27-1.762-.27h-4.352V44h1.977zm2.375-5.813h-2.375V34.22h2.375c.38 0 .707.056.98.168.274.112.499.263.676.453.177.19.306.407.387.652.08.245.12.5.12.766 0 .281-.04.54-.12.777-.08.237-.21.442-.387.613-.177.172-.402.305-.676.399-.273.094-.6.14-.98.14zM36.094 44v-5.781c.14-.313.354-.558.64-.735.287-.177.66-.265 1.118-.265.135 0 .266.005.394.015.128.01.254.026.379.047l.008-1.781c-.063-.026-.163-.05-.301-.074-.138-.024-.262-.035-.371-.035-.427 0-.798.097-1.113.293-.315.195-.58.464-.793.808l-.047-.945h-1.813V44h1.899zm4.804-9.648c.344 0 .61-.095.797-.286.188-.19.282-.428.282-.714 0-.292-.094-.534-.282-.727-.187-.193-.453-.29-.797-.29-.343 0-.608.097-.793.29-.184.193-.277.435-.277.727 0 .286.093.524.277.714.185.19.45.286.793.286zM41.844 44v-8.453h-1.899V44h1.899zm5.562.156c.469 0 .91-.077 1.32-.23.412-.154.773-.365 1.083-.633.31-.268.557-.582.742-.941.185-.36.285-.743.3-1.149h-1.788c-.01.208-.062.401-.153.578-.091.177-.21.33-.36.457-.148.128-.322.227-.523.297-.2.07-.415.106-.644.106-.39 0-.71-.078-.957-.235-.248-.156-.444-.362-.59-.617-.146-.255-.246-.546-.3-.871-.056-.326-.083-.66-.083-1.004v-.273c0-.334.027-.664.082-.993.055-.328.155-.62.3-.875.147-.255.345-.462.595-.62.25-.16.567-.239.953-.239.255 0 .484.044.687.133.203.088.377.208.52.36.143.15.255.327.336.53.08.204.126.417.136.641h1.79c-.016-.469-.109-.898-.278-1.289-.17-.39-.403-.727-.703-1.008-.3-.281-.659-.5-1.078-.656-.42-.156-.884-.234-1.395-.234-.65 0-1.216.112-1.695.336-.479.224-.879.53-1.2.918-.32.388-.558.84-.714 1.355-.156.516-.234 1.063-.234 1.64v.274c0 .578.078 1.125.234 1.64.156.516.395.967.715 1.352.32.386.721.69 1.203.914.482.224 1.048.336 1.7.336zm8.602 0c.422 0 .802-.045 1.14-.136.339-.092.642-.211.91-.36.269-.148.503-.318.704-.508.2-.19.368-.386.504-.59l-1.024-.976c-.255.328-.556.586-.902.773-.347.188-.754.282-1.223.282-.333 0-.631-.058-.894-.172-.263-.115-.491-.272-.684-.473-.193-.2-.345-.439-.457-.715-.112-.276-.181-.578-.207-.906h5.523v-.813c0-.609-.072-1.169-.218-1.68-.146-.51-.367-.95-.664-1.32-.297-.37-.672-.657-1.125-.863-.453-.206-.987-.308-1.602-.308-.536 0-1.038.102-1.504.308-.466.206-.87.498-1.215.875-.343.378-.614.836-.812 1.375-.198.54-.297 1.142-.297 1.809v.312c0 .578.094 1.117.281 1.617.188.5.456.933.805 1.297.349.365.773.651 1.273.86.5.208 1.063.312 1.688.312zm1.515-5.172h-3.617c.089-.65.293-1.158.614-1.523.32-.365.74-.547 1.261-.547.313 0 .577.053.793.16.216.107.392.25.528.43.135.18.235.385.3.617.065.232.106.473.121.723v.14zM67.016 44v-5.055h5.086V44h1.968V32.625h-1.968v4.734h-5.086v-4.734h-1.977V44h1.977zm12.93.156c.421 0 .801-.045 1.14-.136.338-.092.642-.211.91-.36.268-.148.503-.318.703-.508.2-.19.369-.386.504-.59l-1.023-.976c-.256.328-.556.586-.903.773-.346.188-.754.282-1.222.282-.334 0-.632-.058-.895-.172-.263-.115-.49-.272-.683-.473-.193-.2-.345-.439-.457-.715-.112-.276-.181-.578-.207-.906h5.523v-.813c0-.609-.073-1.169-.219-1.68-.146-.51-.367-.95-.664-1.32-.297-.37-.672-.657-1.125-.863-.453-.206-.987-.308-1.601-.308-.537 0-1.038.102-1.504.308-.466.206-.871.498-1.215.875-.344.378-.615.836-.813 1.375-.198.54-.297 1.142-.297 1.809v.312c0 .578.094 1.117.282 1.617.187.5.455.933.804 1.297.35.365.774.651 1.274.86.5.208 1.062.312 1.687.312zm1.515-5.172h-3.617c.088-.65.293-1.158.613-1.523s.74-.547 1.262-.547c.312 0 .577.053.793.16.216.107.392.25.527.43s.236.385.3.617c.066.232.106.473.122.723v.14zm5.96 5.172c.246 0 .476-.024.692-.074.216-.05.417-.117.602-.203.185-.086.354-.186.508-.3.153-.115.293-.238.418-.368.026.156.056.302.09.437.033.136.076.253.128.352h1.938v-.133c-.214-.453-.32-1.06-.32-1.82v-3.75c0-.484-.081-.908-.243-1.27-.161-.362-.388-.664-.68-.906-.291-.242-.637-.424-1.038-.547-.401-.122-.839-.183-1.313-.183-.531 0-1.012.073-1.441.218-.43.146-.796.34-1.098.582-.302.243-.535.519-.7.829-.163.31-.245.631-.245.964h1.898c0-.161.035-.312.106-.453.07-.14.169-.261.297-.363.127-.102.282-.182.464-.242.183-.06.386-.09.61-.09.5 0 .872.131 1.117.394s.367.614.367 1.051v.555h-1.195c-.61 0-1.153.061-1.63.184-.476.122-.878.3-1.206.535-.328.234-.578.526-.75.875-.172.349-.258.75-.258 1.203 0 .36.072.693.215 1 .143.307.341.574.594.8.252.227.556.404.91.532.354.127.742.191 1.164.191zm.352-1.523c-.218 0-.41-.03-.574-.09-.164-.06-.303-.143-.418-.25-.114-.107-.2-.233-.258-.379-.057-.146-.085-.305-.085-.477 0-.447.177-.794.53-1.039.355-.244.884-.367 1.587-.367h1.023v1.594c-.068.125-.159.249-.273.371-.115.122-.249.23-.403.324-.153.094-.325.17-.515.227-.19.057-.395.086-.614.086zM95.484 44V32h-1.898v12h1.898zm4.735.156c.281 0 .522-.02.722-.058.2-.04.377-.08.528-.121v-1.47c-.068.016-.163.033-.285.052-.123.018-.25.027-.38.027s-.248-.012-.355-.035c-.107-.024-.199-.068-.277-.133-.078-.065-.138-.158-.18-.277-.041-.12-.062-.276-.062-.47v-4.718h1.492v-1.406H99.93v-2.055H98.03v2.055h-1.39v1.406h1.39v4.828c0 .438.055.808.164 1.11.11.302.262.547.457.734.196.188.427.323.696.406.268.084.558.125.87.125zm4.523-.156v-6.04c.172-.312.4-.559.684-.741.284-.183.623-.274 1.02-.274.489 0 .86.121 1.113.364.252.242.379.655.379 1.238V44h1.898v-5.438c0-.572-.065-1.06-.195-1.464-.13-.404-.315-.732-.555-.985-.24-.252-.529-.436-.867-.55-.339-.115-.714-.172-1.125-.172-.485 0-.925.095-1.32.285-.396.19-.74.454-1.032.793V32h-1.898v12h1.898zm13.149 0v-3.75l-.196-5.008L121.047 44h1.414l3.36-8.766-.196 5.016V44h1.969V32.625h-2.555l-3.273 8.719-3.282-8.719h-2.562V44h1.969zm15.578.156c.422 0 .802-.045 1.14-.136.339-.092.642-.211.91-.36.269-.148.503-.318.704-.508.2-.19.368-.386.504-.59l-1.024-.976c-.255.328-.556.586-.902.773-.347.188-.754.282-1.223.282-.333 0-.631-.058-.894-.172-.263-.115-.491-.272-.684-.473-.193-.2-.345-.439-.457-.715-.112-.276-.181-.578-.207-.906h5.523v-.813c0-.609-.073-1.169-.218-1.68-.146-.51-.368-.95-.664-1.32-.297-.37-.672-.657-1.125-.863-.454-.206-.987-.308-1.602-.308-.536 0-1.038.102-1.504.308-.466.206-.871.498-1.215.875-.344.378-.614.836-.812 1.375-.198.54-.297 1.142-.297 1.809v.312c0 .578.094 1.117.281 1.617.188.5.456.933.805 1.297.349.365.773.651 1.273.86.5.208 1.063.312 1.688.312zm1.515-5.172h-3.617c.089-.65.293-1.158.613-1.523s.741-.547 1.262-.547c.313 0 .577.053.793.16.216.107.392.25.528.43.135.18.235.385.3.617.065.232.106.473.121.723v.14zM141 44.156c.281 0 .522-.02.723-.058.2-.04.376-.08.527-.121v-1.47c-.068.016-.163.033-.285.052-.123.018-.249.027-.38.027-.13 0-.248-.012-.355-.035-.106-.024-.199-.068-.277-.133-.078-.065-.138-.158-.18-.277-.041-.12-.062-.276-.062-.47v-4.718h1.492v-1.406h-1.492v-2.055h-1.899v2.055h-1.39v1.406h1.39v4.828c0 .438.055.808.165 1.11.109.302.261.547.457.734.195.188.427.323.695.406.268.084.559.125.871.125zm6.375 0c.422 0 .802-.045 1.14-.136.34-.092.643-.211.91-.36.269-.148.503-.318.704-.508.2-.19.368-.386.504-.59l-1.024-.976c-.255.328-.556.586-.902.773-.346.188-.754.282-1.223.282-.333 0-.631-.058-.894-.172-.263-.115-.491-.272-.684-.473-.192-.2-.345-.439-.457-.715-.112-.276-.18-.578-.207-.906h5.524v-.813c0-.609-.073-1.169-.22-1.68-.145-.51-.366-.95-.663-1.32-.297-.37-.672-.657-1.125-.863-.453-.206-.987-.308-1.602-.308-.536 0-1.038.102-1.504.308-.466.206-.87.498-1.214.875-.344.378-.615.836-.813 1.375-.198.54-.297 1.142-.297 1.809v.312c0 .578.094 1.117.281 1.617.188.5.456.933.805 1.297.349.365.774.651 1.274.86.5.208 1.062.312 1.687.312zm1.516-5.172h-3.618c.089-.65.293-1.158.614-1.523.32-.365.74-.547 1.261-.547.313 0 .577.053.793.16.217.107.392.25.528.43.135.18.235.385.3.617.066.232.106.473.122.723v.14zM154.133 44v-5.781c.14-.313.354-.558.64-.735.287-.177.66-.265 1.118-.265.135 0 .267.005.394.015.128.01.254.026.38.047l.007-1.781c-.063-.026-.163-.05-.3-.074-.139-.024-.263-.035-.372-.035-.427 0-.798.097-1.113.293-.315.195-.58.464-.793.808l-.047-.945h-1.813V44h1.899z"/>
    </g>
</svg>
