<svg xmlns="http://www.w3.org/2000/svg" width="480" height="212" viewBox="0 0 480 212">
    <g fill="none" fill-rule="evenodd">
        <rect width="480" height="212" fill="#003056" opacity=".906" rx="8"/>
        <g>
            <g>
                <path fill="#FFF" d="M0 36V4c0-2.21 1.79-4 4-4h163c2.21 0 4 1.79 4 4v32c0 2.21-1.79 4-4 4H4c-2.21 0-4-1.79-4-4z" transform="translate(16 19) translate(0 19)"/>
                <path fill="#404040" fill-rule="nonzero" d="M24.156 25.137c.533 0 .997-.083 1.391-.25.395-.166.722-.396.981-.69.26-.294.455-.643.585-1.046.13-.403.195-.844.195-1.323 0-.506-.069-.964-.205-1.374-.137-.41-.333-.76-.588-1.05-.256-.289-.567-.512-.933-.67-.367-.156-.779-.235-1.234-.235-.37 0-.694.046-.974.137-.28.09-.51.189-.687.294l.3-2.714h4.027v-1.17h-5.1l-.506 4.964 1.012.26c.114-.096.222-.184.325-.264.102-.08.215-.147.338-.201.123-.055.262-.097.417-.127.155-.03.34-.044.554-.044.319 0 .602.057.85.17.25.115.458.27.626.469.169.198.296.432.383.7.087.27.13.559.13.869 0 .346-.042.66-.126.94-.085.28-.208.518-.37.714-.161.196-.359.346-.59.451-.233.105-.5.157-.8.157-.539 0-.971-.144-1.3-.434-.328-.289-.53-.719-.608-1.288h-1.196c.04.465.15.87.328 1.217.178.346.405.633.683.861.278.228.596.398.954.51.358.11.737.167 1.138.167zm7.643 0c.483 0 .917-.075 1.302-.226.385-.15.713-.397.984-.742.272-.344.48-.795.626-1.353.146-.558.219-1.245.219-2.061v-1.518c0-.815-.073-1.499-.22-2.05-.145-.552-.355-.996-.628-1.333-.273-.338-.604-.58-.991-.725-.388-.146-.823-.219-1.306-.219-.478 0-.91.073-1.295.219-.385.146-.715.387-.988.725-.273.337-.484.781-.632 1.333-.148.551-.223 1.235-.223 2.05v1.518c0 .816.076 1.503.226 2.06.15.56.362 1.01.636 1.354.273.345.604.592.991.742.387.15.82.226 1.299.226zm0-1.033c-.301 0-.569-.059-.803-.177-.235-.119-.433-.306-.595-.56-.162-.256-.284-.583-.366-.982-.082-.399-.123-.876-.123-1.432v-1.928c0-.56.041-1.036.123-1.428.082-.392.202-.71.359-.954.157-.244.353-.42.588-.53.235-.11.502-.164.803-.164.305 0 .576.055.81.164.235.11.432.286.592.53.159.244.279.562.358.954.08.392.12.868.12 1.428v1.928c0 .556-.039 1.033-.116 1.432-.078.399-.195.726-.352.981-.157.255-.352.442-.585.56-.232.12-.503.178-.813.178zm7.861 1.033c.483 0 .917-.075 1.302-.226.385-.15.714-.397.985-.742.27-.344.48-.795.625-1.353.146-.558.219-1.245.219-2.061v-1.518c0-.815-.073-1.499-.219-2.05-.146-.552-.355-.996-.629-1.333-.273-.338-.603-.58-.99-.725-.388-.146-.823-.219-1.307-.219-.478 0-.91.073-1.295.219-.385.146-.714.387-.988.725-.273.337-.484.781-.632 1.333-.148.551-.222 1.235-.222 2.05v1.518c0 .816.075 1.503.225 2.06.15.56.363 1.01.636 1.354.274.345.604.592.991.742.388.15.82.226 1.3.226zm0-1.033c-.3 0-.568-.059-.803-.177-.235-.119-.433-.306-.595-.56-.162-.256-.283-.583-.366-.982-.082-.399-.123-.876-.123-1.432v-1.928c0-.56.041-1.036.123-1.428.083-.392.202-.71.36-.954.157-.244.353-.42.587-.53.235-.11.503-.164.803-.164.306 0 .576.055.81.164.235.11.432.286.592.53.16.244.279.562.359.954.08.392.12.868.12 1.428v1.928c0 .556-.04 1.033-.117 1.432-.077.399-.195.726-.352.981-.157.255-.352.442-.584.56-.233.12-.504.178-.814.178z" transform="translate(16 19) translate(0 19)"/>
            </g>
            <path fill="#404040" fill-rule="nonzero" d="M12.478 45.422v-1.306c.4-.04.764-.13 1.09-.266.326-.137.604-.32.834-.547.23-.228.407-.5.53-.814.123-.314.184-.67.184-1.066 0-.401-.061-.754-.184-1.06-.123-.305-.302-.574-.537-.806-.235-.233-.523-.437-.865-.612-.342-.176-.731-.334-1.169-.475-.378-.123-.692-.25-.943-.38-.25-.13-.451-.267-.602-.413-.15-.146-.257-.307-.32-.482-.065-.176-.097-.373-.097-.591 0-.237.035-.454.103-.65.068-.196.17-.363.308-.502.136-.14.31-.248.52-.325.209-.078.457-.116.744-.116.274 0 .516.052.728.157.212.105.39.25.533.437.144.187.252.408.325.664.073.255.11.535.11.84h1.257c0-.934-.213-1.67-.639-2.208-.426-.537-1.022-.859-1.787-.964v-1.503h-1.019v1.497c-.378.045-.718.14-1.019.283-.3.144-.557.33-.769.56-.211.231-.374.502-.488.814-.114.313-.171.658-.171 1.036 0 .406.064.763.191 1.073.128.31.312.584.554.82.241.238.534.444.878.62.344.175.733.328 1.166.46.355.12.655.242.899.37.244.127.442.266.594.417.153.15.264.312.332.485s.103.362.103.568c0 .246-.044.468-.13.666-.087.198-.212.367-.376.506s-.365.246-.602.321c-.237.075-.508.113-.813.113-.228 0-.455-.03-.68-.089-.226-.06-.431-.164-.616-.314-.184-.15-.334-.354-.447-.609-.114-.255-.171-.576-.171-.964H8.752c0 .52.075.965.226 1.337.15.371.352.678.605.92.252.24.542.425.868.553.326.128.664.207 1.015.24v1.305h1.012z" transform="translate(16 19)"/>
            <path fill="#009ED5" fill-rule="nonzero" d="M3.996 9c.461 0 .874-.053 1.24-.158.365-.106.675-.263.931-.472.256-.209.451-.469.586-.78.135-.31.202-.67.202-1.08 0-.223-.03-.438-.088-.645-.058-.207-.147-.396-.266-.568-.12-.172-.27-.321-.452-.448-.181-.127-.395-.224-.641-.29.406-.172.715-.414.926-.727.21-.312.316-.664.316-1.055 0-.398-.067-.743-.202-1.034-.135-.29-.33-.53-.583-.718C5.71.838 5.4.698 5.033.606 4.666.515 4.252.47 3.791.47H.867V9h3.13zm-.193-4.94H2.35V1.665H3.79c.508 0 .882.094 1.122.281.24.188.36.492.36.914 0 .383-.13.68-.39.888-.259.21-.62.314-1.08.314zm.193 3.756H2.35V5.15h1.71c.5 0 .862.121 1.085.364.222.242.334.574.334.996 0 .195-.032.373-.094.533-.063.16-.156.298-.281.413-.125.115-.28.204-.466.267-.186.062-.4.093-.642.093zm6.264 1.301c.183 0 .356-.018.518-.055.162-.038.313-.088.451-.153.14-.064.266-.14.381-.225.116-.086.22-.178.314-.276.02.117.042.227.067.328.026.102.058.19.097.264h1.453v-.1c-.16-.34-.24-.795-.24-1.365V4.723c0-.364-.06-.681-.182-.952-.121-.272-.29-.499-.51-.68-.218-.182-.478-.319-.779-.41-.3-.092-.629-.138-.984-.138-.399 0-.76.055-1.081.164-.323.11-.597.255-.824.437-.226.181-.401.388-.524.62-.123.233-.185.474-.185.724h1.424c0-.12.027-.234.08-.34.052-.105.126-.196.222-.272.096-.076.212-.137.349-.182.136-.045.289-.067.457-.067.375 0 .654.099.838.296.183.197.275.46.275.788v.416h-.897c-.457 0-.864.046-1.221.138-.358.091-.66.225-.905.401-.247.176-.434.395-.563.656-.129.262-.193.563-.193.903 0 .27.053.52.16.75.108.23.257.43.446.6.19.17.417.303.683.399.265.095.556.143.873.143zm.263-1.142c-.164 0-.307-.023-.43-.068-.123-.045-.228-.107-.314-.187s-.15-.175-.193-.284c-.043-.11-.065-.229-.065-.358 0-.336.133-.596.399-.78.266-.183.662-.275 1.19-.275h.767V7.22c-.05.093-.12.186-.205.278-.086.092-.187.173-.302.243-.115.07-.244.127-.387.17-.142.043-.296.065-.46.065zm6.657 1.142c.386 0 .738-.047 1.054-.14.317-.094.587-.226.812-.396.225-.17.397-.372.518-.606.122-.235.182-.493.182-.774 0-.285-.053-.531-.158-.738-.106-.207-.259-.387-.46-.54-.201-.152-.447-.28-.738-.386-.291-.105-.62-.197-.988-.275-.254-.055-.465-.11-.632-.167-.168-.057-.302-.118-.402-.185-.1-.066-.169-.14-.208-.223-.039-.082-.058-.175-.058-.28 0-.106.021-.207.064-.303.043-.095.108-.18.196-.251.088-.073.199-.131.331-.176.133-.045.29-.068.47-.068.183 0 .344.027.483.08.138.052.254.123.348.213.094.09.164.193.211.308.047.115.07.233.07.354H19.7c0-.285-.057-.55-.173-.796-.115-.247-.282-.46-.5-.642-.22-.182-.486-.324-.8-.428-.315-.103-.67-.155-1.064-.155-.375 0-.714.052-1.016.155-.303.104-.561.243-.774.42-.213.175-.376.38-.49.611-.112.233-.17.478-.17.736 0 .265.057.5.168.703.111.203.266.38.466.53.199.15.438.279.717.384.28.106.59.193.93.264.284.058.516.12.694.187.177.067.315.138.413.214.097.076.163.158.196.246s.05.183.05.284c0 .23-.098.417-.293.56-.196.142-.48.214-.856.214-.16 0-.316-.019-.468-.056-.153-.037-.29-.097-.41-.179-.122-.082-.221-.189-.3-.322-.078-.133-.123-.297-.134-.492h-1.383c0 .262.058.519.173.77.115.252.286.478.512.677.227.2.507.36.841.484.334.123.718.184 1.152.184zm6.597 0c.317 0 .602-.034.856-.102.254-.069.481-.159.682-.27.202-.111.377-.238.528-.38.15-.143.276-.29.378-.443l-.768-.733c-.191.247-.417.44-.677.58-.26.141-.565.211-.917.211-.25 0-.473-.043-.67-.128-.198-.086-.369-.205-.513-.355-.145-.15-.259-.329-.343-.536-.084-.207-.136-.434-.155-.68h4.142v-.61c0-.456-.054-.876-.164-1.259-.11-.383-.275-.713-.498-.99-.222-.277-.504-.493-.844-.648-.34-.154-.74-.231-1.2-.231-.403 0-.779.077-1.129.231-.35.155-.653.373-.91.657-.259.283-.462.627-.61 1.03-.149.405-.223.857-.223 1.357v.235c0 .433.07.838.211 1.213.14.375.342.699.604.972.261.274.58.489.955.645.375.156.797.234 1.265.234zm1.137-3.879h-2.713c.067-.488.22-.869.46-1.142.24-.274.556-.41.946-.41.235 0 .433.04.595.12.162.08.294.187.396.322.101.135.176.289.225.463.05.174.08.354.091.542v.105zM32.034 9V5.83h1.78c.497 0 .937-.06 1.322-.182.385-.12.71-.294.975-.521.266-.227.468-.504.607-.832.138-.328.208-.7.208-1.113 0-.391-.07-.752-.208-1.084-.139-.332-.341-.62-.607-.862-.265-.242-.59-.43-.975-.565-.385-.135-.825-.202-1.322-.202h-3.263V9h1.482zm1.78-4.36h-1.78V1.665h1.78c.286 0 .53.042.736.126.205.084.374.197.507.34.132.142.23.306.29.49.06.183.09.374.09.573 0 .211-.03.406-.09.583-.06.178-.158.331-.29.46-.133.13-.302.229-.507.3-.205.07-.45.105-.736.105zM39.504 9V4.664c.105-.234.266-.418.48-.55.215-.134.495-.2.838-.2.102 0 .2.004.296.012.096.008.19.02.284.035l.006-1.336c-.047-.02-.122-.038-.225-.056-.104-.017-.197-.026-.279-.026-.32 0-.598.073-.835.22-.236.146-.434.348-.594.606l-.036-.709H38.08V9h1.424zm3.603-7.236c.258 0 .457-.072.598-.214.14-.143.211-.321.211-.536 0-.22-.07-.4-.21-.545-.142-.145-.34-.217-.599-.217-.257 0-.456.072-.594.217-.139.144-.208.326-.208.545 0 .215.069.393.208.536.138.142.337.214.594.214zM43.817 9V2.66h-1.424V9h1.423zm4.171.117c.352 0 .682-.057.99-.173.31-.115.58-.273.812-.474.232-.201.418-.437.557-.706.138-.27.214-.557.225-.862H49.23c-.007.157-.045.301-.114.434-.068.133-.158.247-.27.343-.11.095-.242.17-.392.222-.15.053-.311.08-.483.08-.293 0-.533-.06-.718-.176-.186-.117-.333-.272-.442-.463-.11-.192-.185-.41-.226-.654-.041-.244-.062-.495-.062-.752V5.73c0-.25.02-.498.062-.744.041-.246.116-.465.226-.656.109-.191.257-.347.445-.466.187-.119.426-.178.715-.178.191 0 .363.033.515.1.153.066.283.155.39.269.107.113.191.246.252.398.06.152.095.313.102.48h1.342c-.011-.351-.08-.673-.208-.966-.127-.293-.302-.545-.527-.756-.225-.211-.494-.375-.809-.492-.314-.117-.663-.176-1.046-.176-.488 0-.912.084-1.271.252-.36.168-.66.397-.9.688-.24.291-.418.63-.536 1.017-.117.387-.175.797-.175 1.23v.206c0 .433.058.843.175 1.23.118.387.296.725.537 1.014.24.289.54.517.902.685.361.168.786.252 1.274.252zm6.451 0c.317 0 .602-.034.856-.102.254-.069.481-.159.683-.27.2-.111.376-.238.527-.38.15-.143.276-.29.378-.443l-.768-.733c-.191.247-.417.44-.677.58-.26.141-.565.211-.917.211-.25 0-.473-.043-.67-.128-.198-.086-.369-.205-.513-.355-.145-.15-.259-.329-.343-.536-.084-.207-.136-.434-.155-.68h4.142v-.61c0-.456-.054-.876-.164-1.259-.109-.383-.275-.713-.498-.99-.222-.277-.504-.493-.843-.648-.34-.154-.74-.231-1.202-.231-.402 0-.778.077-1.128.231-.35.155-.653.373-.91.657-.258.283-.462.627-.61 1.03-.148.405-.223.857-.223 1.357v.235c0 .433.07.838.211 1.213.14.375.342.699.604.972.261.274.58.489.955.645.375.156.797.234 1.265.234zm1.137-3.879h-2.713c.067-.488.22-.869.46-1.142.24-.274.556-.41.947-.41.234 0 .432.04.594.12.162.08.294.187.396.322.101.135.177.289.225.463.05.174.08.354.091.542v.105z" transform="translate(16 19)"/>
        </g>
        <path fill="#009ED5" fill-rule="nonzero" d="M208.35 31v-3.287h1.652l1.71 3.287h1.589v-.076l-1.916-3.557c.492-.207.876-.503 1.151-.888.276-.384.413-.862.413-1.432 0-.422-.068-.793-.205-1.113-.137-.32-.337-.59-.6-.806-.264-.217-.587-.38-.97-.492-.383-.112-.819-.167-1.307-.167h-3V31h1.483zm1.523-4.477h-1.523v-2.859h1.517c.281 0 .523.034.724.103.201.068.366.166.495.293.129.127.225.279.287.457.063.177.094.376.094.594 0 .207-.033.397-.1.569-.066.172-.166.32-.299.445-.132.125-.298.223-.498.293-.199.07-.431.105-.697.105zm7.137 4.594c.316 0 .601-.034.855-.102.254-.069.482-.159.683-.27.201-.111.377-.238.527-.38.15-.143.277-.29.378-.443l-.767-.733c-.192.247-.417.44-.677.58-.26.141-.566.211-.917.211-.25 0-.474-.043-.671-.128-.197-.086-.368-.205-.513-.355-.144-.15-.259-.329-.343-.536-.084-.207-.135-.434-.155-.68h4.143v-.61c0-.456-.055-.876-.164-1.259-.11-.383-.276-.713-.498-.99-.223-.277-.504-.493-.844-.648-.34-.154-.74-.231-1.201-.231-.403 0-.779.077-1.128.231-.35.155-.654.373-.911.657-.258.283-.461.627-.61 1.03-.148.405-.222.857-.222 1.357v.235c0 .433.07.838.21 1.213.141.375.342.699.604.972.262.274.58.489.955.645.375.156.797.234 1.266.234zm1.136-3.879h-2.712c.066-.488.22-.869.46-1.142.24-.274.555-.41.946-.41.234 0 .432.04.595.12.162.08.294.187.395.322.102.135.177.289.226.463.048.174.079.354.09.542v.105zm5.133 3.88c.352 0 .682-.058.99-.174.31-.115.58-.273.812-.474.232-.201.418-.437.557-.706.138-.27.214-.557.225-.862h-1.342c-.007.157-.045.301-.114.434-.068.133-.158.247-.27.343-.11.095-.241.17-.392.222-.15.053-.311.08-.483.08-.293 0-.533-.06-.718-.176-.186-.117-.333-.272-.442-.463-.11-.192-.185-.41-.226-.654-.041-.244-.062-.495-.062-.752v-.206c0-.25.021-.498.062-.744.041-.246.116-.465.226-.656.109-.191.257-.347.445-.466.187-.119.426-.178.715-.178.191 0 .363.033.515.1.153.066.283.155.39.269.107.113.191.246.252.398.06.152.095.313.102.48h1.342c-.011-.351-.08-.673-.208-.966-.127-.293-.302-.545-.527-.756-.225-.211-.494-.375-.809-.492-.314-.117-.663-.176-1.046-.176-.488 0-.912.084-1.271.252-.36.168-.66.397-.9.688-.24.291-.418.63-.536 1.017-.117.387-.175.797-.175 1.23v.206c0 .433.058.843.175 1.23.118.387.296.725.537 1.014.24.289.54.517.902.685.361.168.786.252 1.274.252zm6.346 0c.46 0 .874-.082 1.24-.244.364-.162.673-.387.925-.674.252-.287.444-.628.577-1.022.133-.395.2-.823.2-1.283v-.124c0-.46-.067-.887-.2-1.28-.133-.392-.325-.733-.577-1.022-.252-.29-.561-.516-.929-.68-.367-.164-.783-.246-1.248-.246-.46 0-.873.082-1.236.246-.363.164-.67.39-.923.68-.252.289-.445.63-.58 1.022-.135.393-.202.82-.202 1.28v.124c0 .46.067.888.202 1.283.135.394.328.735.58 1.022.252.287.56.512.926.674.365.162.78.243 1.245.243zm0-1.138c-.266 0-.495-.054-.688-.164-.194-.109-.353-.258-.478-.448s-.217-.411-.275-.665c-.059-.254-.088-.523-.088-.808v-.124c0-.28.029-.547.088-.8.058-.251.15-.472.275-.661.125-.19.282-.341.472-.455.19-.113.417-.17.682-.17.266 0 .495.057.689.17.193.114.352.265.477.455.125.189.218.41.279.662.06.252.09.518.09.8v.123c0 .285-.03.554-.09.808s-.153.476-.276.665c-.123.19-.281.339-.474.448-.194.11-.421.164-.683.164zm5.566 1.02v-4.594c.11-.215.263-.385.46-.51.198-.125.449-.187.753-.187.176 0 .334.02.475.062.14.04.26.108.36.202.1.093.176.216.229.369.053.152.079.34.079.562V31h1.424v-4.225l-.003-.061-.003-.062c.082-.28.225-.508.43-.682.206-.174.47-.261.794-.261.176 0 .333.018.472.053.139.035.258.097.358.187.1.09.175.21.228.36.053.151.08.343.08.578V31h1.423v-4.107c0-.418-.048-.776-.144-1.073-.095-.297-.232-.54-.41-.73-.177-.189-.395-.327-.653-.415-.258-.088-.55-.132-.879-.132-.441 0-.823.088-1.145.264-.323.175-.59.412-.8.709-.164-.34-.399-.587-.703-.742-.305-.154-.65-.231-1.037-.231-.403 0-.755.068-1.058.205-.303.137-.56.328-.77.574l-.042-.662h-1.341V31h1.423zm10.442 0v-4.594c.11-.215.263-.385.46-.51s.448-.187.753-.187c.175 0 .334.02.474.062.14.04.261.108.36.202.1.093.176.216.23.369.052.152.078.34.078.562V31h1.424v-4.225c0-.02 0-.04-.003-.061l-.003-.062c.082-.28.226-.508.43-.682.206-.174.47-.261.795-.261.176 0 .333.018.472.053.138.035.257.097.357.187.1.09.176.21.228.36.053.151.08.343.08.578V31h1.423v-4.107c0-.418-.047-.776-.143-1.073-.096-.297-.233-.54-.41-.73-.178-.189-.396-.327-.654-.415-.257-.088-.55-.132-.879-.132-.44 0-.823.088-1.145.264-.322.175-.589.412-.8.709-.164-.34-.398-.587-.703-.742-.305-.154-.65-.231-1.037-.231-.402 0-.755.068-1.058.205-.302.137-.56.328-.77.574l-.041-.662h-1.342V31h1.424zm11.812.117c.317 0 .602-.034.856-.102.254-.069.481-.159.682-.27.202-.111.377-.238.528-.38.15-.143.276-.29.378-.443l-.768-.733c-.191.247-.417.44-.677.58-.26.141-.565.211-.917.211-.25 0-.473-.043-.67-.128-.198-.086-.369-.205-.513-.355-.145-.15-.259-.329-.343-.536-.084-.207-.136-.434-.155-.68h4.142v-.61c0-.456-.054-.876-.164-1.259-.11-.383-.275-.713-.498-.99-.222-.277-.504-.493-.844-.648-.34-.154-.74-.231-1.2-.231-.403 0-.78.077-1.129.231-.35.155-.653.373-.91.657-.259.283-.462.627-.61 1.03-.149.405-.223.857-.223 1.357v.235c0 .433.07.838.211 1.213.14.375.342.699.604.972.261.274.58.489.955.645.375.156.797.234 1.265.234zm1.137-3.879h-2.713c.067-.488.22-.869.46-1.142.24-.274.556-.41.946-.41.235 0 .433.04.595.12.162.08.294.187.396.322.101.135.176.289.225.463.049.174.08.354.091.542v.105zM262.496 31v-4.512c.129-.238.302-.427.519-.568.216-.14.471-.211.764-.211.18 0 .34.02.478.062.139.04.255.108.348.202.094.093.166.215.214.366.05.15.074.335.074.554V31h1.423v-4.096c0-.43-.047-.795-.143-1.095-.096-.301-.232-.545-.407-.733-.176-.187-.388-.323-.636-.407-.248-.084-.525-.126-.83-.126-.382 0-.73.074-1.042.223-.313.148-.58.357-.803.627l-.04-.733h-1.343V31h1.424zm7.494.117c.375 0 .702-.067.982-.202.279-.135.52-.325.723-.571l.07.656h1.29v-9h-1.424v3.246c-.2-.226-.433-.4-.7-.521-.268-.121-.577-.182-.929-.182-.387 0-.734.078-1.043.234-.309.157-.571.377-.788.662-.217.286-.383.627-.498 1.026-.115.398-.173.838-.173 1.318v.123c0 .461.059.888.176 1.28.117.393.283.732.498 1.017.215.285.475.509.782.671.307.162.651.243 1.034.243zm.364-1.16c-.258 0-.477-.054-.657-.161-.18-.108-.327-.255-.442-.442-.115-.188-.2-.406-.252-.654-.053-.248-.08-.512-.08-.794v-.123c0-.285.028-.554.083-.805.055-.252.14-.472.255-.66.115-.187.263-.336.445-.445.182-.11.401-.164.66-.164.308 0 .566.068.773.205.207.137.37.322.492.557v2.707c-.121.234-.284.423-.49.565-.204.143-.467.214-.787.214zm6.146 1.16c.184 0 .356-.018.519-.055.162-.038.312-.088.45-.153.14-.064.266-.14.382-.225.115-.086.22-.178.313-.276.02.117.042.227.067.328.026.102.058.19.097.264h1.453v-.1c-.16-.34-.24-.795-.24-1.365v-2.812c0-.364-.06-.681-.182-.952-.12-.272-.29-.499-.51-.68-.218-.182-.478-.319-.779-.41-.3-.092-.629-.138-.984-.138-.399 0-.759.055-1.081.164-.322.11-.597.255-.823.437-.227.181-.402.388-.525.62-.123.233-.184.474-.184.724h1.423c0-.12.027-.234.08-.34.052-.105.127-.196.222-.272.096-.076.212-.137.349-.182.137-.045.289-.067.457-.067.375 0 .654.099.838.296.183.197.275.46.275.788v.416h-.896c-.457 0-.865.046-1.222.138-.357.091-.66.225-.905.401-.246.176-.434.395-.563.656-.129.262-.193.563-.193.903 0 .27.054.52.161.75.107.23.256.43.445.6.19.17.417.303.683.399.266.095.557.143.873.143zm.264-1.142c-.164 0-.308-.023-.431-.068-.123-.045-.228-.107-.313-.187-.086-.08-.15-.175-.194-.284-.043-.11-.064-.229-.064-.358 0-.336.133-.596.398-.78.266-.183.662-.275 1.19-.275h.767v1.196c-.05.093-.119.186-.205.278-.086.092-.186.173-.302.243-.115.07-.244.127-.386.17-.143.043-.296.065-.46.065zm6.27 1.142c.21 0 .39-.014.541-.044.15-.03.282-.06.396-.09V29.88c-.051.012-.122.024-.214.038-.092.014-.187.02-.284.02-.098 0-.187-.008-.267-.026-.08-.017-.15-.05-.208-.1-.059-.048-.103-.118-.135-.208-.031-.09-.047-.207-.047-.351v-3.54h1.12V24.66h-1.12v-1.54h-1.423v1.54h-1.043v1.055h1.043v3.62c0 .33.04.606.123.833.082.227.196.41.342.55.147.141.32.243.522.305.201.063.419.094.653.094zm2.794-7.353c.258 0 .457-.072.598-.214.14-.143.21-.321.21-.536 0-.22-.07-.4-.21-.545-.14-.145-.34-.217-.598-.217-.258 0-.456.072-.595.217-.138.144-.208.326-.208.545 0 .215.07.393.208.536.14.142.337.214.595.214zm.71 7.236v-6.34h-1.425V31h1.424zm4.235.117c.461 0 .874-.08 1.24-.243.365-.162.674-.387.925-.674.252-.287.445-.628.578-1.022.132-.395.199-.823.199-1.283v-.124c0-.46-.067-.887-.2-1.28-.132-.392-.325-.733-.577-1.022-.251-.29-.561-.516-.928-.68-.367-.164-.783-.246-1.248-.246-.461 0-.873.082-1.237.246-.363.164-.67.39-.922.68-.252.289-.446.63-.58 1.022-.135.393-.203.82-.203 1.28v.124c0 .46.068.888.202 1.283.135.394.329.735.58 1.022.252.287.561.512.926.674.366.162.78.243 1.245.243zm0-1.137c-.265 0-.495-.054-.688-.164-.193-.109-.353-.258-.478-.448s-.216-.411-.275-.665c-.059-.254-.088-.523-.088-.808v-.124c0-.28.03-.547.088-.8.059-.251.15-.472.275-.661.125-.19.283-.341.472-.455.19-.113.417-.17.683-.17.265 0 .495.057.688.17.194.114.353.265.478.455.125.189.218.41.278.662.06.252.09.518.09.8v.123c0 .285-.03.554-.09.808s-.152.476-.275.665c-.123.19-.282.339-.475.448-.193.11-.42.164-.683.164zm5.55 1.02v-4.512c.128-.238.301-.427.518-.568.217-.14.471-.211.764-.211.18 0 .34.02.478.062.139.04.255.108.349.202.093.093.165.215.214.366.048.15.073.335.073.554V31h1.424v-4.096c0-.43-.048-.795-.144-1.095-.096-.301-.231-.545-.407-.733-.176-.187-.388-.323-.636-.407-.248-.084-.524-.126-.829-.126-.383 0-.73.074-1.043.223-.313.148-.58.357-.803.627l-.04-.733h-1.343V31h1.424z"/>
        <rect width="449" height="98" x="16" y="99" fill="#FFF" rx="4"/>
        <path stroke="#E3E3E3" d="M23.027 114.803L456.412 114.803M23.027 131.5L456.412 131.5M23.027 148.5L456.412 148.5M23.027 165.5L456.412 165.5M23.027 181.5L456.412 181.5"/>
        <path stroke="#DE6325" stroke-dasharray="2 2" stroke-width="2" d="M456 146.722c-2.5.631-4.676 1.452-6.53 2.462-1.855 1.01-4.626 1.515-8.311 1.515l-7.037 7.084-7.256 5.039c-1.361 4.04-3.8 6.061-7.319 6.061-3.518 0-6.199-2.02-8.041-6.061l-9.185 6.765-4.888-2.943-5.529 2.943-7.539-2.943c.336-.634-2.345.347-8.041 2.943s-10.22 1.615-13.57-2.943h-10.052l-7.56-7.42-4 3.598-7.539-7.008-4.523-5.683h-5.026l-5.528-3.41-2.01 2.463-6.535-1.195h-7.538l-7.037-2.593-13.067-3.41-5.026 1.516-6.534 3.22-6.267-1.326-7.303 2.593-4.02 1.195-5.027.947-6.533.568-8.419 5.115-4.9.947-11.308 1.876-6.032.586h-17.59l-6.534 3.599h-21.612l-3.267-4.185-7.287-2.823-5.529-5.115-2.261-.568-5.78-2.94-4.524-3.69-14.072-2.651-2.01-5.683H108.44l-5.528-2.652-10.983 2.652-4.85 1.894-11.147-4.546L65.721 131l-12.565 1.515-5.78 4.546-4.775-1.894-8.544 1.894-1.508.28h-6.03l-3.519-.28"/>
        <path stroke="#009ED5" stroke-linecap="round" stroke-linejoin="round" stroke-width="2" d="M23 144.594c1.907-3.28 3.083-2.984 3.529.89.445 3.875 2.966 2.5 7.56-4.126l4.285 4.127 4.285-4.127 5.04 4.127 5.545-9.88 6.553 16.54c.673-3.847 2.185-6.067 4.537-6.66 2.352-.594 5.377 3.533 9.073 12.38l10.082 9.348 9.052 1.113v-6.472l10.607-9.709 5.545 5.72 4.536 9.348 7.561 7.945 2.017-13.304 4.536-10.787 7.562 4.314 7.057 6.473 3.528 6.472 3.025 6.832 6.048 1.404 3.529 4.209h6.049l3.276 5.893 12.35 1.336 6.553-7.23 7.561 5.894 14.618-24.81 7.814 6.472c2.688-15.228 5.964-22.841 9.829-22.841 5.797 0 2.142 9.896 9.073 9.896 6.931 0 4.85 4.572 9.074 6.421 4.223 1.85 2.016 9.073 9.577 6.524 5.04-1.7 8.233.578 9.578 6.832 5.04 4.555 7.897 4.555 8.569 0 .672-4.555 1.344-10.32 2.016-17.294l5.545-6.797 3.024-6.113 4.568-7.192 10.303-8.63 2.268 7.004 11.09-11.318.504-5.034L319.396 106l5.545 8.75 5.04 5.034c1.345 15.433 3.697 24.505 7.057 27.216 3.36 2.711 7.73 7.645 13.106 14.802l3.529 6.524 6.049 8.236 9.073-1.404h12.064l6.083 1.404 6.049-1.404 5.545-7.945.504-9.349 9.642 7.548 6.74 2.914 5.293-16.18 11.593 5.718L435.333 147l7.057-5.642h5.545l8.065-5.222"/>
        <g fill-rule="nonzero">
            <path fill="#FFF" d="M2.215 13.5V.703H0V13.5h2.215zm4.632 0V6.732c.193-.357.452-.641.778-.852.325-.211.707-.317 1.146-.317.27 0 .509.031.717.093.208.061.382.162.523.303.14.14.247.324.32.55.074.225.11.502.11.83V13.5h2.136V7.356c0-.644-.072-1.192-.215-1.643-.144-.451-.347-.817-.611-1.099-.264-.281-.582-.485-.954-.61-.372-.127-.786-.19-1.243-.19-.575 0-1.096.112-1.565.334-.468.223-.87.537-1.204.94L6.724 3.99H4.71v9.51h2.136zm11.839.176c.527 0 1.022-.087 1.485-.26.463-.172.869-.41 1.217-.711.349-.302.627-.655.835-1.06.208-.404.32-.834.339-1.291h-2.013c-.012.234-.069.45-.172.65-.102.2-.237.37-.404.514-.167.144-.363.255-.589.334-.225.08-.467.119-.725.119-.44 0-.798-.088-1.076-.264-.279-.176-.5-.407-.664-.694-.164-.287-.277-.614-.338-.98-.062-.366-.093-.743-.093-1.13v-.307c0-.375.031-.747.093-1.117.061-.369.174-.697.338-.984.164-.287.387-.52.668-.699.281-.178.639-.268 1.072-.268.287 0 .545.05.774.15.228.1.423.234.584.404.161.17.287.37.378.598.09.228.142.468.154.72h2.013c-.018-.527-.122-1.01-.312-1.45-.19-.44-.455-.817-.792-1.134-.336-.316-.74-.562-1.212-.738-.472-.176-.995-.264-1.57-.264-.732 0-1.367.126-1.906.378-.54.252-.99.597-1.35 1.033-.36.437-.628.945-.804 1.525-.176.58-.263 1.195-.263 1.846v.307c0 .65.087 1.266.263 1.846.176.58.444 1.087.804 1.52.36.434.812.777 1.354 1.029.542.252 1.18.378 1.912.378zm7.62-.176V6.996c.158-.351.398-.627.72-.826.323-.2.742-.299 1.257-.299.153 0 .3.006.444.018.144.011.286.029.426.052l.01-2.003c-.071-.03-.184-.058-.34-.084-.155-.026-.294-.04-.417-.04-.48 0-.898.11-1.252.33-.355.22-.652.523-.892.91l-.053-1.064h-2.04v9.51h2.137zm8.384.176c.475 0 .903-.051 1.284-.154.38-.103.722-.237 1.024-.404.301-.167.565-.358.79-.572.226-.213.415-.435.567-.663l-1.15-1.099c-.288.37-.626.66-1.016.87-.39.211-.848.317-1.376.317-.375 0-.71-.065-1.006-.194-.296-.129-.552-.306-.769-.531-.217-.226-.388-.494-.514-.805-.126-.31-.204-.65-.233-1.02h6.214v-.913c0-.686-.082-1.316-.246-1.89-.164-.574-.413-1.07-.747-1.485-.334-.416-.756-.74-1.266-.971-.51-.232-1.11-.348-1.802-.348-.603 0-1.167.116-1.692.348-.524.231-.98.56-1.366.984-.387.425-.692.94-.914 1.547-.223.606-.334 1.285-.334 2.035v.351c0 .65.105 1.257.316 1.82.211.562.513 1.048.905 1.458.393.41.87.733 1.433.967.562.235 1.195.352 1.898.352zm1.706-5.819h-4.07c.1-.732.33-1.303.69-1.713.36-.41.834-.616 1.42-.616.351 0 .648.06.892.18.243.12.44.282.593.484.152.202.265.433.338.694.074.261.119.532.137.813v.158zm6.706 5.819c.275 0 .534-.028.777-.084.244-.055.47-.132.677-.228.208-.097.399-.21.571-.339.173-.129.33-.266.47-.413.03.176.064.34.102.492.038.153.086.285.145.396h2.18v-.15c-.24-.51-.36-1.192-.36-2.047V7.084c0-.545-.092-1.021-.273-1.428-.182-.407-.437-.747-.765-1.02-.328-.272-.718-.477-1.169-.615-.451-.138-.943-.207-1.477-.207-.597 0-1.138.082-1.621.247-.484.164-.895.382-1.235.654-.34.273-.602.583-.787.932-.184.349-.276.71-.276 1.085h2.135c0-.181.04-.351.119-.51.079-.158.19-.294.334-.408.143-.114.318-.205.523-.272.205-.068.433-.102.685-.102.563 0 .982.148 1.257.444.276.296.413.69.413 1.182v.624h-1.344c-.686 0-1.297.07-1.833.207-.536.138-.989.338-1.358.602-.369.264-.65.592-.844.984-.193.393-.29.844-.29 1.354 0 .404.081.78.242 1.125.161.346.384.646.668.9.284.256.626.455 1.024.598.398.144.835.216 1.31.216zm.395-1.714c-.246 0-.461-.034-.646-.101-.184-.068-.341-.161-.47-.281-.129-.12-.226-.263-.29-.427-.065-.164-.097-.342-.097-.536 0-.504.2-.893.598-1.169.398-.275.993-.413 1.784-.413h1.151v1.793c-.076.14-.178.28-.307.418-.13.137-.28.259-.453.364-.173.106-.366.19-.58.255-.214.065-.444.097-.69.097zm9.984 1.714c.58 0 1.108-.07 1.582-.211.475-.14.88-.339 1.218-.593.337-.255.596-.559.778-.91.181-.352.272-.738.272-1.16 0-.428-.079-.797-.237-1.108-.158-.31-.388-.58-.69-.808-.302-.229-.671-.422-1.108-.58-.436-.159-.93-.296-1.48-.413-.381-.082-.698-.166-.95-.25-.252-.086-.452-.178-.602-.278-.15-.1-.253-.21-.312-.334-.058-.123-.088-.263-.088-.422 0-.158.032-.309.097-.452.064-.144.163-.27.294-.378.132-.109.298-.196.497-.264.2-.067.434-.1.703-.1.275 0 .517.039.725.118.208.079.383.186.523.32.14.135.246.29.317.462.07.173.105.35.105.532h2.136c0-.428-.087-.826-.26-1.196-.172-.369-.423-.69-.751-.962s-.728-.486-1.2-.642c-.471-.155-1.003-.233-1.595-.233-.562 0-1.07.078-1.525.233-.454.156-.84.365-1.16.629-.32.263-.564.57-.734.918-.17.349-.255.717-.255 1.103 0 .399.084.75.25 1.055.168.305.4.57.7.795.298.226.657.418 1.076.576.42.158.883.29 1.393.396.428.087.775.181 1.042.28.266.1.473.207.62.322.146.114.244.237.294.369.05.132.074.274.074.426 0 .346-.146.626-.439.84-.293.213-.72.32-1.283.32-.24 0-.475-.028-.703-.083-.229-.056-.434-.145-.616-.268-.181-.123-.33-.285-.448-.484-.117-.199-.184-.445-.202-.738h-2.074c0 .393.086.778.26 1.156.172.378.428.716.768 1.015.34.299.76.54 1.261.725.501.184 1.077.277 1.727.277zm9.897 0c.475 0 .902-.051 1.283-.154.381-.103.722-.237 1.024-.404.302-.167.565-.358.791-.572.226-.213.415-.435.567-.663l-1.151-1.099c-.288.37-.626.66-1.016.87-.39.211-.848.317-1.375.317-.375 0-.71-.065-1.006-.194-.296-.129-.553-.306-.77-.531-.216-.226-.388-.494-.514-.805-.126-.31-.203-.65-.232-1.02h6.213v-.913c0-.686-.082-1.316-.246-1.89-.164-.574-.413-1.07-.747-1.485-.334-.416-.756-.74-1.265-.971-.51-.232-1.11-.348-1.802-.348-.604 0-1.168.116-1.692.348-.524.231-.98.56-1.367.984-.386.425-.691.94-.914 1.547-.222.606-.334 1.285-.334 2.035v.351c0 .65.106 1.257.317 1.82.21.562.512 1.048.905 1.458.392.41.87.733 1.432.967.563.235 1.196.352 1.899.352zm1.705-5.819h-4.07c.1-.732.33-1.303.69-1.713.361-.41.834-.616 1.42-.616.352 0 .649.06.892.18s.441.282.593.484c.153.202.266.433.339.694.073.261.118.532.136.813v.158zM75.762 13.5V8.745h2.672c.744 0 1.404-.09 1.982-.272.577-.182 1.064-.443 1.463-.783.398-.34.702-.755.91-1.248.208-.492.312-1.048.312-1.67 0-.585-.104-1.127-.312-1.626-.208-.498-.512-.928-.91-1.292-.399-.363-.886-.646-1.463-.848-.578-.202-1.238-.303-1.982-.303h-4.896V13.5h2.224zm2.672-6.54h-2.672V2.497h2.672c.427 0 .795.063 1.103.19.307.125.56.295.76.509.2.214.344.458.435.734.09.275.136.562.136.861 0 .316-.045.608-.136.875-.09.266-.236.496-.435.69-.2.193-.453.342-.76.448-.308.105-.676.158-1.103.158zm8.534 6.54V6.996c.158-.351.398-.627.72-.826.323-.2.742-.299 1.257-.299.153 0 .3.006.444.018.144.011.286.029.426.052l.01-2.003c-.071-.03-.184-.058-.34-.084-.154-.026-.294-.04-.417-.04-.48 0-.898.11-1.252.33-.355.22-.652.523-.892.91L86.87 3.99h-2.039v9.51h2.136zm5.405-10.854c.387 0 .686-.107.897-.321.21-.214.316-.482.316-.804 0-.329-.106-.601-.316-.818-.211-.217-.51-.325-.897-.325s-.684.108-.892.325c-.208.217-.312.49-.312.818 0 .322.104.59.312.804.208.214.505.32.892.32zM93.437 13.5V3.99H91.3v9.51h2.136zm6.257.176c.528 0 1.023-.087 1.486-.26.463-.172.868-.41 1.217-.711.349-.302.627-.655.835-1.06.208-.404.32-.834.338-1.291h-2.012c-.012.234-.07.45-.172.65-.102.2-.237.37-.404.514-.167.144-.363.255-.589.334-.226.08-.467.119-.725.119-.44 0-.798-.088-1.077-.264-.278-.176-.5-.407-.663-.694-.164-.287-.277-.614-.339-.98-.061-.366-.092-.743-.092-1.13v-.307c0-.375.03-.747.092-1.117.062-.369.175-.697.339-.984.164-.287.386-.52.668-.699.281-.178.638-.268 1.072-.268.287 0 .545.05.773.15.229.1.424.234.585.404.161.17.287.37.378.598.09.228.142.468.154.72h2.012c-.017-.527-.121-1.01-.312-1.45-.19-.44-.454-.817-.79-1.134-.338-.316-.742-.562-1.214-.738-.471-.176-.994-.264-1.568-.264-.733 0-1.369.126-1.908.378-.539.252-.988.597-1.349 1.033-.36.437-.628.945-.804 1.525-.176.58-.264 1.195-.264 1.846v.307c0 .65.088 1.266.264 1.846.176.58.444 1.087.804 1.52.36.434.812.777 1.354 1.029.542.252 1.179.378 1.911.378zm9.677 0c.475 0 .902-.051 1.283-.154.381-.103.722-.237 1.024-.404.302-.167.566-.358.791-.572.226-.213.415-.435.567-.663l-1.151-1.099c-.287.37-.626.66-1.015.87-.39.211-.849.317-1.376.317-.375 0-.71-.065-1.006-.194-.296-.129-.552-.306-.77-.531-.216-.226-.387-.494-.513-.805-.126-.31-.204-.65-.233-1.02h6.214v-.913c0-.686-.082-1.316-.247-1.89-.164-.574-.413-1.07-.747-1.485-.334-.416-.755-.74-1.265-.971-.51-.232-1.11-.348-1.802-.348-.604 0-1.167.116-1.692.348-.524.231-.98.56-1.367.984-.386.425-.691.94-.914 1.547-.222.606-.334 1.285-.334 2.035v.351c0 .65.106 1.257.317 1.82.21.562.512 1.048.905 1.458.393.41.87.733 1.433.967.562.235 1.195.352 1.898.352zm1.705-5.819h-4.07c.1-.732.33-1.303.69-1.713.361-.41.834-.616 1.42-.616.352 0 .65.06.892.18.243.12.441.282.594.484.152.202.265.433.338.694.073.261.119.532.136.813v.158zm12.885 5.819c.603 0 1.137-.12 1.6-.36.462-.24.85-.575 1.16-1.003.31-.427.546-.937.707-1.529.161-.592.242-1.24.242-1.942v-.185c0-.709-.08-1.36-.237-1.955-.159-.595-.394-1.106-.708-1.534-.313-.428-.702-.76-1.164-.998-.463-.237-1.002-.356-1.618-.356-.545 0-1.02.094-1.428.282-.407.187-.76.457-1.059.808V0h-2.136v13.5h1.934l.105-1.028c.3.386.662.684 1.09.892.428.208.932.312 1.512.312zm-.536-1.74c-.504 0-.916-.115-1.235-.343-.32-.229-.564-.528-.734-.897v-3.92c.17-.369.413-.663.73-.883.316-.22.723-.33 1.221-.33.41 0 .752.084 1.024.251.273.167.49.391.655.672.164.282.28.61.347.985.067.375.101.77.101 1.186v.185c0 .433-.035.838-.105 1.213-.07.375-.19.701-.356.98-.167.278-.385.498-.655.659-.27.161-.6.242-.993.242zm6.838 5.405c.463 0 .861-.08 1.195-.242.334-.161.617-.362.848-.602.232-.24.42-.5.563-.778.143-.278.259-.537.347-.778l3.78-10.95h-2.277l-1.934 6.45-2.013-6.45h-2.302l3.34 9.465-.308.817c-.082.24-.176.441-.281.602-.106.162-.232.293-.378.396-.147.103-.318.176-.514.22-.197.044-.427.066-.69.066-.047 0-.113-.002-.198-.005s-.154-.01-.207-.022v1.653c.147.04.31.077.488.11.179.032.36.048.54.048z" transform="translate(207.433 50.5)"/>
            <path fill="#009ED5" d="M146.91 13.676c.708 0 1.326-.112 1.854-.334.527-.223.965-.526 1.314-.91.348-.384.609-.835.782-1.353.173-.519.26-1.074.26-1.666 0-.668-.089-1.267-.265-1.797-.175-.53-.427-.983-.755-1.358-.329-.375-.733-.662-1.213-.862-.48-.199-1.023-.298-1.626-.298-.446 0-.84.055-1.182.167-.343.111-.617.225-.822.342l.351-3.058h5.098V.703h-6.873l-.694 6.451 1.705.422c.111-.105.225-.203.343-.294.117-.091.246-.172.386-.242s.303-.124.488-.163c.185-.038.4-.057.646-.057.375 0 .705.063.989.19.284.125.521.301.712.527.19.225.334.493.43.804.097.31.145.647.145 1.01 0 .387-.044.74-.131 1.06-.088.319-.219.594-.392.826-.172.231-.39.411-.65.54-.26.13-.564.194-.91.194-.586 0-1.06-.166-1.423-.497-.364-.33-.586-.807-.668-1.428h-2.066c.035.592.173 1.115.413 1.569.24.454.55.833.927 1.138.378.305.81.535 1.297.69.486.155.996.233 1.53.233zm8.525-7.207c.433 0 .817-.07 1.15-.211.335-.14.616-.33.845-.567.228-.237.403-.516.523-.835.12-.32.18-.658.18-1.015v-.677c0-.363-.06-.705-.18-1.024-.12-.32-.295-.599-.523-.84-.229-.24-.512-.43-.848-.57-.337-.141-.726-.211-1.165-.211-.428 0-.81.07-1.147.21-.337.141-.621.332-.853.572-.231.24-.407.52-.527.84-.12.318-.18.66-.18 1.023v.677c0 .357.06.696.18 1.015.12.32.298.598.532.835.234.237.52.426.857.567.337.14.722.21 1.156.21zm0-1.275c-.211 0-.393-.038-.545-.114-.153-.076-.28-.176-.383-.299-.102-.123-.178-.266-.228-.43-.05-.164-.075-.334-.075-.51v-.677c0-.176.025-.346.075-.51.05-.164.124-.309.224-.435s.226-.227.378-.303c.152-.076.33-.114.536-.114.21 0 .393.038.545.114.152.076.28.177.382.303.103.126.179.271.229.435.05.164.074.334.074.51v.677c0 .176-.024.346-.074.51-.05.164-.125.307-.224.43-.1.123-.226.223-.378.3-.153.075-.331.113-.536.113zm.439 7.348l6.249-10.002-1.099-.633-6.249 10.002 1.099.633zm5.722 1.134c.427 0 .81-.07 1.147-.207.337-.137.62-.326.848-.567.228-.24.403-.518.523-.835.12-.316.18-.656.18-1.02v-.685c0-.357-.06-.697-.18-1.02-.12-.321-.296-.601-.528-.839-.231-.237-.515-.426-.852-.566-.337-.141-.722-.211-1.156-.211-.433 0-.817.07-1.151.21-.334.141-.618.33-.853.567-.234.238-.411.518-.532.84-.12.322-.18.662-.18 1.02v.685c0 .363.06.703.18 1.02.12.316.298.594.532.834.235.24.522.43.862.567.34.138.726.207 1.16.207zm0-1.266c-.205 0-.384-.038-.536-.114-.153-.076-.282-.177-.387-.303-.106-.126-.185-.271-.237-.435-.053-.164-.08-.334-.08-.51v-.686c0-.175.025-.345.075-.51.05-.164.125-.307.224-.43.1-.123.227-.223.383-.299.155-.076.335-.114.54-.114.205 0 .384.038.536.114.153.076.28.176.383.299.102.123.178.266.228.43.05.165.075.335.075.51v.686c0 .176-.022.346-.066.51-.044.164-.114.309-.211.435-.097.126-.221.227-.374.303-.152.076-.337.114-.553.114zm5.888 1.187c.399 0 .706-.11.923-.33.217-.22.325-.496.325-.83 0-.34-.108-.623-.325-.849-.217-.225-.524-.338-.923-.338-.392 0-.697.113-.914.338-.216.226-.325.509-.325.849 0 .164.028.316.084.457.055.14.136.263.241.369.106.105.236.187.391.246.156.058.33.088.523.088z" transform="translate(207.433 50.5)"/>
        </g>
    </g>
</svg>
