<svg xmlns="http://www.w3.org/2000/svg" xmlns:xlink="http://www.w3.org/1999/xlink" width="480" height="210" viewBox="0 0 480 210">
    <defs>
        <rect id="4hzbbd5aqa" width="480" height="210" x="0" y="0" rx="8"/>
    </defs>
    <g fill="none" fill-rule="evenodd">
        <use fill="#003053" xlink:href="#4hzbbd5aqa"/>
        <path fill="#009ED5" fill-rule="nonzero" d="M162.735 37.97c.112-.615.703-1.023 1.318-.911.173.032.337.103.478.209l14.962 11.23c.5.376.602 1.086.226 1.587-.147.196-.354.34-.59.408l-17.961 5.231c-.601.175-1.23-.17-1.405-.771-.05-.169-.059-.347-.027-.52l1.214-6.662c-23.262-2.736-42.24.961-56.993 11.049-.683.467-1.617.292-2.084-.392-.468-.684-.293-1.617.391-2.085 15.44-10.557 35.201-14.386 59.224-11.529zM313.47 37.268c.5-.376 1.21-.275 1.586.226.106.14.177.304.209.477l1.247 6.843c24.023-2.857 43.784.972 59.224 11.53.684.467.859 1.4.391 2.084-.467.684-1.4.86-2.084.392-14.753-10.088-33.73-13.785-56.993-11.049l1.214 6.662c.113.616-.296 1.206-.912 1.318-.173.032-.35.023-.52-.027l-17.961-5.231c-.601-.175-.947-.804-.772-1.405.069-.236.212-.442.408-.59zM375.056 153.739c.62-.085 1.191.35 1.276.97.033.242-.013.49-.133.704l-9.1 16.345c-.305.547-.996.743-1.542.439-.154-.086-.286-.206-.385-.351l-3.923-5.744c-20.784 12.381-40.394 16.92-58.792 13.556-.815-.15-1.355-.93-1.206-1.745.149-.815.93-1.355 1.745-1.206 17.58 3.215 36.42-1.127 56.559-13.088l-3.819-5.592c-.353-.517-.22-1.222.297-1.575.146-.1.312-.164.486-.187zM102.798 153.728l.146.01 18.537 2.527c.62.084 1.054.656.97 1.276-.024.174-.088.34-.187.486l-3.82 5.592c20.138 11.96 38.98 16.303 56.56 13.088.815-.15 1.596.39 1.745 1.206.15.814-.39 1.596-1.206 1.745-18.399 3.365-38.009-1.175-58.793-13.557l-3.922 5.745c-.353.517-1.058.65-1.575.297-.145-.1-.266-.231-.351-.385l-9.101-16.345c-.305-.547-.108-1.237.438-1.541.215-.12.462-.166.705-.133z"/>
        <g fill-rule="nonzero" transform="translate(188 49)">
            <path fill="#3A556A" d="M105 18H0V3.503C0 1.57 1.525 0 3.406 0h98.188C103.475 0 105 1.569 105 3.503V18z"/>
            <path fill="#FFF" d="M101.594 126H3.406C1.525 126 0 124.04 0 121.62V18h105v103.62c0 2.42-1.525 4.38-3.406 4.38z"/>
            <circle cx="11.5" cy="9.5" r="4.5" fill="#FCD462"/>
            <circle cx="24.5" cy="9.5" r="4.5" fill="#27A2DB"/>
            <circle cx="39.5" cy="9.5" r="4.5" fill="#44C4A1"/>
            <path fill="#27A2DB" d="M109.246 105.292l7.754-1.908v-9.768l-7.754-1.909c-.806-3.66-2.253-7.072-4.21-10.133l4.141-6.844-6.907-6.908-6.844 4.141c-3.06-1.956-6.473-3.403-10.133-4.208L83.385 60h-9.769l-1.908 7.755c-3.66.805-7.073 2.252-10.134 4.209l-6.845-4.14-6.907 6.907 4.14 6.844c-1.955 3.06-3.402 6.473-4.207 10.133L40 93.616v9.769l7.755 1.908c.805 3.66 2.252 7.073 4.208 10.134l-4.14 6.843 6.907 6.908 6.844-4.14c3.06 1.956 6.473 3.403 10.134 4.208L73.616 137h9.769l1.908-7.754c3.66-.805 7.073-2.252 10.134-4.209l6.843 4.14 6.907-6.907-4.14-6.843c1.957-3.061 3.403-6.474 4.209-10.135z"/>
            <circle cx="77.5" cy="97.5" r="24.5" fill="#FFF"/>
            <circle cx="78" cy="98" r="14" fill="#1C75A1"/>
            <g fill="#3A556A">
                <path d="M5.22 13.84l-1.778 4.005H.24L8.064.242h3.2l7.824 17.603h-3.2l-1.778-4.004H5.22zm7.67-2.743L9.666 3.843l-3.226 7.254h6.452zM33.541 1.777c1.237 1.025 1.855 2.603 1.855 4.735 0 2.133-.632 3.695-1.893 4.685-1.262.99-3.197 1.486-5.804 1.486h-3.15v5.163h-2.997V.242h6.096c2.693 0 4.657.513 5.893 1.535zm-2.12 7.266c.6-.63.9-1.552.9-2.769s-.38-2.078-1.142-2.582c-.762-.504-1.956-.754-3.582-.754H24.55v7.05h3.48c1.66 0 2.79-.314 3.392-.945zM38.926.242L41.924.242 41.924 17.846 38.926 17.846z" transform="translate(14 32)"/>
            </g>
            <path fill="#FFF" d="M95.532 13H54.468C52.553 13 51 11.433 51 9.5S52.553 6 54.468 6h41.064C97.447 6 99 7.567 99 9.5S97.447 13 95.532 13z"/>
        </g>
        <g fill-rule="nonzero">
            <path fill="#666" d="M33.5 14.5c-.828 0-1.5-.616-1.5-1.375v-8.25c0-.76.672-1.375 1.5-1.375s1.5.616 1.5 1.375v8.25c0 .76-.672 1.375-1.5 1.375z" transform="translate(348 65.5)"/>
            <path fill="#E6E6E6" d="M51.665 34.5c-.366 0-.715-.15-.967-.413L36.425 19.155H29.57L15.3 34.087c-.508.532-1.352.553-1.886.047-.534-.505-.555-1.346-.048-1.877l14.668-15.344c.25-.263.598-.412.962-.413h8c.366 0 .715.15.967.413l14.668 15.344c.508.53.488 1.37-.045 1.876-.249.236-.579.367-.922.367z" transform="translate(348 65.5)"/>
            <path fill="#06AAE9" d="M14.333 32.5h37.334c.736 0 1.333.597 1.333 1.333v17.334c0 .736-.597 1.333-1.333 1.333H14.333c-.736 0-1.333-.597-1.333-1.333V33.833c0-.736.597-1.333 1.333-1.333z" transform="translate(348 65.5)"/>
            <g fill="#FBB03B">
                <path d="M29.586 12.857L37.655 12.857 37.655 18 29.586 18zM0 0L78 0 78 5.143 0 5.143z" transform="translate(348 65.5) translate(0 .5)"/>
            </g>
            <g fill="#29485A">
                <path d="M1.318 12C.59 12 0 11.403 0 10.667V1.333C0 .597.59 0 1.318 0c.728 0 1.318.597 1.318 1.333v9.334c0 .736-.59 1.333-1.318 1.333zM6.59 12c-.727 0-1.317-.597-1.317-1.333V1.333C5.273.597 5.863 0 6.59 0c.728 0 1.318.597 1.318 1.333v9.334c0 .736-.59 1.333-1.318 1.333zM11.864 12c-.728 0-1.319-.597-1.319-1.333V1.333c0-.736.59-1.333 1.319-1.333.728 0 1.318.597 1.318 1.333v9.334c0 .736-.59 1.333-1.318 1.333zM17.136 12c-.728 0-1.318-.597-1.318-1.333V1.333c0-.736.59-1.333 1.318-1.333.728 0 1.319.597 1.319 1.333v9.334c0 .736-.59 1.333-1.319 1.333zM22.41 12c-.729 0-1.32-.597-1.32-1.333V1.333C21.09.597 21.682 0 22.41 0c.727 0 1.317.597 1.317 1.333v9.334c0 .736-.59 1.333-1.318 1.333zM27.682 12c-.728 0-1.318-.597-1.318-1.333V1.333c0-.736.59-1.333 1.318-1.333C28.41 0 29 .597 29 1.333v9.334c0 .736-.59 1.333-1.318 1.333z" transform="translate(348 65.5) translate(19 37.5)"/>
            </g>
            <path fill="#CCC" d="M1 58.5L19.828 58.5 22.517 62.5 79 62.5 79 78.5 9.069 78.5z" transform="translate(348 65.5)"/>
            <g fill="#29485A" transform="translate(348 65.5) translate(11 63.5)">
                <ellipse cx="2" cy="2.25" rx="2" ry="2.25"/>
                <path d="M13.333 4.5L14.667 4.5 14.667 6 13.333 6zM20 4.5L21.333 4.5 21.333 6 20 6zM26.667 4.5L28 4.5 28 6 26.667 6z"/>
            </g>
            <path fill="gray" d="M63 30.5L75 30.5 75 62.5 63 62.5z" transform="translate(348 65.5)"/>
            <path fill="#CCC" d="M59 22.5L79 22.5 79 30.5 59 30.5z" transform="translate(348 65.5)"/>
            <g fill="#666">
                <path d="M0 6.818L2.667 6.818 2.667 15 0 15zM6.667 2.84L9.333 2.84 9.333 15 6.667 15zM13.333 0L16 0 16 15 13.333 15z" transform="translate(348 65.5) translate(61 7.5)"/>
            </g>
            <path fill="#3FA9F5" d="M59 25.5L68 25.5 68 28.5 59 28.5z" transform="translate(348 65.5)"/>
        </g>
        <g fill-rule="nonzero">
            <path fill="#666" d="M33.5 14.5c-.828 0-1.5-.616-1.5-1.375v-8.25c0-.76.672-1.375 1.5-1.375s1.5.616 1.5 1.375v8.25c0 .76-.672 1.375-1.5 1.375z" transform="matrix(-1 0 0 1 141 65.5)"/>
            <path fill="#E6E6E6" d="M51.665 34.5c-.366 0-.715-.15-.967-.413L36.425 19.155H29.57L15.3 34.087c-.508.532-1.352.553-1.886.047-.534-.505-.555-1.346-.048-1.877l14.668-15.344c.25-.263.598-.412.962-.413h8c.366 0 .715.15.967.413l14.668 15.344c.508.53.488 1.37-.045 1.876-.249.236-.579.367-.922.367z" transform="matrix(-1 0 0 1 141 65.5)"/>
            <path fill="#06AAE9" d="M14.333 32.5h37.334c.736 0 1.333.597 1.333 1.333v17.334c0 .736-.597 1.333-1.333 1.333H14.333c-.736 0-1.333-.597-1.333-1.333V33.833c0-.736.597-1.333 1.333-1.333z" transform="matrix(-1 0 0 1 141 65.5)"/>
            <g fill="#FBB03B">
                <path d="M29.586 12.857L37.655 12.857 37.655 18 29.586 18zM0 0L78 0 78 5.143 0 5.143z" transform="matrix(-1 0 0 1 141 65.5) translate(0 .5)"/>
            </g>
            <g fill="#29485A">
                <path d="M1.318 12C.59 12 0 11.403 0 10.667V1.333C0 .597.59 0 1.318 0c.728 0 1.318.597 1.318 1.333v9.334c0 .736-.59 1.333-1.318 1.333zM6.59 12c-.727 0-1.317-.597-1.317-1.333V1.333C5.273.597 5.863 0 6.59 0c.728 0 1.318.597 1.318 1.333v9.334c0 .736-.59 1.333-1.318 1.333zM11.864 12c-.728 0-1.319-.597-1.319-1.333V1.333c0-.736.59-1.333 1.319-1.333.728 0 1.318.597 1.318 1.333v9.334c0 .736-.59 1.333-1.318 1.333zM17.136 12c-.728 0-1.318-.597-1.318-1.333V1.333c0-.736.59-1.333 1.318-1.333.728 0 1.319.597 1.319 1.333v9.334c0 .736-.59 1.333-1.319 1.333zM22.41 12c-.729 0-1.32-.597-1.32-1.333V1.333C21.09.597 21.682 0 22.41 0c.727 0 1.317.597 1.317 1.333v9.334c0 .736-.59 1.333-1.318 1.333zM27.682 12c-.728 0-1.318-.597-1.318-1.333V1.333c0-.736.59-1.333 1.318-1.333C28.41 0 29 .597 29 1.333v9.334c0 .736-.59 1.333-1.318 1.333z" transform="matrix(-1 0 0 1 141 65.5) translate(19 37.5)"/>
            </g>
            <path fill="#CCC" d="M1 58.5L19.828 58.5 22.517 62.5 79 62.5 79 78.5 9.069 78.5z" transform="matrix(-1 0 0 1 141 65.5)"/>
            <g fill="#29485A" transform="matrix(-1 0 0 1 141 65.5) translate(11 63.5)">
                <ellipse cx="2" cy="2.25" rx="2" ry="2.25"/>
                <path d="M13.333 4.5L14.667 4.5 14.667 6 13.333 6zM20 4.5L21.333 4.5 21.333 6 20 6zM26.667 4.5L28 4.5 28 6 26.667 6z"/>
            </g>
            <path fill="gray" d="M63 30.5L75 30.5 75 62.5 63 62.5z" transform="matrix(-1 0 0 1 141 65.5)"/>
            <path fill="#CCC" d="M59 22.5L79 22.5 79 30.5 59 30.5z" transform="matrix(-1 0 0 1 141 65.5)"/>
            <g fill="#666">
                <path d="M0 6.818L2.667 6.818 2.667 15 0 15zM6.667 2.84L9.333 2.84 9.333 15 6.667 15zM13.333 0L16 0 16 15 13.333 15z" transform="matrix(-1 0 0 1 141 65.5) translate(61 7.5)"/>
            </g>
            <path fill="#3FA9F5" d="M59 25.5L68 25.5 68 28.5 59 28.5z" transform="matrix(-1 0 0 1 141 65.5)"/>
        </g>
    </g>
</svg>
