<svg width="120" height="120" viewBox="0 0 120 120" xmlns="http://www.w3.org/2000/svg">
    <path d="M118.286 49.714c.946 0 1.714.768 1.714 1.715v66.857c0 .946-.768 1.714-1.714 1.714H1.714A1.714 1.714 0 0 1 0 118.286V51.429c0-.947.768-1.715 1.714-1.715h116.572zm-1.715 3.429H3.43l-.001 4.285h23.143a1.714 1.714 0 0 1 0 3.43l-23.143-.001v55.714h113.143V60.857H34.286a1.714 1.714 0 0 1 0-3.428l82.285-.001v-4.285zm-102.428 12a4.714 4.714 0 0 1 4.714 4.714v37.714a4.714 4.714 0 0 1-9.428 0V69.857a4.714 4.714 0 0 1 4.714-4.714zm15.428 0a4.714 4.714 0 0 1 4.715 4.714v37.714a4.714 4.714 0 0 1-9.429 0V69.857a4.714 4.714 0 0 1 4.714-4.714zm15.429 0a4.714 4.714 0 0 1 4.714 4.714v37.714a4.714 4.714 0 0 1-9.428 0V69.857A4.714 4.714 0 0 1 45 65.143zm15.429 0a4.714 4.714 0 0 1 4.714 4.714v37.714a4.714 4.714 0 0 1-9.429 0V69.857a4.714 4.714 0 0 1 4.715-4.714zm15.428 0a4.714 4.714 0 0 1 4.714 4.714v37.714a4.714 4.714 0 0 1-9.428 0V69.857a4.714 4.714 0 0 1 4.714-4.714zm15.429 0A4.714 4.714 0 0 1 96 69.857v37.714a4.714 4.714 0 0 1-9.429 0V69.857a4.714 4.714 0 0 1 4.715-4.714zm15.428 0a4.714 4.714 0 0 1 4.715 4.714v37.714a4.714 4.714 0 1 1-9.429 0V69.857a4.714 4.714 0 0 1 4.714-4.714zM14.143 68.57c-.668 0-1.218.51-1.28 1.162l-.006.124v37.714a1.286 1.286 0 0 0 2.566.124l.006-.124V69.857c0-.71-.576-1.286-1.286-1.286zm15.428 0c-.668 0-1.217.51-1.28 1.162l-.005.124v37.714a1.286 1.286 0 0 0 2.565.124l.006-.124V69.857c0-.71-.575-1.286-1.286-1.286zm15.429 0c-.668 0-1.218.51-1.28 1.162l-.006.124v37.714a1.286 1.286 0 0 0 2.566.124l.006-.124V69.857c0-.71-.576-1.286-1.286-1.286zm15.429 0c-.669 0-1.218.51-1.28 1.162l-.006.124v37.714a1.286 1.286 0 0 0 2.565.124l.006-.124V69.857c0-.71-.575-1.286-1.285-1.286zm15.428 0c-.668 0-1.217.51-1.28 1.162l-.006.124v37.714a1.286 1.286 0 0 0 2.566.124l.006-.124V69.857c0-.71-.576-1.286-1.286-1.286zm15.429 0c-.669 0-1.218.51-1.28 1.162l-.006.124v37.714a1.286 1.286 0 0 0 2.566.124l.005-.124V69.857c0-.71-.575-1.286-1.285-1.286zm15.428 0c-.668 0-1.217.51-1.28 1.162l-.005.124v37.714a1.286 1.286 0 0 0 2.565.124l.006-.124V69.857c0-.71-.576-1.286-1.286-1.286zM72 0c.947 0 1.714.768 1.714 1.714V6a6 6 0 0 1-6 6h-6v.988l.04.06c.07.098.172.221.308.368l.174.183.464.452 1.418 1.36.073.072c2.27 2.262 3.485 4.304 3.485 6.884 0 1.808-.479 3.224-1.286 4.292l32 16.218a5.571 5.571 0 0 1 9.61 3.837v3h-3.429v-3a2.143 2.143 0 0 0-4.28-.14l-.005.14v3h-3.429v-3c0-.252.017-.501.05-.745L63.152 28.862c-.973.313-2.044.46-3.152.46-.85 0-1.812-.25-2.758-.69L23.05 45.689c.061.333.094.676.094 1.026l-.001 3h-3.428v-3a2.143 2.143 0 0 0-4.28-.14l-.005.14-.001 3H12v-3a5.571 5.571 0 0 1 9.408-4.04l32.725-16.321c-1.042-1.15-1.746-2.537-1.746-3.986a1.714 1.714 0 0 1 3.424-.128l.005.128c0 .735.566 1.582 1.603 2.347l2.587-1.291 3.123 1.583c.703-.568 1.119-1.43 1.119-2.639 0-1.382-.727-2.662-2.263-4.238l-.273-.275-1.614-1.55-.405-.402c-.922-.964-1.407-1.736-1.407-2.746L58.285 12h-6a6 6 0 0 1-6-6V1.714C46.286.768 47.054 0 48 0h24zm-1.714 3.429H49.714V6c0 1.37 1.07 2.489 2.42 2.567l.152.004h15.428c1.37 0 2.49-1.07 2.567-2.42L70.286 6V3.429z" fill="#338FBD" fill-rule="nonzero"/>
</svg>
