<svg width="100" height="100" viewBox="0 0 100 100" xmlns="http://www.w3.org/2000/svg">
    <g fill="none" fill-rule="evenodd">
        <path d="M96 8a2.99 2.99 0 0 1 2.121.879A2.99 2.99 0 0 1 99 11v13H1V11c0-.828.336-1.578.879-2.121A2.99 2.99 0 0 1 4 8z" stroke="#23A376" stroke-width="2"/>
        <path d="M100 23v58a4 4 0 0 1-4 4h-7v-2h7a2 2 0 0 0 1.995-1.85L98 81V24.999H2V81a2 2 0 0 0 1.85 1.995L4 83h52v2H4a4 4 0 0 1-4-4V23h100z" fill="#23A376" fill-rule="nonzero"/>
        <circle stroke="#23A376" stroke-width="2" cx="10" cy="16" r="3"/>
        <circle stroke="#23A376" stroke-width="2" cx="20" cy="16" r="3"/>
        <circle stroke="#23A376" stroke-width="2" cx="30" cy="16" r="3"/>
        <rect fill="#23A376" x="48" y="15" width="45" height="2" rx="1"/>
        <rect fill="#23A376" x="38" y="37" width="55" height="2" rx="1"/>
        <rect fill="#23A376" x="38" y="46" width="55" height="2" rx="1"/>
        <rect fill="#23A376" x="38" y="61" width="21" height="2" rx="1"/>
        <rect fill="#23A376" x="79" y="61" width="14" height="2" rx="1"/>
        <rect fill="#23A376" x="38" y="70" width="6" height="2" rx="1"/>
        <path d="M25 41.587h0V47a2 2 0 0 1-2 2H13a2 2 0 0 1-2-2V37a2 2 0 0 1 2-2h7.058M25 65.587h0V71a2 2 0 0 1-2 2H13a2 2 0 0 1-2-2V61a2 2 0 0 1 2-2h7.058" stroke="#23A376" stroke-width="2" stroke-linecap="round"/>
        <path d="M25.581 34.299a1 1 0 0 1 1.508 1.308l-.082.094-8.294 8.428a1 1 0 0 1-1.35.07l-.095-.09-3.08-3.306a1 1 0 0 1 1.372-1.45l.092.087 2.368 2.541 7.561-7.682zM25.581 58.299a1 1 0 0 1 1.508 1.308l-.082.094-8.294 8.428a1 1 0 0 1-1.35.07l-.095-.09-3.08-3.306a1 1 0 0 1 1.372-1.45l.092.087 2.368 2.541 7.561-7.682zM68 53a4 4 0 0 1 4 4v14.535a4.002 4.002 0 0 1 5.776 2.141 4.002 4.002 0 0 1 6 2A4 4 0 0 1 90 79v12.001c0 5.63-2.868 8.688-8.537 8.992l-.318.014H65.164c-3.727 0-5.716-1.94-6.814-5.401l-.074-.24-.145-.505a27.47 27.47 0 0 1-.072-.27l-.364-1.455-.1-.376-.09-.312-.128-.405-.252-.848-.4-1.434-1.134-4.173-.417-1.494-.284-.987-.266-.896-.25-.803-.23-.709L54 79.28l-.2-.548-.124-.31a9.433 9.433 0 0 0-.059-.139l-.11-.244-.103-.199c-.63-1.128.039-2.17 1.251-2.509.89-.249 2.093-.168 3.347.228 2.22.7 4.322 2.237 5.998 4.55V57a4 4 0 0 1 4-4zm0 2a2 2 0 0 0-1.995 1.85L66 57v30l.002.031c-.027.65-.362.974-1.005.974-.606 0-.936-.289-.99-.867L64 87l-.002-2.9a1.005 1.005 0 0 1-.098-.171c-1.572-3.497-3.978-5.667-6.5-6.464-.759-.24-1.454-.317-1.94-.26l-.128.019.095.206.153.366.16.416.169.467.176.517.185.57.294.95.317 1.071.422 1.488 1.494 5.475.299 1.06.229.76.039.12c.035.108.07.22.104.34l.107.391.348 1.388.136.516.065.235.133.44c.832 2.625 2.1 3.921 4.648 4.002l.259.004 15.946.001C85.88 97.839 88 95.654 88 91V79a2 2 0 0 0-3.995-.15L84 79v4.027c-.014.647-.344.971-.99.971-.606 0-.939-.283-.997-.85l-.01-.137H82V77a2 2 0 0 0-3.995-.15L78 77l.002 5.081c-.06.533-.395.8-1.004.8-.59 0-.918-.25-.985-.75l-.01-.131H76v-7a2 2 0 0 0-3.995-.15L72 75l.001 7.035c-.053.55-.386.826-1 .826-.578 0-.908-.244-.99-.734L70 82.036V57a2 2 0 0 0-2-2z" fill="#23A376" fill-rule="nonzero"/>
    </g>
</svg>
