<svg width="140" height="140" viewBox="0 0 140 140" xmlns="http://www.w3.org/2000/svg">
    <g fill-rule="nonzero" fill="none">
        <path d="M66.909 99.016h23.436c6.504 0 11.663-5.177 11.663-11.681 0-6.505-5.489-9.57-11.663-9.663l-47.008.004c-9.915.001-13.421 5.127-18.031 9.726l28.4 28.4c.501-.079 1.03-.132 1.636-.132h39.67c8.018 0 14.72-1.96 19.466-8.833 5.345-7.741 15.354-22.225 19.776-28.495 1.61-2.282 2.64-4.894 2.739-7.61.099-2.717-.84-5.545-2.999-7.703a11.044 11.044 0 0 0-7.82-3.236c-2.833 0-5.672 1.086-7.822 3.236-4.925 4.925-12.97 13.822-17.895 18.747m-83.768.904L2.688 96.686a2.334 2.334 0 0 0 0 3.309l37.345 37.326c.91.905 2.38.905 3.291 0l14.001-14.005c.905-.91.905-2.38 0-3.29L19.98 82.68a2.326 2.326 0 0 0-1.646-.679c-.596 0-1.191.225-1.645.68zm22.036 33.538-4.5 4.502a.75.75 0 0 0 0 1.064l7.003 6.998a.75.75 0 0 0 1.058 0l4.5-4.502a.75.75 0 0 0 0-1.058l-7.003-7.004a.748.748 0 0 0-1.058 0z" stroke="#338FBD" stroke-width="4"/>
        <path d="M67.014 0c19.12 0 34.66 15.54 34.66 34.66 0 19.122-15.543 34.678-34.66 34.678-19.12 0-34.678-15.559-34.678-34.678C32.336 15.543 47.892 0 67.014 0zm0 4C50.1 4 36.336 17.753 36.336 34.66c0 16.91 13.768 30.678 30.678 30.678 16.907 0 30.66-13.764 30.66-30.678C97.675 17.75 83.926 4 67.015 4zm-.009 7.316c1.167 0 2.334.777 2.334 2.333v5.027c4.005 1.047 6.991 4.685 6.991 9.006a2.334 2.334 0 1 1-4.667 0c0-2.605-2.043-4.671-4.648-4.671a4.636 4.636 0 0 0-4.668 4.671 4.632 4.632 0 0 0 4.668 4.667c5.127 0 9.315 4.207 9.315 9.334 0 4.32-2.986 7.959-6.991 9.006v4.981c0 3.112-4.667 3.112-4.667 0v-4.986c-4-1.053-6.996-4.686-6.996-9a2.336 2.336 0 0 1 4.671 0 4.636 4.636 0 0 0 4.668 4.67c2.605 0 4.648-2.066 4.648-4.67 0-2.606-2.043-4.668-4.648-4.668-5.128 0-9.34-4.206-9.34-9.334 0-4.315 2.997-7.948 6.997-9.001v-5.032c0-1.556 1.166-2.333 2.333-2.333z" fill="#338FBD"/>
    </g>
</svg>
