<svg width="100" height="100" viewBox="0 0 100 100" xmlns="http://www.w3.org/2000/svg">
    <g fill="none" fill-rule="evenodd">
        <path d="M76.886 0 100 23.113v72.888a4 4 0 0 1-4 4H24a4 4 0 0 1-4-4V84h2v12a2 2 0 0 0 1.85 1.995l.15.006h72a2 2 0 0 0 1.995-1.851L98 96V23.943L76.056 1.999 24 2.001a2 2 0 0 0-1.995 1.85l-.005.15V37h-2V4a4 4 0 0 1 4-4h52.886z" fill="#23A376" fill-rule="nonzero"/>
        <rect fill="#23A376" x="36.269" y="32.001" width="51" height="2" rx="1"/>
        <rect fill="#23A376" x="50.269" y="43.001" width="37" height="2" rx="1"/>
        <rect fill="#23A376" x="55.269" y="54.001" width="32" height="2" rx="1"/>
        <rect fill="#23A376" x="55.269" y="65.001" width="32" height="2" rx="1"/>
        <rect fill="#23A376" x="50.269" y="76.001" width="37" height="2" rx="1"/>
        <rect fill="#23A376" x="37.269" y="87.001" width="50" height="2" rx="1"/>
        <circle stroke="#23A376" stroke-width="2" cx="25" cy="61" r="24"/>
        <path d="M76.807 1.39v17.233a5 5 0 0 0 5 5h16.941" stroke="#23A376" stroke-width="2"/>
        <text font-family="Lato-Light, Lato" font-size="33" font-weight="300" fill="#23A376">
                    <tspan x="16.269" y="73.001">S</tspan>
                </text>
        <path stroke="#23A376" stroke-width="2" stroke-linecap="round" stroke-linejoin="round" d="M24.769 47.427v28.147"/>
    </g>
</svg>
