<svg width="120" height="120" viewBox="0 0 120 120" xmlns="http://www.w3.org/2000/svg">
    <path d="M60 0c4.787 0 8.92 2.803 10.845 6.857h1.717a8.571 8.571 0 0 1 8.296 10.727l-4.355 16a7.288 7.288 0 0 1 2.377 13.298c9.87 7.81 18.696 19.827 20.886 30.261h16.805A3.429 3.429 0 0 1 120 80.57v10.165-.001V116.57a3.429 3.429 0 0 1-3.24 3.424l-.189.005H60.857l-.188-.005A44.54 44.54 0 0 1 60 120c-5.963 0-11.623-1.226-16.714-3.428A5.57 5.57 0 0 1 38.143 120H6.429a5.571 5.571 0 0 1-2.33-10.634 5.547 5.547 0 0 1-.67-2.652c0-.851.19-1.658.532-2.38A5.571 5.571 0 0 1 2.028 94.7a5.535 5.535 0 0 1-1.17-3.414c0-1.288.436-2.473 1.169-3.416A5.571 5.571 0 0 1 5.57 78h14.497C21.94 67.373 30.985 54.913 41.132 46.89A7.288 7.288 0 0 1 43.5 33.583l-4.358-15.999a8.571 8.571 0 0 1 7.933-10.72l.363-.007h1.717A12.001 12.001 0 0 1 60 0zm40.286 81.857c0 15.42-9.665 28.704-23.572 34.716l29.693-.002a12.008 12.008 0 0 1 10.164-10.164V90.736a12.008 12.008 0 0 1-10.164-10.165h-6.163c.028.433.042.862.042 1.286zM74.72 48H45.303C35.244 55.242 25.624 67.733 23.553 78L37.286 78a5.571 5.571 0 0 1 4.401 8.988 5.556 5.556 0 0 1 2.027 4.298 5.56 5.56 0 0 1-2.027 4.299A5.54 5.54 0 0 1 42.857 99a5.55 5.55 0 0 1-.532 2.38 5.573 5.573 0 0 1 .719 10.397c.193.355.348.734.46 1.131 4.96 2.344 10.561 3.663 16.496 3.663 20.396 0 36.857-15.585 36.857-34.714C96.857 71.054 86.068 56.18 74.72 48zm-36.577 64.287H6.429a2.143 2.143 0 0 0-.141 4.28l.14.005h31.715a2.143 2.143 0 0 0 .14-4.28l-.14-.005zm78.428-2.4-.154.033a8.583 8.583 0 0 0-6.498 6.498l-.033.154h6.685v-6.685zm-75.857-5.315H9a2.143 2.143 0 0 0-.14 4.282l.14.004h31.714a2.143 2.143 0 0 0 .141-4.281l-.14-.005zm67.286-12a6 6 0 1 1 0 12 6 6 0 0 1 0-12zm-70.714 4.286H5.57a2.143 2.143 0 0 0-.14 4.281l.14.005h31.715a2.143 2.143 0 0 0 .14-4.281l-.14-.005zM108 96a2.571 2.571 0 1 0 0 5.143A2.571 2.571 0 0 0 108 96zM60 60.857c.947 0 1.714.768 1.714 1.714v1.636c1.483.084 2.856.368 4.118.853 1.4.537 2.638 1.295 3.714 2.273l.29.272-1.088 2.13a1.794 1.794 0 0 1-.44.52c-.154.116-.355.174-.601.174-.263 0-.567-.131-.915-.394a14.57 14.57 0 0 0-1.319-.867 10.705 10.705 0 0 0-1.92-.868 7.263 7.263 0 0 0-1.837-.36l-.002 10.787.913.311c.746.255 1.48.533 2.2.835l.716.31c.949.425 1.797.961 2.545 1.609a7.333 7.333 0 0 1 1.806 2.384c.455.94.682 2.098.682 3.471 0 1.45-.247 2.812-.74 4.085a9.417 9.417 0 0 1-2.164 3.32c-.949.942-2.114 1.683-3.495 2.223-.763.298-1.584.514-2.462.647v1.507a1.714 1.714 0 0 1-3.43 0v-1.385c-1.686-.119-3.247-.495-4.684-1.128-1.63-.72-3.041-1.672-4.231-2.858l-.293-.301 1.296-2.13c.123-.169.273-.312.45-.427.178-.116.375-.174.591-.174.324 0 .694.174 1.11.52.417.348.938.73 1.563 1.146.625.417 1.38.799 2.268 1.146.564.22 1.207.371 1.93.451V82.15a29.386 29.386 0 0 1-2.763-1.051 9.477 9.477 0 0 1-2.534-1.62c-.74-.664-1.339-1.493-1.794-2.488-.455-.995-.683-2.226-.683-3.691 0-1.173.228-2.307.683-3.402a8.769 8.769 0 0 1 1.979-2.916c.864-.849 1.932-1.528 3.205-2.037.595-.238 1.23-.42 1.907-.547v-1.826c0-.946.768-1.714 1.715-1.714zm1.354 22.266.36.12v10.89c.256-.06.502-.13.74-.214.832-.293 1.538-.706 2.117-1.238a5.364 5.364 0 0 0 1.33-1.91c.309-.74.463-1.566.463-2.476 0-1.003-.227-1.824-.682-2.465a5.66 5.66 0 0 0-1.794-1.608 12.537 12.537 0 0 0-2.534-1.1zm-23.211 6.02H6.429a2.143 2.143 0 0 0-.141 4.281l.14.005h31.715a2.143 2.143 0 0 0 .14-4.282l-.14-.004zm71.743-8.572.033.155a8.583 8.583 0 0 0 6.498 6.498l.154.032v-6.685h-6.685zm-72.6.858H5.57a2.143 2.143 0 0 0-.14 4.28l.14.005h31.715a2.143 2.143 0 0 0 .14-4.28l-.14-.005zm21-13.155-.114.037c-.772.27-1.416.637-1.933 1.1a4.513 4.513 0 0 0-1.168 1.631 5.179 5.179 0 0 0-.394 2.025c0 .926.228 1.693.683 2.303.455.61 1.057 1.13 1.805 1.562.351.203.725.393 1.12.57v-9.228zM75 36.857H45a3.857 3.857 0 1 0 0 7.714h30a3.857 3.857 0 0 0 0-7.714zM60 3.43a8.572 8.572 0 0 0-8.568 8.331l-.003.24v12H48V12c0-.582.041-1.155.122-1.715h-.684a5.143 5.143 0 0 0-4.977 6.437l4.549 16.706h25.982l4.547-16.706a5.143 5.143 0 0 0-4.785-6.433l-.192-.003h-.684c.068.473.108.956.12 1.446L72 12v12h-3.429V12A8.571 8.571 0 0 0 60 3.429z" fill="#338FBD" fill-rule="nonzero"/>
</svg>
