<svg xmlns="http://www.w3.org/2000/svg" width="80" height="80" viewBox="0 0 80 80">
    <g fill="none" fill-rule="evenodd">
        <g fill-rule="nonzero">
            <g>
                <g>
                    <g>
                        <path fill="#C3F0FF" d="M0 28.468L15.528 28.468 15.528 49.172 0 49.172zM0 56.936L15.528 56.936 15.528 77.64 0 77.64zM0 0L15.528 0 15.528 20.704 0 20.704zM43.996 0L43.996 12.94 31.056 12.94 31.056 18.116 31.056 62.112 31.056 77.64 77.64 77.64 77.64 62.112 77.64 18.116 77.64 0z" transform="translate(-837 -1093) translate(228 1092) translate(609 1) translate(2 1)"/>
                        <path fill="#FFF" d="M49.172 5.176L72.464 5.176 72.464 12.94 49.172 12.94zM43.996 0L43.996 12.94 31.056 12.94zM67.288 67.288L72.464 67.288 72.464 72.464 67.288 72.464zM56.936 67.288L62.112 67.288 62.112 72.464 56.936 72.464zM46.584 67.288L51.76 67.288 51.76 72.464 46.584 72.464zM36.232 67.288L41.408 67.288 41.408 72.464 36.232 72.464zM72.464 36.232v5.176l-3.274 1.087c-.078.194-.143.375-.233.556l1.553 3.093-3.662 3.662-3.093-1.553c-.181.09-.362.155-.556.233l-1.087 3.274h-5.176l-1.087-3.274c-.194-.078-.376-.142-.557-.233L52.2 49.806l-3.662-3.662 1.552-3.093c-.09-.181-.155-.362-.232-.556l-3.274-1.087v-5.176l3.274-1.087c.077-.194.142-.375.232-.557l-1.552-3.092 3.662-3.662 3.092 1.553c.181-.091.363-.156.557-.233l1.087-3.274h5.176l1.087 3.274c.194.077.375.142.556.233l3.093-1.553 3.662 3.662-1.553 3.092c.09.182.155.363.233.557l3.274 1.087zM64.7 38.82c0-2.86-2.317-5.176-5.176-5.176-2.86 0-5.176 2.316-5.176 5.176 0 2.86 2.316 5.176 5.176 5.176 2.86 0 5.176-2.317 5.176-5.176z" transform="translate(-837 -1093) translate(228 1092) translate(609 1) translate(2 1)"/>
                    </g>
                    <g fill="#155E77">
                        <path d="M18.065 12.903h5.16V36.13h20.646v-2.58H25.806V10.322h-7.741V0H0v23.226h18.065V12.903zm-2.581 7.742H2.58V2.581h12.903v18.064z" transform="translate(-837 -1093) translate(228 1092) translate(609 1)"/>
                        <path d="M18.065 41.29H43.87v-2.58H18.065V28.387H0v23.226h18.065V41.29zm-2.581 7.742H2.58V30.968h12.903v18.064zM74.839 36.489l-3.17-1.055 1.495-2.988-4.965-4.965-2.986 1.493-1.057-3.168h-7.02l-1.057 3.168-2.986-1.493-4.965 4.965 1.494 2.988-3.17 1.055v7.02l3.169 1.056-1.495 2.987 4.966 4.965 2.985-1.492 1.057 3.169h7.02l1.058-3.168 2.985 1.493 4.966-4.965-1.495-2.988 3.17-1.055v-7.022zm-2.58 5.161l-2.966.989-.217.574c-.062.164-.126.325-.197.484l-.25.558 1.394 2.79-2.334 2.334-2.79-1.394-.558.25c-.162.072-.324.135-.49.2l-.568.218-.988 2.96h-3.301l-.988-2.96-.569-.218c-.165-.065-.329-.13-.489-.2l-.558-.25-2.79 1.394-2.334-2.334 1.395-2.79-.25-.558c-.072-.159-.136-.32-.198-.484l-.217-.574-2.964-.989v-3.302l2.965-.988.217-.574c.062-.164.127-.325.198-.484l.25-.559-1.395-2.79 2.334-2.334 2.79 1.395.559-.25c.161-.072.324-.136.489-.2l.569-.218.987-2.959h3.302l.987 2.96.569.218c.165.065.329.13.489.2l.559.25 2.79-1.394 2.334 2.334-1.395 2.79.25.558c.071.159.135.32.197.484l.217.574 2.964.989v3.3z" transform="translate(-837 -1093) translate(228 1092) translate(609 1)"/>
                        <path d="M60.645 33.548c-3.557 0-6.451 2.895-6.451 6.452s2.894 6.452 6.451 6.452c3.558 0 6.452-2.895 6.452-6.452s-2.894-6.452-6.452-6.452zm0 10.323c-2.134 0-3.87-1.737-3.87-3.871s1.736-3.871 3.87-3.871c2.134 0 3.871 1.737 3.871 3.871s-1.737 3.871-3.87 3.871z" transform="translate(-837 -1093) translate(228 1092) translate(609 1)"/>
                        <path d="M44.627 0l-13.66 13.66v17.308h2.581V15.484h12.904V2.58h30.967v74.838H33.55V49.032h-2.581V80H80V0H44.627zm-9.254 12.903l8.498-8.498v8.498h-8.498z" transform="translate(-837 -1093) translate(228 1092) translate(609 1)"/>
                        <path d="M74.839 5.161H49.032v10.323H74.84V5.16zm-2.58 7.742H51.612V7.742h20.645v5.161zM36.129 18.065L38.71 18.065 38.71 20.645 36.129 20.645zM41.29 18.065L74.839 18.065 74.839 20.645 41.29 20.645zM74.839 74.839v-7.742h-7.742v7.742h7.742zm-5.162-5.162h2.581v2.581h-2.58v-2.58zM64.516 74.839v-7.742h-7.742v7.742h7.742zm-5.161-5.162h2.58v2.581h-2.58v-2.58zM54.194 74.839v-7.742h-7.742v7.742h7.742zm-5.162-5.162h2.58v2.581h-2.58v-2.58zM36.129 74.839h7.742v-7.742h-7.742v7.742zm2.58-5.162h2.581v2.581h-2.58v-2.58zM36.129 61.935L38.71 61.935 38.71 64.516 36.129 64.516zM41.29 61.935L74.839 61.935 74.839 64.516 41.29 64.516zM36.129 56.774L74.839 56.774 74.839 59.355 36.129 59.355zM5.161 61.935L12.903 61.935 12.903 64.516 5.161 64.516zM5.161 67.097L12.903 67.097 12.903 69.677 5.161 69.677zM5.161 72.258L12.903 72.258 12.903 74.839 5.161 74.839zM5.161 33.548L12.903 33.548 12.903 36.129 5.161 36.129zM5.161 38.71L12.903 38.71 12.903 41.29 5.161 41.29zM5.161 43.871L12.903 43.871 12.903 46.452 5.161 46.452zM5.161 5.161L12.903 5.161 12.903 7.742 5.161 7.742zM5.161 10.323L12.903 10.323 12.903 12.903 5.161 12.903zM5.161 15.484L12.903 15.484 12.903 18.065 5.161 18.065z" transform="translate(-837 -1093) translate(228 1092) translate(609 1)"/>
                        <path d="M43.871 43.871H23.226v23.226h-5.161V56.774H0V80h18.065V69.677h7.741V46.452h18.065V43.87zM15.484 77.419H2.58V59.355h12.903v18.064z" transform="translate(-837 -1093) translate(228 1092) translate(609 1)"/>
                    </g>
                </g>
            </g>
        </g>
    </g>
</svg>
