<svg xmlns="http://www.w3.org/2000/svg" width="106" height="63" viewBox="0 0 106 63">
    <g fill="none" fill-rule="evenodd">
        <g fill-rule="nonzero">
            <g>
                <g>
                    <g>
                        <path fill="#FFF" d="M0 10.2L17.353 10.2 17.353 17 0 17z" transform="translate(-559 -1101) translate(228 1092) translate(331 9) translate(31.933 4)"/>
                        <path fill="#C3F0FF" d="M20.824 10.2L38.176 10.2 38.176 17 20.824 17z" transform="translate(-559 -1101) translate(228 1092) translate(331 9) translate(31.933 4)"/>
                        <path fill="#FFF" d="M41.647 10.2L59 10.2 59 17 41.647 17z" transform="translate(-559 -1101) translate(228 1092) translate(331 9) translate(31.933 4)"/>
                        <path fill="#C3F0FF" d="M41.647 0L59 0 59 6.8 41.647 6.8z" transform="translate(-559 -1101) translate(228 1092) translate(331 9) translate(31.933 4)"/>
                        <path fill="#FFF" d="M20.824 0L38.176 0 38.176 6.8 20.824 6.8z" transform="translate(-559 -1101) translate(228 1092) translate(331 9) translate(31.933 4)"/>
                        <path fill="#C3F0FF" d="M0 0L17.353 0 17.353 6.8 0 6.8z" transform="translate(-559 -1101) translate(228 1092) translate(331 9) translate(31.933 4)"/>
                    </g>
                    <path fill="#C3F0FF" d="M104.743 26.865c-.31-.539-.87-.867-1.474-.865h-20.8c-.376-.002-.741.125-1.04.36l-6.466 5.04H24.245L21.8 28.843l-2.236-2.322c-.33-.331-.77-.518-1.23-.522h-15.6C1.775 26 1 26.806 1 27.8v16.198c0 .323.084.64.243.918l4.437 7.686c.866-.291 1.698-.684 2.479-1.17l.676-.378c.448-.257.911-.485 1.386-.685.243-.107.52-.215.798-.305.277-.09.572-.198.9-.27.194-.06.391-.103.59-.126.226-.054.451-.09.676-.126.702-.098 1.408-.145 2.115-.145 2.502-.058 4.966.642 7.09 2.016 1.627 1.081 3.529 1.632 5.46 1.584 1.931.046 3.831-.505 5.46-1.584 2.13-1.373 4.6-2.074 7.107-2.016 2.507-.061 4.978.64 7.106 2.016 3.356 2.112 7.565 2.112 10.921 0 4.384-2.687 9.83-2.687 14.213 0 3.356 2.112 7.565 2.112 10.921 0 2.14-1.365 4.613-2.065 7.124-2.016h.174c.415 0 .814.019 1.196.055.821.06 1.635.212 2.426.45l10.314-21.292c.273-.554.247-1.217-.07-1.745z" transform="translate(-559 -1101) translate(228 1092) translate(331 9)"/>
                    <path fill="#C3F0FF" d="M90.933 24v1.75h-8.5c-.368-.002-.726.121-1.02.35l-6.34 4.9h-1.14v-7h17z" transform="translate(-559 -1101) translate(228 1092) translate(331 9)"/>
                    <path fill="#FFF" d="M52.933 24L69.933 24 69.933 31 52.933 31z" transform="translate(-559 -1101) translate(228 1092) translate(331 9)"/>
                    <path fill="#C3F0FF" d="M31.933 24L48.933 24 48.933 31 31.933 31zM23.247 3H9.757c-.833.005-1.54.635-1.67 1.488L4.932 25.75h13.255c.447.004.876.185 1.197.508l2.176 2.257L23.939 31h.994V4.75c0-.966-.755-1.75-1.686-1.75zm-6.745 8.75h-1.687c-.931 0-1.686-.783-1.686-1.75 0-.966.755-1.75 1.686-1.75h1.687c.93 0 1.686.784 1.686 1.75 0 .967-.755 1.75-1.686 1.75z" transform="translate(-559 -1101) translate(228 1092) translate(331 9)"/>
                    <path fill="#155E77" d="M103.2 59.5c-1.928.05-3.826-.483-5.451-1.532-4.394-2.62-9.853-2.62-14.246 0-3.35 2.042-7.545 2.042-10.894 0-4.393-2.62-9.853-2.62-14.245 0-3.349 2.042-7.542 2.042-10.89 0-2.136-1.336-4.61-2.019-7.123-1.965-2.51-.053-4.983.63-7.117 1.965-1.622 1.05-3.519 1.583-5.444 1.532-1.926.05-3.821-.482-5.443-1.53-2.135-1.337-4.608-2.02-7.119-1.967-2.51-.053-4.983.63-7.117 1.965-1.621 1.05-3.518 1.583-5.444 1.532-.958 0-1.734.783-1.734 1.749 0 .966.776 1.748 1.734 1.748 2.512.054 4.985-.63 7.118-1.967 1.622-1.047 3.518-1.58 5.443-1.53 1.926-.05 3.822.483 5.445 1.533 2.134 1.335 4.606 2.018 7.117 1.964 2.511.053 4.983-.63 7.117-1.967 1.621-1.048 3.518-1.581 5.444-1.53 1.927-.05 3.823.484 5.446 1.533 4.392 2.62 9.85 2.62 14.243 0 3.348-2.043 7.544-2.043 10.892 0 4.392 2.62 9.85 2.62 14.243 0 3.353-2.043 7.55-2.043 10.903 0 2.135 1.335 4.61 2.018 7.122 1.964.957 0 1.733-.782 1.733-1.748s-.776-1.749-1.733-1.749z" transform="translate(-559 -1101) translate(228 1092) translate(331 9)"/>
                    <path fill="#155E77" d="M.933 54.247c0 .967.776 1.75 1.734 1.75 2.507.057 4.978-.627 7.106-1.966 1.629-1.049 3.53-1.583 5.46-1.534 1.935-.045 3.838.494 5.467 1.549 2.125 1.326 4.584 2.004 7.083 1.95 2.516.053 4.993-.632 7.134-1.97 1.616-1.05 3.51-1.584 5.432-1.53 1.94-.047 3.85.493 5.484 1.55 4.388 2.607 9.833 2.6 14.213-.02 1.618-1.051 3.513-1.585 5.437-1.53 1.94-.047 3.85.493 5.483 1.55 4.388 2.609 9.832 2.603 14.214-.015 1.626-1.047 3.525-1.581 5.453-1.534.375 0 .722.014 1.073.048 1.553.131 3.05.641 4.366 1.487 2.138 1.337 4.614 2.02 7.127 1.965.957 0 1.734-.783 1.734-1.75s-.777-1.75-1.734-1.75c-1.929.052-3.828-.481-5.453-1.531-1.042-.62-2.153-1.114-3.31-1.468l10.313-20.714c.27-.542.242-1.187-.074-1.704-.315-.517-.874-.832-1.476-.832h-8.666V1.75c0-.966-.776-1.75-1.734-1.75H30.4c-.956 0-1.733.784-1.733 1.75v29.748H25.2V5.25c0-.967-.776-1.75-1.734-1.75H9.6c-.856 0-1.583.63-1.712 1.484L4.646 26.248h-1.98c-.957 0-1.733.784-1.733 1.75v15.75c0 .317.086.63.248.9l4.433 7.46c-.958.276-1.951.408-2.947.389-.958 0-1.734.783-1.734 1.75zM82.4 26.248c-.375 0-.74.123-1.04.35l-6.47 4.9h-1.156v-7h17.333v1.75h-8.667zm-29.466 5.25v-7h17.333v7H52.933zM32.133 14h17.333v7H32.133v-7zm58.933 7H73.733v-7h17.333v7zm-20.8 0H52.933v-7h17.333v7zm20.8-10.5H73.733v-7h17.333v7zm-20.8 0H52.933v-7h17.333v7zm-38.133-7h17.333v7H32.133v-7zm0 21h17.333v7H32.133v-7zm-21.046-17.5h10.646v22.026l-2.241-2.263c-.325-.329-.766-.513-1.225-.514H8.154L11.087 7zM4.4 29.75h13.149l4.692 4.736c.325.33.766.513 1.225.513h52c.375 0 .74-.122 1.04-.35l6.47-4.9h17.412L90.8 48.998h-.173c-2.514-.052-4.989.63-7.126 1.966-3.359 2.049-7.567 2.043-10.92-.015-4.387-2.609-9.832-2.603-14.213.015-3.36 2.049-7.567 2.043-10.92-.015-2.13-1.328-4.597-2.006-7.1-1.952-2.508-.057-4.979.626-7.106 1.967-1.63 1.048-3.53 1.582-5.46 1.533-1.935.046-3.837-.493-5.466-1.548-2.126-1.326-4.585-2.004-7.084-1.952-.423 0-.817.018-1.194.045-.127.008-.243.023-.366.036-.24.024-.48.049-.705.082-.133.022-.259.044-.386.069-.198.035-.39.071-.576.115-.123.028-.244.06-.362.09-.174.047-.347.097-.52.15-.106.033-.214.066-.316.1-.173.06-.335.124-.494.188-.084.033-.173.065-.251.1-.193.082-.378.167-.559.254l-.117.054c-.217.107-.429.216-.63.324L4.4 43.263V29.748z" transform="translate(-559 -1101) translate(228 1092) translate(331 9)"/>
                    <path fill="#155E77" d="M16.267 9H14.6c-.92 0-1.667.672-1.667 1.5 0 .83.747 1.5 1.667 1.5h1.667c.92 0 1.666-.67 1.666-1.5 0-.828-.746-1.5-1.666-1.5zM16.6 42h1.667c.92 0 1.666-.67 1.666-1.5 0-.828-.746-1.5-1.666-1.5H16.6c-.92 0-1.667.672-1.667 1.5 0 .83.747 1.5 1.667 1.5zM24.6 42h1.667c.92 0 1.666-.67 1.666-1.5 0-.828-.746-1.5-1.666-1.5H24.6c-.92 0-1.667.672-1.667 1.5 0 .83.747 1.5 1.667 1.5zM34.6 42h1.667c.92 0 1.666-.67 1.666-1.5 0-.828-.746-1.5-1.666-1.5H34.6c-.92 0-1.667.672-1.667 1.5 0 .83.747 1.5 1.667 1.5zM42.6 42h1.667c.92 0 1.666-.67 1.666-1.5 0-.828-.746-1.5-1.666-1.5H42.6c-.92 0-1.667.672-1.667 1.5 0 .83.747 1.5 1.667 1.5zM51.6 42h1.667c.92 0 1.666-.67 1.666-1.5 0-.828-.746-1.5-1.666-1.5H51.6c-.92 0-1.667.672-1.667 1.5 0 .83.747 1.5 1.667 1.5zM59.6 42h1.667c.92 0 1.666-.67 1.666-1.5 0-.828-.746-1.5-1.666-1.5H59.6c-.92 0-1.667.672-1.667 1.5 0 .83.747 1.5 1.667 1.5zM68.6 42h1.667c.92 0 1.666-.67 1.666-1.5 0-.828-.746-1.5-1.666-1.5H68.6c-.92 0-1.667.672-1.667 1.5 0 .83.747 1.5 1.667 1.5zM76.6 42h1.667c.92 0 1.666-.67 1.666-1.5 0-.828-.746-1.5-1.666-1.5H76.6c-.92 0-1.667.672-1.667 1.5 0 .83.747 1.5 1.667 1.5zM86.6 42h1.667c.92 0 1.666-.67 1.666-1.5 0-.828-.746-1.5-1.666-1.5H86.6c-.92 0-1.667.672-1.667 1.5 0 .83.747 1.5 1.667 1.5z" transform="translate(-559 -1101) translate(228 1092) translate(331 9)"/>
                </g>
            </g>
        </g>
    </g>
</svg>
