<svg xmlns="http://www.w3.org/2000/svg" width="422" height="75" viewBox="0 0 422 75">
    <g fill="none" fill-rule="evenodd">
        <g fill="#FFF" fill-rule="nonzero">
            <g>
                <g>
                    <g>
                        <path d="M37.5 0C16.791.005.005 16.79 0 37.498.002 58.208 16.79 74.995 37.5 75c20.709-.005 37.495-16.79 37.5-37.498C74.998 16.792 58.21.005 37.5 0m1.48 1.061c5.712.237 11.287 1.823 16.268 4.63-1.13 1.643-2.481 3.123-4.016 4.396-3.533-3.69-7.676-6.742-12.248-9.022m-2.968 0c-4.566 2.276-8.705 5.322-12.235 9.005-1.515-1.283-2.841-2.773-3.94-4.426C24.8 2.869 30.342 1.3 36.02 1.065m.545.74c-2.653 3.685-4.939 7.622-6.824 11.753-1.852-.72-3.593-1.696-5.213-2.951 3.477-3.603 7.549-6.58 12.037-8.802m1.877 0c4.491 2.221 8.566 5.2 12.045 8.806-1.596 1.219-3.357 2.204-5.23 2.925-1.884-4.123-4.167-8.052-6.815-11.73m-1.395.93v9.405c.112-.13.273-.21.445-.22.173-.01.342.052.468.17V2.735c2.496 3.495 4.656 7.217 6.451 11.119-1.864.652-3.808 1.053-5.779 1.192l.16.879c2.049-.154 4.067-.578 6.004-1.26 1.463 3.357 2.664 6.891 3.39 10.903l.83-.393.016-.009c-.748-3.957-1.944-7.482-3.39-10.814 1.944-.76 3.783-1.775 5.487-3.086 3.215 3.508 5.74 7.59 7.445 12.032-2.83.976-5.726 1.746-8.667 2.304.03.14.017.287-.042.422l-.279.58c3.158-.58 6.257-1.391 9.297-2.444 1.488 4.134 2.278 8.488 2.338 12.881h-3.184c.128.117.203.281.207.454.004.174-.063.341-.186.464h3.163c-.009.592-.03 1.175-.064 1.763l.905.126c.042-.634.068-1.26.072-1.89h11.91c-.08 6.3-1.852 12.138-4.731 17.291-.851-.492-1.717-.959-2.596-1.4l-.38.83c.858.43 1.707.883 2.544 1.37-3.106 5.251-7.48 9.64-12.72 12.766-.394-.592-.825-1.145-1.26-1.682-.275.152-.559.296-.838.435.456.541.883 1.106 1.281 1.691-5.004 2.837-10.613 4.44-16.361 4.676 2.03-1.023 3.898-2.156 5.644-3.37-.682.11-1.368.204-2.055.28-1.336.852-2.715 1.637-4.13 2.35.507-.715.98-1.425 1.454-2.14-.38.022-.76.035-1.15.043-.262.389-.507.778-.786 1.163v-1.142l-.393.004-.52-.012v1.15c-.275-.385-.525-.774-.787-1.163-.389-.013-.773-.03-1.158-.05.478.718.951 1.428 1.463 2.147-1.428-.72-2.818-1.513-4.165-2.376-.704-.085-1.406-.189-2.105-.313 1.771 1.239 3.67 2.389 5.724 3.424-5.712-.235-11.287-1.82-16.268-4.624.421-.638.879-1.25 1.37-1.835-.28-.144-.55-.296-.825-.448-.485.59-.938 1.204-1.357 1.843-5.28-3.128-9.685-7.536-12.81-12.818.854-.486 1.725-.938 2.609-1.374-.136-.275-.254-.558-.38-.833-.903.441-1.79.91-2.664 1.404-2.884-5.15-4.65-10.987-4.735-17.29h11.913c.005.608.03 1.209.064 1.813l.909-.093c-.03-.575-.055-1.141-.06-1.72h3.087c-.122-.122-.19-.288-.188-.46.003-.172.075-.336.2-.454h-3.103c.06-4.413.855-8.785 2.355-12.936 3.032 1.049 6.135 1.865 9.31 2.456l-.254-.54c-.07-.143-.083-.306-.038-.457-2.954-.568-5.864-1.342-8.71-2.317 1.707-4.428 4.23-8.496 7.437-11.993 1.663 1.3 3.507 2.349 5.475 3.111-1.529 3.454-2.662 7.07-3.378 10.78l.055.026.787.376c.696-3.739 1.828-7.382 3.373-10.856 1.954.689 3.992 1.113 6.059 1.26l.16-.884c-1.99-.13-3.952-.53-5.834-1.188 1.738-3.81 3.856-7.466 6.464-11.144M19.025 6.088c1.184 1.805 2.579 3.327 4.11 4.637-3.253 3.574-5.812 7.72-7.547 12.23-3.234-1.132-6.364-2.54-9.356-4.206 3.14-5.224 7.54-9.579 12.797-12.666m37.035.051c5.216 3.085 9.582 7.42 12.704 12.615-2.981 1.693-6.106 3.119-9.339 4.261-1.732-4.523-4.292-8.684-7.55-12.268 1.602-1.334 3.01-2.885 4.185-4.608M5.792 19.552c3.01 1.708 6.206 3.086 9.487 4.27-1.536 4.24-2.352 8.71-2.414 13.22H.96c.08-6.384 1.89-12.298 4.84-17.49m63.404 0c2.947 5.2 4.76 11.11 4.84 17.49H62.136c-.063-4.491-.873-8.94-2.397-13.165 3.255-1.184 6.443-2.579 9.466-4.325m-41.301 6.51l2.735 1.298c1.15.136 2.3.25 3.454.322l.17-.913c-2.135-.127-4.254-.381-6.359-.71m19.173.037c-2.089.313-4.186.55-6.287.668l.17.913c1.14-.067 2.282-.169 3.415-.296l2.702-1.285zm-21.443.85c-.39 2.64-.62 5.301-.69 7.969l.927-.237c.071-2.198.232-4.27.477-6.223l-.718-1.509m23.75.085l-.718 1.505c.241 1.936.402 3.973.474 6.142l.921.237c-.084-2.82-.308-5.437-.676-7.884M24.944 40.102c.093 2.837.325 5.475.701 7.935l.72-1.513c-.25-1.95-.424-4-.495-6.19l-.926-.232zm25.112 0l-.926.237c-.076 2.156-.24 4.18-.486 6.104l.719 1.51c.368-2.44.605-5.044.693-7.851m-16.01 6.963c-.882.056-1.763.13-2.642.224l-2.664 1.268c1.814-.262 3.636-.465 5.475-.58l-.17-.912zm6.959.004l-.17.917c1.81.102 3.611.288 5.404.537l-2.617-1.243c-.871-.088-1.742-.156-2.617-.211m8.434 1.044l.423.88c.017.05.034.097.042.152 2.495.473 4.942 1.099 7.356 1.872.131-.266.254-.558.38-.837-2.684-.873-5.424-1.565-8.2-2.071m-23.85.042c-2.758.51-5.481 1.2-8.15 2.063.135.28.278.55.422.825 2.386-.758 4.814-1.376 7.272-1.852.008-.068.025-.131.055-.195l.401-.84zm22.602 1.302c-.695 3.696-1.814 7.3-3.336 10.738-1.95-.693-3.982-1.124-6.045-1.28l-.165.878c1.758.115 3.488.478 5.183 1.015.668-.127 1.31-.258 1.924-.423 1.395-3.255 2.553-6.68 3.284-10.526l-.025-.013-.82-.389zm-21.384.021l-.774.368-.067.03c.723 3.792 1.86 7.182 3.23 10.4.647.185 1.323.346 2.029.486 1.691-.529 3.416-.888 5.17-.99l-.164-.887c-2.083.152-4.135.586-6.1 1.289-1.515-3.426-2.63-7.015-3.324-10.696" transform="translate(-228 -1921) translate(0 1786) translate(167 58) translate(61 77)"/>
                        <g>
                            <path d="M271.535 5.364V42.91h11.75V29.862h6.417c1.7 0 3.221 1.35 3.221 3.064v9.985h11.759V28.51c0-2.273-1.231-2.805-2.159-2.873.928-.017 2.159-.656 2.159-2.95V10.748c0-4.397-1.973-5.384-5.043-5.384h-28.104zm11.75 9.291h7.859c1.189 0 1.78.706 1.78 1.907v3.098c0 1.196-.591 1.754-1.78 1.754h-7.859v-6.759zm61.491-9.291h32.308v9.291h-20.558v5.065h20.558v8.367h-20.558v5.576h20.558v9.248h-32.308V5.364zm-36.08 0h32.307v9.291h-20.558v5.065h20.558v8.367h-20.558v5.576h20.558v9.248H308.69V5.364m-223.585 0h32.308v9.291H96.856v5.065h20.558v8.367H96.856v5.576h20.558v9.248H85.106V5.364zm295.595 0h12.1l10.962 20.063V5.364h12.184V42.91h-12.184L392.8 22.47v20.442h-12.1V5.364zM236.184 42.226c-.886-.49-1.669-1.15-2.307-1.94-.843-1.15-.868-1.686-.868-16.131 0-20.332-1.404-18.795 17.201-18.795 11.148 0 12.754.085 14.04.736 2.373 1.204 3.153 3.06 3.158 7.5v3.8l-11.666.051V16.26c0-.784-.928-1.61-1.703-1.61h-7.378c-.848 0-1.826.937-1.826 1.797v15.309c0 .885.953 1.907 1.83 1.907H254c.864 0 1.74-1.056 1.74-1.92v-2.728h-6.294v-7.784l17.96-.039v8.662c0 9.452-.168 10.312-2.436 12.002-1.139.847-1.75.936-14.267 1.047-11.83.102-13.218-.005-14.52-.681m-40.31-36.858V42.91h11.75V29.862h6.417c1.7 0 3.221 1.35 3.221 3.064v9.985h11.759V28.51c0-2.273-1.231-2.805-2.159-2.873.928-.017 2.159-.656 2.159-2.95V10.748c0-4.397-1.973-5.384-5.043-5.384h-28.104zm11.75 9.291h7.859c1.189 0 1.78.706 1.78 1.907v3.098c0 1.196-.591 1.754-1.78 1.754h-7.859v-6.759zm-47.83-9.291H192.1v9.291h-20.558v5.065h20.558v8.367h-20.558v5.576h20.558v9.248h-32.308V5.364zm-40.348 0h12.542l6.362 24.077 6.388-24.077h12.593L144.97 42.91h-13.243L119.446 5.364zm-82.968 43.45l1.96 7.942 2.488-.625-.683-2.763 1.358-.34c.358-.09.75.115.843.477l.519 2.11 2.487-.625-.755-3.043c-.118-.481-.404-.528-.607-.494.198-.055.422-.255.304-.74l-.624-2.524c-.228-.928-.696-1.034-1.35-.868l-5.94 1.493zm2.968 1.341l1.666-.421c.253-.06.413.055.472.31l.164.656c.064.255-.033.4-.286.468l-1.661.413-.355-1.426zm10.76-8.904l3.68-6.06 1.712 1.064-2.344 3.851.932.58 2.344-3.857 1.539.954-2.344 3.856 1.028.634 2.344-3.856 1.7 1.055-3.681 6.057-6.91-4.278zm-6.248 4.954l5.65-4.247 1.192 1.626-3.592 2.702.654.886 3.596-2.703 1.075 1.46-3.592 2.702.717.98 3.596-2.708 1.193 1.618-5.65 4.247-4.84-6.563zM8.108 27.02l.894 7.052-1.99.256-.569-4.486-1.083.14.565 4.486-1.792.23-.565-4.486-1.197.153.569 4.486-1.982.256-.89-7.049 8.04-1.038zm46.073 7.435l.422-2.63 4.663-1.677-4.275-.702.422-2.643 8.002 1.315-.422 2.643-4.743 1.664 4.355.715-.421 2.63-8.003-1.315zM28.577 56.778c-.168-.09-.396-.281-.497-.426-.186-.247-.19-.366-.19-3.511 0-4.43-.307-4.099 3.748-4.099 2.429 0 2.783.017 3.061.162.515.264.687.668.687 1.634v.83l-2.542.009v-.256c0-.17-.202-.353-.37-.353h-1.607c-.186 0-.4.204-.4.392v3.336c0 .192.21.413.4.413h1.602c.185 0 .375-.225.375-.417v-.596h-1.37v-1.694l3.912-.008v1.89c0 2.06-.038 2.247-.53 2.613-.25.187-.38.204-3.112.23-2.576.02-2.88 0-3.162-.15m-8.437-9.886l-1.93 7.946 2.487.617.67-2.762 1.358.336c.358.09.615.455.527.817l-.515 2.115 2.488.613.742-3.047c.114-.481-.118-.655-.312-.724.198.047.493-.02.611-.51l.612-2.524c.227-.932-.14-1.243-.789-1.405l-5.949-1.472zm2.007 2.583l1.666.409c.253.064.337.242.278.498l-.16.655c-.06.255-.211.34-.464.281l-1.665-.413.345-1.43zm-8.192-7.55l5.62 4.281-1.21 1.618-3.575-2.724-.657.88 3.575 2.725-1.088 1.455-3.575-2.724-.725.97L15.9 51.13l-1.206 1.609-5.616-4.286 4.882-6.53zM9.416 34.71l1.336 2.409L6.9 40.907l5.21-1.345 1.346 2.417-8.39 1.63-1.409-2.54 5.76-6.36zm33.513.523l-8.116-3.894-3.01 16.399-3.01-16.4-8.116 3.895 3.857-8.193-11.847-3.039 11.847-3.039-3.857-8.193 8.116 3.895L31.803.17l3.014 16.493 8.116-3.895-3.858 8.193 11.73 3.04-11.73 3.038 3.858 8.193" transform="translate(-228 -1921) translate(0 1786) translate(167 58) translate(61 77) translate(6 14)"/>
                        </g>
                    </g>
                </g>
            </g>
        </g>
    </g>
</svg>
