<svg xmlns="http://www.w3.org/2000/svg" width="74" height="84" viewBox="0 0 74 84">
    <g fill="none" fill-rule="evenodd">
        <g>
            <g>
                <g transform="translate(-1083 -1090) translate(228 1092) translate(857)">
                    <g>
                        <path fill="#C3F0FF" fill-rule="nonzero" stroke="#155E77" stroke-linecap="round" stroke-width="3" d="M70.09 26.988c.033-9.686-1.444-16.737-1.444-16.737L35.044 0 1.443 10.251s-12.069 57.597 33.601 69.714c23.162-6.146 31.473-23.99 34.04-40.085"/>
                        <path fill="#FFF" stroke="#155E77" stroke-width="3" d="M35.072 14.16c8.15 0 14.758 6.607 14.758 14.758v10.136c1.821 2.775 2.88 6.095 2.88 9.662 0 9.741-7.897 17.638-17.638 17.638-9.741 0-17.638-7.897-17.638-17.638 0-3.567 1.058-6.886 2.878-9.661l.001-10.137c0-8.151 6.608-14.759 14.759-14.759zm0 7.199c-3.895 0-7.068 3.093-7.195 6.956l-.004.243v4.051c2.198-.984 4.634-1.531 7.199-1.531 2.564 0 5.001.547 7.2 1.531v-4.051c0-3.976-3.224-7.2-7.2-7.2z"/>
                        <path fill="#155E77" d="M35.044 41.097c2.288 0 4.142 1.855 4.142 4.142 0 1.326-.623 2.506-1.593 3.264v5.02c0 1.407-1.141 2.548-2.549 2.548-1.407 0-2.548-1.141-2.548-2.549v-5.019c-.97-.758-1.593-1.938-1.593-3.264 0-2.287 1.854-4.142 4.141-4.142z"/>
                    </g>
                    <circle cx="69.5" cy="33.5" r="1.5" fill="#155E77"/>
                </g>
            </g>
        </g>
    </g>
</svg>
