<svg xmlns="http://www.w3.org/2000/svg" width="84" height="80" viewBox="0 0 84 80">
    <g fill="none" fill-rule="evenodd">
        <g fill-rule="nonzero">
            <g>
                <g>
                    <g transform="translate(-289 -1092) translate(228 1092) translate(61) translate(19.187 1.626)">
                        <path fill="#C3F0FF" d="M25.633 7.847H36.757V14.266H25.633zM25.341 7.847h11.707c2.156 0 3.903-1.747 3.903-3.902 0-2.155-1.747-3.902-3.903-3.902H25.341c-2.155 0-3.902 1.747-3.902 3.902 0 2.155 1.747 3.902 3.902 3.902z"/>
                        <circle cx="31.22" cy="45.486" r="31.22" fill="#C3F0FF"/>
                        <circle cx="31.22" cy="45.486" r="23.598" fill="#FFF"/>
                        <circle cx="31.22" cy="45.486" r="3.427" fill="#C3F0FF"/>
                    </g>
                    <g fill="#155E77">
                        <path d="M83.09 43.845c-.747-7.518-4.106-14.606-9.458-19.958-4.574-4.574-10.172-7.513-16.062-8.82v-4.131c2.406-.599 4.194-2.776 4.194-5.365 0-3.048-2.48-5.528-5.528-5.528H44.528C41.48.043 39 2.523 39 5.57c0 2.588 1.788 4.766 4.194 5.365v4.143c-5.873 1.312-11.452 4.247-16.013 8.808-.998.998-1.918 2.045-2.76 3.133-.041-.003-.082-.006-.124-.006H12.71c-.898 0-1.626.728-1.626 1.626 0 .898.728 1.626 1.626 1.626h9.498c-1.192 1.996-2.154 4.092-2.885 6.25H1.626C.728 36.515 0 37.242 0 38.14c0 .899.728 1.626 1.626 1.626h16.778c-.469 2.058-.738 4.151-.807 6.25h-7.19c-.898 0-1.627.728-1.627 1.626 0 .898.729 1.626 1.627 1.626h7.242c.137 2.105.475 4.199 1.015 6.25H8.13c-.898 0-1.626.728-1.626 1.626 0 .898.728 1.626 1.626 1.626h11.572c1.595 4.22 4.088 8.175 7.48 11.567 5.356 5.357 12.452 8.716 19.978 9.46 1.074.106 2.149.158 3.222.158 6.345 0 12.61-1.836 17.925-5.297.753-.49.966-1.498.476-2.25-.49-.753-1.498-.966-2.25-.476-11.636 7.577-27.218 5.939-37.052-3.895-11.539-11.538-11.539-30.313 0-41.852 11.538-11.538 30.313-11.538 41.851 0 9.821 9.821 11.468 25.39 3.917 37.02-.49.754-.275 1.76.478 2.25.753.489 1.76.275 2.25-.479 4.034-6.213 5.85-13.718 5.113-21.132zM42.252 5.57c0-1.255 1.021-2.276 2.276-2.276h11.708c1.255 0 2.276 1.02 2.276 2.276 0 1.256-1.021 2.277-2.276 2.277H44.528c-1.255 0-2.276-1.022-2.276-2.277zm4.194 8.949V11.1h7.872v3.414c-2.614-.311-5.259-.31-7.872.006z" transform="translate(-289 -1092) translate(228 1092) translate(61)"/>
                        <path d="M72.483 67.561c-.43 0-.847.174-1.15.476-.304.303-.476.722-.476 1.15 0 .428.172.847.476 1.15.303.304.72.476 1.15.476.428 0 .845-.172 1.15-.476.302-.303.476-.722.476-1.15 0-.428-.174-.847-.476-1.15-.305-.302-.723-.476-1.15-.476zM50.407 21.888c-13.909 0-25.225 11.315-25.225 25.224s11.316 25.224 25.225 25.224c13.908 0 25.224-11.315 25.224-25.224S64.315 21.888 50.407 21.888zm0 47.196c-12.116 0-21.973-9.857-21.973-21.972 0-12.116 9.857-21.972 21.973-21.972 12.115 0 21.972 9.856 21.972 21.972 0 12.115-9.857 21.972-21.972 21.972z" transform="translate(-289 -1092) translate(228 1092) translate(61)"/>
                        <path d="M60.692 34.527L52.64 42.58c-.674-.333-1.432-.52-2.232-.52-.801 0-1.559.187-2.232.52l-3.605-3.604c-.635-.635-1.664-.635-2.3 0-.634.635-.634 1.664 0 2.3l3.605 3.604c-.333.673-.521 1.43-.521 2.232 0 2.786 2.266 5.052 5.053 5.052 2.786 0 5.052-2.266 5.052-5.052 0-.801-.188-1.559-.52-2.232l7.816-7.817.237-.237c.635-.635.635-1.664 0-2.3-.635-.634-1.665-.634-2.3 0zM50.407 48.913c-.993 0-1.801-.808-1.801-1.801 0-.993.808-1.8 1.8-1.8.994 0 1.801.807 1.801 1.8s-.807 1.8-1.8 1.8zM67.792 45.506h-1.507c-.898 0-1.626.728-1.626 1.626 0 .898.728 1.626 1.626 1.626h1.507c.898 0 1.626-.728 1.626-1.626 0-.898-.728-1.626-1.626-1.626zM34.528 45.466H33.02c-.897 0-1.626.728-1.626 1.626 0 .898.729 1.626 1.626 1.626h1.507c.898 0 1.626-.728 1.626-1.626 0-.898-.728-1.626-1.626-1.626zM50.427 32.859c.897 0 1.626-.728 1.626-1.626v-1.506c0-.898-.729-1.626-1.626-1.626-.898 0-1.627.728-1.627 1.626v1.506c0 .898.729 1.626 1.627 1.626zM50.387 61.365c-.898 0-1.626.728-1.626 1.626v1.506c0 .898.728 1.626 1.626 1.626.898 0 1.626-.728 1.626-1.626v-1.506c0-.898-.728-1.626-1.626-1.626zM1.626 55.519c-.428 0-.847.174-1.15.476-.302.303-.476.722-.476 1.15 0 .429.174.847.476 1.15.303.302.722.476 1.15.476.428 0 .847-.174 1.15-.477.302-.302.476-.722.476-1.15 0-.427-.174-.846-.477-1.149-.302-.302-.721-.476-1.149-.476z" transform="translate(-289 -1092) translate(228 1092) translate(61)"/>
                    </g>
                </g>
            </g>
        </g>
    </g>
</svg>
