<svg width="143" height="40" viewBox="0 0 143 40" xmlns="http://www.w3.org/2000/svg">
    <g fill="none" fill-rule="evenodd">
        <path d="m119.818 8.23-.787 10.102c.254.591 1.359.887 3.314.887 2.933 0 5.326-1.622 8.27-1.622 1.355 0 2.442.411 3.26 1.234l-.636-10.6c-.745-.487-1.773-.731-3.084-.731-1.966 0-5.686 1.536-7.555 1.536-1.247 0-2.174-.268-2.782-.805z" fill="red"/>
        <path d="M133.777 18.77c-.743-.62-1.878-.913-3.404-.877-2.289.054-4.633 1.66-7.875 1.7-1.273.015-2.2-.138-2.78-.46" stroke="red" stroke-width=".2"/>
        <path d="M133.856 18.727c-.706-.259-1.821-.352-3.346-.281-2.287.107-5.416 1.682-7.893 1.775-1.272.049-2.2-.042-2.784-.27" stroke="red" stroke-width=".2"/>
        <path d="m122.614 14.315 2.378 1.935a1.2 1.2 0 0 0 1.528-.012l3.245-2.722a1 1 0 0 0-.059-1.577l-2.067-1.489a1.3 1.3 0 0 0-1.62.081l-3.42 3.022a.5.5 0 0 0 .015.762z" fill="#FFF"/>
        <path d="M121.238 29.795h-2.122v.062c0 .753-.412.926-1.324.926h-2.022c-1.535 0-1.773-.185-1.773-1.951v-2.026c0-1.643.225-1.828 1.736-1.828h1.984c.9 0 1.299.16 1.299.864h2.359c0-2.025-.811-2.717-3.358-2.717h-2.646c-2.422 0-3.371.914-3.371 3.249v2.952c0 2.285.936 3.174 3.32 3.174h2.61c2.521 0 3.308-.68 3.308-2.656v-.049zM142.331 29.795h-2.122v.062c0 .753-.412.926-1.323.926h-2.022c-1.536 0-1.773-.185-1.773-1.951v-2.026c0-1.643.225-1.828 1.735-1.828h1.985c.899 0 1.298.16 1.298.864h2.36c0-2.025-.812-2.717-3.358-2.717h-2.647c-2.422 0-3.37.914-3.37 3.249v2.952c0 2.285.936 3.174 3.32 3.174h2.61c2.521 0 3.307-.68 3.307-2.656v-.049zM124.194 23.125l5.298 6.318.001-6.318h2.038V32.5h-2.038l-5.299-6.15v6.15h-2.038v-9.375h2.038z" fill="#051039"/>
        <g fill-rule="nonzero">
            <path d="M36.784 4.277c.47-.371 2.534-2.214 3.56-3.475a.176.176 0 0 0-.086-.272C34.855-1.04 18.497.48 10.732 12.24c-.111.16-.086.21.037.308 2.708-4.389 8.853-7.839 16.284-8.556 3.054-.297 6.17-.05 9.236.482.297.025.285-.024.495-.197z" fill="red"/>
            <path d="M29.217 24.727h2.164l-3.821-9.273h-2.819l-3.82 9.273h2.101l.619-1.607h4.945l.63 1.607zm-4.822-3.338 1.718-4.488 1.719 4.488h-3.437zm-9.001 2.349 2.361-3.944c.087-.149.544-.94.693-1.249h.024c-.024.346-.024.964-.024 1.249v4.933h1.978v-9.273h-1.892l-3.004 4.97-3.005-4.97h-2.238v9.273h1.978v-4.933c0-.285-.012-.89-.024-1.249h.024c.149.297.606 1.1.693 1.249l2.361 3.944h.075zm45.067 0 2.411-3.944c.087-.149.557-.94.705-1.249h.025c-.025.346-.025.964-.025 1.249v4.933h1.979v-9.273H63.54l-3.004 4.97-3.005-4.97h-2.238v9.273h1.978v-4.933c0-.285-.012-.89-.024-1.249h.024c.149.297.619 1.1.705 1.249l2.411 3.944h.074zM9.174 22.007H7.072v.062c0 .754-.408.927-1.31.927H3.759c-1.521 0-1.756-.185-1.756-1.953v-2.028c0-1.645.223-1.83 1.719-1.83h1.966c.89 0 1.285.16 1.285.865H9.31c0-2.027-.803-2.72-3.326-2.72h-2.62c-2.4 0-3.34.903-3.34 3.24v2.955c0 2.287.928 3.19 3.29 3.19h2.584c2.497 0 3.276-.68 3.276-2.67v-.038zm34.25 0H41.32v.062c0 .754-.408.927-1.31.927h-2.003c-1.52 0-1.756-.185-1.756-1.953v-2.028c0-1.645.223-1.83 1.719-1.83h1.966c.89 0 1.286.16 1.286.865h2.336c0-2.027-.803-2.72-3.326-2.72h-2.62c-2.4 0-3.34.915-3.34 3.252v2.955c0 2.288.928 3.178 3.29 3.178h2.584c2.497 0 3.276-.68 3.276-2.659v-.049zm8.53-.866v.977c0 .717-.395.878-1.297.878h-2.4c-1.508 0-1.73-.173-1.73-1.855v-2.126c0-1.645.222-1.83 1.719-1.83h2.287c.89 0 1.286.16 1.286.865h2.337c0-2.027-.804-2.72-3.326-2.72H47.9c-2.4 0-3.34.915-3.34 3.252v2.906c0 2.324.928 3.24 3.265 3.24h2.869c2.485 0 3.251-.693 3.251-2.709v-2.485h-4.698v1.607h2.708z" fill="#051039"/>
            <path d="M28.747 35.731c-.47.371-2.535 2.214-3.56 3.475a.176.176 0 0 0 .086.272c5.403 1.57 21.76.037 29.526-11.722.11-.16.086-.21-.038-.309-2.707 4.39-8.852 7.84-16.283 8.556-3.054.297-6.17.05-9.236-.482-.297-.025-.285.025-.495.21z" fill="red"/>
        </g>
        <path d="m86 17 6 6m0-6-6 6" stroke="#02174A" stroke-width=".5"/>
    </g>
</svg>
