<svg width="41" height="36" viewBox="0 0 41 36" xmlns="http://www.w3.org/2000/svg">
    <path d="M16.02 19.765v4.593l-8.016 6.808h8.017V36H.846v-4.834l7.587-6.808H.846v-4.593h15.175zm6.299 0V36h-4.295V19.765h4.295zm7.157 0 2.714 7.663 2.911-7.663h5.112V36H35.96v-7.397L33.426 36H30.59l-2.242-7.397V36h-4.24V19.765h5.368zM9.865 9.176l1.164 1.976h2.414L12.236 13.2l1.207 2.048H11.03l-1.164 1.977-1.166-1.978-2.413.001L7.493 13.2l-1.207-2.046h2.413l1.166-1.977zm10.664 0 1.165 1.976h2.414L22.901 13.2l1.207 2.048h-2.414l-1.165 1.977-1.165-1.978-2.413.001 1.207-2.048-1.207-2.046h2.413l1.165-1.977zm10.45 0 1.165 1.976h2.414L33.351 13.2l1.207 2.048h-2.414l-1.165 1.977-1.165-1.978-2.413.001 1.207-2.048-1.207-2.046h2.413l1.165-1.977zM4.425 0l1.164 1.976h2.415L6.796 4.023l1.208 2.048-2.415-.001-1.164 1.977L3.259 6.07H.846l1.207-2.047L.846 1.976H3.26L4.425 0zM15.16 0l1.164 1.976h2.415l-1.208 2.047 1.208 2.048-2.415-.001-1.164 1.977-1.166-1.977h-2.413l1.207-2.047-1.207-2.047h2.413L15.161 0zm10.737 0 1.164 1.976h2.414L28.27 4.023l1.207 2.048-2.414-.001-1.164 1.977-1.166-1.977h-2.413l1.207-2.047-1.207-2.047h2.413L25.898 0zm10.736 0 1.164 1.976h2.415l-1.208 2.047 1.208 2.048-2.415-.001-1.164 1.977-1.166-1.977h-2.413l1.207-2.047-1.207-2.047h2.413L36.634 0z" fill="#222A61" fill-rule="evenodd"/>
</svg>
