<svg width="171" height="50" viewBox="0 0 171 50" xmlns="http://www.w3.org/2000/svg">
    <g fill="#B33A49" fill-rule="nonzero">
        <path d="m170.336 47.932-.071-15.865h-20.162V1.201h-15.795v13.885c-3.824-8.251-12.146-13.989-21.841-13.989-.096 0-.186.014-.28.015-.108-.001-.218-.015-.328-.015-9.412 0-17.543 5.406-21.516 13.274C86.451 6.279 78.205.68 68.627.68c-10.097 0-18.733 6.211-22.322 15.02-3.691-8.588-12.22-14.604-22.157-14.604C10.83 1.097.036 11.891.036 25.21c0 13.315 10.795 24.11 24.112 24.11 10.096 0 18.732-6.212 22.322-15.018 3.69 8.587 12.218 14.602 22.157 14.602 9.413 0 17.545-5.406 21.516-13.272 3.891 8.09 12.138 13.689 21.716 13.689.108 0 .216-.014.323-.016.096.002.187.016.285.016 9.68 0 18.01-5.71 21.84-13.942v12.485l36.029.07zM24.354 33.315a8.315 8.315 0 0 1 0-16.63 8.315 8.315 0 0 1 0 16.63zm53.843-5.355a6.262 6.262 0 0 1-3.105 9.678 6.272 6.272 0 0 1-7.034-2.31 6.307 6.307 0 0 1-1.412 1.426 6.267 6.267 0 1 1-8.73-8.786 6.354 6.354 0 0 1-1.794-.902 6.27 6.27 0 0 1 5.663-11.019 6.264 6.264 0 0 1 8.203-6.005 6.264 6.264 0 0 1 4.331 6 6.266 6.266 0 0 1 3.878 11.918zm40.918 1.406a8.291 8.291 0 0 1-6.682 3.925c-4.475-.132-8.074-3.783-8.074-8.29 0-4.52 3.61-8.179 8.103-8.293a8.268 8.268 0 0 1 5.703 2.68h16.143v9.978h-15.193z"/>
        <path d="M77.21 20.463c-.509.166-.84.657-.8 1.19l-5.713 1.853a2.905 2.905 0 0 0-.309-.527l1.973-1.779a.901.901 0 1 0-.406-.428L69.99 22.54a2.834 2.834 0 0 0-.492-.359l1.082-2.431a.895.895 0 0 0 .657-.231.9.9 0 1 0-1.203-1.337.901.901 0 0 0 .003 1.34l-1.078 2.418a2.88 2.88 0 0 0-.596-.129v-6.026a1.165 1.165 0 0 0-.308-2.289c-.642 0-1.166.521-1.166 1.166 0 .545.377 1 .883 1.13v6.018c-.202.02-.402.06-.596.121L66.094 19.5a.901.901 0 1 0-.535.254l1.076 2.415c-.178.1-.344.22-.497.356l-1.977-1.781a.892.892 0 0 0-.017-.697.898.898 0 0 0-1.187-.456.9.9 0 1 0 .818 1.6l1.961 1.767a2.79 2.79 0 0 0-.313.527l-5.721-1.86a1.165 1.165 0 1 0-.177.566l5.705 1.853c-.046.202-.07.409-.073.616l-2.624.274a.901.901 0 0 0-.526-.455.903.903 0 0 0-.557 1.714.898.898 0 0 0 1.134-.578c.01-.032.018-.064.026-.094l2.602-.274c.04.206.1.407.181.597l-2.272 1.31a.902.902 0 1 0 .309.503l2.256-1.3c.12.17.26.328.414.466l-3.516 4.842a1.163 1.163 0 0 0-1.354.405 1.163 1.163 0 0 0 .258 1.628 1.164 1.164 0 0 0 1.577-1.692l3.51-4.828c.18.107.373.197.575.26l-.543 2.554a.9.9 0 0 0-.398 1.62.9.9 0 0 0 1.06-1.457c-.028-.019-.054-.037-.083-.053l.538-2.537c.21.024.422.025.632.006l.542 2.55a.896.896 0 0 0 .297 1.638.901.901 0 0 0 .373-1.762c-.032-.006-.063-.012-.095-.014l-.54-2.535c.202-.065.395-.154.574-.26l3.514 4.837a1.167 1.167 0 1 0 1.939.16 1.163 1.163 0 0 0-1.465-.51l-3.51-4.833a2.86 2.86 0 0 0 .418-.465l2.273 1.31a.901.901 0 1 0 .282-.52l-2.261-1.305c.083-.188.15-.385.19-.593l2.619.276c.06.234.212.434.42.555a.902.902 0 0 0 .9-1.562.901.901 0 0 0-1.272.417l-2.608-.276c0-.21-.025-.416-.069-.614l5.715-1.854a1.166 1.166 0 1 0 1.506-1.68 1.16 1.16 0 0 0-.888-.068z"/>
    </g>
</svg>
