<svg width="83" height="36" viewBox="0 0 83 36" xmlns="http://www.w3.org/2000/svg">
    <g fill-rule="nonzero" fill="none">
        <path fill="#10205C" d="m41.513 14.57-7.745-7.577h-7.483v26.915l8.081 1.979V18.452l7.147 6.974 7.165-6.974v17.435l8.082-1.98V6.994h-7.484z"/>
        <path fill="#E72420" d="m41.494 8.915-6.08-5.975H.131V.17h36.387l4.995 4.881 5.07-4.9h36.33v2.79H47.686z"/>
        <path fill="#10205C" d="M15.958 13.797H8.007V6.993H.131v20.506l7.876 1.942v-8.01h7.95v9.951l7.877 1.923V6.993h-7.876zM75.112 6.993l-4.06 3.901-4.04-3.901H59.21v26.312l7.858-1.923v-13.89l3.984 3.863 4.004-3.864v11.931l7.857-1.923V6.993z"/>
    </g>
</svg>
