<svg width="204" height="36" viewBox="0 0 204 36" xmlns="http://www.w3.org/2000/svg">
    <g fill-rule="nonzero" fill="none">
        <path d="M36.001 17.995c0 9.798-7.967 17.741-17.795 17.741C8.378 35.736.41 27.793.41 17.995S8.378.254 18.206.254 36 8.197 36 17.994" fill="#FFF"/>
        <path d="M18.208 0C8.238.002.156 8.06.154 17.999.155 27.939 8.237 35.998 18.208 36c9.97-.002 18.051-8.06 18.054-17.999C36.26 8.061 28.178.002 18.208 0m.712.51c2.75.113 5.434.874 7.832 2.221a10.38 10.38 0 0 1-1.933 2.11 21.354 21.354 0 0 0-5.897-4.33m-1.429 0a21.36 21.36 0 0 0-5.89 4.323 10.156 10.156 0 0 1-1.897-2.125 17.463 17.463 0 0 1 7.79-2.198m.262.355a33.348 33.348 0 0 0-3.285 5.642 9.957 9.957 0 0 1-2.51-1.417A20.988 20.988 0 0 1 17.758.866m.904 0a20.982 20.982 0 0 1 5.798 4.227 10.173 10.173 0 0 1-2.517 1.404 33.364 33.364 0 0 0-3.281-5.63m-.672.446v4.515a.306.306 0 0 1 .44-.024V1.313a32.654 32.654 0 0 1 3.106 5.337c-.898.313-1.834.505-2.783.572l.078.422a11.271 11.271 0 0 0 2.89-.605c.704 1.611 1.282 3.308 1.632 5.234l.4-.19.007-.003c-.36-1.9-.936-3.592-1.632-5.19a10.715 10.715 0 0 0 2.642-1.482 18.189 18.189 0 0 1 3.584 5.775 29.952 29.952 0 0 1-4.172 1.106.332.332 0 0 1-.02.203l-.135.278a30.502 30.502 0 0 0 4.476-1.173 18.964 18.964 0 0 1 1.125 6.183h-1.532a.304.304 0 0 1 .01.44h1.522c-.004.284-.014.564-.03.846l.435.061c.02-.304.033-.604.035-.907h5.734c-.04 3.024-.892 5.826-2.278 8.3-.41-.237-.827-.46-1.25-.672l-.183.398c.413.207.822.424 1.225.657a17.545 17.545 0 0 1-6.124 6.128c-.19-.284-.397-.55-.607-.807-.132.073-.268.142-.403.209.22.26.426.53.617.811a17.463 17.463 0 0 1-7.877 2.245 22.51 22.51 0 0 0 2.717-1.618c-.328.053-.658.098-.989.134-.643.41-1.307.786-1.988 1.129.244-.343.472-.684.7-1.027-.183.01-.367.016-.554.02-.126.187-.244.373-.378.558v-.548l-.19.002-.25-.006v.552c-.132-.185-.252-.371-.379-.558a25.07 25.07 0 0 1-.557-.024c.23.345.458.686.704 1.03a22.568 22.568 0 0 1-2.005-1.14c-.34-.04-.677-.09-1.014-.15a22.382 22.382 0 0 0 2.756 1.644 17.463 17.463 0 0 1-7.832-2.22c.203-.306.423-.6.66-.881-.135-.069-.265-.142-.397-.215a10.16 10.16 0 0 0-.654.885 17.543 17.543 0 0 1-6.167-6.153c.411-.233.83-.45 1.256-.66-.065-.131-.122-.267-.183-.4-.434.212-.862.437-1.282.675-1.389-2.472-2.24-5.274-2.28-8.3h5.736c.002.292.014.58.03.87l.438-.044a18.547 18.547 0 0 1-.029-.826h1.486a.304.304 0 0 1 .006-.438H6.79a18.962 18.962 0 0 1 1.134-6.21c1.46.504 2.953.895 4.482 1.18l-.122-.26a.304.304 0 0 1-.019-.22 30.972 30.972 0 0 1-4.193-1.111 18.185 18.185 0 0 1 3.58-5.757c.8.624 1.69 1.127 2.637 1.493a23.967 23.967 0 0 0-1.627 5.175l.027.012.378.18c.335-1.794.88-3.543 1.625-5.21.94.33 1.921.534 2.916.604l.078-.424a10.608 10.608 0 0 1-2.81-.57 32.458 32.458 0 0 1 3.113-5.35m-8.675 1.61c.57.867 1.242 1.597 1.978 2.226a18.69 18.69 0 0 0-3.633 5.87A28.891 28.891 0 0 1 3.154 9 17.546 17.546 0 0 1 9.315 2.92m17.83.024A17.547 17.547 0 0 1 33.261 9a28.032 28.032 0 0 1-4.496 2.046 18.681 18.681 0 0 0-3.635-5.889c.772-.64 1.45-1.385 2.015-2.212M2.942 9.385c1.45.82 2.988 1.481 4.568 2.05a19.359 19.359 0 0 0-1.162 6.345H.616c.039-3.064.91-5.903 2.33-8.395m30.525 0c1.419 2.496 2.292 5.333 2.33 8.395h-5.733a19.363 19.363 0 0 0-1.154-6.32c1.567-.567 3.102-1.237 4.557-2.075M13.587 12.51l1.317.623c.554.065 1.108.12 1.663.154l.082-.438a32.163 32.163 0 0 1-3.062-.341m9.23.018c-1.005.15-2.014.264-3.026.32l.082.44c.55-.033 1.099-.082 1.644-.143l1.3-.617zm-10.323.408a31.865 31.865 0 0 0-.331 3.825l.445-.113c.035-1.056.112-2.05.23-2.987l-.346-.725m11.435.04-.346.723c.116.93.193 1.908.228 2.949l.444.113a31.807 31.807 0 0 0-.326-3.784m-11.764 6.274a32.1 32.1 0 0 0 .337 3.809l.347-.727a31.34 31.34 0 0 1-.239-2.97l-.445-.112zm12.09 0-.446.114a31.98 31.98 0 0 1-.234 2.93l.346.724c.177-1.17.291-2.42.334-3.768m-7.708 3.342c-.425.027-.85.063-1.272.108l-1.283.608c.874-.125 1.75-.223 2.636-.278l-.081-.438zm3.35.002-.081.44c.87.05 1.738.138 2.6.258l-1.26-.596c-.418-.043-.838-.076-1.259-.102m4.06.501.204.422c.008.025.016.047.02.073 1.201.228 2.38.528 3.542.9.063-.128.122-.268.183-.402a30.485 30.485 0 0 0-3.948-.995m-11.482.02a31.321 31.321 0 0 0-3.924.99c.065.135.134.265.203.397a31.207 31.207 0 0 1 3.501-.89.305.305 0 0 1 .027-.093l.193-.403zm10.881.626a23.393 23.393 0 0 1-1.606 5.154 11.265 11.265 0 0 0-2.91-.615l-.08.422c.847.055 1.68.23 2.496.487.321-.06.63-.124.926-.203.671-1.562 1.23-3.206 1.581-5.053a.306.306 0 0 1-.012-.006l-.395-.186zm-10.295.01-.372.176-.033.014c.348 1.82.896 3.448 1.555 4.992.312.09.637.167.977.234a10.378 10.378 0 0 1 2.49-.475l-.08-.426c-1.002.073-1.99.281-2.937.619a23.381 23.381 0 0 1-1.6-5.134" fill="#FE3501"/>
        <path d="M133.974 9.135v17.902h5.673v-6.221h3.098c.82 0 1.555.643 1.555 1.46v4.761h5.676V20.17c0-1.083-.594-1.337-1.042-1.37.448-.008 1.042-.312 1.042-1.406v-5.692c0-2.096-.952-2.567-2.434-2.567h-13.568zm5.673 4.43h3.794c.574 0 .859.337.859.91v1.477c0 .57-.285.836-.86.836h-3.793v-3.223zm29.686-4.43h15.597v4.43h-9.924v2.415h9.924v3.99h-9.924v2.658h9.924v4.409h-15.597V9.135zm-17.419 0h15.597v4.43h-9.924v2.415h9.924v3.99h-9.924v2.658h9.924v4.409h-15.599V9.135m-107.94 0h15.597v4.43h-9.925v2.415h9.925v3.99h-9.925v2.658h9.925v4.409H43.972V9.135zm142.704 0h5.842l5.292 9.566V9.135h5.882v17.902h-5.882l-5.292-9.746v9.746h-5.842V9.135zM116.908 26.71a3.783 3.783 0 0 1-1.114-.925c-.407-.548-.42-.804-.42-7.69 0-9.694-.677-8.962 8.305-8.962 5.382 0 6.157.041 6.778.351 1.146.575 1.523 1.46 1.525 3.576v1.812l-5.632.024v-.566c0-.373-.448-.767-.823-.767h-3.561c-.41 0-.882.447-.882.856v7.3c0 .422.46.909.884.909h3.541c.417 0 .84-.504.84-.916v-1.3h-3.038V16.7l8.67-.018v4.13c0 4.506-.08 4.916-1.176 5.722-.55.404-.844.446-6.888.499-5.71.049-6.38-.002-7.01-.325M97.448 9.135v17.902h5.673v-6.221h3.098c.82 0 1.555.643 1.555 1.46v4.761h5.676V20.17c0-1.083-.594-1.337-1.042-1.37.448-.008 1.042-.312 1.042-1.406v-5.692c0-2.096-.952-2.567-2.434-2.567H97.447zm5.673 4.43h3.794c.574 0 .859.337.859.91v1.477c0 .57-.285.836-.86.836h-3.793v-3.223zm-23.092-4.43h15.598v4.43H85.7v2.415h9.925v3.99H85.7v2.658h9.925v4.409H80.028V9.135zm-19.478 0h6.055l3.071 11.48 3.084-11.48h6.08l-5.968 17.902h-6.393l-5.93-17.902zM20.495 29.852l.947 3.786 1.2-.298-.329-1.317.655-.163c.173-.042.363.055.408.228l.25 1.006 1.2-.298-.364-1.451c-.057-.23-.195-.252-.293-.235.096-.027.204-.122.147-.353l-.301-1.204c-.11-.442-.336-.493-.652-.414l-2.868.713zm1.433.639.804-.201c.122-.029.2.026.228.148l.08.312c.03.122-.017.191-.139.224l-.802.197-.17-.68zm5.195-4.245 1.777-2.89.826.507-1.132 1.837.45.276 1.132-1.839.743.455-1.132 1.838.497.303 1.131-1.839.82.503-1.776 2.888-3.336-2.04zm-3.017 2.362 2.728-2.026.576.776-1.734 1.288.315.422 1.736-1.288.52.696-1.735 1.288.346.467 1.736-1.29.576.77-2.727 2.026-2.337-3.13zM6.8 19.46l.432 3.362-.96.122-.276-2.139-.523.067.273 2.14-.865.109-.273-2.14-.578.074.275 2.139-.957.121-.43-3.36L6.8 19.46zm22.243 3.545.204-1.254 2.25-.8-2.063-.334.203-1.26 3.864.627-.204 1.26-2.29.793 2.103.341-.204 1.254-3.863-.627zm-12.36 10.643a.808.808 0 0 1-.241-.203c-.09-.117-.092-.174-.092-1.674 0-2.112-.148-1.954 1.81-1.954 1.172 0 1.343.008 1.478.077.248.126.331.319.331.78v.395l-1.227.004v-.122c0-.08-.098-.168-.18-.168h-.775c-.09 0-.193.097-.193.187v1.59c0 .092.102.197.193.197h.774c.09 0 .181-.107.181-.199v-.284h-.662v-.807l1.89-.004v.9c0 .983-.019 1.072-.257 1.247-.12.089-.183.097-1.502.11-1.244.01-1.39 0-1.527-.072m-4.073-4.714-.932 3.789 1.201.294.324-1.317.655.16c.173.043.297.218.255.39l-.249 1.009 1.201.292.358-1.453c.055-.23-.057-.313-.15-.345.095.022.238-.01.295-.244l.295-1.203c.11-.444-.067-.592-.38-.67l-2.873-.702zm.97 1.232.803.195c.122.03.163.116.135.237l-.078.313c-.028.122-.102.162-.224.134l-.804-.197.167-.682zm-3.956-3.6 2.714 2.042-.584.77-1.727-1.298-.317.42 1.726 1.299-.525.694-1.726-1.299-.35.463 1.726 1.298-.582.767-2.711-2.043 2.356-3.113zm-2.194-3.44.646 1.15-1.86 1.805 2.515-.64.65 1.152-4.051.777-.68-1.212 2.78-3.031zm16.18.25-3.918-1.856-1.454 7.818-1.453-7.818-3.918 1.856 1.862-3.906-5.72-1.449 5.72-1.449-1.862-3.906 3.918 1.857 1.453-7.863 1.456 7.863 3.918-1.857-1.863 3.906 5.663 1.45-5.663 1.448 1.863 3.906" fill="#008738"/>
    </g>
</svg>
