<svg width="155" height="27" viewBox="0 0 155 27" xmlns="http://www.w3.org/2000/svg">
    <g fill="none" fill-rule="evenodd">
        <g transform="translate(0 1.481)">
            <path d="M2.258 2.2c4.751-1.905 12.26.42 16.248.42 2.66 0 5.01-.853 7.053-2.558-.581 2.252-.581 4.027 0 5.324.87 1.946 2.235 2.032 2.863 4.13.628 2.1-.33 3.954.336 5.583.443 1.086 1.01 1.707 1.7 1.863a38.027 38.027 0 0 0-4.9-.31c-2.282.014-4.644 1.799-7.052 1.761-2.407-.037-6.309-2.878-11.34-1.648C8.685 9.42 6.615 6.095 2.257 2.2z" stroke="#0C356C" stroke-width=".5"/>
            <path fill="#0C356C" d="m7.125 16.84.242-.122 3.698 7.245-.242.123z"/>
            <path fill="#0C356C" d="m.94 1.934 1.079-.37 7.955 23.065L8.896 25z"/>
            <ellipse fill="#0C356C" cx="1.358" cy="1.355" rx="1.358" ry="1.355"/>
            <path fill="#0C356C" d="m9.787 4.86 4.997 9.313h3.048l.306-1.704 1.28 1.704h2.849l-.426-9.312h-2.787v2.813l-1.65-2.813h-2.62v2.402L13.197 4.86z"/>
        </g>
        <g fill-rule="nonzero">
            <path fill="#0C356C" d="m37.595 12.866 1.65-6.19 1.617 6.19h1.411l1.96-8.48H42.77l-1.306 6.383-1.605-6.382h-1.236L37 10.757l-1.318-6.37h-1.464l1.96 8.479z"/>
            <path d="m45.597 12.866.689-1.975h3.29l.694 1.975h1.54l-3.214-8.48h-1.324l-3.209 8.48h1.534zm3.564-3.163H46.7l1.23-3.517 1.231 3.517z" fill="#D02919"/>
            <path d="M54.008 12.866V6.85l3.786 6.016h1.476v-8.48h-1.465v6.04l-3.797-6.04h-1.476v8.48h1.476zm10.977 0V9.098h3.797v3.768h1.47v-8.48h-1.47v3.53h-3.797v-3.53h-1.476v8.48h1.476z" fill="#0C356C"/>
            <path d="m72.637 12.866.688-1.975h3.29l.694 1.975h1.54l-3.214-8.48h-1.324l-3.208 8.48h1.534zM76.2 9.703h-2.462l1.231-3.517 1.23 3.517z" fill="#D02919"/>
            <path d="M81.13 12.866v-8.48h-1.47v8.48h1.47zm9.64 0v-1.177h-3.856V4.387h-1.476v8.479h5.332zm2.45 0v-8.48h-1.47v8.48h1.47zm3.05 0V6.85l3.785 6.016h1.476v-8.48h-1.465v6.04l-3.797-6.04h-1.476v8.48h1.476zm12.318 0v-1.177h-4.077V9.08h3.488V7.916h-3.488V5.575h4.036V4.387h-5.512v8.479h5.553zm3.855.116c.93 0 1.665-.209 2.208-.626.542-.417.813-.98.813-1.686 0-.435-.093-.814-.28-1.138-.186-.325-.48-.612-.88-.862s-.932-.474-1.593-.67c-.66-.196-1.135-.398-1.423-.606-.288-.207-.432-.466-.432-.777 0-.369.133-.656.4-.862.266-.206.64-.309 1.123-.309.517 0 .915.126 1.193.376s.417.597.417 1.04h1.47c0-.49-.133-.935-.397-1.337a2.593 2.593 0 0 0-1.09-.929c-.464-.217-.99-.326-1.582-.326-.89 0-1.614.221-2.172.664-.558.443-.837 1.005-.837 1.689 0 .78.386 1.413 1.16 1.898.405.253.95.482 1.634.687.684.206 1.157.41 1.42.612.262.202.394.489.394.862 0 .341-.13.616-.388.824-.259.207-.645.311-1.158.311-.595 0-1.052-.132-1.37-.396-.32-.264-.48-.636-.48-1.118h-1.475c0 .532.143.998.429 1.398.286.4.686.713 1.201.94.516.227 1.08.341 1.695.341zm12.143-.116v-1.177h-3.856V4.387h-1.475v8.479h5.331zm3.184 0V5.575h2.648V4.387h-6.737v1.188h2.625v7.29h1.464zm5.967 0c.766 0 1.445-.165 2.038-.495.593-.33 1.05-.8 1.371-1.41.321-.61.481-1.316.481-2.12v-.425c0-.792-.159-1.494-.478-2.108a3.417 3.417 0 0 0-1.35-1.42c-.582-.335-1.248-.501-1.998-.501h-2.508v8.479h2.444zm-.006-1.177h-.963V5.575h1.033c.762 0 1.343.242 1.744.727.4.486.6 1.188.6 2.109v.471c-.007.905-.218 1.599-.632 2.082-.414.483-1.008.725-1.782.725z" fill="#0C356C"/>
        </g>
        <path d="M79.897 25.334a587.03 587.03 0 0 0 1.87-4.049 8 8 0 0 0 .227-.572h.022c0 .36.01.709.03 1.045l.182 3.576h.63l2.465-5.418h-.675l-1.437 3.31c-.138.32-.3.758-.486 1.311h-.033l.003-.307c0-.373-.01-.749-.033-1.127l-.16-3.187h-.66l-1.504 3.202c-.165.346-.359.819-.579 1.42h-.022c.025-.396.037-.715.037-.957l-.007-.326-.115-3.339h-.631l.23 5.418h.646zm8.364 0 .122-.563h-2.097l.423-1.987h1.964l.107-.563h-1.956l.364-1.738h2.1l.12-.567h-2.729l-1.147 5.418h2.729zm6.379.074c.272 0 .505-.017.698-.052.193-.034.396-.09.609-.166v-.553c-.453.141-.852.212-1.196.212-.423 0-.755-.138-.996-.414-.242-.275-.362-.644-.362-1.106 0-.546.1-1.05.299-1.514.199-.463.468-.814.809-1.054.34-.24.725-.36 1.156-.36.349 0 .694.086 1.036.256l.256-.522c-.374-.198-.804-.297-1.292-.297a2.65 2.65 0 0 0-1.496.438c-.44.291-.791.714-1.052 1.269a4.171 4.171 0 0 0-.392 1.799c0 .637.17 1.14.512 1.51.342.37.812.554 1.41.554zm2.778-.074.909-1.723h1.841l.212 1.723h.63l-.682-5.418h-.646l-2.966 5.418h.702zm2.683-2.301H98.64c.51-.956.818-1.542.926-1.757.108-.215.207-.43.299-.648.012.422.048.854.107 1.297l.13 1.108zm2.763 2.301.479-2.253h.935l.776 2.253h.69l-.887-2.398c.911-.25 1.366-.804 1.366-1.664 0-.904-.551-1.356-1.655-1.356h-1.188l-1.147 5.418h.631zm1.218-2.794h-.624c.035-.16.178-.851.43-2.072h.617c.376 0 .647.068.814.202.168.135.251.352.251.65 0 .393-.129.695-.386.905-.257.21-.625.315-1.102.315zm3.65 2.794.478-2.253h.936l.776 2.253h.69l-.887-2.398c.91-.25 1.366-.804 1.366-1.664 0-.904-.552-1.356-1.656-1.356h-1.188l-1.147 5.418h.631zm1.217-2.794h-.624c.035-.16.179-.851.431-2.072h.616c.376 0 .648.068.815.202.167.135.25.352.25.65 0 .393-.128.695-.386.905-.257.21-.624.315-1.102.315zm4.478 2.794.42-2.005 2.327-3.413h-.717l-1.815 2.768-.664-2.768h-.632l.884 3.384-.442 2.034h.639zm2.696.978c.388-.602.722-1.194 1.002-1.775l-.03-.085h-.694a29.838 29.838 0 0 1-.757 1.86h.479zm6.483-.978a587.044 587.044 0 0 0 1.87-4.049 8 8 0 0 0 .227-.572h.022c0 .36.01.709.03 1.045l.182 3.576h.63l2.466-5.418h-.676l-1.436 3.31c-.139.32-.301.758-.487 1.311h-.033l.004-.307c0-.373-.012-.749-.034-1.127l-.16-3.187h-.66l-1.503 3.202c-.166.346-.36.819-.58 1.42h-.022c.025-.396.037-.715.037-.957l-.007-.326-.115-3.339h-.631l.23 5.418h.646zm8.364 0 .122-.563h-2.097l.423-1.987h1.964l.108-.563h-1.957l.364-1.738h2.101l.119-.567h-2.728l-1.147 5.418h2.728zm6.38.074c.271 0 .504-.017.697-.052.193-.034.396-.09.609-.166v-.553c-.453.141-.852.212-1.196.212-.423 0-.755-.138-.996-.414-.241-.275-.362-.644-.362-1.106 0-.546.1-1.05.299-1.514.199-.463.469-.814.809-1.054.34-.24.726-.36 1.156-.36.35 0 .694.086 1.036.256l.256-.522c-.374-.198-.804-.297-1.292-.297a2.65 2.65 0 0 0-1.496.438c-.44.291-.791.714-1.052 1.269a4.171 4.171 0 0 0-.392 1.799c0 .637.171 1.14.513 1.51.341.37.811.554 1.41.554zm2.777-.074.91-1.723h1.84l.212 1.723h.63l-.682-5.418h-.646l-2.966 5.418h.702zm2.683-2.301h-1.462c.51-.956.818-1.542.926-1.757.108-.215.207-.43.299-.648.012.422.048.854.108 1.297l.13 1.108zm2.763 2.301.48-2.253h.934l.776 2.253h.69l-.886-2.398c.91-.25 1.366-.804 1.366-1.664 0-.904-.552-1.356-1.656-1.356h-1.188l-1.147 5.418h.631zm1.218-2.794h-.624c.035-.16.178-.851.43-2.072h.617c.376 0 .648.068.815.202.167.135.25.352.25.65 0 .393-.128.695-.386.905-.257.21-.625.315-1.102.315zm5.747 2.794.122-.563h-2.097l.423-1.987h1.964l.108-.563H151.1l.364-1.738h2.101l.119-.567h-2.728l-1.147 5.418h2.728zm1.913.108a.497.497 0 0 0 .4-.176.658.658 0 0 0 .149-.44c0-.13-.033-.228-.098-.292a.353.353 0 0 0-.258-.097.526.526 0 0 0-.414.169.657.657 0 0 0-.15.454c0 .126.033.22.1.285a.375.375 0 0 0 .27.097z" fill="#8B835C" fill-rule="nonzero"/>
    </g>
</svg>
