<svg width="161" height="38" viewBox="0 0 161 38" xmlns="http://www.w3.org/2000/svg">
    <g fill="none" fill-rule="evenodd">
        <path d="M50.239 26.792v-15.58h4.147l5.25 11.557 5.176-11.556h3.968v15.579h-3.417v-8.918l-3.945 8.918h-3.642l-3.993-8.872v8.872H50.24zm24.117 0h-4.02l6.908-15.58h4.952l6.956 15.58h-3.97l-1.368-3.116-8.13.024-1.328 3.092zm8.177-6.03-2.826-6.436-2.762 6.435h5.588zm8.252 6.03v-15.58h14.879v3.115H94.378v3.118h9.676v3.091h-9.676v3.142h11.286v3.114h-14.88zM108.551 26.792v-15.58h12.738s.82-.092 1.687.751c.777.754.648 1.862.648 1.862v5.234s.153.962-.764 1.784c-.886.793-2.174.621-2.174.621l2.965 5.328h-3.894l-2.942-5.328h-4.62v5.328h-3.644zm3.645-8.443h7.812v-4.022h-7.812v4.022zm17.98 8.443h-1.234s-1.083-.02-1.697-.67c-.712-.754-.688-1.617-.688-1.617V22.47h3.619v1.208h7.687v-3.143h-8.822s-1.087.11-1.758-.578c-.744-.763-.664-1.682-.664-1.682V13.6s-.015-.786.514-1.484c.76-1.004 1.934-.904 1.934-.904l10.079.008s.822-.058 1.627.722c.882.85.679 1.758.679 1.758v1.86h-3.592v-1.233h-7.688v3.117h8.793s1.031-.075 1.757.754c.73.83.73 1.758.73 1.758v4.398s.118.863-.573 1.647c-.784.893-1.838.79-1.838.79h-8.868M144.897 26.787V11.203h3.69v6.233l7.033-6.233h5.003l-8.389 7.239 8.69 8.345h-5.175l-7.162-7.09v7.09z" fill="#000" fill-rule="nonzero"/>
        <path d="M31.73 1.016c2.497-.01 4.106 2.02 4.114 4.11l.007 27.748A4.124 4.124 0 0 1 31.711 37H5.807c-2.412-.005-4.116-1.988-4.116-4.142l.002-27.731C1.692 2.81 3.645.988 5.819 1l25.911.016" fill="#4DC7E4" fill-rule="nonzero"/>
        <path d="M31.73 1.016c2.497-.01 4.106 2.02 4.114 4.11l.007 27.748A4.124 4.124 0 0 1 31.711 37H5.807c-2.412-.004-4.116-1.988-4.116-4.142l.001-27.731C1.692 2.81 3.645.988 5.82 1l25.911.016z" stroke="#FFF" stroke-width="1.8"/>
        <path d="m21.26 14.034 9.596-4.53c.039-.02.06.04.089.048l-6.636 8.299 9.694 4.687c.05.028.098.068.031.116l-10.645.01 2.434 10.581-.068.06-6.962-8.511h-.089l-6.89 8.522c-.04.03-.059.03-.098.001l2.4-10.618-10.625-.029c-.04-.03-.04-.059-.04-.088l9.66-4.652.068-.068L6.52 9.576c-.02-.049.02-.07.05-.108l9.605 4.53 2.515-10.306h.068l2.498 10.342" fill="#FFF" fill-rule="nonzero"/>
    </g>
</svg>
