<svg width="198" height="27" viewBox="0 0 198 27" xmlns="http://www.w3.org/2000/svg">
    <g fill-rule="nonzero" fill="none">
        <path d="M59 18.721V15.15h3.024L59 7.602v-4.12h2.347l8.653 20h-4.754l-1.843-4.76H59zm13-15.24h5.453l8.394 14.37-.236-14.37H90v20h-4.986L76.24 8.357l.175 15.124H72v-20zm28.756 11.64V11.6H111V23.47h-9.317a14.285 14.285 0 0 1-3.97-.407 8.925 8.925 0 0 1-2.542-1.333 7.143 7.143 0 0 1-2.36-3.195 12.52 12.52 0 0 1-.808-4.703c0-3.52.808-6.152 2.391-7.837 1.584-1.685 4.002-2.515 7.289-2.515H111v3.42h-9.317c-1.703 0-2.93.504-3.707 1.625-.776 1.122-1.164 2.762-1.164 5.111 0 2.203.388 3.773 1.139 4.728.75.956 2.029 1.51 3.732 1.51h4.865v-4.729l-5.792-.025zM50 3.48h2l-2 3v-3zm9 0h-2.158L50 19.418v4.063h2.772l1.8-4.757H59v-3.57h-3.012l2.95-7.72.062.176V3.48zm-27 0h4.778l4.95 7.625 5.078-7.625H50v2.513l-6.063 8.67v8.817h-4.25v-8.826L32.01 3.49l-.01-.01zm18 16-2 4h2v-4zM123 3.481h6.287l5.213 15.326 5.182-15.326H146v20h-4.237l.354-15.562-5.25 15.562h-4.53l-5.392-15.763.41 15.763H123v-20zm31 20h-4v-20h4v20zm5.01-20h5.397l8.383 14.37-.21-14.37H177v20h-5.011l-8.81-15.124.21 15.124H159v-20h.01zm28.751 11.639v-3.521h10.229v11.87h-9.304a13.623 13.623 0 0 1-3.933-.407 8.437 8.437 0 0 1-2.584-1.333 7.373 7.373 0 0 1-2.357-3.194 11.946 11.946 0 0 1-.806-4.703c0-3.52.806-6.151 2.388-7.836 1.581-1.685 4.02-2.515 7.303-2.515H198v3.42h-9.303c-1.67 0-2.951.503-3.696 1.625-.744 1.122-1.163 2.761-1.163 5.11 0 2.203.388 3.772 1.163 4.728.776.955 1.97 1.509 3.696 1.509h4.863v-4.728l-5.799-.025zM0 .481h23v26H0z" fill="#E60012"/>
        <path fill="#FFF" d="m8 19.19-1.649-2.506v6.797H3v-18l5 7.51zM16.668 16.696 15 19.227l.03-6.218L20 5.481v18h-3.332z"/>
        <path fill="#0086D1" d="M3 3.481h3.98l4.52 6.534 4.525-6.504H20l-6.512 9.346v10.624H9.512V12.857z"/>
    </g>
</svg>
