<svg width="89" height="26" viewBox="0 0 89 26" xmlns="http://www.w3.org/2000/svg">
    <g fill-rule="nonzero" fill="none">
        <path d="m89 24.768-.037-8.155H78.426V.748h-8.255v7.137A12.588 12.588 0 0 0 58.757.695c-.05 0-.097.007-.146.007-.057 0-.114-.007-.172-.007a12.612 12.612 0 0 0-11.244 6.822A12.606 12.606 0 0 0 35.846.481c-5.277 0-9.79 3.193-11.666 7.72C22.251 3.787 17.794.695 12.6.695 5.642.695 0 6.243 0 13.089 0 19.932 5.641 25.48 12.6 25.48c5.277 0 9.79-3.193 11.667-7.72 1.928 4.414 6.385 7.506 11.58 7.506 4.919 0 9.168-2.779 11.243-6.822a12.608 12.608 0 0 0 11.35 7.036c.056 0 .112-.007.168-.008.05.001.098.008.15.008 5.058 0 9.411-2.935 11.413-7.166v6.418L89 24.768zm-76.476-7.287c-2.498 0-4.524-2.015-4.524-4.5s2.026-4.5 4.524-4.5c2.48.027 4.476 2.034 4.476 4.5 0 2.467-1.996 4.474-4.476 4.5zm28.236-2.754c.62.822.798 1.886.48 2.859a3.21 3.21 0 0 1-2.087 2.051 3.282 3.282 0 0 1-3.64-1.171c-.203.277-.45.522-.73.723a3.276 3.276 0 0 1-3.3 1.22A3.211 3.211 0 0 1 29 17.957a3.149 3.149 0 0 1 1.265-3.226 3.314 3.314 0 0 1-.928-.457 3.14 3.14 0 0 1-.716-4.442 3.283 3.283 0 0 1 3.647-1.148 3.158 3.158 0 0 1 1.326-2.59 3.295 3.295 0 0 1 2.918-.457c1.344.427 2.251 1.659 2.242 3.044 1.703-.543 3.533.37 4.087 2.04.554 1.67-.377 3.463-2.08 4.006zm22.123.624a4.418 4.418 0 0 1-3.57 2.13C56.923 17.41 55 15.428 55 12.982c0-2.453 1.929-4.439 4.329-4.5a4.39 4.39 0 0 1 3.047 1.454H71v5.415h-8.117z" fill="#DE001B"/>
        <path d="M40.216 11.232a.626.626 0 0 0-.412.641l-2.942.997a1.582 1.582 0 0 0-.16-.284l1.017-.957c.201.109.448.05.584-.14a.502.502 0 0 0-.034-.625.45.45 0 0 0-.596-.069.498.498 0 0 0-.163.603l-1.012.952a1.464 1.464 0 0 0-.254-.193l.558-1.309a.449.449 0 0 0 .338-.124.497.497 0 0 0 .156-.466.478.478 0 0 0-.316-.368.45.45 0 0 0-.46.114.495.495 0 0 0-.153.362c0 .137.057.268.155.36l-.556 1.302a1.428 1.428 0 0 0-.306-.07V8.713a.628.628 0 0 0 .434-.688.61.61 0 0 0-.593-.544c-.33 0-.6.28-.6.628 0 .293.194.539.454.608v3.24c-.104.011-.206.033-.306.066l-.558-1.31a.502.502 0 0 0 .054-.624.452.452 0 0 0-.58-.16.493.493 0 0 0-.246.571.465.465 0 0 0 .497.35l.554 1.3a1.511 1.511 0 0 0-.256.192l-1.018-.959a.5.5 0 0 0-.009-.375.472.472 0 0 0-.257-.255.444.444 0 0 0-.354.01.485.485 0 0 0-.267.408.491.491 0 0 0 .215.44c.144.094.325.1.473.013l1.01.951a1.518 1.518 0 0 0-.161.284L31.2 11.858a.62.62 0 0 0-.52-.65.602.602 0 0 0-.665.482.632.632 0 0 0 .4.736.588.588 0 0 0 .694-.264l2.937.998c-.023.109-.036.22-.037.332l-1.351.147a.47.47 0 0 0-.271-.245.462.462 0 0 0-.557.321.493.493 0 0 0 .27.602c.117.04.244.03.354-.029a.478.478 0 0 0 .23-.282c.005-.017.01-.034.013-.05l1.34-.148c.02.11.052.219.094.32l-1.17.707a.45.45 0 0 0-.6.01.501.501 0 0 0-.091.62c.118.202.36.285.57.196a.49.49 0 0 0 .28-.555l1.161-.7c.062.091.134.176.214.25l-1.811 2.607a.584.584 0 0 0-.698.218.648.648 0 0 0 .133.877.58.58 0 0 0 .796-.076.648.648 0 0 0 .017-.835l1.807-2.6c.093.058.192.106.296.14l-.28 1.376a.471.471 0 0 0-.384.363.496.496 0 0 0 .18.509c.134.102.31.121.46.05a.484.484 0 0 0 .274-.391.494.494 0 0 0-.189-.444c-.014-.01-.027-.02-.042-.028l.277-1.366c.108.012.217.013.325.003l.28 1.373a.492.492 0 0 0 .152.882.466.466 0 0 0 .533-.378.486.486 0 0 0-.34-.57c-.017-.004-.033-.007-.05-.008l-.278-1.365c.105-.035.204-.083.296-.14l1.81 2.604a.65.65 0 0 0 .037.823c.206.226.54.26.784.078a.644.644 0 0 0 .177-.815.587.587 0 0 0-.754-.274l-1.808-2.603c.08-.075.153-.16.215-.25l1.17.705a.488.488 0 0 0 .307.538.456.456 0 0 0 .559-.226.5.5 0 0 0-.121-.614.449.449 0 0 0-.599.023l-1.165-.703c.043-.101.078-.207.099-.32l1.348.149c.031.126.11.234.217.299.22.122.494.039.619-.187a.499.499 0 0 0-.156-.654.446.446 0 0 0-.375-.04.472.472 0 0 0-.28.264l-1.343-.148c0-.113-.013-.224-.036-.33l2.943-.999a.586.586 0 0 0 .763.221.639.639 0 0 0 .31-.76.618.618 0 0 0-.297-.365.574.574 0 0 0-.457-.037z" fill="#B33A49"/>
    </g>
</svg>
