<svg width="59" height="73" viewBox="0 0 59 73" fill="none" xmlns="http://www.w3.org/2000/svg">
<g clip-path="url(#clip0_930_3552)">
<path d="M29.4628 67.5603C13.1198 67.5161 0.015198 54.2895 0.0508538 37.8715C0.0886071 21.4914 13.3526 8.34266 29.8025 8.38266C45.984 8.42055 59.0613 21.8282 59.0026 38.3178C58.9439 54.4495 45.6589 67.6024 29.4628 67.5603ZM29.532 63.4637C43.5573 63.449 54.8875 52.0475 54.8707 37.9578C54.856 23.8954 43.5657 12.5614 29.576 12.5614C15.4521 12.5614 4.12611 23.9397 4.18064 38.0715C4.23727 52.1233 15.5737 63.4784 29.5299 63.4637H29.532Z" fill="#103456"/>
<path d="M53.667 13.1761C47.2133 10.6583 40.8204 8.16374 34.3457 5.63757C34.9036 4.02293 35.342 2.43565 36.6109 1.28204C37.9239 0.0884199 39.369 -0.376816 41.1266 0.334722C44.6503 1.7578 48.155 3.24613 51.7563 4.44606C54.6696 5.41653 55.4183 8.25847 54.6486 10.6141C54.3675 11.4709 54.0047 12.3025 53.667 13.1761Z" fill="#103456"/>
<path d="M24.8265 5.59126C18.226 8.16585 11.8352 10.6583 5.37937 13.1761C4.71239 11.3867 3.76437 9.71944 4.23628 7.71745C4.57396 6.28806 5.31854 5.25654 6.7238 4.71552C10.367 3.30929 13.9997 1.87779 17.6345 0.450503C19.9039 -0.439972 21.8251 0.0947337 23.1738 2.17461C23.8302 3.18719 24.2413 4.35765 24.8265 5.59126Z" fill="#103456"/>
<path d="M0.00014428 70.0465C0.348314 69.3897 0.579028 68.6213 1.06772 68.095C2.66385 66.3793 4.34177 64.7394 6.0155 63.0974C7.20683 61.9291 8.94138 61.9059 10.0572 62.9922C11.2045 64.11 11.2464 65.8215 10.0698 67.0404C8.39396 68.7792 6.68248 70.4823 4.95422 72.1685C4.07121 73.0295 2.99524 73.2358 1.86054 72.7242C0.776184 72.2337 0.216177 71.3559 -0.00195312 70.0486L0.00014428 70.0465Z" fill="#103456"/>
<path d="M51.3949 62.1922C51.7283 62.3753 52.4855 62.6153 53.0078 63.1079C54.7151 64.7121 56.3531 66.392 57.987 68.074C59.1448 69.2634 59.1511 71.0212 58.0562 72.1285C56.9257 73.2737 55.2394 73.2947 54.0271 72.1095C52.324 70.4486 50.6503 68.756 48.9891 67.053C48.1019 66.1414 47.8544 65.051 48.3977 63.8658C48.8948 62.7795 49.7778 62.2343 51.3949 62.1922Z" fill="#103456"/>
<path d="M29.9276 20.0115C30.4834 20.1483 31.056 20.2346 31.5908 20.4283C34.3636 21.4261 36.1212 23.9523 36.1715 26.969C36.1778 27.3711 36.1778 27.7752 36.1715 28.1794C36.159 29.0067 35.6199 29.5899 34.867 29.6025C34.1224 29.6151 33.5645 29.0362 33.533 28.211C33.5057 27.5268 33.5519 26.83 33.4449 26.1585C33.1177 24.0912 31.1566 22.5292 29.1306 22.664C26.8465 22.8155 25.1014 24.5123 25.0406 26.7037C24.9966 28.3689 25.0259 30.0383 25.0238 31.7055C25.0238 31.7582 25.0385 31.8108 25.0532 31.9013C25.1853 31.9013 25.3133 31.9013 25.4391 31.9013C29.0215 31.9013 32.6039 31.8992 36.1862 31.9013C37.9061 31.9013 39.2694 32.8444 39.7686 34.398C39.8923 34.7854 39.9553 35.2085 39.9553 35.6148C39.9678 40.2777 39.9678 44.9427 39.9616 49.6056C39.9574 51.8307 38.3067 53.4874 36.0876 53.4895C31.5489 53.4959 27.0122 53.4959 22.4734 53.4895C20.2355 53.4853 18.5911 51.8349 18.5869 49.5845C18.5806 44.9532 18.6079 40.3219 18.5743 35.6927C18.5596 33.5728 20.2082 31.9097 22.1546 31.9013C22.2175 31.9013 22.2804 31.8866 22.3748 31.8761C22.3748 31.735 22.3748 31.6066 22.3748 31.4782C22.3874 29.7899 22.3266 28.0973 22.4252 26.4132C22.6181 23.1523 25.1203 20.523 28.3419 20.0788C28.4363 20.0662 28.5286 20.0346 28.6209 20.0115C29.0551 20.0115 29.4892 20.0115 29.9234 20.0115H29.9276ZM29.2795 34.5327C26.9891 34.5327 24.6987 34.5327 22.4084 34.5327C21.5988 34.5327 21.2108 34.9222 21.2108 35.739C21.2108 40.3261 21.2108 44.9132 21.2108 49.5003C21.2108 50.3824 21.6764 50.8518 22.5615 50.8518C27.0352 50.8539 31.5069 50.8539 35.9807 50.8518C36.8826 50.8518 37.3419 50.3845 37.3419 49.475C37.3419 44.8985 37.3419 40.3219 37.3419 35.7453C37.3419 34.9138 36.956 34.5327 36.1191 34.5306C33.8392 34.5306 31.5594 34.5306 29.2795 34.5306V34.5327Z" fill="#419ACD"/>
<path d="M40.1743 22.1735C41.0594 22.165 41.7263 23.0281 41.4348 23.8786C41.1307 24.7607 40.7804 25.628 40.3987 26.4785C40.082 27.1816 39.3416 27.4405 38.6872 27.1521C38.0265 26.8595 37.7308 26.1543 38.0034 25.4343C38.3097 24.6217 38.6348 23.8176 38.9704 23.0176C39.1969 22.4766 39.6457 22.1798 40.1764 22.1735H40.1743Z" fill="#419ACD"/>
<path d="M40.1369 28.2089C40.1516 27.7479 40.376 27.3332 40.8479 27.1163C41.7036 26.7248 42.5657 26.3458 43.4424 26.0048C44.1031 25.7501 44.8141 26.0974 45.0784 26.7395C45.3384 27.371 45.0951 28.1015 44.4596 28.4026C43.6081 28.8046 42.744 29.1815 41.8651 29.5141C41.0157 29.8341 40.1306 29.173 40.1348 28.2089H40.1369Z" fill="#419ACD"/>
<path d="M40.0704 31.5329C40.062 30.6488 40.9051 29.9772 41.7357 30.2677C42.646 30.5835 43.5416 30.9519 44.4204 31.3435C45.0412 31.6213 45.2929 32.3729 45.0412 32.9813C44.7749 33.6254 44.0911 33.9833 43.4451 33.7496C42.5495 33.4254 41.6644 33.0634 40.7898 32.6865C40.3305 32.4887 40.0746 32.0276 40.0704 31.5329Z" fill="#419ACD"/>
<path d="M29.276 37.7894C30.4548 37.7894 31.4993 38.5536 31.8559 39.6756C32.2229 40.8292 31.8244 42.0544 30.8386 42.7344C30.6415 42.8691 30.5785 43.0059 30.5806 43.2375C30.5911 44.2732 30.5953 45.309 30.5764 46.3426C30.5659 46.9741 30.1066 47.4709 29.4837 47.5846C28.9153 47.6878 28.3007 47.3657 28.0805 46.812C27.9987 46.6057 27.9694 46.3679 27.9673 46.1447C27.9547 45.1742 27.9547 44.2059 27.9673 43.2354C27.9694 43.0038 27.9043 42.8691 27.7093 42.7344C26.7151 42.0481 26.3271 40.8271 26.7046 39.644C27.0528 38.5494 28.1057 37.7894 29.2739 37.7894H29.276Z" fill="#419ACD"/>
</g>
<defs>
<clipPath id="clip0_930_3552">
<rect width="59" height="73" fill="white"/>
</clipPath>
</defs>
</svg>
