<svg width="71" height="71" viewBox="0 0 71 71" fill="none" xmlns="http://www.w3.org/2000/svg">
<g clip-path="url(#clip0_918_3388)">
<path d="M11.6869 25.7478H10.2844C10.0391 25.7478 9.82913 25.921 9.77702 26.1602C9.20834 28.8289 7.6648 30.371 5.34871 30.5871C3.12767 30.7941 1.02618 29.4344 0.282761 27.3129C-0.200076 25.9318 -0.0529258 24.6089 0.635308 23.3305C1.24077 22.2053 2.2463 21.5661 3.29014 21.048C3.54153 20.9223 3.64576 20.6173 3.5262 20.3628C3.16905 19.6071 2.78431 18.8943 2.60038 18.134C1.8355 14.9655 4.49494 11.958 7.73684 12.2922C8.40821 12.3612 8.70251 12.2063 8.97382 11.5748C9.91497 9.37512 12.1452 8.20859 14.3693 8.66386C16.7345 9.14825 18.3531 11.0674 18.3562 13.494C18.3684 25.9624 18.3623 38.4324 18.3608 50.9009C18.3608 50.9009 18.3608 50.9039 18.3608 50.9055C18.3608 51.1891 18.1247 51.4175 17.8412 51.4175C17.7155 51.4175 17.5944 51.4175 17.4733 51.4175C14.2099 51.4175 10.9466 51.419 7.68166 51.4175C6.70372 51.4175 6.14578 50.9821 6.12585 50.2249C6.10439 49.44 6.6838 48.974 7.69545 48.971C8.59828 48.9679 9.50111 48.9694 10.4775 48.971C10.7657 48.971 11.0002 48.738 10.9971 48.4498C10.9833 47.3201 11.1811 46.2225 10.4315 45.1434C9.79848 44.2313 9.37849 43.1721 8.88492 42.0975C8.75463 41.814 8.90178 41.4767 9.20068 41.3863C11.1428 40.7977 12.6112 39.7369 13.629 38.0584C14.2222 37.0789 14.5701 36.0304 14.6575 34.8746C14.6805 34.5757 14.4383 34.3243 14.1394 34.3243H12.7323C12.4901 34.3243 12.2816 34.4929 12.228 34.729C11.4631 38.0661 9.00754 39.7844 6.06301 39.0042C3.55532 38.3404 2.04243 35.7959 2.60344 33.2758C2.66476 32.9984 2.93453 32.8205 3.2135 32.8757C5.83768 33.3938 8.19975 32.7914 10.1618 30.8079C11.3972 29.5601 12.0624 28.0563 12.2065 26.3058C12.2311 26.0069 11.9889 25.7509 11.6884 25.7509L11.6869 25.7478ZM8.40515 18.1831C8.85426 17.7462 9.21447 17.3936 9.60074 17.0181C9.70038 16.92 9.75709 16.7866 9.75709 16.6456V15.292C9.75709 14.9701 9.46739 14.7279 9.14856 14.7801C7.62188 15.0299 6.40482 16.2562 6.21016 17.7385C6.16877 18.0512 6.40942 18.3302 6.72518 18.3302H8.04187C8.17676 18.3302 8.30705 18.2766 8.40361 18.1831H8.40515ZM17.0441 20.1589C16.7483 18.5954 15.6094 17.4657 14.1118 17.2265C13.7945 17.176 13.5064 17.4181 13.5064 17.7385V19.0798C13.5064 19.2162 13.5615 19.348 13.6581 19.4461C14.0766 19.8677 14.4322 20.2233 14.8338 20.628C14.9319 20.7261 15.0637 20.7813 15.2016 20.7813H16.5367C16.8648 20.7813 17.1069 20.4824 17.0456 20.1605L17.0441 20.1589ZM5.55258 28.0579C7.11605 27.7559 8.24727 26.6139 8.48179 25.1239C8.53237 24.8082 8.28865 24.52 7.9683 24.52H6.62862C6.4922 24.52 6.36037 24.5752 6.26227 24.6717C5.83922 25.0918 5.4836 25.4458 5.08201 25.8459C4.9839 25.944 4.92872 26.0759 4.92872 26.2138V27.549C4.92872 27.877 5.22916 28.1207 5.55105 28.0579H5.55258Z" fill="white"/>
<path d="M28.1578 48.971C29.4514 48.971 30.6455 48.9495 31.8396 48.9786C32.5324 48.9955 33.0106 49.4906 33.0474 50.1252C33.0827 50.7537 32.6244 51.3791 31.9699 51.3883C29.5787 51.4251 27.1859 51.4021 24.7089 51.4021C25.9551 43.9263 27.189 36.5255 28.4321 29.065C29.9588 29.4313 31.4165 29.649 32.7409 28.6833C33.4889 28.1376 33.9702 27.4095 34.1817 26.5005C34.5925 24.7392 33.5916 22.8967 31.8672 22.262C29.689 21.4603 27.8297 22.3372 26.5406 24.8909C26.0072 24.3284 25.509 23.8011 25.0109 23.2722C24.5066 22.7372 24.0023 22.2023 23.4811 21.6474C22.5645 22.2513 21.7475 22.7909 20.8125 23.4056V22.6023C20.8125 18.5479 20.8125 14.4934 20.8125 10.4389C20.8125 9.03481 21.3337 8.59181 22.6963 8.82481C31.2556 10.2872 37.7562 16.9138 38.9917 25.4382C40.1505 33.426 36.1529 41.3847 28.9609 45.3227C28.3371 45.6645 28.0796 46.0294 28.1424 46.7299C28.2053 47.435 28.1562 48.1493 28.1562 48.9679L28.1578 48.971Z" fill="white"/>
<path d="M71.0008 7.35324C70.9962 11.3924 67.6884 14.6911 63.6479 14.685C59.612 14.6804 56.3103 11.3679 56.3164 7.33025C56.321 3.29417 59.6319 -0.006123 63.6709 8.5299e-06C67.7098 0.00614006 71.0069 3.31103 71.0023 7.35324H71.0008ZM63.6509 9.78899C64.9814 9.79206 66.0896 8.69758 66.1034 7.36857C66.1172 6.03956 65.0289 4.91902 63.7015 4.89756C62.3327 4.87457 61.2061 5.98591 61.2122 7.35477C61.2184 8.68378 62.322 9.78592 63.6509 9.79052V9.78899Z" fill="white"/>
<path d="M56.3164 35.5276C56.3042 31.4869 59.5967 28.1698 63.631 28.1575C67.6746 28.1452 70.9886 31.4348 71.0008 35.4724C71.0131 39.5162 67.7237 42.8302 63.6862 42.844C59.6473 42.8563 56.3272 39.5606 56.3164 35.5276ZM66.105 35.5245C66.1173 34.1955 65.029 33.0765 63.7015 33.0535C62.3634 33.0321 61.246 34.1005 61.2138 35.4356C61.1801 36.7968 62.2944 37.9434 63.6525 37.9465C64.983 37.9496 66.0912 36.8551 66.1035 35.5245H66.105Z" fill="white"/>
<path d="M71.0008 63.6912C70.9855 67.7273 67.667 71.0153 63.6234 71C59.5906 70.9847 56.2996 67.6614 56.3165 63.6207C56.3318 59.5877 59.6534 56.2981 63.6939 56.3135C67.7313 56.3288 71.0162 59.646 71.0008 63.6912ZM63.6648 66.1025C64.9953 66.0994 66.0974 64.9988 66.1035 63.6682C66.1096 62.3392 65.0167 61.2264 63.6878 61.211C62.319 61.1957 61.2 62.3132 61.2123 63.682C61.2245 65.0095 62.3358 66.107 63.6648 66.104V66.1025Z" fill="white"/>
<path d="M37.0781 41.6208C37.6008 40.8222 38.0239 40.1308 38.5006 39.4763C38.6201 39.3123 38.9068 39.1866 39.1183 39.185C41.2075 39.1651 43.2983 39.1467 45.3875 39.182C47.3511 39.2157 48.913 40.7854 48.9559 42.7521C48.9896 44.3064 48.9605 45.8607 48.9666 47.4166C48.9712 48.5249 49.3928 48.9219 50.4765 48.9756C51.2045 49.0123 51.6859 48.8959 52.1074 48.1478C52.8937 46.7498 54.6396 46.2118 56.177 46.6839C57.7175 47.1576 58.7874 48.6445 58.7567 50.2708C58.7261 51.8589 57.6286 53.2784 56.0927 53.7137C54.5384 54.1536 52.8508 53.5665 52.0553 52.1624C51.7119 51.5554 51.3471 51.3929 50.6957 51.4006C47.9504 51.4328 46.5203 49.9719 46.5187 47.2081C46.5187 45.8577 46.5233 44.5057 46.5172 43.1552C46.5126 42.0546 46.088 41.6254 44.9936 41.6223C42.3955 41.6162 39.7989 41.6208 37.0781 41.6208Z" fill="white"/>
<path d="M31.9004 46.5184C32.8691 45.7151 33.6984 44.9993 34.5644 44.3294C34.779 44.1639 35.1116 44.0841 35.3906 44.0811C36.9709 44.0581 38.5513 44.0658 40.1331 44.0704C42.5274 44.078 44.0648 45.5986 44.0694 47.9823C44.0771 52.2406 44.0694 56.499 44.0725 60.7558C44.0725 62.0511 44.4557 62.4312 45.7616 62.4312C48.2095 62.4327 50.6574 62.4312 53.1054 62.4312H53.8779V64.7826C53.8534 64.8026 53.8135 64.8578 53.7752 64.8578C50.869 64.8654 47.9612 64.916 45.0565 64.8532C43.1175 64.8118 41.6353 63.1563 41.6292 61.1482C41.6138 56.8653 41.6246 52.5809 41.623 48.298C41.623 46.8541 41.2782 46.5153 39.8097 46.5153C37.2162 46.5153 34.6227 46.5153 31.9019 46.5153L31.9004 46.5184Z" fill="white"/>
<path d="M22.1791 51.3791H20.8133V50.5222C20.8133 42.7505 20.8225 34.9773 20.7949 27.2056C20.7934 26.5572 21.0019 26.2046 21.5291 25.8689C23.1202 24.8557 23.0129 24.9507 24.4492 26.1188C25.8931 27.2945 26.1199 28.5101 25.7858 30.3112C24.5197 37.1417 23.4605 44.0106 22.3216 50.8656C22.2925 51.0373 22.2296 51.2028 22.1791 51.3776V51.3791Z" fill="white"/>
<path d="M41.3242 31.8272C41.4254 30.9765 41.5158 30.2024 41.6139 29.3792C42.7804 29.3792 43.8993 29.3853 45.0183 29.3777C46.0713 29.37 46.5097 28.9393 46.5174 27.8939C46.5266 26.4146 46.5143 24.9354 46.522 23.4562C46.5343 21.1584 48.0701 19.5826 50.3479 19.5994C51.148 19.6056 51.6952 19.5136 52.1719 18.6889C52.9751 17.2986 54.7563 16.8157 56.2768 17.3323C57.805 17.8519 58.8305 19.3649 58.7569 20.9944C58.6849 22.5809 57.5598 23.9482 55.9902 24.356C54.4313 24.7606 52.8234 24.0984 51.9742 22.702C51.5879 22.0658 50.8001 21.8144 49.9034 22.0766C49.1768 22.2896 48.9546 22.8369 48.9638 23.5527C48.9822 25.032 48.9776 26.5112 48.9668 27.9904C48.9515 30.2698 47.3972 31.8119 45.1057 31.8257C43.861 31.8334 42.6164 31.8257 41.3257 31.8257L41.3242 31.8272Z" fill="white"/>
<path d="M13.5458 63.6958H25.5922C26.1271 65.6978 25.1477 68.3175 23.3405 69.7093C21.3417 71.2468 18.6792 71.4262 16.524 70.1692C14.2907 68.8662 13.158 66.4228 13.5458 63.6958Z" fill="white"/>
<path d="M53.8854 6.12845V8.56726C53.608 8.56726 53.3352 8.56726 53.0639 8.56726C48.5773 8.56726 44.0892 8.56726 39.6027 8.56726C38.3458 8.56726 37.9534 8.95815 37.9503 10.2028C37.9457 12.0132 37.9472 13.8235 37.9442 15.6338C37.9442 15.6768 37.912 15.7212 37.8767 15.8101C37.1103 14.8827 36.3577 13.9753 35.6097 13.0647C35.5637 13.0096 35.5146 12.9298 35.5177 12.8639C35.5836 11.42 35.461 9.93 35.7829 8.5458C36.1278 7.06351 37.3709 6.17444 38.9022 6.15451C43.87 6.0886 48.8409 6.12998 53.887 6.12998L53.8854 6.12845Z" fill="white"/>
<path d="M19.5858 53.8639C22.7741 53.8639 25.9608 53.8609 29.1491 53.867C29.9891 53.8685 30.501 54.2625 30.5915 54.9354C30.6896 55.6697 30.1331 56.2843 29.3024 56.3058C28.3842 56.3303 27.466 56.3119 26.5479 56.3135C21.0911 56.3135 15.6342 56.3196 10.1759 56.3012C9.78962 56.3012 9.26693 56.2399 9.05387 55.9946C8.78256 55.6819 8.61549 55.1316 8.67067 54.7193C8.74884 54.1368 9.26847 53.8685 9.86933 53.867C11.8834 53.8639 13.8991 53.8655 15.9132 53.8639C17.1379 53.8639 18.3611 53.8639 19.5858 53.8639Z" fill="white"/>
<path d="M19.5106 61.2095C17.19 61.2095 14.8693 61.2126 12.5486 61.208C11.5844 61.2064 11.0234 60.7481 11.0234 59.9847C11.0234 59.2214 11.5829 58.763 12.5471 58.7615C17.239 58.7584 21.931 58.7584 26.6229 58.7615C27.587 58.7615 28.148 59.2213 28.148 59.9832C28.148 60.745 27.5855 61.2049 26.6229 61.2064C24.2516 61.211 21.8804 61.208 19.5091 61.208L19.5106 61.2095Z" fill="white"/>
<path d="M40.7571 34.2952H53.8596V36.6803H39.9355C40.2099 35.8848 40.4782 35.1045 40.7587 34.2952H40.7571Z" fill="white"/>
<path d="M30.2694 26.922C29.9153 26.6369 28.9542 27.1765 28.9343 26.1709C28.9113 25.0136 29.457 24.4725 30.441 24.4817C31.2856 24.4908 31.8635 25.0289 31.8221 25.7693C31.7823 26.4836 31.2105 26.9435 30.2694 26.9205V26.922Z" fill="white"/>
</g>
<defs>
<clipPath id="clip0_918_3388">
<rect width="71" height="71" fill="white"/>
</clipPath>
</defs>
</svg>
