<svg width="74" height="67" viewBox="0 0 74 67" fill="none" xmlns="http://www.w3.org/2000/svg">
<g clip-path="url(#clip0_918_3413)">
<path d="M49.7252 7.12242V8.42859C49.7088 8.50836 49.6858 8.58812 49.6792 8.67121C49.5575 10.3662 49.005 11.9183 48.1071 13.3442C47.2421 14.7201 46.1107 15.8601 44.9169 16.9403C42.6081 19.0341 40.0921 20.8554 37.4971 22.5638C37.1452 22.7964 36.8525 22.7997 36.4973 22.5638C34.3891 21.1745 32.3435 19.6955 30.403 18.0736C28.9526 16.8605 27.545 15.6009 26.4103 14.0687C24.4534 11.4265 23.8219 8.48177 24.5981 5.27451C25.0717 3.32357 26.236 1.87117 27.9955 0.920628C29.4295 0.152882 30.9621 -0.103034 32.5638 0.0598216C33.8991 0.196088 35.1028 0.664713 36.0994 1.59864C36.4217 1.90108 36.7078 2.25006 37.0104 2.57909C37.017 2.57577 37.0334 2.56912 37.0433 2.55915C37.0893 2.49933 37.1354 2.4395 37.1814 2.37968C37.9313 1.3959 38.8883 0.697949 40.0658 0.352296C42.2003 -0.279183 44.2657 -0.0598272 46.2061 1.03695C47.844 1.96423 48.9063 3.37675 49.3931 5.20804C49.5575 5.83288 49.62 6.4843 49.7285 7.12575L49.7252 7.12242Z" fill="white"/>
<path d="M0 62.6228C0.904444 59.1962 2.31867 56.0887 5.328 53.9982C6.13049 53.4398 6.97902 52.9546 7.94267 52.353C5.63058 50.319 4.53538 47.7897 4.90373 44.6988C5.14382 42.688 6.04827 41.0262 7.53813 39.6968C10.7349 36.8452 15.5466 36.9781 18.5625 39.9826C21.9731 43.3826 21.7626 47.7797 18.01 52.3164C19.5327 53.4331 21.0588 54.5532 22.5355 55.6334C23.8708 54.2275 25.1567 52.5557 26.7551 51.2861C28.3634 50.0099 30.2874 49.1358 32.0996 48.0689C28.9817 45.9983 26.9426 43.1367 26.8965 39.0554C26.8636 36.1073 27.9161 33.6479 29.9585 31.6238C34.1913 27.4328 41.0355 27.8615 44.8111 32.5079C48.8334 37.46 47.6034 43.8646 41.6373 48.2185C45.755 49.6576 49.0143 52.0838 51.2409 55.7862C52.8755 54.5931 54.4311 53.4597 55.9802 52.3297C52.1585 47.7698 52.0171 43.1068 55.6381 39.7766C58.8744 36.802 63.8242 36.9748 66.9092 40.1222C69.606 42.8775 70.4809 48.3082 66.0705 52.3497C66.8664 52.8349 67.6459 53.267 68.3826 53.7655C71.6188 55.9724 73.214 59.2128 74 62.9552V65.2817C73.2403 66.6178 72.1188 67.0033 70.5927 67C48.1987 66.9568 25.8046 66.9568 3.40729 67C1.88453 67 0.756444 66.6244 0 65.2817V62.6228H0ZM48.2579 61.9083C47.5804 56.4277 42.0452 52.3231 35.8785 52.6654C31.0241 52.9346 25.8441 57.6707 25.8079 61.9083H48.2579ZM31.8167 38.9856C31.8299 41.8837 34.2275 44.3199 37.0362 44.2867C39.812 44.2534 42.1372 41.887 42.1636 39.0686C42.1899 36.1372 39.8876 33.7376 37.0329 33.7177C34.1683 33.6977 31.8068 36.0874 31.82 38.9889L31.8167 38.9856ZM5.55822 61.9049H20.2431C19.2367 58.6212 16.1616 56.3612 12.83 56.4011C9.49831 56.4443 6.42978 58.7243 5.55822 61.9049ZM68.399 61.9149C67.659 58.7775 64.3964 56.3512 61.0549 56.4011C57.6378 56.451 54.418 58.9004 53.8161 61.9149H68.399ZM12.8957 42.6448C11.1395 42.6415 9.78116 43.9942 9.768 45.759C9.75484 47.5338 11.0868 48.9463 12.8036 48.9829C14.5698 49.0228 16.0991 47.5105 16.0629 45.769C16.0268 44.0374 14.6191 42.6515 12.8924 42.6448H12.8957ZM61.0418 42.6448C59.3184 42.6747 57.9075 44.1105 57.9272 45.8122C57.9502 47.5969 59.4598 49.0527 61.2227 48.9829C62.9428 48.9164 64.2616 47.474 64.2123 45.7125C64.1662 43.9344 62.798 42.6116 61.0418 42.6415V42.6448Z" fill="white"/>
<g clip-path="url(#clip1_918_3413)">
<path d="M49.7252 7.12242V8.42859C49.7088 8.50836 49.6858 8.58812 49.6792 8.67121C49.5575 10.3662 49.005 11.9183 48.1071 13.3442C47.2421 14.7201 46.1107 15.8601 44.9169 16.9403C42.6081 19.0341 40.0921 20.8554 37.4971 22.5638C37.1452 22.7964 36.8525 22.7997 36.4973 22.5638C34.3891 21.1745 32.3435 19.6955 30.403 18.0736C28.9526 16.8605 27.545 15.6009 26.4103 14.0687C24.4534 11.4265 23.8219 8.48177 24.5981 5.27451C25.0717 3.32357 26.236 1.87117 27.9955 0.920628C29.4295 0.152882 30.9621 -0.103034 32.5638 0.0598216C33.8991 0.196088 35.1028 0.664713 36.0994 1.59864C36.4217 1.90108 36.7078 2.25006 37.0104 2.57909C37.017 2.57577 37.0334 2.56912 37.0433 2.55915C37.0893 2.49933 37.1354 2.4395 37.1814 2.37968C37.9313 1.3959 38.8883 0.697949 40.0658 0.352296C42.2003 -0.279183 44.2657 -0.0598272 46.2061 1.03695C47.844 1.96423 48.9063 3.37675 49.3931 5.20804C49.5575 5.83288 49.62 6.4843 49.7285 7.12575L49.7252 7.12242Z" fill="white"/>
<path d="M0 62.6112C0.904444 59.1846 2.31867 56.077 5.328 53.9865C6.13049 53.4281 6.97902 52.9429 7.94267 52.3413C5.63058 50.3073 4.53538 47.7781 4.90373 44.6871C5.14382 42.6764 6.04827 41.0146 7.53813 39.6851C10.7349 36.8335 15.5466 36.9665 18.5625 39.971C21.9731 43.371 21.7626 47.7681 18.01 52.3048C19.5327 53.4215 21.0588 54.5415 22.5355 55.6217C23.8708 54.2158 25.1567 52.5441 26.7551 51.2745C28.3634 49.9982 30.2874 49.1241 32.0996 48.0572C28.9817 45.9866 26.9426 43.125 26.8965 39.0437C26.8636 36.0957 27.9161 33.6362 29.9585 31.6122C34.1913 27.4211 41.0355 27.8499 44.8111 32.4962C48.8334 37.4484 47.6034 43.8529 41.6373 48.2068C45.755 49.6459 49.0143 52.0721 51.2409 55.7746C52.8755 54.5814 54.4311 53.4481 55.9802 52.3181C52.1585 47.7581 52.0171 43.0951 55.6381 39.7649C58.8744 36.7903 63.8242 36.9631 66.9092 40.1106C69.606 42.8658 70.4809 48.2965 66.0705 52.338C66.8664 52.8232 67.6459 53.2553 68.3826 53.7538C71.6188 55.9607 73.214 59.2012 74 62.9435V65.27C73.2403 66.6061 72.1188 66.9917 70.5927 66.9883C48.1987 66.9451 25.8046 66.9451 3.40729 66.9883C1.88453 66.9883 0.756444 66.6128 0 65.27V62.6112H0ZM48.2579 61.8966C47.5804 56.416 42.0452 52.3114 35.8785 52.6537C31.0241 52.923 25.8441 57.6591 25.8079 61.8966H48.2579ZM31.8167 38.9739C31.8299 41.8721 34.2275 44.3082 37.0362 44.275C39.812 44.2418 42.1372 41.8754 42.1636 39.057C42.1899 36.1256 39.8876 33.726 37.0329 33.706C34.1683 33.6861 31.8068 36.0757 31.82 38.9772L31.8167 38.9739ZM5.55822 61.8933H20.2431C19.2367 58.6096 16.1616 56.3496 12.83 56.3894C9.49831 56.4326 6.42978 58.7126 5.55822 61.8933ZM68.399 61.9033C67.659 58.7658 64.3964 56.3396 61.0549 56.3894C57.6378 56.4393 54.418 58.8888 53.8161 61.9033H68.399ZM12.8957 42.6332C11.1395 42.6298 9.78116 43.9825 9.768 45.7473C9.75484 47.5221 11.0868 48.9347 12.8036 48.9712C14.5698 49.0111 16.0991 47.4989 16.0629 45.7573C16.0268 44.0257 14.6191 42.6398 12.8924 42.6332H12.8957ZM61.0418 42.6332C59.3184 42.6631 57.9075 44.0989 57.9272 45.8005C57.9502 47.5853 59.4598 49.041 61.2227 48.9712C62.9428 48.9047 64.2616 47.4623 64.2123 45.7008C64.1662 43.9227 62.798 42.5999 61.0418 42.6298V42.6332Z" fill="white"/>
</g>
</g>
<defs>
<clipPath id="clip0_918_3413">
<rect width="74" height="67" fill="white"/>
</clipPath>
<clipPath id="clip1_918_3413">
<rect width="74" height="67" fill="white"/>
</clipPath>
</defs>
</svg>
