<svg width="60" height="80" viewBox="0 0 60 80" fill="none" xmlns="http://www.w3.org/2000/svg">
<g clip-path="url(#clip0_930_3624)">
<path d="M39.4097 44.5761C41.3099 46.4787 43.0197 48.3167 44.8676 50.0003C46.3514 51.3521 48.5237 51.1372 50.0619 49.6289C52.2258 47.5093 54.35 45.348 56.5056 43.218C57.4578 42.2771 58.4247 42.2041 59.2806 42.9509C60.2203 43.7729 60.2538 44.9203 59.312 45.8696C57.1795 48.0204 54.9988 50.1275 52.8997 52.3118C52.5188 52.7082 52.2384 53.382 52.2363 53.9286C52.1945 61.6851 52.207 69.4396 52.2049 77.1961C52.2049 77.5779 52.2258 77.968 52.1589 78.3394C51.9935 79.2865 51.1774 79.9541 50.2461 79.9541C49.3734 79.9541 48.5802 79.3157 48.3919 78.4103C48.3144 78.0411 48.3186 77.6509 48.3186 77.2712C48.3124 73.6892 48.3207 70.1072 48.3103 66.5252C48.3082 65.5718 47.8729 65.1149 47.1069 65.2213C46.3012 65.3339 46.1652 65.9118 46.1673 66.6023C46.1756 70.1155 46.1714 73.6287 46.1693 77.1398C46.1693 77.5216 46.184 77.9096 46.1296 78.2851C45.9873 79.2782 45.1376 79.9833 44.1666 79.9478C43.2353 79.9145 42.4672 79.2156 42.3354 78.2518C42.2893 77.9096 42.304 77.5571 42.304 77.2107C42.304 69.4897 42.2977 61.7686 42.3228 54.0475C42.3249 53.3007 42.1386 52.7499 41.582 52.2137C39.9538 50.6491 38.3905 49.0197 36.8104 47.4238C35.9984 47.7972 35.854 48.3501 35.8561 49.0719C35.875 58.3576 35.8687 67.6434 35.8687 76.9312C35.8687 77.2087 35.8812 77.4882 35.8645 77.7657C35.7829 79.0111 34.8537 79.9249 33.6357 79.9687C32.4637 80.0125 31.4132 79.0988 31.3064 77.8742C31.2457 77.1836 31.2834 76.4847 31.2834 75.7879C31.2834 71.9284 31.2855 68.0669 31.2792 64.2074C31.2792 63.0516 30.8879 62.5864 29.9775 62.6239C28.9437 62.6657 28.7637 63.3416 28.7679 64.2053C28.7804 68.5884 28.8076 72.9695 28.7365 77.3505C28.726 78.041 28.3828 78.8442 27.9329 79.3762C27.3678 80.048 26.47 80.1481 25.6162 79.7768C24.6974 79.3783 24.2035 78.6627 24.1889 77.6614C24.17 76.3408 24.1826 75.0181 24.1826 73.6976C24.1826 65.5238 24.1784 57.3521 24.1931 49.1783C24.1931 48.4439 24.1303 47.8014 23.2325 47.4029C21.4997 49.1491 19.7187 50.9057 18.0026 52.7228C17.7473 52.994 17.7285 53.5593 17.7264 53.9891C17.7096 61.7456 17.7138 69.5001 17.7117 77.2566C17.7117 77.5696 17.7243 77.8846 17.6887 78.1954C17.5694 79.2156 16.7825 79.9374 15.8031 79.9458C14.8237 79.9562 13.9949 79.2531 13.8924 78.2309C13.8192 77.507 13.8568 76.7726 13.8547 76.0425C13.8505 72.9131 13.8443 69.7817 13.8589 66.6524C13.8631 65.8701 13.7145 65.2213 12.7644 65.2296C11.7996 65.2359 11.7034 65.9118 11.7054 66.6795C11.718 70.297 11.7054 73.9145 11.7138 77.5299C11.7159 78.4145 11.5401 79.1968 10.7135 79.6808C9.57918 80.3463 8.13307 79.6933 7.87147 78.3811C7.79822 78.0118 7.81915 77.6196 7.81915 77.2379C7.81706 69.4813 7.80659 61.7269 7.83171 53.9703C7.8338 53.2506 7.63499 52.7374 7.11807 52.2346C4.97088 50.1463 2.86763 48.0142 0.739276 45.905C0.144927 45.3167 -0.233867 44.5845 0.163762 43.8459C0.463029 43.2931 1.07831 42.6443 1.6308 42.5629C2.22724 42.4753 3.06645 42.8362 3.53523 43.2785C5.66568 45.2812 7.70614 47.38 9.77171 49.4516C11.6217 51.3083 13.8024 51.3542 15.6692 49.5413C17.3141 47.9433 18.9423 46.3264 20.7128 44.5865C19.003 42.9197 17.3727 41.3613 15.7822 39.7653C14.7546 38.7347 14.7107 37.604 15.5813 36.6089C16.5691 35.4781 17.9001 35.4364 19.0448 36.5671C21.575 39.0602 24.0905 41.5699 26.5893 44.0921C28.6339 46.1554 31.2771 46.2284 33.3427 44.1943C35.9001 41.6784 38.4219 39.1269 40.9709 36.6026C42.0508 35.5324 43.2206 35.4594 44.2168 36.3502C45.3239 37.337 45.3887 38.6471 44.3172 39.7277C42.7267 41.3341 41.1006 42.9051 39.4076 44.5698L39.4097 44.5761Z" fill="#103456"/>
<path d="M29.991 44.6762C27.5068 44.6637 25.4978 42.6025 25.5417 40.1137C25.5836 37.7291 27.5864 35.7556 29.9784 35.741C32.4625 35.7264 34.4988 37.7688 34.4779 40.2576C34.457 42.7006 32.4395 44.6908 29.9931 44.6783L29.991 44.6762Z" fill="#103456"/>
<path d="M12.7885 49.9606C10.6853 49.9773 8.95455 48.2854 8.96292 46.2242C8.97129 44.1338 10.6727 42.4502 12.7718 42.4565C14.8122 42.4628 16.499 44.1192 16.5409 46.1574C16.5848 48.2374 14.9001 49.9439 12.7864 49.9606H12.7885Z" fill="#103456"/>
<path d="M50.9919 46.218C50.9919 48.3501 49.3532 49.9732 47.206 49.9606C45.0923 49.9502 43.4244 48.2625 43.4495 46.1637C43.4746 44.1297 45.153 42.4732 47.2081 42.4544C49.3156 42.4357 50.9898 44.1025 50.9919 46.218Z" fill="#103456"/>
<path d="M42.7009 18.1208C43.1027 20.5263 43.5004 22.8461 43.8645 25.1743C43.9168 25.5165 43.7996 25.8836 43.7599 26.2404C43.3999 26.1924 43.0065 26.2216 42.6884 26.0818C41.7341 25.6646 40.7839 25.2244 39.8799 24.7112C39.3043 24.3837 38.9548 24.5067 38.5447 24.9615C37.8708 25.7084 37.1551 26.4219 36.4247 27.1145C36.2175 27.3106 35.8178 27.5651 35.6545 27.4859C35.4097 27.3669 35.1983 26.9998 35.1376 26.7035C34.7128 24.5985 34.3298 22.4831 33.9343 20.3656C32.7644 20.1299 32.1408 20.5909 31.7369 21.6653C30.9207 23.8412 29.9978 25.9775 29.1167 28.1284C28.7023 29.1444 28.3717 29.2112 27.7062 28.3642C26.0047 26.207 24.3159 24.0415 22.6437 21.8635C22.2189 21.3107 21.7731 20.9915 20.9904 21.344C21.4006 23.5846 21.8275 25.8252 22.2084 28.0721C22.2775 28.4831 22.1582 28.9233 22.1268 29.3509C21.7083 29.2508 21.2583 29.2153 20.8774 29.0359C19.6845 28.4768 18.477 27.3357 17.3532 27.4233C16.2984 27.5046 15.3546 28.8774 14.3354 29.6472C14.0571 29.8579 13.6804 29.9413 13.3497 30.0853C13.2199 29.7431 13.0232 29.4093 12.9709 29.0568C12.6172 26.6576 12.228 24.2585 11.9894 21.8468C11.8847 20.7787 11.4871 20.2968 10.4303 20.2759C9.94683 20.2655 9.43829 20.2258 8.99043 20.0631C8.67442 19.9484 8.43794 19.6083 8.16797 19.3684C8.48607 19.2557 8.81464 19.0179 9.11809 19.0492C11.9559 19.3392 14.7832 19.8086 17.6273 19.9776C26.8565 20.5221 35.8889 19.5311 44.6033 16.2683C44.9025 16.1556 45.3064 16.3267 45.6622 16.3663C45.4194 16.6647 45.2353 17.0757 44.9235 17.2384C44.2496 17.5868 43.5108 17.8079 42.703 18.1188L42.7009 18.1208ZM12.8893 20.7015C13.2576 23.3426 13.6092 25.867 13.9838 28.554C14.8251 27.8489 15.5848 27.3023 16.2314 26.643C16.8677 25.9921 17.4369 26.0276 18.1652 26.4511C19.0525 26.9685 19.9922 27.3982 21.0846 27.9553C20.6472 25.577 20.2475 23.3906 19.8499 21.223C17.4997 21.0478 15.2541 20.8788 12.8893 20.7015ZM42.7323 24.9407C42.3431 22.6479 41.9936 20.5763 41.6399 18.4943C39.3902 19.0409 37.2388 19.5624 34.9953 20.1069C35.3553 22.0221 35.709 23.8976 36.0898 25.9233C36.9311 25.0867 37.6406 24.4233 38.2998 23.7098C38.7267 23.2488 39.1453 23.1987 39.6873 23.472C40.6123 23.9414 41.5562 24.3753 42.7302 24.9407H42.7323ZM28.2691 27.3774C29.213 25.0659 30.0794 22.9483 30.9876 20.7265C28.4072 20.9101 26.0131 21.0812 23.4913 21.2627C25.0944 23.3134 26.6054 25.2494 28.2691 27.3774Z" fill="#103456"/>
<path d="M20.2677 9.80938C19.0456 9.7155 18.3968 10.2204 18.0452 11.3573C17.3985 13.4456 16.6242 15.4964 15.9022 17.5617C15.5485 18.5715 15.1718 18.6528 14.4896 17.8392C12.9033 15.9449 11.3023 14.0653 9.76827 12.1313C9.28275 11.5201 8.79722 11.2217 8.01871 11.3344C7.54155 11.4032 7.0351 11.4158 6.56213 11.3323C6.29635 11.2843 6.07661 10.9881 5.83594 10.8045C6.08707 10.6397 6.32983 10.3476 6.59143 10.3268C8.80978 10.1578 11.0449 10.1599 13.2486 9.8824C22.1638 8.75376 30.5203 5.89773 38.3975 1.61265C39.3455 1.09736 40.2643 0.521561 41.2332 0.0500765C41.4823 -0.0709238 41.8694 0.0855421 42.1938 0.116835C42.064 0.392215 41.9406 0.669682 41.8004 0.938803C41.7732 0.990959 41.6894 1.02642 41.6246 1.0452C39.5464 1.66063 39.2074 3.24407 39.13 5.14044C39.0337 7.49577 38.7219 9.84276 38.4666 12.1897C38.4289 12.534 38.1966 12.8553 38.0543 13.187C37.7257 13.0305 37.3406 12.9408 37.0811 12.7071C35.1139 10.9443 33.1174 9.20646 31.2465 7.34556C30.4052 6.50899 29.7334 6.60704 28.8335 7.23708C29.2834 9.68003 29.7501 12.1605 30.1854 14.6473C30.2524 15.0249 30.1708 15.4276 30.1582 15.8177C29.748 15.753 29.3002 15.7718 28.9319 15.6111C27.7892 15.1125 26.6737 14.5472 25.4976 13.9818C24.581 14.9039 23.6873 15.8239 22.7686 16.7168C22.1115 17.3573 21.7055 17.2321 21.5234 16.3225C21.0881 14.1508 20.6821 11.9728 20.2677 9.81355V9.80938ZM21.312 9.49853C21.6867 11.4804 22.0508 13.406 22.4442 15.4922C23.2604 14.6869 23.9782 14.0381 24.6207 13.3205C25.1125 12.7718 25.5729 12.7655 26.1798 13.091C27.0504 13.5562 27.9566 13.9589 29.0344 14.4804C28.5845 12.0166 28.1785 9.7906 27.7704 7.55836C25.575 8.2176 23.5157 8.8372 21.312 9.49853ZM37.4285 11.5722C37.7299 8.57434 38.0041 5.83306 38.2908 2.97703C35.9803 4.05769 33.7976 5.07994 31.4976 6.15434C33.4334 7.92344 35.3127 9.6404 37.4264 11.5722H37.4285ZM17.2814 10.3977C14.9123 10.7127 12.763 10.9964 10.4756 11.301C11.995 13.1327 13.439 14.8726 15.0191 16.7794C15.7934 14.5972 16.5028 12.5945 17.2814 10.3998V10.3977Z" fill="#103456"/>
<path d="M12.8867 20.7015C15.2495 20.8788 17.4971 21.0457 19.8473 21.223C20.2449 23.3906 20.6467 25.577 21.082 27.9552C19.9896 27.3982 19.05 26.9685 18.1626 26.4511C17.4343 26.0276 16.8651 25.9921 16.2289 26.643C15.5843 27.3023 14.8225 27.8488 13.9812 28.554C13.6066 25.8669 13.255 23.3426 12.8867 20.7015Z" fill="#419ACD"/>
<path d="M42.731 24.9386C41.5549 24.3753 40.6131 23.9393 39.6881 23.4699C39.1461 23.1945 38.7275 23.2467 38.3006 23.7077C37.6414 24.4212 36.9298 25.0846 36.0906 25.9212C35.7097 23.8934 35.3561 22.02 34.9961 20.1048C37.2375 19.5603 39.3909 19.0388 41.6407 18.4922C41.9943 20.5742 42.3438 22.6458 42.7331 24.9386H42.731Z" fill="#419ACD"/>
<path d="M28.27 27.3753C26.6062 25.2473 25.0953 23.3113 23.4922 21.2606C26.014 21.0812 28.4081 20.9101 30.9885 20.7244C30.0803 22.9442 29.2159 25.0637 28.27 27.3753Z" fill="#419ACD"/>
<path d="M21.3125 9.49853C23.5141 8.8372 25.5755 8.21759 27.7708 7.55835C28.1789 9.7906 28.5849 12.0166 29.0349 14.4804C27.955 13.9589 27.0509 13.5562 26.1803 13.091C25.5734 12.7676 25.1109 12.7718 24.6212 13.3205C23.9808 14.0381 23.2609 14.6849 22.4447 15.4922C22.0513 13.4081 21.6871 11.4804 21.3125 9.49853Z" fill="#419ACD"/>
<path d="M37.4288 11.5701C35.313 9.63831 33.4337 7.91927 31.5 6.15225C33.7979 5.07785 35.9827 4.0556 38.2932 2.97495C38.0064 5.83097 37.7323 8.57225 37.4309 11.5701H37.4288Z" fill="#419ACD"/>
<path d="M17.2823 10.3956C16.5038 12.5903 15.7943 14.5931 15.02 16.7752C13.4399 14.8705 11.9959 13.1285 10.4766 11.2969C12.764 10.9944 14.9112 10.7085 17.2823 10.3935V10.3956Z" fill="#419ACD"/>
</g>
<defs>
<clipPath id="clip0_930_3624">
<rect width="60" height="80" fill="white"/>
</clipPath>
</defs>
</svg>
