<svg width="82" height="67" viewBox="0 0 82 67" fill="none" xmlns="http://www.w3.org/2000/svg">
<g clip-path="url(#clip0_918_3409)">
<path d="M36.9099 0C47.1628 0.0313756 55.7976 7.99294 56.6637 18.258C57.0319 22.6244 56.1088 26.685 53.8632 30.4343C53.6402 30.8082 53.6143 31.0462 53.9488 31.3808C55.1364 32.581 56.2955 33.8124 57.4468 35.0492C57.7087 35.3316 57.9369 35.4231 58.3414 35.3316C60.6622 34.8165 62.7315 35.3499 64.3962 37.0834C69.6757 42.5872 74.9369 48.1067 80.1801 53.6444C82.7161 56.3244 82.5761 60.2647 79.926 62.8192C79.0677 63.6454 78.2327 64.4978 77.3511 65.2953C74.7295 67.6641 70.9281 67.5491 68.4854 64.9998C63.4809 59.7758 58.4866 54.536 53.5184 49.278C52.769 48.4858 52.0611 47.6046 51.5373 46.6503C50.7879 45.2855 50.7697 43.769 51.1924 42.2734C51.3039 41.8812 51.2417 41.6354 50.9668 41.3504C49.774 40.1242 48.5916 38.8875 47.4247 37.635C47.1524 37.3448 46.945 37.303 46.5975 37.5017C43.4833 39.277 40.1227 40.1006 36.552 40.03C36.1242 40.0222 35.896 40.1948 35.6548 40.5138C31.3763 46.1954 25.6949 48.9538 18.6263 48.6819C9.49616 48.3367 1.71442 41.2459 0.251938 32.0293C-1.49059 21.0321 5.99295 10.7644 16.9149 9.19305C17.851 9.05709 18.8078 9.03617 19.7543 9.01526C20.1847 9.0048 20.4596 8.8793 20.7189 8.51848C23.9187 4.0736 28.1843 1.30209 33.5674 0.35559C34.6695 0.162107 35.7949 0.115044 36.9099 0ZM38.9584 37.0912C44.9769 36.6363 52.0248 31.7338 53.6791 23.4376C55.3205 15.2041 50.8812 7.01506 43.0191 3.9481C35.743 1.11122 28.1869 3.8958 24.5099 8.33545C30.671 10.0088 35.3826 13.5569 38.2816 19.3038C41.191 25.0717 41.2766 31.0148 38.961 37.0912H38.9584ZM25.0804 30.9886C25.2437 30.6801 25.3008 30.5912 25.3397 30.4945C26.1435 28.4812 26.9448 26.4653 27.746 24.4494C28.9881 21.325 30.2328 18.2005 31.4619 15.0708C31.5397 14.8747 31.5838 14.506 31.4826 14.4249C30.6295 13.753 29.7401 13.1281 28.8481 12.4796C28.7132 12.6836 28.651 12.7463 28.6199 12.8248C26.7244 17.6043 24.8289 22.3839 22.9463 27.1687C22.8763 27.3465 22.8607 27.6288 22.9567 27.7779C23.6127 28.8133 24.3051 29.8277 25.0804 30.986V30.9886ZM30.1446 34.6805C30.282 34.4766 30.3287 34.4269 30.3521 34.3694C32.2035 29.7101 34.0575 25.0482 35.8986 20.3863C35.966 20.219 36.0153 19.9601 35.9349 19.8294C35.2944 18.7914 34.6228 17.7743 33.8708 16.6134C33.6815 16.9977 33.5856 17.1625 33.5156 17.335C32.5224 19.8372 31.5319 22.3394 30.5413 24.8416C29.5508 27.3438 28.5525 29.8434 27.5801 32.3561C27.4971 32.5679 27.4997 32.9888 27.6268 33.0777C28.4332 33.6451 29.2837 34.1445 30.1446 34.6831V34.6805ZM32.7895 35.6793C34.0497 35.8283 35.1725 35.9564 36.2953 36.1003C36.7128 36.1525 36.9125 35.9643 37.0525 35.5826C38.266 32.2907 38.6135 28.9231 37.9627 25.4639C37.8693 24.9671 37.7448 24.473 37.6333 23.9788C37.5685 23.9736 37.5037 23.9684 37.4389 23.9631C35.9193 27.7962 34.3998 31.6266 32.7895 35.6819V35.6793ZM27.7046 12.0927C27.7253 12.0352 27.7434 11.9803 27.7642 11.9227C26.7503 11.5541 25.7312 11.1959 24.7251 10.8115C24.2273 10.6206 23.9161 10.7122 23.6101 11.1959C21.3464 14.7544 20.54 18.6084 21.209 22.7787C21.2401 22.9696 21.3049 23.1552 21.3542 23.3461C21.585 23.1291 21.6835 22.9173 21.7691 22.7003C23.0734 19.4163 24.3777 16.1297 25.682 12.8431C26.1798 11.5907 26.5169 10.2363 27.8161 10.6808C27.8913 10.7069 27.6319 12.0744 27.7097 12.0927H27.7046Z" fill="white"/>
<path d="M29.1249 11.3865L26.6289 10.4063L25.3829 13.6321L27.8789 14.6123L29.1249 11.3865Z" fill="white"/>
</g>
<defs>
<clipPath id="clip0_918_3409">
<rect width="82" height="67" fill="white"/>
</clipPath>
</defs>
</svg>
