<svg width="50" height="65" viewBox="0 0 50 65" fill="none" xmlns="http://www.w3.org/2000/svg">
<g clip-path="url(#clip0_918_3404)">
<path d="M24.9535 48.1381C21.4828 48.1381 18.0121 48.1421 14.5415 48.1315C14.3144 48.1315 14.0638 48.073 13.8631 47.9668C6.14623 43.8719 1.43687 37.5005 0.245427 28.7489C-1.43152 16.4231 5.61874 5.08283 17.3049 1.25492C31.3883 -3.35796 45.9901 5.19307 49.3204 19.482C51.988 30.9298 46.6422 42.5291 36.4008 47.8167C36.015 48.0159 35.54 48.1195 35.1044 48.1235C31.7216 48.1488 28.3375 48.1368 24.9548 48.1381H24.9535ZM24.4443 30.4278C24.7501 30.4278 25.0545 30.4278 25.3602 30.4278C26.4323 30.4251 26.5215 30.3879 26.6212 29.3014C26.7656 27.7222 27.4046 26.4391 28.6078 25.4191C29.1918 24.9236 29.7363 24.3764 30.2677 23.8226C33.7095 20.2271 32.1061 14.4959 27.3101 13.2633C25.5584 12.813 23.7988 12.8608 22.0838 13.4346C20.2402 14.0509 18.8585 15.2516 18.0436 17.058C17.5739 18.0966 18.0029 19.2734 18.9871 19.7635C19.9909 20.2643 21.2243 19.9362 21.6862 18.9148C22.3856 17.3675 23.8224 16.694 25.6607 17.0035C26.6383 17.1682 27.4361 17.6583 27.7654 18.6651C28.0856 19.6427 27.7917 20.4914 27.0726 21.1927C26.4756 21.7745 25.8707 22.3469 25.2605 22.9154C23.3658 24.6819 22.3567 26.8522 22.337 29.4728C22.3318 30.2232 22.5194 30.4092 23.2673 30.4251C23.6597 30.4331 24.052 30.4264 24.4457 30.4264L24.4443 30.4278ZM27.2366 34.9211C27.2314 33.4348 26.0452 32.2447 24.5651 32.2408C23.0495 32.2381 21.841 33.4481 21.8528 34.9543C21.8646 36.422 23.0784 37.6413 24.5362 37.6519C26.0203 37.6612 27.2419 36.4273 27.2379 34.9211H27.2366Z" fill="white"/>
<path d="M15.1895 59.3365V55.3691H34.7879V59.3365H15.1895Z" fill="white"/>
<path d="M15.1758 53.6943V49.7774H34.7769V53.6943H15.1758Z" fill="white"/>
<path d="M15.2402 61.0127H34.6668C34.6235 62.6544 33.041 64.4089 31.2263 64.8433C30.8471 64.9336 30.4508 64.988 30.0611 64.9894C26.6784 65 23.2943 65.008 19.9115 64.9907C17.8199 64.9801 16.0341 63.6532 15.399 61.6861C15.3334 61.4842 15.3006 61.2717 15.2402 61.0127Z" fill="white"/>
</g>
<defs>
<clipPath id="clip0_918_3404">
<rect width="50" height="65" fill="white"/>
</clipPath>
</defs>
</svg>
