<svg width="67" height="75" viewBox="0 0 67 75" fill="none" xmlns="http://www.w3.org/2000/svg">
<g clip-path="url(#clip0_930_3591)">
<path d="M17.4849 72.0295H10.6269C8.28961 56.0129 5.94994 39.9914 3.60547 23.9364H38.7389C38.2032 27.6112 37.6676 31.262 37.1271 34.9727C36.9469 34.9727 36.7836 34.9727 36.6226 34.9727C35.2222 34.9919 33.817 34.9488 32.4237 35.0446C29.2385 35.265 26.4208 36.4675 23.9707 38.4846C20.3146 41.4934 18.2536 45.4006 17.5858 50.0527C17.4561 50.9463 17.3912 51.8638 17.4225 52.7645C17.4417 53.3131 17.6627 53.8689 17.8693 54.3911C17.9678 54.6402 17.9822 54.772 17.7996 54.9636C17.4081 55.3804 17.0093 55.7973 16.6658 56.2524C16.1085 56.9927 15.8827 57.8455 15.9091 58.7702C15.9139 58.9283 15.8923 59.1175 15.8082 59.2421C14.7705 60.7369 14.5832 62.4186 14.6817 64.1673C14.797 66.2275 15.6497 67.8948 17.3096 69.1477C17.3961 69.2124 17.4801 69.3417 17.4825 69.4423C17.4969 70.288 17.4897 71.136 17.4897 72.0319L17.4849 72.0295Z" fill="#103456"/>
<path d="M20.4883 52.8435C20.5964 51.8206 20.6372 50.8552 20.8078 49.9162C21.5692 45.7527 23.599 42.3774 27.1926 40.0393C29.1479 38.7673 31.317 38.1444 33.6663 38.1492C39.0183 38.1612 44.3702 38.178 49.7245 38.1444C53.8514 38.1205 57.1495 39.7806 59.739 42.9116C62.0162 45.6665 63.0587 48.8789 63.1668 52.4243C63.1764 52.7597 63.0707 52.8507 62.7416 52.8483C49.0952 52.8411 35.4463 52.8411 21.7998 52.8411C21.4083 52.8411 21.0192 52.8411 20.4907 52.8411L20.4883 52.8435ZM37.5193 42.6169C37.5409 42.6097 37.5626 42.6025 37.5842 42.5954C37.4473 42.0444 37.3536 41.479 37.1566 40.9496C36.962 40.4202 36.52 40.334 36.0829 40.6909C35.4631 41.1964 35.0884 41.8647 34.9226 42.6337C34.7617 43.3883 35.295 44.1764 35.9892 44.2866C36.7026 44.4016 37.3103 43.9153 37.4545 43.1128C37.4833 42.9475 37.4977 42.7822 37.5193 42.6145V42.6169ZM30.6132 45.7862C30.5988 45.7814 30.5844 45.7791 30.57 45.7743C30.5604 45.5922 30.5532 45.4125 30.5364 45.2305C30.5292 45.1634 30.5051 45.0939 30.4835 45.0292C30.3346 44.5933 30.0631 44.4112 29.6548 44.5573C28.8429 44.8448 28.2135 45.3766 27.8748 46.1695C27.5505 46.9337 27.9565 47.8081 28.6891 48.0668C29.3737 48.3088 30.0343 47.9231 30.3082 47.0822C30.4451 46.6606 30.5147 46.2198 30.6132 45.7862ZM34.7473 47.5278C34.6968 47.5302 34.5695 47.523 34.447 47.547C33.7192 47.6835 33.0081 47.8536 32.7007 48.6513C32.4509 49.2981 32.6863 50.0791 33.2387 50.4336C33.7864 50.7858 34.4014 50.6923 34.9106 50.0887C35.2373 49.7006 35.5328 49.255 35.7225 48.7879C36.0564 47.9662 35.7177 47.535 34.7497 47.5302L34.7473 47.5278Z" fill="#419ACD"/>
<path d="M21.5283 16.9964C22.2801 16.9964 22.9768 16.9964 23.6758 16.9964C27.9491 16.9964 32.2249 16.9916 36.4983 16.9892C37.2886 16.9892 37.6873 17.3845 37.8891 18.417C38.0285 18.417 38.1774 18.417 38.3287 18.417C39.2247 18.417 40.1231 18.4074 41.0191 18.417C41.8767 18.4266 42.3331 18.8913 42.3499 19.7489C42.3571 20.0987 42.3619 20.4484 42.3427 20.7958C42.3042 21.5025 41.8334 21.9552 41.1272 21.9792C40.9735 21.984 40.8197 21.9792 40.666 21.9792C27.7306 21.9792 14.7975 21.9792 1.8621 21.9792C1.62429 21.9792 1.38408 21.984 1.14867 21.972C0.519313 21.9361 0.0460949 21.4689 0.0172695 20.8413C0.0004546 20.4508 0.00525884 20.0579 0.0124652 19.6675C0.0268779 18.9105 0.483281 18.4386 1.24716 18.4242C2.21281 18.405 3.18086 18.417 4.14892 18.4146C4.30025 18.4146 4.45399 18.4146 4.59812 18.4146C4.83352 17.2528 5.15061 16.9892 6.30843 16.9892C10.0221 16.9892 13.7358 16.9892 17.4495 16.9892C17.5984 16.9892 17.7497 16.9892 17.9203 16.9892C18.0404 15.7963 18.1581 14.6584 18.271 13.5205C18.4824 11.41 18.6914 9.29712 18.9076 7.18663C18.994 6.341 19.0421 5.4834 19.2054 4.65214C19.8684 1.28399 23.3467 -0.74744 26.64 0.258693C30.8125 1.53313 34.9874 2.79319 39.1623 4.06283C40.1159 4.35269 40.6372 5.10729 40.5363 6.04875C40.4522 6.85605 39.7724 7.51962 38.9028 7.58669C38.6194 7.60825 38.3167 7.54118 38.0405 7.45973C33.9448 6.22362 29.8492 4.98033 25.756 3.73464C24.1442 3.24355 22.7942 4.15626 22.6333 5.83315C22.3402 8.8779 22.0255 11.9179 21.7228 14.9626C21.658 15.6142 21.6003 16.2658 21.5331 17.0012L21.5283 16.9964Z" fill="#419ACD"/>
<path d="M57.8842 64.8165C58.6288 63.4918 59.3374 62.2269 60.0509 60.9645C60.1325 60.8207 60.2454 60.6914 60.3487 60.5596C60.7523 60.035 61.2183 59.702 61.951 59.7835C62.6019 59.8553 63.2673 59.8314 63.9255 59.7931C65.5037 59.702 66.6759 60.9094 66.8681 62.191C67.0314 63.2786 67.1323 64.3949 66.6063 65.437C66.1186 66.4048 65.35 66.9893 64.2402 67.0683C64.1009 67.0779 63.9591 67.0803 63.8198 67.0803C49.58 67.0803 35.3426 67.0755 21.1029 67.0899C19.8393 67.0899 18.8401 66.6827 18.2612 65.54C18.0354 65.092 17.9032 64.565 17.8648 64.0643C17.8144 63.4295 17.8312 62.7707 17.9465 62.1479C18.1987 60.804 19.3926 59.7835 20.8434 59.7907C27.2619 59.8242 33.6804 59.8434 40.0988 59.7907C43.5003 59.7619 46.784 60.3201 50.0052 61.3526C52.4914 62.1479 54.8527 63.2402 57.1539 64.4596C57.4109 64.5961 57.6752 64.7207 57.8818 64.8237L57.8842 64.8165Z" fill="#103456"/>
<path d="M41.8658 69.1309C48.5485 69.1309 55.2312 69.1309 61.9139 69.1309C62.6682 69.1309 63.1462 69.6028 63.1582 70.355C63.187 72.293 62.046 74.1016 60.3429 74.7269C59.9057 74.8874 59.4181 74.9736 58.9521 74.976C49.6511 74.9904 40.3476 74.9856 31.0466 74.9832C29.0288 74.9832 27.011 74.9425 24.9957 74.9976C22.8001 75.0599 21.2484 73.5339 20.7631 71.7803C20.6454 71.3539 20.5758 70.9036 20.5565 70.4604C20.5205 69.6124 21.0105 69.1333 21.8609 69.1333C28.5292 69.1333 35.1975 69.1333 41.8658 69.1333V69.1309Z" fill="#419ACD"/>
<path d="M24.0955 53.8688C25.2269 53.9 25.9547 54.2929 26.5504 54.9636C26.9036 55.3613 27.2543 55.7589 27.6194 56.147C28.3184 56.8944 29.3177 56.9064 30.0287 56.171C30.4371 55.7493 30.819 55.3014 31.2178 54.8702C32.4477 53.5478 34.2781 53.5359 35.5176 54.8414C35.9211 55.2678 36.3055 55.7134 36.7066 56.1422C37.4249 56.904 38.4265 56.904 39.1424 56.1398C39.5339 55.723 39.9135 55.2918 40.3002 54.8678C41.4796 53.5742 43.3221 53.5335 44.5447 54.7863C44.9747 55.2271 45.3663 55.7014 45.7914 56.1494C46.5049 56.8992 47.4849 56.9088 48.1984 56.1686C48.6163 55.735 49.0031 55.275 49.4186 54.839C50.6461 53.5454 52.4645 53.5526 53.6896 54.851C54.0547 55.2367 54.4031 55.6392 54.7634 56.0296C55.5969 56.9399 56.577 56.9471 57.4033 56.0464C57.754 55.6655 58.0975 55.2774 58.4458 54.8965C59.6517 53.5742 61.4821 53.5167 62.7144 54.8007C63.7017 55.8308 64.6361 56.9088 65.5921 57.9676C65.6666 58.0491 65.7267 58.1497 65.7699 58.2503C65.9164 58.5881 65.8083 58.9881 65.5249 59.1846C65.2366 59.3834 64.9268 59.3307 64.6337 59.0121C63.7569 58.0515 62.885 57.0861 62.0154 56.1183C61.1194 55.1217 60.1585 55.1121 59.2626 56.0943C58.9142 56.4752 58.5755 56.8681 58.22 57.2442C57.0021 58.5402 55.1189 58.5234 53.9154 57.2082C53.5383 56.7962 53.1732 56.3698 52.7936 55.9602C52.0706 55.1768 51.0497 55.172 50.3243 55.9458C49.9423 56.3554 49.5772 56.7794 49.1953 57.1867C47.9101 58.5617 46.0749 58.5545 44.809 57.1723C44.4487 56.7794 44.1004 56.3794 43.7376 55.9889C42.9714 55.16 41.9889 55.1552 41.213 55.9769C40.8191 56.3937 40.4491 56.8321 40.0528 57.2466C38.8157 58.5426 36.9588 58.5234 35.7482 57.2034C35.371 56.7914 35.0059 56.365 34.6264 55.9554C33.9154 55.1864 32.9137 55.1672 32.1906 55.9194C31.7847 56.3434 31.4051 56.7938 31.0016 57.2202C29.7285 58.5641 27.8956 58.5402 26.6441 57.1699C26.2862 56.777 25.9355 56.377 25.5752 55.9865C24.8113 55.16 23.8072 55.1529 23.0482 55.9769C22.1498 56.9543 21.2658 57.9485 20.3746 58.933C20.0095 59.3355 19.678 59.405 19.3633 59.1486C19.0294 58.8779 19.0006 58.3677 19.3321 57.994C20.3001 56.9064 21.2682 55.8212 22.2579 54.7552C22.7959 54.1731 23.5838 53.8664 24.1051 53.8712L24.0955 53.8688Z" fill="#103456"/>
</g>
<defs>
<clipPath id="clip0_930_3591">
<rect width="67" height="75" fill="white"/>
</clipPath>
</defs>
</svg>
