<svg width="56" height="73" viewBox="0 0 56 73" fill="none" xmlns="http://www.w3.org/2000/svg">
<g clip-path="url(#clip0_930_3588)">
<path d="M14.5117 43.6033C12.6827 42.8284 10.8519 42.2706 9.24089 41.3319C3.49249 37.9791 0.323576 32.9128 0.105618 26.2129C-0.0592719 21.1733 -0.0118898 16.1241 0.0961415 11.0806C0.207963 5.85814 3.25748 2.45204 8.33116 1.45438C9.74504 1.17641 11.1059 0.622372 12.4932 0.205414C14.125 -0.285797 14.9666 0.350111 14.9703 2.07125C14.9722 3.24597 14.9779 4.41878 14.9684 5.5935C14.9552 7.06904 14.0663 7.73731 12.6922 7.32226C12.1483 7.15852 11.555 7.08807 11.068 6.82153C8.17764 5.24127 4.92912 7.78872 4.92912 11.3509C4.92912 14.6828 4.90827 18.0147 4.92912 21.3446C4.94239 23.3723 4.86468 25.419 5.10349 27.4238C5.86539 33.8115 11.4641 38.7483 17.8152 38.7769C24.443 38.8054 30.0075 34.0418 30.9002 27.5247C31.0575 26.369 31.0632 25.1867 31.0689 24.0158C31.0878 19.9871 31.1295 15.9565 31.0424 11.9278C31.0177 10.7912 30.76 9.5784 30.2824 8.55219C29.4314 6.72062 27.3996 6.0333 25.4911 6.6654C24.714 6.92243 23.9199 7.13186 23.1352 7.36795C22.0947 7.6821 21.094 7.06713 21.0504 5.9819C20.9898 4.49304 20.9992 2.99846 21.0485 1.5096C21.0807 0.538599 21.9867 -0.190601 22.8566 0.0473886C25.1348 0.66997 27.4394 1.22972 29.6588 2.02365C33.764 3.48967 35.7844 6.6654 35.8867 10.8959C36.0213 16.5049 36.2222 22.1538 35.7294 27.7265C35.0964 34.8681 30.9666 39.7593 24.388 42.48C23.067 43.0264 21.5982 43.2339 20.1843 43.5291C19.6688 43.6376 19.4148 43.7747 19.4205 44.3554C19.4546 48.2165 19.3409 52.0814 19.502 55.9369C19.7559 62.0161 24.8656 67.2081 30.8642 67.9601C37.528 68.7959 44.406 64.1847 45.4522 56.5595C45.5205 56.0587 45.5204 55.5466 45.5204 55.0401C45.5261 43.2378 45.5205 31.4373 45.5489 19.6349C45.5489 18.8733 45.293 18.5344 44.6259 18.2393C41.0571 16.6553 39.2414 12.7484 40.2042 8.83777C41.0931 5.22795 44.7737 2.59102 48.551 2.90517C53.0599 3.28024 55.7607 6.58925 55.9862 10.7436C56.1587 13.9231 54.542 16.8114 51.3276 18.2412C50.5865 18.5706 50.3989 18.9685 50.4008 19.7244C50.4217 31.3992 50.4444 43.0759 50.4065 54.7507C50.3838 61.8657 47.1864 67.2404 41.0931 70.7475C31.9256 76.0251 19.828 71.6442 15.8914 61.7895C14.8718 59.2364 14.5003 56.6166 14.5287 53.8959C14.561 50.6611 14.5439 47.4245 14.5439 44.1878C14.5439 43.9365 14.5155 43.6852 14.5117 43.6071V43.6033ZM51.7654 10.913C51.7635 8.85301 50.0597 7.15852 48.0165 7.17946C46.0568 7.20041 44.3416 8.93868 44.3321 10.913C44.3207 12.9921 46.0303 14.6657 48.1587 14.6638C50.1525 14.6619 51.7692 12.9807 51.7673 10.913H51.7654Z" fill="#103456"/>
<path d="M17.9061 17.1638C20.0269 14.4565 23.0916 14.0243 25.2806 16.0767C27.21 17.8854 27.3029 21.5752 25.2238 23.5534C23.5919 25.107 21.6682 26.3559 19.8563 27.7172C19.2024 28.2084 18.4974 28.6311 17.7487 29.1299C15.0916 27.2965 12.3623 25.5239 10.2889 22.9651C8.89776 21.2496 8.77267 19.0906 9.83403 17.2914C11.0053 15.3037 12.8456 14.426 15.0991 14.7782C16.2932 14.9648 17.1915 15.7188 17.9061 17.1676V17.1638Z" fill="#419ACD"/>
</g>
<defs>
<clipPath id="clip0_930_3588">
<rect width="56" height="73" fill="white"/>
</clipPath>
</defs>
</svg>
