<svg width="73" height="73" viewBox="0 0 73 73" fill="none" xmlns="http://www.w3.org/2000/svg">
<g clip-path="url(#clip0_930_3563)">
<path d="M36.7939 1.41761e-05C37.967 0.585855 37.5383 1.70752 37.6612 2.71631C38.9115 2.81348 40.1575 2.88349 41.3964 3.01209C49.3582 3.84227 56.69 6.3028 62.93 11.4925C67.2839 15.1133 70.3589 19.6471 72.2922 24.9611C72.5694 25.7227 72.3565 26.3171 71.7392 26.5729C71.1719 26.8086 70.7376 26.5172 70.2674 25.9356C69.8502 25.4212 69.2886 24.974 68.7071 24.651C67.2482 23.8437 65.6235 23.5751 63.9831 23.4493C61.2496 23.2393 58.5747 23.5094 56.0241 24.5867C55.4925 24.8111 54.9653 25.0068 54.951 25.8041C54.9467 26.0899 54.3866 26.5543 54.0394 26.5957C53.6964 26.6357 53.0448 26.3057 52.9791 26.0285C52.7348 25.0097 51.926 24.7268 51.1544 24.421C48.7924 23.4879 46.319 23.2679 43.8055 23.4422C41.9722 23.5694 40.1861 23.9009 38.4986 24.6796C37.8713 24.9697 37.5969 25.334 37.6084 26.0828C37.6598 29.4092 37.5998 32.7356 37.6512 36.0621C37.6655 36.9966 37.5926 37.7496 36.4981 37.9925C35.5393 37.7867 35.3464 37.1166 35.3635 36.1421C35.4236 32.7456 35.3693 29.3463 35.4035 25.9485C35.4093 25.3512 35.1949 25.044 34.6977 24.7925C32.9687 23.9166 31.1111 23.5737 29.2049 23.4422C26.57 23.2607 23.9837 23.4922 21.526 24.5439C20.8816 24.8196 20.2471 25.104 20.09 25.9556C19.9956 26.4686 19.5084 26.6958 18.9783 26.6386C18.4138 26.5786 18.0195 26.2199 18.0152 25.6684C18.0109 25.154 17.7423 24.9597 17.365 24.7796C14.7173 23.5094 11.8995 23.1879 9.02735 23.4665C7.62703 23.6022 6.23241 23.9723 4.88209 24.3867C3.94044 24.6753 3.08167 25.194 2.57298 26.1599C2.30149 26.6758 1.75993 26.7986 1.20838 26.5286C0.662533 26.26 0.463915 25.787 0.632526 25.2212C0.801137 24.6553 1.03834 24.1066 1.26839 23.5608C4.77778 15.1833 10.9078 9.47634 19.2212 6.02845C23.8451 4.10947 28.6891 3.13069 33.6803 2.84491C34.2233 2.81348 34.7663 2.77061 35.345 2.7306C35.5121 1.76182 35.012 0.588712 36.2223 -0.00427246H36.7924L36.7939 1.41761e-05Z" fill="#419ACD"/>
<path d="M-0.000524218 46.2056C0.190949 44.8225 0.383852 43.4379 0.575325 42.0548C0.62105 41.7261 0.658202 41.3946 0.711071 41.0674C0.845389 40.2286 1.3898 39.6328 2.23429 39.5099C3.57317 39.3142 4.91634 39.1327 6.2638 39.0327C6.5553 39.0112 6.96825 39.2856 7.16259 39.5456C7.80845 40.4144 8.38144 41.3389 9.03017 42.3148C9.68318 41.3289 10.2862 40.4487 10.8577 39.5485C11.1321 39.117 11.4536 38.9455 11.9823 39.0255C13.2254 39.2113 14.4814 39.3142 15.726 39.4956C16.7063 39.6385 16.8149 39.8443 16.7034 40.7802C16.4691 42.7363 16.0732 44.6953 16.0875 46.6515C16.1033 48.9148 16.4548 51.181 16.7277 53.4372C16.8663 54.5817 16.8149 54.8275 15.7332 55.2576C15.2545 55.4476 14.7358 55.5405 14.1857 55.692C14.1171 57.6024 14.0456 59.5228 13.9813 61.4432C13.8842 64.3638 13.7827 67.2845 13.7027 70.2051C13.6698 71.3954 13.1097 72.2784 12.0923 72.7842C11.1421 73.2558 10.2647 72.8628 9.44884 72.2698C9.26308 72.1341 8.82298 72.1027 8.65579 72.2298C7.82846 72.8557 6.94253 73.26 5.95516 72.7814C4.86062 72.2498 4.35764 71.2753 4.32049 70.0579C4.21761 66.6386 4.09901 63.2193 4.01185 59.7986C3.97612 58.4254 4.00613 57.0508 4.00613 55.6834C3.51887 55.5834 3.2188 55.5277 2.92302 55.4605C1.59128 55.1533 0.941125 54.456 0.713929 53.11C0.47816 51.7125 0.236674 50.3151 -0.00195312 48.9177C-0.00195312 48.0146 -0.00195312 47.1116 -0.00195312 46.2085L-0.000524218 46.2056Z" fill="#103456"/>
<path d="M69.1555 55.6491C69.064 58.2068 68.9683 60.6988 68.8883 63.1907C68.8154 65.4469 68.7783 67.7046 68.6797 69.9593C68.6568 70.488 68.5453 71.0596 68.3053 71.5254C67.4822 73.1229 65.9076 73.4372 64.5044 72.317C64.1529 72.0355 63.8943 71.9612 63.5156 72.2741C62.7626 72.8971 61.8738 73.2472 60.9464 72.7971C59.949 72.3141 59.3603 71.4582 59.3218 70.3008C59.1717 65.717 59.0117 61.1346 58.8945 56.5493C58.8774 55.8663 58.7002 55.5705 57.9857 55.4519C56.5554 55.2162 55.9624 54.4789 55.6423 53.0671C54.7935 49.3177 54.9093 45.5726 55.5623 41.8176C55.6352 41.3989 55.6537 40.9545 55.8138 40.5701C56.0638 39.97 56.5468 39.5828 57.2184 39.4956C58.5601 39.3242 59.9019 39.1284 61.2493 39.0212C61.5251 38.9998 61.9195 39.2541 62.0995 39.4985C62.7454 40.3758 63.3213 41.3032 63.9914 42.3134C64.5844 41.4175 65.1588 40.6101 65.6661 39.7614C66.0276 39.1556 66.4349 38.9084 67.1765 39.0455C68.341 39.2599 69.5327 39.3227 70.7073 39.4942C71.6404 39.6299 72.1862 40.1972 72.3091 41.1317C72.5406 42.8964 72.7935 44.661 72.9478 46.4343C73.165 48.9491 72.6635 51.4053 72.1333 53.8401C71.9247 54.7989 71.0488 55.1647 70.1886 55.4348C69.8742 55.5334 69.5413 55.5691 69.1569 55.6462L69.1555 55.6491Z" fill="#103456"/>
<path d="M22.1809 55.662C21.8937 55.5977 21.6422 55.5391 21.3908 55.4862C19.9261 55.1762 19.3288 54.5046 19.0002 53.0514C18.1629 49.3521 18.26 45.6555 18.903 41.9476C18.9473 41.6904 18.963 41.4289 18.9973 41.1703C19.1159 40.2715 19.6875 39.6343 20.5906 39.5028C21.928 39.3085 23.2712 39.1327 24.6187 39.027C24.8916 39.0055 25.2845 39.2642 25.4646 39.5099C26.1076 40.3844 26.6834 41.3089 27.3522 42.3163C27.978 41.3732 28.5696 40.5202 29.1154 39.64C29.4284 39.1341 29.7842 38.9355 30.4057 39.037C31.6217 39.237 32.8563 39.3213 34.078 39.4985C35.034 39.6371 35.1597 39.87 35.044 40.8131C34.8025 42.7906 34.521 44.7668 34.3709 46.7529C34.1852 49.1892 34.7225 51.5682 35.1168 53.9559C35.1597 54.2145 35.0168 54.6646 34.8211 54.7747C34.1309 55.1633 33.3807 55.4419 32.5262 55.8163C32.4891 56.6265 32.4305 57.6153 32.4005 58.604C32.2819 62.3777 32.1904 66.1528 32.0418 69.9265C32.019 70.5195 31.8704 71.1696 31.5803 71.6797C30.753 73.14 29.2126 73.3915 27.8951 72.3341C27.5208 72.0341 27.255 71.9583 26.8492 72.2956C26.119 72.9 25.2488 73.2301 24.3415 72.81C23.3569 72.3541 22.7439 71.524 22.6939 70.408C22.5796 67.846 22.501 65.2826 22.4181 62.7178C22.3496 60.6059 22.2981 58.4926 22.2367 56.3793C22.2295 56.1449 22.2038 55.9106 22.1852 55.6591L22.1809 55.662Z" fill="#103456"/>
<path d="M45.6644 42.3105C46.326 41.3146 46.9319 40.4358 47.502 39.5356C47.7807 39.0955 48.1093 38.9512 48.6323 39.0298C49.8754 39.2141 51.1314 39.317 52.3746 39.4985C53.342 39.6399 53.4548 39.8343 53.3377 40.7888C53.1405 42.3905 52.9504 43.9923 52.7504 45.5927C52.4146 48.2747 52.9033 50.8924 53.362 53.5115C53.5477 54.5689 53.472 54.7475 52.4903 55.2019C52.2346 55.3205 51.9573 55.3962 51.6844 55.4719C51.4144 55.5462 51.1357 55.5948 50.8199 55.6634C50.7542 57.5581 50.6856 59.4299 50.6242 61.3018C50.5256 64.3167 50.4413 67.3316 50.3298 70.3451C50.287 71.4939 49.6782 72.3441 48.668 72.8128C47.7606 73.2343 46.899 72.8928 46.1588 72.297C45.8316 72.0326 45.5701 71.9555 45.2229 72.2455C44.4484 72.8942 43.5568 73.2486 42.5966 72.7857C41.5578 72.2855 41.0076 71.3711 40.9676 70.2108C40.8533 66.9358 40.7461 63.6594 40.6661 60.383C40.6275 58.8198 40.659 57.2552 40.659 55.7034C40.2403 55.6062 40.016 55.5491 39.7902 55.5019C38.2055 55.169 37.6869 54.5832 37.3196 52.9928C36.5066 49.4649 36.5352 45.9342 37.1582 42.3891C37.1953 42.1791 37.2167 41.9662 37.2382 41.7533C37.4082 40.0829 37.9312 39.5599 39.5873 39.387C40.6261 39.2784 41.6664 39.1841 42.698 39.0284C43.2239 38.9484 43.5482 39.107 43.8254 39.5442C44.3956 40.4416 45 41.3175 45.663 42.312L45.6644 42.3105Z" fill="#103456"/>
<path d="M31.0921 33.1343C31.0149 34.4631 30.389 35.8792 29.0687 36.9294C27.9185 37.8439 26.5939 37.841 25.4979 36.8722C24.079 35.6177 23.3803 34.0188 23.6575 32.1141C23.9661 29.9922 25.7051 28.6405 27.7599 28.8262C29.6403 28.9962 31.1021 30.7352 31.0921 33.1343Z" fill="#103456"/>
<path d="M67.7344 33.1729C67.6244 34.5131 67.0043 35.9306 65.6654 36.9651C64.5508 37.8267 63.2805 37.831 62.206 36.9222C60.7328 35.6763 60.0169 34.0545 60.2955 32.1269C60.6056 29.9807 62.3332 28.6447 64.3879 28.8248C66.2998 28.992 67.7644 30.7509 67.7344 33.1714V33.1729Z" fill="#103456"/>
<path d="M5.27734 33.1514C5.28449 30.3765 7.1535 28.6133 9.43975 28.8262C11.5517 29.022 13.1049 31.201 12.7334 33.4258C12.5233 34.6817 12.0004 35.772 11.0787 36.6536C9.74554 37.9267 8.15659 37.911 6.862 36.5922C5.82176 35.5319 5.30878 34.2359 5.27734 33.1528V33.1514Z" fill="#103456"/>
<path d="M41.9219 33.1728C41.9133 30.3994 43.7566 28.6347 46.05 28.8233C48.1619 28.9977 49.728 31.1538 49.3765 33.3943C49.1665 34.7303 48.5963 35.8749 47.5832 36.775C46.3315 37.8853 44.844 37.8681 43.6266 36.7108C42.5092 35.6477 41.9633 34.3174 41.9219 33.1728Z" fill="#103456"/>
</g>
<defs>
<clipPath id="clip0_930_3563">
<rect width="73" height="73" fill="white"/>
</clipPath>
</defs>
</svg>
