<svg width="75" height="79" viewBox="0 0 75 79" fill="none" xmlns="http://www.w3.org/2000/svg">
<g clip-path="url(#clip0_930_3637)" filter="url(#filter0_d_930_3637)">
<path d="M67.2219 71H39.9277V43.1488C41.8776 45.7642 43.5213 47.968 45.5988 50.7586C46.3005 46.7754 49.0712 47.1384 52.316 47.1152C50.179 44.1621 48.3503 41.6374 46.3217 38.8342H67.2219V71Z" fill="#103456"/>
<path d="M7.81055 38.8194C8.59943 38.7497 9.31602 38.6336 10.0326 38.6315C15.7993 38.6167 21.5661 38.6231 28.0239 38.6231C25.6806 41.8738 23.7095 44.6096 21.3194 47.9237C24.6557 47.5036 27.2563 47.5458 27.7815 51.9259C30.4458 48.3184 32.5765 45.4328 35.0579 42.0723V70.943H7.81055V38.8194Z" fill="#103456"/>
<path d="M37.2054 13.7208C40.3631 10.3286 43.2889 6.96172 46.4785 3.86293C47.8181 2.56261 49.6149 1.58105 51.3756 0.882341C56.3066 -1.07235 61.4992 0.325064 63.6937 3.96847C66.0858 7.94118 65.3076 14.1514 61.4333 17.2228C59.3133 18.9031 56.4916 20.2709 53.8294 20.6213C42.9466 22.0525 31.9936 21.947 21.0853 20.7015C15.9459 20.1147 12.0865 17.5458 10.5236 12.3825C8.14632 4.51097 13.8089 -1.47342 21.8636 0.358839C26.8074 1.48395 30.1905 4.86138 33.3418 8.4689C34.8302 10.1724 36.0359 12.1165 37.2054 13.7208ZM32.8654 17.2545C32.9867 16.9484 33.1079 16.6423 33.2291 16.3362C30.5966 11.7197 27.2476 7.72798 22.3378 5.30256C19.5416 3.92203 16.5136 4.5173 15.3292 6.33267C14.0087 8.35491 14.5276 11.9434 16.6093 13.8559C17.5215 14.6939 18.6953 15.589 19.8563 15.7642C24.1686 16.4185 28.5255 16.7837 32.8654 17.2566V17.2545ZM41.7877 16.3953C41.9047 16.6951 42.0237 16.9969 42.1407 17.2967C46.6231 16.7563 51.1395 16.389 55.5709 15.57C56.9084 15.323 58.282 14.0227 59.1645 12.8532C60.687 10.8394 61.0187 8.38869 59.5451 6.21235C58.0651 4.02758 55.573 4.207 53.5402 5.00281C48.0265 7.16226 44.5754 11.498 41.7877 16.3932V16.3953Z" fill="#419ACD"/>
<path d="M35.1514 35.5137H4V24.1149H35.1514V35.5137Z" fill="#103456"/>
<path d="M39.8105 35.4441V24.1423H71.0002V35.4441H39.8105Z" fill="#103456"/>
</g>
<defs>
<filter id="filter0_d_930_3637" x="0" y="0" width="75" height="79" filterUnits="userSpaceOnUse" color-interpolation-filters="sRGB">
<feFlood flood-opacity="0" result="BackgroundImageFix"/>
<feColorMatrix in="SourceAlpha" type="matrix" values="0 0 0 0 0 0 0 0 0 0 0 0 0 0 0 0 0 0 127 0" result="hardAlpha"/>
<feOffset dy="4"/>
<feGaussianBlur stdDeviation="2"/>
<feComposite in2="hardAlpha" operator="out"/>
<feColorMatrix type="matrix" values="0 0 0 0 0 0 0 0 0 0 0 0 0 0 0 0 0 0 0.25 0"/>
<feBlend mode="normal" in2="BackgroundImageFix" result="effect1_dropShadow_930_3637"/>
<feBlend mode="normal" in="SourceGraphic" in2="effect1_dropShadow_930_3637" result="shape"/>
</filter>
<clipPath id="clip0_930_3637">
<rect width="67" height="71" fill="white" transform="translate(4)"/>
</clipPath>
</defs>
</svg>
