<svg width="68" height="81" viewBox="0 0 68 81" fill="none" xmlns="http://www.w3.org/2000/svg">
<g clip-path="url(#clip0_930_3573)">
<path d="M27.832 43.5672H34.7252C34.7374 43.2734 34.7567 43.0325 34.7567 42.7941C34.7591 41.3755 34.7567 39.9569 34.7591 38.5359C34.764 37.0017 36.0593 35.7156 37.6089 35.7131C40.5991 35.7083 43.5893 35.783 46.5747 35.6818C47.9693 35.6337 49.5141 37.2594 49.4632 38.5311C49.4003 40.1279 49.4511 41.7296 49.4535 43.3288C49.4535 43.3721 49.4753 43.4155 49.5116 43.5552H56.3346V78.1387H27.832V43.5672ZM37.5048 38.3938V43.4926H46.7369V38.3938H37.5048Z" fill="#103456"/>
<path d="M21.6651 24.4895C21.6409 24.7569 21.5949 25.0218 21.5949 25.2892C21.59 30.3807 21.5924 35.4699 21.5924 40.5614V41.3996C21.3939 41.4285 21.2438 41.4646 21.0961 41.4694C17.9098 41.5585 15.8445 43.295 14.491 45.995C14.2223 46.5321 14.1496 47.2137 14.1448 47.8302C14.1157 52.086 14.1302 56.3443 14.1278 60.6025C14.1278 60.8674 14.1278 61.1323 14.1278 61.4382H0C0 61.1733 0 60.9348 0 60.694C0 50.8264 0 40.9588 0 31.0936C0 29.1452 0.559302 27.4038 1.95635 25.9948C2.93694 25.005 4.1306 24.4823 5.54944 24.5112C6.36297 24.5281 7.1765 24.5136 8.00456 24.5136C8.04814 24.345 8.10141 24.2198 8.11351 24.0897C8.24426 22.5218 8.98515 21.267 10.1352 20.2337C13.399 17.3026 19.147 17.3556 22.3576 20.3373C23.4592 21.3585 23.8151 22.0931 24.3672 24.5112C25.0669 24.5112 25.786 24.5329 26.5051 24.5064C29.0813 24.4197 30.7543 25.7347 31.7277 27.9674C32.0981 28.8128 32.316 29.7882 32.3354 30.7107C32.4056 34.1789 32.3645 37.6471 32.3645 41.1154C32.3645 41.2045 32.3451 41.2912 32.3281 41.4333H24.2752V24.5064C23.3503 24.5064 22.4956 24.5064 21.6433 24.5064C21.4326 22.8397 20.3431 21.9799 18.8177 21.6475C17.8347 21.4332 16.8081 21.3368 15.7985 21.3272C14.5031 21.3176 13.2247 21.5343 12.0988 22.252C11.2998 22.7627 10.8204 23.4659 10.8204 24.4871H21.6651V24.4895ZM8.16194 24.5498V41.8909H10.7115V24.5498H8.16194Z" fill="#419ACD"/>
<path d="M59.168 43.6009C60.8798 43.6009 62.5819 43.4685 64.255 43.6395C65.7489 43.7936 68.0248 46.1178 68.0006 48.165C67.9062 56.5418 67.9618 64.9233 67.9594 73.3025C67.9594 75.5977 66.6834 77.3463 64.4608 78.0207C64.0443 78.1483 63.8893 78.3049 63.8797 78.7481C63.8603 79.8391 63.1146 80.5833 62.1194 80.5809C61.1316 80.5809 60.4125 79.8295 60.3519 78.736C60.3447 78.5819 60.3277 78.4301 60.3108 78.223C59.9355 78.2037 59.582 78.1869 59.168 78.1652V43.6009Z" fill="#103456"/>
<path d="M20.6428 78.2254C19.4322 78.0568 18.4177 77.5534 17.5654 76.7297C16.6308 75.8241 16.1514 74.774 16.1563 73.4253C16.1902 65.0028 16.1732 56.5803 16.1732 48.1554C16.1732 46.1491 18.1368 43.8032 20.1925 43.6033C21.7784 43.4492 23.3909 43.572 25.0349 43.572V78.1411C24.7758 78.1772 24.5386 78.2085 24.3134 78.2374C24.0301 79.9836 23.5047 80.6267 22.4248 80.5785C21.328 80.5279 20.8002 79.8487 20.6452 78.223L20.6428 78.2254Z" fill="#103456"/>
<path d="M14.0869 64.7932V74.3935H10.3098C10.8812 74.986 11.5857 75.5496 12.0676 76.2601C12.5809 77.0163 12.5446 77.934 12.2395 78.8034C11.7698 80.1498 10.3897 81.0698 8.97809 80.9952C7.51568 80.9181 6.28328 79.9258 5.91767 78.5337C5.48911 76.9007 6.15253 75.6555 8.20088 74.4152C7.42367 74.4152 6.78447 74.4152 6.14284 74.4152C2.89357 74.4248 0.593405 72.5679 0.162428 69.3525C-0.036112 67.8737 0.128531 66.3491 0.128531 64.7908H14.0869V64.7932ZM9.14274 79.3261C10.041 79.3164 10.765 78.5746 10.7553 77.6763C10.7456 76.7827 9.98532 76.0433 9.10158 76.0626C8.20815 76.0818 7.46967 76.8405 7.4842 77.7196C7.50115 78.618 8.24446 79.3357 9.14274 79.3261Z" fill="#419ACD"/>
<path d="M52.2831 7.56746C56.4985 7.56023 59.8615 10.8888 59.8736 15.0747C59.8857 19.3064 56.5178 22.6615 52.2686 22.6494C48.0605 22.6374 44.7144 19.2944 44.7168 15.1012C44.7192 10.9104 48.0702 7.57227 52.2807 7.56746H52.2831ZM47.7046 15.1084C47.7046 17.582 49.8377 19.6942 52.3194 19.6774C54.7794 19.6605 56.8592 17.6012 56.8907 15.147C56.9246 12.6855 54.8084 10.554 52.317 10.5395C49.8328 10.5227 47.7046 12.6325 47.7046 15.1084Z" fill="#419ACD"/>
<path d="M41.4739 27.346C41.1035 27.0546 40.6096 26.8089 40.3287 26.414C39.9607 25.8937 40.0357 25.2458 40.4788 24.7738C41.3238 23.8706 42.2003 22.9915 43.1107 22.1557C43.6966 21.6186 44.544 21.6813 45.1009 22.1991C45.6578 22.7169 45.791 23.584 45.268 24.1644C44.4036 25.1206 43.4666 26.0166 42.5272 26.8981C42.3117 27.1004 41.9533 27.151 41.4764 27.346H41.4739Z" fill="#419ACD"/>
<path d="M41.5938 2.83963C42.1216 3.14791 42.5284 3.30447 42.8262 3.57663C43.5792 4.26546 44.2935 4.99764 45.0029 5.72982C45.6978 6.44514 45.7244 7.32906 45.1022 7.94804C44.4799 8.56943 43.5913 8.54535 42.8722 7.85411C42.0974 7.10988 41.3323 6.35362 40.589 5.57808C40.1144 5.08434 39.974 4.44128 40.3493 3.88251C40.6302 3.46584 41.141 3.20331 41.5938 2.83722V2.83963Z" fill="#419ACD"/>
<path d="M63.0967 2.90948C63.4623 3.21055 64.0531 3.47066 64.2226 3.89697C64.3969 4.33531 64.3485 5.08676 64.0676 5.43599C63.2977 6.38976 62.3825 7.23995 61.4648 8.06366C60.8813 8.58871 60.0194 8.48033 59.4843 7.94323C58.9734 7.42782 58.8499 6.58966 59.3463 6.04052C60.2082 5.08676 61.1452 4.19803 62.0822 3.31411C62.2759 3.13107 62.6101 3.09494 63.0943 2.90948H63.0967Z" fill="#419ACD"/>
<path d="M64.5672 25.8865C64.2524 26.255 63.9933 26.821 63.5817 26.9703C63.1289 27.1341 62.3808 27.1028 62.0297 26.8234C61.0685 26.0575 60.2162 25.1471 59.3833 24.2367C58.8579 23.661 58.9596 22.7916 59.4923 22.2641C60.0249 21.7367 60.899 21.6355 61.4777 22.1581C62.3929 22.9867 63.2573 23.8706 64.0999 24.7738C64.3153 25.005 64.3662 25.3903 64.5672 25.8865Z" fill="#419ACD"/>
<path d="M53.8062 3.04433C53.8062 3.55493 53.8401 4.06794 53.799 4.57373C53.7239 5.4745 53.1114 6.01882 52.2542 5.99715C51.4383 5.97788 50.8378 5.43838 50.7991 4.56891C50.7531 3.52362 50.7507 2.47352 50.7991 1.42583C50.8378 0.556362 51.4431 0.0168597 52.2591 -0.00240826C53.1114 -0.0216762 53.7263 0.52746 53.799 1.43064C53.8401 1.96533 53.8062 2.50483 53.8062 3.04193V3.04433Z" fill="#419ACD"/>
<path d="M40.1941 13.6032C40.6807 13.6032 41.1674 13.5767 41.6517 13.6104C42.5717 13.673 43.1334 14.251 43.1407 15.0964C43.148 15.9442 42.5935 16.5608 41.6807 16.6017C40.6565 16.6475 39.6275 16.6451 38.6033 16.6041C37.6833 16.568 37.1167 15.9635 37.1094 15.1229C37.1022 14.2462 37.6881 13.6586 38.6542 13.608C39.1651 13.5815 39.6808 13.6032 40.1941 13.6032Z" fill="#419ACD"/>
<path d="M64.4817 16.6162C63.995 16.6162 63.5083 16.6355 63.0241 16.6114C62.0459 16.5632 61.4624 15.9972 61.4551 15.123C61.4479 14.2439 62.029 13.6417 62.995 13.6104C63.9926 13.5767 64.995 13.5719 65.9925 13.6128C66.9126 13.649 67.4791 14.2511 67.4864 15.0941C67.4937 15.937 66.9319 16.5367 66.0216 16.6042C65.5107 16.6427 64.995 16.6114 64.4817 16.6114C64.4817 16.6114 64.4817 16.6138 64.4817 16.6162Z" fill="#419ACD"/>
<path d="M50.7925 27.1341C50.7925 26.6235 50.7562 26.1105 50.7997 25.6047C50.8772 24.7472 51.4777 24.2198 52.2985 24.2198C53.1169 24.2198 53.7464 24.7472 53.79 25.6071C53.8456 26.6789 53.8456 27.7579 53.79 28.8296C53.7464 29.6871 53.112 30.2218 52.2961 30.2193C51.4801 30.2193 50.8724 29.6822 50.7997 28.8272C50.7513 28.2661 50.7901 27.7001 50.7901 27.1365L50.7925 27.1341Z" fill="#419ACD"/>
</g>
<defs>
<clipPath id="clip0_930_3573">
<rect width="68" height="81" fill="white"/>
</clipPath>
</defs>
</svg>
