<svg width="63" height="40" viewBox="0 0 63 40" xmlns="http://www.w3.org/2000/svg">
    <g fill-rule="nonzero" fill="none">
        <path d="M56.128 22.222c-4.274 0-5.8-2.58-5.8-4.996 0-3.124 2.285-4.99 6.113-4.99 4.03 0 6.267 1.737 6.267 4.886 0 3.3-2.049 4.968-6.261 5.093l-.32.007zm.31-8.007c-2.204 0-2.666 1.573-2.666 2.917 0 1.978.893 2.9 2.79 2.9s2.79-.963 2.79-2.938c0-2.18-.717-2.879-2.942-2.879h.028zM42.924 22.146v-.02c-4.476-.242-5.426-2.666-5.43-4.666 0-1.351.404-2.437 1.211-3.23.978-.958 2.523-1.443 4.594-1.443h4.971v1.916h-4.549c-.892 0-1.553.211-1.963.64-.41.427-.613 1.088-.59 1.996v.086c0 .802 0 2.472 2.674 2.667l4.426.058v1.996h-5.344zM26.66 21.54v-1.917h4.869c.313 0 .882-.048 1.186-.365a.754.754 0 0 0 .19-.571c-.018-.64-.406-.94-1.22-.94h-2.099c-1.208-.028-2.053-.303-2.581-.84-.448-.456-.657-1.07-.657-1.939 0-1.897 1.11-2.782 3.491-2.782h5.995v1.917H30.59a1.18 1.18 0 0 0-.813.201.94.94 0 0 0-.21.67c-.025.22.038.44.175.611.22.227.66.246 1.133.246h1.527c1.768 0 2.725.588 3.22 1.08a2.5 2.5 0 0 1 .754 1.801 2.72 2.72 0 0 1-.701 1.984c-.542.55-1.399.83-2.544.83h-6.47v.013zM17.88 22.253c-4.274 0-5.799-2.58-5.799-4.996 0-3.123 2.284-4.989 6.115-4.989 4.03 0 6.27 1.737 6.27 4.886 0 3.3-2.048 4.967-6.26 5.093h-.31l-.016.006zm.31-8.006c-2.204 0-2.665 1.573-2.665 2.916 0 1.979.89 2.9 2.79 2.9 1.899 0 2.789-.962 2.789-2.938 0-2.18-.716-2.878-2.942-2.878h.028zM5.576 22.146v-.02C1.099 21.885.149 19.46.146 17.46c0-1.351.404-2.437 1.21-3.23.98-.958 2.52-1.443 4.588-1.443h4.978v1.916H6.354c-.877 0-1.531.211-1.941.64-.572.577-.56 1.465-.553 1.941v.285c-.041.753-.127 2.312 2.64 2.51l4.426.058v1.996l-5.35.013zM21.915 24.081v5.448h-1.79V24.08zM42.566 24.19v5.897h-1.79v-5.898zM32.77 30.043v-5.897h3.568c2.005.134 2.424 1.075 2.424 1.842 0 1.08-1.013 1.836-2.468 1.836H34.44v2.22h-1.67zm3.24-3.18c.636 0 1.02-.32 1.02-.875 0-.498-.438-.874-1.02-.874h-1.572v1.748h1.573zM24.665 30.084v-5.898h3.752c2.11.134 2.552 1.076 2.552 1.842 0 1.08-1.07 1.836-2.599 1.836h-1.95v2.213l-1.755.007zm3.411-3.181c.669 0 1.07-.32 1.07-.875 0-.497-.461-.874-1.07-.874h-1.652v1.749h1.652zM57 29.532a3.024 3.024 0 0 1-2.166-.795 2.685 2.685 0 0 1-.744-1.985c0-1.792 1.083-2.776 3.047-2.776h3.044v1.36h-3.55c-.529.078-.937.686-.937 1.416 0 .805.478 1.46 1.065 1.46l1.93-.04v-1.323h1.489v2.68H57v.003zM47.194 29.99h-1.671v-5.898h1.576l2.64 3.497v-3.403h1.67v5.898h-1.534l-2.681-3.51zM13.013 27.389l.01 2.14h-1.675V24.08h1.674l-.019 2.09 2.497.047v-2.137h1.672v5.448H15.5v-2.14zM3.537 30.084v-1.261h3.05c.817-.034.817-.387.817-.579 0-.336-.303-.551-.823-.575H5.265c-.714-.016-1.21-.191-1.513-.534a1.771 1.771 0 0 1-.387-1.251c0-1.204.674-1.789 2.06-1.789h3.5v1.264H5.9a.879.879 0 0 0-.666.216.454.454 0 0 0-.115.336c0 .434.442.524.811.524h1.592a1.81 1.81 0 0 1 1.298.535c.303.352.462.828.439 1.315a1.83 1.83 0 0 1-.418 1.267c-.42.397-.964.592-1.513.545h-.735l-3.056-.013z" fill="#154B83"/>
        <path d="M55.38 9.865C51.35 3.63 44.829.055 37.487.055c-7.578 0-14.558 3.756-18.164 9.829l-.154.247h2.62l.05-.088c3.298-5.643 8.876-8.751 15.752-8.751 6.18 0 12.447 3.596 15.247 8.744l.05.092h2.662l-.17-.263z" fill="#BD1D21"/>
        <path d="M9.988 10.168H7.314l.185-.306c.32-.528.657-1.04 1.018-1.526C12.367 3.126 18.85 0 25.854 0 33.17 0 39.29 3.304 44.04 9.82l.211.342h-2.846l-.064-.116C39 5.816 32.727 1.322 25.746 1.322c-6.497-.005-12.493 3.34-15.688 8.754l-.07.092zM42.643 31.375h-2.47l-.054.072c-3.47 4.577-8.846 7.227-14.52 7.158-5.81 0-10.702-2.473-14.15-7.158l-.054-.075H8.88l.227.3c4.01 5.222 10.171 8.25 16.677 8.195 6.575 0 12.509-2.818 16.511-7.984.1-.127.243-.351.348-.508z" fill="#154B83"/>
        <path d="M36.827 39.776c-6.475.052-12.607-2.963-16.598-8.16l-.114-.15h2.374l.029.036C26.061 36 31.117 38.58 36.39 38.58h.319c5.573-.179 10.813-2.749 14.427-7.077l.025-.032h2.372l-.115.15c-3.99 5.194-10.119 8.207-16.591 8.156z" stroke="#E60012" stroke-width=".5" fill="#E60012"/>
        <path d="M36.827 39.87c-6.506.055-12.668-2.973-16.677-8.195l-.227-.3h2.601l.055.069c3.51 4.473 8.557 7.04 13.801 7.04h.32c5.559-.167 10.789-2.727 14.394-7.044l.055-.065h2.598l-.227.3c-4.013 5.227-10.182 8.255-16.693 8.195z" fill="#BD1D21"/>
    </g>
</svg>
