<svg width="44" height="40" viewBox="0 0 44 40" xmlns="http://www.w3.org/2000/svg">
    <path d="M16.628 21.96v5.105l-8.785 7.564h8.785V40H0v-5.37l8.314-7.565H0V21.96h16.628zm6.901 0V40h-4.705V21.96h4.705zm7.844 0 2.973 8.516 3.19-8.515h5.601V40H38.48v-8.219L35.7 40h-3.108l-2.457-8.219V40H25.49V21.96h5.883zM9.883 10.197l1.276 2.196h2.645l-1.323 2.275 1.323 2.274h-2.645l-1.277 2.196-1.277-2.196H5.96l1.322-2.274-1.322-2.275h2.644l1.277-2.196zm11.686 0 1.276 2.196h2.645l-1.323 2.275 1.323 2.274h-2.645l-1.276 2.196-1.278-2.196h-2.644l1.322-2.274-1.322-2.275h2.644l1.278-2.196zm11.45 0 1.277 2.196h2.645l-1.323 2.275 1.323 2.274h-2.645l-1.276 2.196-1.278-2.196h-2.644l1.322-2.274-1.322-2.275h2.644l1.278-2.196zM3.923 0l1.276 2.196h2.645L6.52 4.471l1.323 2.274H5.198L3.922 8.941 2.644 6.745H0l1.322-2.274L0 2.196h2.644L3.922 0zm11.764 0 1.277 2.196h2.645l-1.323 2.275 1.323 2.274h-2.645l-1.277 2.196-1.277-2.196h-2.644l1.322-2.274-1.322-2.275h2.644L15.686 0zm11.765 0 1.276 2.196h2.646l-1.324 2.275 1.324 2.274h-2.646l-1.276 2.196-1.278-2.196H23.53l1.322-2.274-1.322-2.275h2.644L27.451 0zm11.765 0 1.276 2.196h2.645l-1.323 2.275 1.323 2.274h-2.645l-1.276 2.196-1.278-2.196h-2.644l1.322-2.274-1.322-2.275h2.644L39.216 0z" fill="#222A61" fill-rule="evenodd"/>
</svg>
