<svg width="198" height="30" viewBox="0 0 198 30" xmlns="http://www.w3.org/2000/svg">
    <g fill-rule="nonzero" fill="none">
        <path d="M57.597 24.903h4.063v-7.971h7.479v7.97h4.063V6.426H69.14v7.091H61.66v-7.09h-4.063v18.477zm25.47-5.176c0 .803-.103 3.079-2.976 3.079-1.19 0-2.251-.334-2.251-1.707 0-1.345 1.036-1.733 2.175-1.967 1.139-.207 2.432-.233 3.052-.776v1.371zm-4.813-4.09c.13-1.448 1.035-2.018 2.433-2.018 1.293 0 2.38.234 2.38 1.811 0 1.502-2.095 1.424-4.347 1.76-2.278.31-4.555 1.035-4.555 4.065 0 2.741 2.019 4.009 4.555 4.009 1.63 0 3.338-.44 4.503-1.656.025.44.13.88.259 1.294h3.727c-.337-.543-.466-1.76-.466-2.976v-6.96c0-3.21-3.21-3.805-5.874-3.805-3.003 0-6.083 1.034-6.289 4.476h3.674zm9.686 13.975h3.674v-6.365h.051c.88 1.318 2.407 2.017 4.011 2.017 3.909 0 5.874-3.338 5.874-6.91 0-3.803-1.89-7.193-6.081-7.193-1.656 0-3.105.646-3.986 2.07h-.051v-1.709H87.94v18.09zm6.754-7.116c-2.38 0-3.21-2.07-3.21-4.243 0-2.175.777-4.322 3.184-4.322 2.355 0 3.21 2.2 3.21 4.322 0 2.172-.777 4.243-3.184 4.243zm16.251-2.769c0 .803-.103 3.079-2.976 3.079-1.189 0-2.251-.334-2.251-1.707 0-1.345 1.035-1.733 2.173-1.967 1.14-.207 2.433-.233 3.053-.776v1.371h.001zm-4.812-4.09c.13-1.448 1.035-2.018 2.432-2.018 1.293 0 2.38.234 2.38 1.811 0 1.502-2.094 1.424-4.348 1.76-2.278.31-4.553 1.035-4.553 4.065 0 2.741 2.019 4.009 4.553 4.009 1.631 0 3.34-.44 4.504-1.656.024.44.13.88.259 1.294h3.726c-.337-.543-.464-1.76-.464-2.976v-6.96c0-3.21-3.21-3.805-5.877-3.805-3.002 0-6.08 1.034-6.288 4.476h3.676zm23.064-4.114h-3.493v1.786h-.052c-.881-1.553-2.226-2.147-3.987-2.147-3.752 0-5.744 3.157-5.744 6.625 0 3.674 1.708 6.728 5.72 6.728 1.603 0 3.208-.672 4.01-2.07h.052v1.76c.026 1.914-.906 3.312-2.95 3.312-1.294 0-2.407-.466-2.744-1.838h-3.648c.179 3.054 3.26 4.297 5.899 4.297 6.159 0 6.936-3.728 6.936-5.928V11.523h.001zm-6.626 10.223c-2.252 0-2.976-2.097-2.976-4.01 0-1.994.905-3.805 2.976-3.805 2.383 0 3.133 1.942 3.133 4.114 0 1.916-1.036 3.701-3.133 3.701zm7.635-2.33h7.79V16.26h-7.79v3.157zm8.78 5.487h13.069v-3.416h-9.006V6.425h-4.064v18.478zm13.926 0h3.674V6.425h-3.674v18.478zm4.506-6.678c0 4.246 2.717 7.039 6.909 7.039 4.219 0 6.936-2.793 6.936-7.039 0-4.27-2.717-7.064-6.936-7.064-4.192 0-6.91 2.795-6.91 7.064zm3.674 0c0-2.148.75-4.296 3.235-4.296 2.51 0 3.262 2.148 3.262 4.296 0 2.122-.752 4.27-3.262 4.27-2.485 0-3.235-2.148-3.235-4.27z" fill="#000"/>
        <path d="M184.178 11.523h-3.806l-2.924 9.16h-.052l-3.027-9.16h-3.933l4.71 12.552c.415 1.062 0 2.381-1.267 2.51-.725.027-1.45-.077-2.149-.129v3.028c.75.078 1.5.13 2.252.13 2.536 0 3.803-.88 4.607-3.028l5.589-15.063zm9.132 13.38h3.494V6.425h-3.675v6.728h-.053.026c-.854-1.32-2.407-1.992-3.985-1.992-3.935 0-5.928 3.338-5.928 6.935 0 3.702 1.968 7.168 6.004 7.168 1.709 0 3.21-.62 4.065-2.071h.051v1.71h.001zm-.051-6.73c0 2.2-.725 4.322-3.16 4.322-2.277 0-3.234-2.2-3.234-4.295 0-2.2.83-4.272 3.235-4.272 2.381.001 3.159 2.073 3.159 4.246z" fill="#000"/>
        <path fill="#1D3B75" d="M12.513.024h13.032l-8.39 13.767h2.59L28.06.024h13.456L33.202 13.52h8.816l-3.634 6.69h-9.32l7.27 9.318H22.877l-6.728-9.318h-2.591l6.69 9.318H7.332l-7.27-9.821L12.512.024z"/>
    </g>
</svg>
