<svg width="240" height="40" viewBox="0 0 240 40" xmlns="http://www.w3.org/2000/svg">
    <g fill="none" fill-rule="evenodd">
        <g transform="translate(0 1)">
            <path d="M3.466 3.381c7.29-2.927 18.813.647 24.935.647 4.081 0 7.689-1.311 10.823-3.933-.891 3.462-.891 6.19 0 8.184 1.337 2.991 3.43 3.124 4.395 6.35.964 3.227-.506 6.078.515 8.581.68 1.67 1.55 2.624 2.609 2.864-2.677-.332-5.183-.491-7.52-.477-3.503.022-7.127 2.766-10.822 2.708-3.695-.058-9.682-4.424-17.405-2.534 2.334-11.29-.843-16.4-7.53-22.39z" stroke="#0C356C" stroke-width=".5"/>
            <path fill="#0C356C" d="m10.935 25.887.372-.189 5.674 11.138-.37.189z"/>
            <path fill="#0C356C" d="m1.443 2.973 1.655-.57L15.307 37.86l-1.655.57z"/>
            <circle fill="#0C356C" cx="2.083" cy="2.083" r="2.083"/>
            <path fill="#0C356C" d="m15.02 7.472 7.668 14.315h4.678l.47-2.62 1.964 2.62h4.372l-.653-14.315h-4.277v4.324L26.71 7.472h-4.021v3.693l-2.435-3.693z"/>
        </g>
        <g fill-rule="nonzero">
            <path fill="#0C356C" d="m57.696 18.5 2.533-9.516 2.48 9.516h2.166l3.008-13.034h-2.247l-2.005 9.811-2.462-9.81h-1.897l-2.489 9.792-2.023-9.793h-2.247L55.521 18.5z"/>
            <path d="m69.977 18.5 1.056-3.035h5.05l1.064 3.035h2.364L74.578 5.466h-2.032L67.623 18.5h2.354zm5.47-4.86h-3.778l1.889-5.408 1.889 5.407z" fill="#D02919"/>
            <path d="M82.884 18.5V9.253l5.81 9.247h2.265V5.466h-2.247v9.283l-5.828-9.283H80.62V18.5h2.264zm16.846 0v-5.792h5.827V18.5h2.256V5.466h-2.256v5.425H99.73V5.466h-2.265V18.5h2.265z" fill="#0C356C"/>
            <path d="m111.474 18.5 1.056-3.035h5.049l1.065 3.035h2.363l-4.932-13.034h-2.032L109.119 18.5h2.355zm5.47-4.86h-3.779l1.89-5.408 1.888 5.407z" fill="#D02919"/>
            <path d="M124.506 18.5V5.466h-2.256V18.5h2.256zm14.796 0v-1.808h-5.918V5.466h-2.264V18.5h8.182zm3.758 0V5.466h-2.255V18.5h2.255zm4.681 0V9.253l5.81 9.247h2.265V5.466h-2.247v9.283l-5.828-9.283h-2.265V18.5h2.265zm18.905 0v-1.808h-6.257v-4.01h5.353V10.89h-5.353V7.292h6.195V5.466h-8.46V18.5h8.522zm5.916.179c1.427 0 2.556-.32 3.389-.962.832-.642 1.249-1.506 1.249-2.592 0-.668-.144-1.252-.43-1.75-.287-.498-.737-.94-1.352-1.325-.615-.385-1.43-.728-2.444-1.03-1.014-.3-1.742-.611-2.184-.93-.442-.32-.662-.718-.662-1.195 0-.567.204-1.009.613-1.325.409-.316.983-.475 1.723-.475.794 0 1.404.193 1.83.578.427.385.64.917.64 1.598h2.257c0-.752-.203-1.437-.61-2.055a3.982 3.982 0 0 0-1.673-1.428c-.71-.334-1.519-.5-2.426-.5-1.367 0-2.478.34-3.335 1.02-.856.68-1.284 1.545-1.284 2.596 0 1.2.594 2.172 1.781 2.918.62.388 1.456.74 2.507 1.056 1.05.317 1.777.63 2.18.94.402.31.604.752.604 1.325 0 .525-.199.947-.596 1.267-.396.319-.989.479-1.777.479-.913 0-1.614-.203-2.103-.61-.49-.405-.734-.978-.734-1.718h-2.265c0 .818.22 1.534.658 2.149.439.614 1.053 1.096 1.844 1.445.79.35 1.658.524 2.6.524zm18.636-.179v-1.808h-5.917V5.466h-2.265V18.5h8.182zm4.887 0V7.292h4.064V5.466h-10.34v1.826h4.029V18.5h2.247zm9.156 0c1.176 0 2.219-.254 3.13-.76a5.186 5.186 0 0 0 2.103-2.167c.492-.937.738-2.023.738-3.259v-.653c0-1.218-.244-2.298-.734-3.24a5.25 5.25 0 0 0-2.072-2.185c-.892-.513-1.914-.77-3.066-.77h-3.85V18.5h3.751zm-.008-1.808h-1.478v-9.4h1.585c1.17 0 2.062.373 2.677 1.12.614.745.922 1.825.922 3.24v.725c-.012 1.39-.336 2.457-.972 3.2-.635.743-1.547 1.115-2.734 1.115z" fill="#0C356C"/>
        </g>
        <path d="M122.615 37.667a903.092 903.092 0 0 0 2.87-6.224c.138-.313.253-.607.348-.88h.035c0 .554.015 1.09.045 1.606l.28 5.498h.968l3.782-8.329h-1.037l-2.204 5.087a26.991 26.991 0 0 0-.746 2.017h-.052l.006-.473c0-.573-.017-1.15-.051-1.732l-.245-4.899H125.6l-2.307 4.922c-.255.532-.551 1.259-.889 2.182h-.034c.038-.608.057-1.098.057-1.47l-.012-.501-.176-5.133h-.969l.354 8.329h.99zm12.836 0 .188-.866h-3.219l.65-3.054h3.013l.165-.865h-3.002l.559-2.672h3.224l.182-.872h-4.187l-1.76 8.329h4.187zm9.79.114c.418 0 .775-.027 1.07-.08.297-.053.608-.139.935-.257v-.848c-.695.216-1.306.324-1.834.324-.65 0-1.16-.211-1.53-.635-.37-.423-.555-.99-.555-1.7 0-.84.153-1.615.458-2.327.306-.712.72-1.253 1.242-1.621a3.004 3.004 0 0 1 1.775-.553c.535 0 1.065.131 1.59.394l.392-.804c-.573-.304-1.234-.455-1.982-.455-.855 0-1.62.224-2.296.672-.676.448-1.214 1.098-1.615 1.95a6.42 6.42 0 0 0-.601 2.767c0 .98.262 1.753.786 2.321.524.568 1.246.852 2.165.852zm4.263-.114 1.395-2.65h2.826l.324 2.65h.969l-1.048-8.329h-.991l-4.552 8.329h1.077zm4.118-3.538h-2.244c.782-1.47 1.256-2.37 1.421-2.7.165-.33.318-.663.459-.997.019.65.074 1.314.165 1.994l.2 1.703zm4.24 3.538.735-3.464h1.436l1.19 3.464h1.06l-1.362-3.686c1.398-.384 2.097-1.236 2.097-2.558 0-1.39-.847-2.085-2.541-2.085h-1.823l-1.76 8.329h.968zm1.869-4.296h-.957c.053-.246.273-1.308.66-3.184h.946c.577 0 .994.104 1.25.31.257.207.385.54.385 1 0 .604-.198 1.067-.592 1.39-.395.323-.96.484-1.692.484zm5.601 4.296.735-3.464h1.435l1.191 3.464h1.06l-1.362-3.686c1.398-.384 2.096-1.236 2.096-2.558 0-1.39-.846-2.085-2.54-2.085h-1.823l-1.76 8.329h.968zm1.869-4.296h-.958c.054-.246.274-1.308.661-3.184h.946c.577 0 .994.104 1.25.31.257.207.385.54.385 1 0 .604-.198 1.067-.593 1.39-.395.323-.959.484-1.691.484zm6.871 4.296.644-3.082 3.572-5.247h-1.1l-2.785 4.256-1.02-4.256h-.968l1.355 5.201-.678 3.128h.98zm4.138 1.504a25.4 25.4 0 0 0 1.538-2.73l-.046-.13h-1.065a45.91 45.91 0 0 1-1.162 2.86h.735zm9.95-1.504a903.059 903.059 0 0 0 2.87-6.224c.137-.313.253-.607.348-.88h.034c0 .554.015 1.09.046 1.606l.279 5.498h.968l3.783-8.329h-1.037l-2.205 5.087a26.991 26.991 0 0 0-.746 2.017h-.051l.005-.473c0-.573-.017-1.15-.05-1.732l-.246-4.899h-1.014l-2.307 4.922c-.254.532-.55 1.259-.889 2.182h-.034c.038-.608.057-1.098.057-1.47l-.011-.501-.177-5.133h-.968l.353 8.329h.991zm12.835 0 .188-.866h-3.218l.65-3.054h3.013l.165-.865h-3.002l.558-2.672h3.224l.183-.872h-4.187l-1.76 8.329h4.186zm9.79.114c.418 0 .775-.027 1.071-.08.297-.053.608-.139.935-.257v-.848c-.695.216-1.307.324-1.835.324-.65 0-1.159-.211-1.53-.635-.37-.423-.555-.99-.555-1.7 0-.84.153-1.615.459-2.327.306-.712.72-1.253 1.242-1.621a3.004 3.004 0 0 1 1.774-.553c.536 0 1.065.131 1.59.394l.393-.804c-.574-.304-1.235-.455-1.983-.455-.854 0-1.62.224-2.296.672-.676.448-1.214 1.098-1.615 1.95a6.42 6.42 0 0 0-.6 2.767c0 .98.262 1.753.786 2.321.524.568 1.245.852 2.164.852zm4.263-.114 1.396-2.65h2.825l.325 2.65h.968l-1.048-8.329h-.991l-4.552 8.329h1.077zm4.119-3.538h-2.245c.783-1.47 1.256-2.37 1.422-2.7.165-.33.318-.663.458-.997.02.65.074 1.314.165 1.994l.2 1.703zm4.24 3.538.734-3.464h1.436l1.19 3.464h1.06l-1.361-3.686c1.397-.384 2.096-1.236 2.096-2.558 0-1.39-.847-2.085-2.54-2.085h-1.824l-1.76 8.329h.969zm1.868-4.296h-.957c.053-.246.273-1.308.66-3.184h.946c.578 0 .995.104 1.25.31.257.207.385.54.385 1 0 .604-.197 1.067-.592 1.39-.395.323-.959.484-1.692.484zm8.82 4.296.188-.866h-3.219l.65-3.054h3.013l.166-.865h-3.003l.559-2.672h3.224l.182-.872h-4.187l-1.76 8.329h4.187zm2.935.165c.259 0 .464-.09.616-.27.152-.181.228-.406.228-.676 0-.201-.05-.351-.151-.45a.541.541 0 0 0-.396-.148c-.27 0-.482.086-.636.26-.153.172-.23.405-.23.697 0 .194.051.34.154.439a.574.574 0 0 0 .415.148z" fill="#8B835C" fill-rule="nonzero"/>
    </g>
</svg>
