<svg width="89" height="26" viewBox="0 0 89 26" xmlns="http://www.w3.org/2000/svg">
    <g fill="#B33A49" fill-rule="nonzero">
        <path d="m88.575 24.925-.037-8.25H78.054V.625H69.84v7.22C67.852 3.554 63.524.57 58.483.57c-.05 0-.097.007-.146.007-.056 0-.113-.007-.17-.007-4.895 0-9.123 2.81-11.188 6.902C44.955 3.265 40.666.354 35.686.354c-5.25 0-9.741 3.23-11.608 7.81C22.16 3.7 17.724.571 12.557.571 5.632.57.019 6.183.019 13.109c0 6.924 5.613 12.537 12.538 12.537 5.25 0 9.74-3.23 11.607-7.81 1.92 4.466 6.354 7.593 11.522 7.593 4.895 0 9.123-2.81 11.188-6.9 2.024 4.206 6.312 7.117 11.293 7.117.056 0 .112-.007.167-.008.05.001.098.008.149.008 5.033 0 9.365-2.969 11.357-7.25v6.493l18.735.036zm-75.91-7.601a4.324 4.324 0 1 1 0-8.647 4.324 4.324 0 0 1 0 8.647zm27.997-2.785a3.256 3.256 0 0 1-1.614 5.033 3.261 3.261 0 0 1-3.658-1.201 3.28 3.28 0 0 1-.734.741 3.259 3.259 0 1 1-4.54-4.569 3.26 3.26 0 1 1 2.012-6.199 3.257 3.257 0 0 1 4.266-3.122 3.257 3.257 0 0 1 2.252 3.12 3.258 3.258 0 1 1 2.016 6.197zm21.278.731a4.311 4.311 0 0 1-3.475 2.041 4.32 4.32 0 0 1-4.198-4.31 4.317 4.317 0 0 1 4.213-4.313 4.3 4.3 0 0 1 2.966 1.394h8.394v5.188h-7.9z"/>
        <path d="M40.15 10.641a.604.604 0 0 0-.417.619l-2.97.963a1.51 1.51 0 0 0-.161-.274l1.026-.925a.469.469 0 1 0-.211-.223l-1.022.92a1.474 1.474 0 0 0-.256-.186l.563-1.265a.466.466 0 0 0 .341-.12.468.468 0 1 0-.626-.695.469.469 0 0 0 .002.697l-.56 1.257a1.498 1.498 0 0 0-.31-.067V8.21a.606.606 0 1 0-.308.003v3.13c-.105.01-.208.031-.31.063l-.562-1.265a.469.469 0 1 0-.279.132l.56 1.256a1.523 1.523 0 0 0-.258.185l-1.028-.926a.467.467 0 0 0-.626-.6.468.468 0 1 0 .425.833l1.02.918a1.45 1.45 0 0 0-.163.274l-2.975-.967a.606.606 0 1 0-.092.294l2.967.964a1.539 1.539 0 0 0-.038.32l-1.365.143a.469.469 0 0 0-.273-.237.47.47 0 0 0-.29.891.467.467 0 0 0 .59-.3c.005-.017.01-.033.013-.05l1.353-.142c.02.108.053.212.095.31l-1.182.683a.47.47 0 1 0 .16.26l1.174-.676c.062.09.135.171.215.243l-1.828 2.518a.605.605 0 0 0-.57 1.057.605.605 0 0 0 .82-.88l1.825-2.51c.093.055.194.102.299.135l-.283 1.328a.468.468 0 1 0 .26.891.468.468 0 0 0 .085-.806c-.015-.01-.028-.02-.043-.028l.28-1.32c.109.013.219.014.328.004l.282 1.326a.466.466 0 0 0 .154.852.469.469 0 0 0 .194-.917c-.016-.003-.032-.006-.05-.007l-.28-1.318c.105-.034.206-.08.299-.135l1.827 2.515a.607.607 0 1 0 1.008.083.605.605 0 0 0-.762-.265l-1.825-2.513c.081-.073.154-.155.217-.242l1.182.68a.469.469 0 1 0 .147-.269l-1.176-.679c.044-.097.078-.2.1-.308l1.36.143a.47.47 0 0 0 .22.289.47.47 0 0 0 .468-.812.469.469 0 0 0-.662.217l-1.356-.144c0-.109-.013-.216-.036-.32l2.972-.963a.606.606 0 1 0 .321-.909z"/>
    </g>
</svg>
