<svg width="177" height="40" viewBox="0 0 177 40" xmlns="http://www.w3.org/2000/svg">
    <g fill="none" fill-rule="evenodd">
        <path d="M53.892 28.632V11.35h4.6L64.32 24.17 70.06 11.35h4.404v17.28h-3.792v-9.89l-4.377 9.89h-4.042l-4.43-9.84v9.84h-3.932zm26.76 0H76.19l7.665-17.281h5.494l7.719 17.28h-4.405l-1.519-3.456-9.021.027-1.472 3.43zm9.072-6.69-3.135-7.137-3.065 7.137h6.2zm9.156 6.69V11.35h16.51v3.454h-12.523v3.46h10.737v3.428h-10.737v3.485h12.523v3.454H98.88zM118.593 28.632V11.35h14.134s.91-.103 1.872.833c.861.836.719 2.064.719 2.064v5.807s.17 1.066-.848 1.979c-.983.88-2.412.688-2.412.688l3.29 5.91h-4.321l-3.264-5.91h-5.126v5.91h-4.044zm4.044-9.365h8.669v-4.46h-8.669v4.46zm19.95 9.365h-1.368s-1.202-.023-1.884-.743c-.79-.836-.763-1.794-.763-1.794v-2.258h4.016v1.341h8.53v-3.486h-9.79s-1.206.122-1.95-.642c-.826-.846-.737-1.866-.737-1.866V14s-.017-.871.57-1.646c.843-1.113 2.146-1.002 2.146-1.002l11.183.008s.913-.064 1.806.801c.979.944.752 1.95.752 1.95v2.063h-3.985v-1.367h-8.53v3.457h9.756s1.145-.084 1.95.836c.81.921.81 1.95.81 1.95v4.879s.13.957-.636 1.827c-.87.99-2.04.877-2.04.877h-9.84M158.921 28.627V11.34h4.094v6.913l7.804-6.913h5.552l-9.308 8.029 9.64 9.257h-5.74l-7.948-7.866v7.866z" fill="#000" fill-rule="nonzero"/>
        <path d="M33.354.041c2.771-.011 4.556 2.24 4.565 4.56l.008 30.777c-.013 2.492-1.985 4.568-4.594 4.576H4.593C1.916 39.95.025 37.75.025 35.36L.027 4.6C.025 2.033 2.193.01 4.604.024l28.75.018" fill="#4DC7E4" fill-rule="nonzero"/>
        <path d="M33.354.041c2.771-.011 4.557 2.24 4.565 4.56l.008 30.777a4.575 4.575 0 0 1-4.594 4.576H4.593C1.915 39.95.025 37.75.025 35.36L.027 4.6C.025 2.033 2.193.01 4.604.024l28.751.018h-.001z" stroke="#FFF" stroke-width="2.769"/>
        <path d="m21.737 14.48 10.648-5.023c.043-.023.066.042.098.053l-7.362 9.204 10.756 5.199c.054.032.108.075.034.129l-11.811.011L26.8 35.79l-.076.067L19 26.416h-.098l-7.646 9.453c-.043.033-.065.033-.109 0l2.664-11.778-11.789-.03c-.044-.034-.044-.066-.044-.1l10.718-5.159.075-.075-7.387-9.191c-.022-.054.021-.077.054-.12l10.659 5.024 2.79-11.43h.075l2.772 11.47" fill="#FFF" fill-rule="nonzero"/>
    </g>
</svg>
