<svg width="70" height="30" viewBox="0 0 70 30" xmlns="http://www.w3.org/2000/svg">
    <g fill-rule="nonzero" fill="none">
        <path fill="#10205C" d="m34.853 12.141-6.502-6.314h-6.283v22.43l6.785 1.649V15.377l6 5.811 6.016-5.811v14.529l6.785-1.65V5.828h-6.282z"/>
        <path fill="#E72420" d="m34.838 7.43-5.105-4.98H.11V.141h30.55l4.193 4.068L39.11.126h30.503V2.45H40.037z"/>
        <path fill="#10205C" d="M13.398 11.497H6.723v-5.67H.11v17.09l6.613 1.617v-6.675h6.675v8.293l6.612 1.602V5.827h-6.612zM63.063 5.827 59.654 9.08l-3.392-3.252h-6.55v21.927l6.597-1.602V14.576l3.345 3.22 3.362-3.22v9.942l6.597-1.602V5.827z"/>
    </g>
</svg>
