<svg xmlns="http://www.w3.org/2000/svg" width="216" height="28" viewBox="0 0 216 28">
    <g fill="none" fill-rule="evenodd">
        <g fill-rule="nonzero">
            <g>
                <g>
                    <path fill="#E60012" d="M63.744 20.1v-3.948h3.276L63.744 7.81V3.256h2.542l9.377 22.106H70.51L68.515 20.1h-4.771zm13.43-16.844h5.852l9.007 15.883-.254-15.883h4.71v22.106h-5.35L81.724 8.645l.188 16.717h-4.738V3.256zm31.725 12.896V12.26h10.915v13.125h-9.928c-1.424.056-2.849-.096-4.23-.45-.977-.339-1.892-.837-2.708-1.474-1.15-.916-2.022-2.14-2.515-3.532-.607-1.663-.898-3.427-.86-5.2 0-3.892.86-6.8 2.547-8.664 1.688-1.863 4.264-2.78 7.766-2.78h9.928v3.781h-9.928c-1.814 0-3.122.556-3.949 1.797-.827 1.24-1.241 3.053-1.241 5.65 0 2.436.414 4.17 1.213 5.227.8 1.057 2.163 1.669 3.977 1.669h5.185V16.18l-6.172-.028zM54.036 3.256h1.876l-1.876 2.78v-2.78zm9.708 0h-2.328l-7.38 17.623v4.494h2.99l1.941-5.261h4.777v-3.949h-3.249l3.182-8.536.067.195V3.256zm-29.232 0h5.19l5.377 8.436 5.516-8.436h3.469v2.78l-6.585 9.594v9.754h-4.617v-9.766l-8.34-12.351-.01-.011zm19.541 17.612l-1.88 4.494h1.88v-4.494zM133.488 3.256h6.76l5.606 16.938 5.572-16.938h6.794V25.36h-4.557l.381-17.2-5.644 17.2h-4.871l-5.8-17.422.443 17.422h-4.684V3.256zM167.62 25.36h-4.843V3.256h4.843V25.36zm4.557-22.104h5.799l9.007 15.881-.226-15.881h4.75V25.36h-5.385l-9.466-16.716.226 16.716h-4.716V3.256h.01zm31.767 12.895V12.26h10.93v13.123h-9.941c-1.416.062-2.833-.09-4.203-.45-1-.325-1.934-.823-2.762-1.474-1.142-.926-2.012-2.146-2.518-3.531-.623-1.66-.916-3.426-.862-5.2 0-3.892.862-6.8 2.552-8.663 1.69-1.863 4.297-2.78 7.804-2.78h9.94v3.78h-9.94c-1.784 0-3.154.557-3.95 1.797-.794 1.24-1.242 3.053-1.242 5.65 0 2.435.414 4.17 1.243 5.227.828 1.056 2.104 1.668 3.949 1.668h5.197v-5.227l-6.197-.028zM0 0H24.744V28H0z" transform="translate(-750 -1026) translate(475 1020) translate(275.6 6)"/>
                    <path fill="#FFF" d="M9.116 20.737L7.184 18.019 7.184 25.395 3.256 25.395 3.256 5.86 9.116 14.011zM18.234 18.031L16.279 20.779 16.313 14.03 22.14 5.86 22.14 25.395 18.234 25.395z" transform="translate(-750 -1026) translate(475 1020) translate(275.6 6)"/>
                    <path fill="#0086D1" d="M3.256 3.256L7.677 3.256 12.698 10.489 17.724 3.289 22.14 3.289 14.906 13.635 14.906 25.395 10.49 25.395 10.49 13.635z" transform="translate(-750 -1026) translate(475 1020) translate(275.6 6)"/>
                </g>
            </g>
        </g>
    </g>
</svg>
