<svg xmlns="http://www.w3.org/2000/svg" width="226" height="40" viewBox="0 0 226 40">
    <g fill="none" fill-rule="evenodd">
        <g fill-rule="nonzero">
            <g>
                <g>
                    <path fill="#FFF" d="M39.637 19.958c0 10.867-8.81 19.677-19.677 19.677-10.867 0-19.676-8.81-19.676-19.677C.284 9.091 9.094.281 19.96.281c10.867 0 19.677 8.81 19.677 19.677" transform="translate(-475.000000, -1020.000000) translate(475.000000, 1020.000000) translate(-0.000000, 0.000000)"/>
                    <path fill="#FE3501" d="M19.963 0C8.939.002.003 8.939 0 19.963c.001 11.024 8.938 19.962 19.963 19.964 11.024-.002 19.96-8.938 19.962-19.962C39.924 8.94 30.987.002 19.963 0m.787.565c3.041.126 6.009.97 8.66 2.464-.6.875-1.32 1.663-2.138 2.34-1.88-1.964-4.086-3.588-6.52-4.802m-1.58 0C16.743 1.78 14.54 3.4 12.66 5.361c-.806-.683-1.512-1.476-2.097-2.356 2.64-1.478 5.59-2.313 8.613-2.438m.29.394c-1.412 1.962-2.629 4.057-3.632 6.257-.986-.383-1.913-.903-2.775-1.571 1.85-1.919 4.018-3.504 6.407-4.686m1 0c2.39 1.182 4.56 2.768 6.411 4.688-.849.649-1.786 1.173-2.784 1.557C23.09 5.011 21.874 2.92 20.464.961m-.742.495v5.008c.06-.07.145-.112.237-.117.092-.005.182.027.249.09v-4.98c1.329 1.86 2.479 3.841 3.434 5.918-.992.348-2.027.561-3.076.635l.085.468c1.09-.082 2.165-.308 3.196-.67.779 1.786 1.418 3.668 1.805 5.803l.441-.209.01-.004c-.4-2.107-1.036-3.984-1.806-5.757 1.035-.405 2.014-.946 2.921-1.643 1.712 1.867 3.056 4.04 3.964 6.405-1.507.52-3.049.93-4.614 1.226.016.075.009.153-.023.226l-.148.308c1.681-.308 3.33-.74 4.949-1.301.792 2.201 1.213 4.518 1.245 6.858h-1.695c.068.062.108.149.11.241.002.093-.034.182-.099.247h1.684c-.005.315-.016.626-.034.938l.481.068c.023-.338.036-.67.039-1.006h6.34c-.043 3.353-.986 6.461-2.519 9.205-.453-.262-.914-.51-1.382-.745l-.202.44c.457.23.909.471 1.355.73-1.654 2.796-3.982 5.133-6.772 6.797-.21-.315-.44-.61-.671-.896-.146.081-.297.158-.446.232.243.288.47.589.682.9-2.664 1.51-5.65 2.364-8.71 2.49 1.08-.545 2.076-1.149 3.005-1.794-.363.058-.728.108-1.094.148-.711.454-1.445.872-2.199 1.251.27-.38.523-.758.775-1.138-.203.01-.405.018-.613.022-.139.207-.27.414-.418.619v-.608l-.21.003-.276-.007v.612c-.147-.205-.28-.412-.419-.619-.207-.007-.412-.016-.617-.027.255.383.507.76.78 1.143-.76-.383-1.5-.805-2.218-1.264-.375-.046-.748-.101-1.12-.167.943.66 1.953 1.272 3.047 1.823-3.04-.125-6.009-.969-8.66-2.462.224-.34.467-.665.729-.977-.149-.076-.293-.157-.439-.238-.258.313-.5.64-.722.98-2.811-1.664-5.156-4.011-6.82-6.823.455-.259.919-.5 1.389-.731-.072-.147-.135-.297-.203-.444-.48.235-.953.484-1.417.747C1.497 26.67.556 23.561.51 20.206h6.342c.002.324.016.643.034.965l.484-.05c-.016-.305-.03-.607-.032-.915h1.643c-.065-.065-.101-.153-.1-.245.001-.092.04-.179.107-.241H7.337c.031-2.35.455-4.678 1.253-6.887 1.614.558 3.266.992 4.956 1.307l-.135-.288c-.037-.075-.044-.162-.02-.243-1.572-.302-3.122-.714-4.636-1.233.908-2.357 2.25-4.523 3.958-6.385.885.692 1.867 1.25 2.915 1.656-.814 1.84-1.417 3.765-1.798 5.74l.029.013.419.2c.37-1.99.973-3.93 1.796-5.78 1.04.368 2.124.593 3.225.671l.085-.47c-1.059-.069-2.104-.282-3.106-.632.925-2.028 2.053-3.975 3.442-5.933m-9.592 1.785c.63.96 1.372 1.771 2.187 2.469-1.731 1.902-3.093 4.11-4.017 6.51-1.721-.602-3.388-1.351-4.98-2.239 1.671-2.78 4.014-5.1 6.812-6.742m19.715.027c2.777 1.642 5.1 3.95 6.763 6.715-1.587.902-3.25 1.66-4.972 2.269-.922-2.408-2.285-4.623-4.02-6.531.854-.71 1.604-1.536 2.229-2.453M3.083 10.409c1.603.91 3.304 1.643 5.05 2.273-.817 2.258-1.252 4.636-1.285 7.038H.511c.043-3.399 1.006-6.547 2.577-9.311m33.752 0c1.568 2.768 2.534 5.914 2.577 9.31h-6.34c-.034-2.39-.465-4.759-1.276-7.008 1.733-.63 3.43-1.373 5.039-2.302m-21.986 3.466l1.456.69c.612.073 1.224.133 1.839.172l.09-.486c-1.137-.068-2.264-.203-3.385-.378m10.206.02c-1.112.166-2.228.292-3.346.355l.09.486c.607-.036 1.215-.09 1.818-.157l1.438-.684zm-11.415.452c-.207 1.406-.33 2.822-.367 4.242l.493-.126c.039-1.17.124-2.273.255-3.312l-.383-.804m12.644.045l-.383.801c.128 1.031.214 2.116.252 3.27l.49.126c-.044-1.5-.164-2.894-.36-4.197M13.279 21.35c.05 1.51.174 2.914.374 4.224l.383-.805c-.133-1.038-.225-2.13-.264-3.295l-.493-.124zm13.369 0l-.493.126c-.04 1.148-.128 2.226-.259 3.25l.383.803c.195-1.298.322-2.685.369-4.18m-8.523 3.708c-.47.03-.939.07-1.407.119l-1.418.675c.966-.14 1.936-.247 2.915-.308l-.09-.486zm3.704.002l-.09.488c.964.054 1.922.153 2.877.286l-1.394-.662c-.463-.047-.927-.083-1.393-.112m4.49.556l.225.468c.01.027.018.052.023.08 1.328.253 2.63.586 3.916.998.07-.142.135-.297.202-.446-1.429-.464-2.887-.833-4.366-1.102m-12.695.022c-1.469.272-2.918.639-4.34 1.098.073.149.15.293.226.44 1.27-.404 2.562-.733 3.87-.987.005-.036.014-.07.03-.103l.214-.448zm12.031.693c-.37 1.968-.965 3.886-1.775 5.717-1.038-.37-2.12-.599-3.219-.682l-.088.468c.937.06 1.857.254 2.76.54.355-.068.697-.137 1.024-.225.742-1.733 1.359-3.556 1.748-5.604l-.013-.007-.437-.207zm-11.383.011l-.412.196-.036.016c.385 2.019.99 3.824 1.72 5.536.344.1.704.185 1.08.26.9-.282 1.818-.473 2.752-.527l-.088-.473c-1.108.081-2.2.312-3.247.686-.806-1.823-1.4-3.734-1.77-5.694" transform="translate(-475.000000, -1020.000000) translate(475.000000, 1020.000000) translate(-0.000000, 0.000000)"/>
                    <g fill="#008738">
                        <path d="M144.949 2.836v19.855h6.272v-6.9h3.425c.907 0 1.72.713 1.72 1.62v5.28h6.277v-7.616c0-1.202-.657-1.483-1.153-1.52.496-.008 1.153-.346 1.153-1.559V5.683c0-2.325-1.054-2.847-2.692-2.847h-15.002zm6.272 4.913h4.195c.635 0 .95.374.95 1.009v1.638c0 .632-.315.927-.95.927h-4.195V7.75zm32.825-4.913h17.246V7.75h-10.974v2.679h10.974v4.424h-10.974V17.8h10.974v4.89h-17.246V2.837zm-19.26 0h17.245V7.75h-10.973v2.679h10.973v4.424h-10.973V17.8h10.973v4.89h-17.248V2.837m-119.352 0h17.246V7.75H51.703v2.679h10.974v4.424H51.703V17.8h10.974v4.89H45.43V2.837zm157.792 0h6.459l5.851 10.61V2.836h6.505v19.855h-6.505l-5.851-10.81v10.81h-6.46V2.836zM126.078 22.33c-.473-.26-.891-.609-1.231-1.027-.45-.607-.464-.89-.464-8.53 0-10.75-.75-9.938 9.182-9.938 5.95 0 6.808.045 7.495.39 1.267.636 1.683 1.618 1.685 3.965v2.01l-6.227.027v-.628c0-.414-.495-.85-.91-.85h-3.938c-.452 0-.974.494-.974.949v8.095c0 .468.508 1.008.977 1.008h3.916c.46 0 .929-.558.929-1.015v-1.442h-3.36v-4.117l9.587-.02v4.58c0 4.999-.09 5.453-1.3 6.347-.608.448-.934.495-7.616.553-6.315.054-7.056-.002-7.751-.36M104.56 2.836v19.855h6.272v-6.9h3.426c.907 0 1.72.713 1.72 1.62v5.28h6.276v-7.616c0-1.202-.657-1.483-1.152-1.52.495-.008 1.152-.346 1.152-1.559V5.683c0-2.325-1.053-2.847-2.692-2.847H104.56zm6.272 4.913h4.195c.635 0 .95.374.95 1.009v1.638c0 .632-.315.927-.95.927h-4.195V7.75zM85.3 2.836h17.246V7.75H91.572v2.679h10.974v4.424H91.572V17.8h10.974v4.89H85.3V2.837zm-21.538 0h6.695l3.396 12.732 3.41-12.732h6.722l-6.598 19.855h-7.07L63.762 2.836zm-44.29 22.976l1.047 4.2 1.328-.33-.365-1.461.725-.18c.191-.048.4.06.45.252l.277 1.116 1.328-.331-.403-1.61c-.063-.253-.216-.278-.324-.26.106-.03.225-.135.162-.392l-.333-1.334c-.122-.491-.372-.547-.72-.46l-3.171.79zm1.585.71l.889-.223c.135-.032.22.029.252.164l.088.346c.034.135-.018.212-.153.248l-.887.218-.189-.754zm5.743-4.709l1.965-3.205.914.563-1.251 2.037.497.306 1.251-2.04.822.505-1.252 2.039.55.335 1.25-2.039.908.558-1.965 3.203-3.689-2.262zm-3.335 2.62l3.016-2.246.637.86-1.918 1.429.35.468 1.919-1.43.574.773-1.918 1.429.383.517 1.92-1.431.637.855-3.016 2.246-2.584-3.47zM4.328 14.287l.478 3.73-1.063.134-.303-2.372-.579.075.302 2.372-.957.121-.301-2.372-.64.081.304 2.372-1.057.135-.475-3.727 4.291-.549zm24.595 3.932l.225-1.39 2.489-.888-2.282-.37.225-1.399 4.271.696-.225 1.398-2.531.88 2.324.378-.225 1.39-4.271-.695zM15.255 30.023c-.09-.047-.212-.148-.266-.225-.099-.13-.1-.193-.1-1.857 0-2.342-.165-2.167 2-2.167 1.296 0 1.485.01 1.634.086.274.14.367.353.367.864v.439l-1.357.004v-.135c0-.09-.108-.187-.198-.187h-.858c-.099 0-.214.108-.214.207v1.765c0 .101.113.218.214.218h.855c.1 0 .2-.119.2-.22V28.5h-.73v-.896l2.088-.005v1c0 1.089-.02 1.188-.284 1.381-.133.1-.202.109-1.66.122-1.376.011-1.538 0-1.689-.079m-4.503-5.228l-1.03 4.202 1.327.326.358-1.46.724.177c.192.048.329.241.282.433l-.275 1.118 1.328.324.396-1.611c.06-.255-.063-.347-.166-.383.105.025.263-.011.326-.27l.326-1.334c.122-.493-.074-.658-.42-.743l-3.176-.779zm1.071 1.366l.89.216c.134.034.18.129.148.264l-.086.346c-.031.135-.112.18-.247.149l-.89-.219.185-.756zM7.452 22.17l3 2.264-.646.855-1.908-1.44-.351.466 1.908 1.44-.58.77-1.909-1.44-.387.512 1.909 1.44-.644.851-2.998-2.266 2.606-3.452zm-2.426-3.815l.714 1.274-2.057 2.003 2.781-.711.718 1.278-4.478.862-.752-1.344 3.074-3.362zm17.89.277l-4.332-2.06-1.607 8.672-1.607-8.671-4.333 2.059 2.06-4.332-6.324-1.607 6.324-1.607-2.06-4.333 4.333 2.06L16.977.09l1.609 8.72 4.332-2.059-2.06 4.333 6.262 1.607-6.261 1.607 2.06 4.332" transform="translate(-475.000000, -1020.000000) translate(475.000000, 1020.000000) translate(-0.000000, 0.000000) translate(3.019640, 7.295725)"/>
                    </g>
                </g>
            </g>
        </g>
    </g>
</svg>
