<svg xmlns="http://www.w3.org/2000/svg" width="183" height="30" viewBox="0 0 183 30">
    <g fill="none" fill-rule="evenodd">
        <g fill-rule="nonzero">
            <g>
                <path fill="#163551" d="M139.601 24v-7.317h2.215c1.397 0 2.553-.171 3.467-.514.914-.343 1.71-.848 2.386-1.516.537-.536.956-1.184 1.26-1.945.303-.76.454-1.566.454-2.419 0-1.09-.206-2.02-.62-2.788-.412-.77-.984-1.404-1.713-1.905-.624-.431-1.345-.743-2.162-.936-.818-.194-1.806-.29-2.967-.29h-4.93V24h2.61zm1.78-9.545h-1.78V6.611h2.162c.818 0 1.5.057 2.05.171.55.114 1.03.308 1.444.58.474.317.828.725 1.061 1.226.233.501.35 1.09.35 1.767 0 .624-.088 1.169-.264 1.635-.176.466-.457.896-.844 1.292-.43.44-.971.745-1.622.916-.65.171-1.502.257-2.557.257zM152.389 24l1.78-5.484h7.501L163.45 24h2.756l-6.619-19.63h-3.216L149.752 24h2.637zm8.556-7.712h-6.051l3.02-9.255 3.031 9.255zM175.17 24v-8.688l6.632-10.942h-2.769l-5.141 8.661-5.063-8.661h-2.9l6.631 11.219V24h2.61z" transform="translate(-899.000000, -160.000000) translate(899.000000, 160.000000)"/>
                <g>
                    <g fill="#009BD2">
                        <path d="M24.742 25.567c-.288.288-.622.518-.998.692-.54.252-1.147-.19-1.085-.784.185-1.783-.4-4.072-1.635-6.55-.18-.363-.676-.429-.938-.12-.671.793-1.393 1.58-2.165 2.352-6.722 6.722-14.567 9.776-17.522 6.821l-.011-.011c-.463-.465-.158-1.25.497-1.292 3.752-.237 9.088-3.157 13.86-7.929 1.201-1.202 2.284-2.44 3.238-3.678.211-.275.211-.659 0-.934-.954-1.239-2.037-2.476-3.238-3.678C9.973 5.684 4.637 2.764.885 2.527c-.655-.041-.96-.826-.497-1.292l.011-.011c2.955-2.955 10.8.099 17.522 6.821.772.772 1.494 1.56 2.165 2.351.262.31.758.244.938-.12 1.234-2.477 1.82-4.766 1.635-6.55-.062-.592.545-1.035 1.085-.784.376.176.71.405.998.693 1.959 1.958 1.276 6.066-1.364 10.57-.143.245-.143.547 0 .791 2.64 4.505 3.323 8.612 1.364 10.571" transform="translate(-899.000000, -160.000000) translate(899.000000, 160.000000) translate(-0.000000, 0.000000) translate(16.833935, 14.690722) scale(-1, 1) rotate(-180.000000) translate(-16.833935, -14.690722) translate(3.844245, 0.000000)"/>
                    </g>
                    <g fill="#97E4FF">
                        <path d="M11.134 10.722c-1.2 1.2-2.282 2.436-3.235 3.674-.213.277-.213.664 0 .94.953 1.238 2.034 2.475 3.235 3.676 4.765 4.765 10.093 7.684 13.845 7.927.66.043.968.835.501 1.304-2.955 2.955-10.8-.099-17.522-6.82-.77-.77-1.49-1.554-2.158-2.343-.266-.314-.767-.247-.95.12-1.228 2.469-1.812 4.749-1.631 6.528.06.599-.551 1.048-1.096.792-.37-.175-.702-.403-.987-.687-1.957-1.958-1.275-6.064 1.362-10.567.145-.247.145-.553 0-.8C-.139 9.964-.822 5.858 1.136 3.9c.285-.284.616-.512.987-.687.545-.256 1.157.193 1.096.792-.181 1.779.403 4.059 1.63 6.527.184.368.685.435.951.121.669-.79 1.389-1.573 2.158-2.342C14.68 1.588 22.525-1.466 25.48 1.489c.467.47.16 1.262-.501 1.304-3.752.244-9.08 3.163-13.845 7.929" transform="translate(-899.000000, -160.000000) translate(899.000000, 160.000000) translate(-0.000000, 0.000000) translate(12.989690, 14.894882) scale(-1, 1) rotate(-180.000000) translate(-12.989690, -14.894882) translate(-0.000000, 0.049522)"/>
                    </g>
                    <g>
                        <g fill="#009BD2">
                            <path d="M6.598 3.299c.615 0 1.157.077 1.621.236.464.154.853.372 1.165.647.314.277.55.605.713.979.162.378.243.777.243 1.205 0 .889-.331 1.583-.995 2.083-.662.5-1.677.752-3.044.752H4.563c-.363 0-.656-.293-.656-.656v-4.59c0-.362.293-.656.656-.656h2.035zm3.069 11.724c0 .386-.063.737-.19 1.05-.123.313-.324.58-.602.797-.275.22-.63.389-1.063.51-.433.118-.958.18-1.574.18H4.563c-.363 0-.656-.294-.656-.657v-4.102c0-.363.293-.657.656-.657h1.675c.626 0 1.157.076 1.588.227.434.151.789.36 1.066.626.277.267.475.57.595.914.119.345.18.716.18 1.112M.086.809v19.147c0 .362.293.656.656.656h5.95c2.327 0 4.073-.408 5.236-1.221 1.164-.814 1.745-2.046 1.745-3.695 0-.511-.059-1.008-.18-1.494-.118-.485-.304-.931-.555-1.338-.25-.407-.564-.768-.94-1.081-.376-.313-.818-.558-1.33-.736.512-.083 1-.248 1.464-.493.463-.245.872-.563 1.221-.953.35-.392.626-.855.83-1.387.203-.531.305-1.128.305-1.783 0-2.089-.7-3.656-2.097-4.706C10.99.678 8.972.153 6.33.153H.742C.38.153.087.447.087.809" transform="translate(-899.000000, -160.000000) translate(899.000000, 160.000000) translate(-0.000000, 0.000000) translate(37.113402, 4.070141) translate(7.422680, 10.778020) scale(-1, 1) rotate(-180.000000) translate(-7.422680, -10.778020) translate(-0.000000, 0.468742)"/>
                        </g>
                        <g fill="#009BD2">
                            <path d="M0 .825v19.147c0 .362.294.656.656.656h2.602c.363 0 .657-.294.657-.656V4.127c0-.362.293-.656.655-.656H11.9c.362 0 .656-.293.656-.656V.825c0-.363-.294-.656-.656-.656H.656C.294.169 0 .462 0 .825" transform="translate(-899.000000, -160.000000) translate(899.000000, 160.000000) translate(-0.000000, 0.000000) translate(37.113402, 4.070141) translate(24.562886, 10.587752) scale(-1, 1) rotate(-180.000000) translate(-24.562886, -10.587752) translate(18.171134, 0.072289)"/>
                        </g>
                        <g fill="#009BD2">
                            <path d="M15.258 8.247c0-1.306-.175-2.45-.526-3.435-.348-.988-.85-1.81-1.502-2.467-.653-.656-1.448-1.153-2.387-1.488-.939-.334-1.993-.5-3.163-.5-1.314 0-2.44.166-3.38.5-.939.335-1.701.815-2.286 1.441-.585.627-1.007 1.387-1.267 2.287C.485 5.48.355 6.488.355 7.603V20.52c0 .363.294.656.657.656H3.55c.362 0 .656-.293.656-.656V7.84c0-.69.06-1.3.18-1.832.119-.533.327-.984.626-1.355.296-.37.67-.648 1.119-.837.448-.188 1.01-.282 1.69-.282.636 0 1.173.081 1.613.243.438.162.802.423 1.095.783.291.36.51.822.657 1.385.147.565.22 1.248.22 2.05V20.52c0 .363.293.656.655.656h2.54c.362 0 .656-.293.656-.656V8.247z" transform="translate(-899.000000, -160.000000) translate(899.000000, 160.000000) translate(-0.000000, 0.000000) translate(37.113402, 4.070141) translate(41.278803, 10.930020) scale(-1, 1) rotate(-180.000000) translate(-41.278803, -10.930020) translate(33.649937, 0.208371)"/>
                        </g>
                        <g fill="#009BD2">
                            <path d="M0 .825L.223 19.97c.004.363.301.653.663.649l11.006-.128c.363-.004.653-.301.65-.664l-.024-1.943c-.004-.363-.301-.653-.663-.649l-7.094.083c-.362.004-.66-.287-.664-.649l-.044-3.775c-.004-.362.286-.66.649-.663l6.703-.078c.362-.005.653-.302.649-.664l-.022-1.867c-.004-.362-.302-.652-.664-.648l-6.703.078c-.362.004-.66-.286-.664-.648l-.05-4.369c-.005-.362.285-.66.648-.664l7.093-.082c.363-.004.653-.301.649-.664L12.318.681c-.004-.362-.301-.652-.663-.648L.649.16C.286.165-.004.462 0 .825" transform="translate(-899.000000, -160.000000) translate(899.000000, 160.000000) translate(-0.000000, 0.000000) translate(37.113402, 4.070141) translate(60.171751, 10.515464) scale(-1, 1) rotate(-180.000000) translate(-60.171751, -10.515464) translate(53.779999, 0.000000)"/>
                        </g>
                        <g fill="#97E4FF">
                            <path d="M12.371 0h2.514c.51 0 .826.557.562.994L3.907 20.193c-.119.197-.333.318-.563.318H.794c-.511 0-.826-.558-.562-.995L11.809.318c.119-.198.332-.318.562-.318" transform="translate(-899.000000, -160.000000) translate(899.000000, 160.000000) translate(-0.000000, 0.000000) translate(37.113402, 4.070141) translate(78.226101, 10.677154) scale(-1, 1) rotate(-180.000000) translate(-78.226101, -10.677154) translate(70.391050, 0.367876)"/>
                        </g>
                        <g fill="#97E4FF">
                            <path d="M3.299 0H.785C.275 0-.04.557.223.994l11.54 19.199c.12.197.333.318.563.318h2.55c.511 0 .826-.558.562-.995L3.861.318C3.742.12 3.529 0 3.299 0" transform="translate(-899.000000, -160.000000) translate(899.000000, 160.000000) translate(-0.000000, 0.000000) translate(37.113402, 4.070141) translate(78.232946, 10.677154) scale(-1, 1) rotate(-180.000000) translate(-78.232946, -10.677154) translate(70.397895, 0.367876)"/>
                        </g>
                    </g>
                </g>
            </g>
        </g>
    </g>
</svg>
