<svg xmlns="http://www.w3.org/2000/svg" xmlns:xlink="http://www.w3.org/1999/xlink" width="540" height="366" xmlns:v="https://vecta.io/nano"><style><![CDATA[.B{fill-rule:nonzero}.C{fill:#18335e}.D{stroke-linecap:round}.E{stroke-linejoin:round}]]></style><defs><filter x="-6%" y="-9.4%" width="112%" height="118.8%" id="A"><feOffset in="SourceAlpha"/><feGaussianBlur stdDeviation=".5"/><feColorMatrix values="0 0 0 0 0 0 0 0 0 0 0 0 0 0 0 0 0 0 0.3 0"/></filter><rect id="B" width="25" height="16" rx="2"/></defs><g fill="none" fill-rule="evenodd"><rect fill="#fff" width="540" height="366" rx="8"/><path d="M491 234a4 4 0 0 1 4 4v28a4 4 0 0 1-4 4H39a4 4 0 0 1-4-4v-28a4 4 0 0 1 4-4h452zm0 1H39a3 3 0 0 0-2.995 2.824L36 238v28a3 3 0 0 0 2.824 2.995L39 269h452a3 3 0 0 0 2.995-2.824L494 266v-28a3 3 0 0 0-2.824-2.995L491 235z" fill="#b9c2ca" class="B"/><path d="m474 250 3.002 3.261L480 250" stroke="#18335e" stroke-width="1.6" class="D E"/><g class="B"><path d="M49.423 256.002c.7 0 1.309-.134 1.828-.403s.924-.637 1.21-1.108.431-1.01.431-1.621v-5.74h-1.321v5.633c0 .395-.086.746-.258 1.053a1.826 1.826 0 0 1-.741.722c-.323.175-.706.262-1.149.262s-.82-.087-1.142-.262a1.858 1.858 0 0 1-.743-.722 2.09 2.09 0 0 1-.262-1.053v-5.633h-1.317v5.74c0 .61.143 1.151.43 1.621s.69.84 1.21 1.108 1.128.403 1.824.403zm6.558-.145v-3.886c0-.347.066-.643.198-.889s.312-.432.541-.56a1.58 1.58 0 0 1 .786-.192c.432 0 .772.134 1.019.403s.37.64.37 1.114v4.01h1.275v-4.163c0-.54-.093-.993-.277-1.36a1.894 1.894 0 0 0-.78-.828c-.335-.186-.726-.28-1.172-.28-.492 0-.899.106-1.221.316a1.87 1.87 0 0 0-.71.835h-.08v-1.065h-1.223v6.545h1.274zm6.538-7.555a.798.798 0 0 0 .57-.224.71.71 0 0 0 .236-.535c0-.21-.08-.39-.237-.539a.798.798 0 0 0-.569-.224.798.798 0 0 0-.569.224.715.715 0 0 0-.236.54.71.71 0 0 0 .236.534c.158.15.348.224.57.224zm.631 7.555v-6.545h-1.274v6.545h1.274zm4.06.085a2.55 2.55 0 0 0 .512-.049c.136-.03.241-.059.315-.087l-.23-1.053-.18.035a1.49 1.49 0 0 1-.268.02 1.09 1.09 0 0 1-.385-.065.563.563 0 0 1-.288-.252c-.074-.123-.11-.309-.11-.556l-.001-3.6h1.343v-1.023h-1.343v-1.568h-1.274v1.568h-.959v1.022l.959.001v3.864c0 .33.062.612.187.849l.082.136c.179.261.413.454.703.58s.602.184.937.178zm4.936.047a3.48 3.48 0 0 0 1.276-.22 2.49 2.49 0 0 0 .933-.617 2.18 2.18 0 0 0 .518-.931l-1.206-.218a1.37 1.37 0 0 1-.332.516c-.145.14-.317.244-.516.313s-.419.105-.66.105a1.92 1.92 0 0 1-.976-.241 1.637 1.637 0 0 1-.65-.701c-.155-.307-.232-.68-.232-1.117l.002.09h4.651v-.452c0-.594-.08-1.098-.239-1.515a2.705 2.705 0 0 0-.652-1.016 2.601 2.601 0 0 0-.933-.575 3.207 3.207 0 0 0-1.074-.184c-.608 0-1.138.144-1.591.43a2.892 2.892 0 0 0-1.057 1.198c-.252.512-.377 1.103-.377 1.773 0 .679.125 1.27.377 1.775a2.77 2.77 0 0 0 1.074 1.172c.464.277 1.019.415 1.664.415zm-1.837-4.05a1.94 1.94 0 0 1 .207-.716 1.77 1.77 0 0 1 .613-.682c.266-.175.578-.262.936-.262.33 0 .617.075.863.226s.437.356.573.616.204.557.204.892l-3.399.001.003-.074zm8.516 4.046c.398 0 .722-.067.972-.2s.446-.29.59-.47a3.47 3.47 0 0 0 .33-.476h.107v1.018h1.244v-8.727h-1.274v3.243h-.077a4.081 4.081 0 0 0-.322-.473 1.8 1.8 0 0 0-.58-.471c-.248-.135-.575-.203-.981-.203a2.55 2.55 0 0 0-1.411.401c-.415.267-.74.652-.978 1.155s-.356 1.108-.356 1.815.117 1.313.352 1.818.558.892.971 1.163.885.407 1.413.407zm.281-1.087c-.378 0-.695-.101-.952-.304a1.856 1.856 0 0 1-.582-.83 3.35 3.35 0 0 1-.196-1.18 3.29 3.29 0 0 1 .194-1.163c.13-.344.322-.615.577-.814s.576-.298.96-.298c.371 0 .684.095.937.285s.444.456.575.797.196.739.196 1.193c0 .46-.066.864-.198 1.21a1.799 1.799 0 0 1-.58.812c-.254.195-.564.292-.93.292zm10.974 1.104c.682 0 1.264-.11 1.745-.332s.85-.525 1.104-.908a2.33 2.33 0 0 0 .381-1.317c0-.392-.077-.728-.232-1.01a2.229 2.229 0 0 0-.607-.707 3.434 3.434 0 0 0-.814-.46 6.5 6.5 0 0 0-.857-.277l-.852-.222a5.48 5.48 0 0 1-.533-.164 2.687 2.687 0 0 1-.517-.251 1.25 1.25 0 0 1-.388-.378.962.962 0 0 1-.147-.536 1.09 1.09 0 0 1 .215-.663 1.43 1.43 0 0 1 .607-.46c.262-.113.571-.169.93-.169.5 0 .914.112 1.244.335s.517.536.562.94h1.27a2.17 2.17 0 0 0-.41-1.247 2.646 2.646 0 0 0-1.07-.854c-.454-.208-.976-.311-1.567-.311-.585 0-1.11.104-1.577.313s-.835.5-1.108.875-.409.814-.409 1.317c0 .608.204 1.097.612 1.466s.96.65 1.66.84l1.03.28a5.91 5.91 0 0 1 .842.286c.25.108.446.245.593.41s.22.376.22.634c0 .285-.085.532-.252.744a1.64 1.64 0 0 1-.688.494 2.633 2.633 0 0 1-.995.177c-.338 0-.649-.05-.932-.151a1.614 1.614 0 0 1-.694-.465 1.332 1.332 0 0 1-.31-.786h-1.32c.028.526.177.98.447 1.362s.644.677 1.121.884 1.043.311 1.696.311zm7.048-.06a2.55 2.55 0 0 0 .512-.049c.136-.03.241-.059.315-.087l-.23-1.053-.179.035a1.49 1.49 0 0 1-.268.02c-.14 0-.268-.021-.386-.065a.563.563 0 0 1-.288-.252c-.074-.123-.11-.309-.11-.556l-.001-3.6h1.343v-1.023h-1.343v-1.568H95.22v1.568h-.958v1.022l.958.001v3.864c0 .33.062.612.187.849l.082.136c.179.261.413.454.703.58s.602.184.937.178zm4.02.06a2.47 2.47 0 0 0 .929-.158 1.97 1.97 0 0 0 .635-.396c.164-.159.288-.321.37-.486h.052v.895h1.244v-4.346c0-.478-.083-.866-.247-1.166a1.85 1.85 0 0 0-.633-.692 2.49 2.49 0 0 0-.827-.335 4.103 4.103 0 0 0-.833-.092 3.77 3.77 0 0 0-1.13.169 2.543 2.543 0 0 0-.947.537 2.31 2.31 0 0 0-.625.965l1.198.273c.094-.23.263-.44.51-.629s.582-.283 1.011-.283c.412 0 .722.102.931.307s.313.492.313.865v.03c0 .153-.055.264-.166.332s-.288.117-.532.147l-.955.113a8.05 8.05 0 0 0-.912.162 3.005 3.005 0 0 0-.81.315 1.58 1.58 0 0 0-.575.567c-.142.238-.213.542-.213.912 0 .429.097.79.292 1.086a1.87 1.87 0 0 0 .795.676c.335.155.71.232 1.125.232zm.277-1.023c-.361 0-.658-.08-.89-.24s-.35-.399-.35-.714c0-.228.06-.41.18-.548a1.16 1.16 0 0 1 .487-.317c.203-.074.428-.127.675-.158l.392-.053.482-.073c.164-.027.311-.06.44-.098a.646.646 0 0 0 .263-.125v.843c0 .259-.066.501-.198.727a1.476 1.476 0 0 1-.576.547c-.251.14-.553.21-.905.21zm6.998.963a2.54 2.54 0 0 0 .511-.049c.136-.03.242-.059.315-.087l-.23-1.053-.179.035a1.49 1.49 0 0 1-.268.02c-.14 0-.268-.021-.386-.065a.563.563 0 0 1-.287-.252c-.074-.123-.111-.309-.111-.556l-.001-3.6h1.343v-1.023h-1.343v-1.568h-1.273l-.001 1.568h-.958v1.022l.958.001v3.864c0 .33.063.612.187.849l.082.136a1.62 1.62 0 0 0 .703.58c.29.124.603.184.938.178zm4.935.047a3.48 3.48 0 0 0 1.277-.22c.373-.146.684-.351.933-.617a2.19 2.19 0 0 0 .518-.931l-1.206-.218a1.37 1.37 0 0 1-.333.516 1.39 1.39 0 0 1-.515.313c-.2.07-.42.105-.66.105a1.92 1.92 0 0 1-.977-.241 1.637 1.637 0 0 1-.65-.701c-.154-.307-.232-.68-.232-1.117l.003.09h4.65v-.452c0-.594-.079-1.098-.238-1.515a2.705 2.705 0 0 0-.652-1.016 2.601 2.601 0 0 0-.933-.575 3.207 3.207 0 0 0-1.074-.184c-.608 0-1.139.144-1.592.43a2.892 2.892 0 0 0-1.057 1.198c-.251.512-.377 1.103-.377 1.773 0 .679.126 1.27.377 1.775s.61.895 1.074 1.172 1.02.415 1.664.415zm-1.836-4.05c.023-.253.092-.492.206-.716.144-.28.348-.507.614-.682a1.66 1.66 0 0 1 .935-.262c.33 0 .617.075.863.226s.437.356.573.616.205.557.205.892l-3.4.001.004-.074zm8.422 4.05c.528 0 .993-.086 1.395-.26s.716-.412.942-.718a1.71 1.71 0 0 0 .339-1.046c0-.463-.148-.84-.443-1.13s-.745-.503-1.347-.643l-1.04-.238c-.36-.085-.622-.195-.784-.328a.651.651 0 0 1-.243-.529c0-.253.121-.46.363-.62s.542-.24.903-.24c.264 0 .484.042.66.127a1.15 1.15 0 0 1 .42.328c.104.134.18.275.228.422l1.155-.204a2.15 2.15 0 0 0-.805-1.225c-.407-.306-.963-.459-1.67-.459a3.29 3.29 0 0 0-1.309.245c-.38.164-.679.39-.895.68a1.65 1.65 0 0 0-.324 1.014c0 .466.146.851.437 1.155s.742.526 1.353.665l1.108.243c.312.07.545.176.697.315a.67.67 0 0 1 .228.516c0 .253-.125.466-.375.641s-.584.262-1.002.262c-.383 0-.694-.081-.933-.245s-.396-.405-.473-.726l-1.232.187c.106.58.39 1.026.853 1.34s1.06.471 1.794.471zm10.007 0c.614 0 1.15-.14 1.607-.422a2.845 2.845 0 0 0 1.065-1.18c.253-.506.38-1.097.38-1.773s-.127-1.272-.38-1.781a2.84 2.84 0 0 0-1.065-1.185c-.458-.28-.993-.422-1.607-.422s-1.149.141-1.606.422a2.84 2.84 0 0 0-1.066 1.185c-.253.509-.379 1.102-.379 1.781s.126 1.267.38 1.773.607.9 1.065 1.18.993.422 1.606.422zm.004-1.07c-.4 0-.732-.104-.995-.315a1.855 1.855 0 0 1-.583-.84 3.373 3.373 0 0 1-.19-1.154c0-.418.063-.802.19-1.153a1.88 1.88 0 0 1 .583-.846c.263-.213.595-.32.995-.32s.728.107.99.32.454.495.58.846.19.735.19 1.153-.063.805-.19 1.155-.32.63-.58.84-.592.315-.99.315zm6.17.938v-5.522h1.411v-1.023h-1.411v-.588c0-.242.047-.436.138-.583l.061-.082c.132-.154.353-.23.663-.23.133 0 .247.012.34.036l.23.062.299-1.032a3.011 3.011 0 0 0-1.061-.175 2.29 2.29 0 0 0-.963.203 1.665 1.665 0 0 0-.712.61c-.179.27-.268.611-.268 1.02l-.001.76-1.013-.001v1.022l1.013.001v5.522h1.275zm6.742 0l.798-2.309h3.41l.799 2.31h1.397l-3.14-8.728h-1.522l-3.14 8.727h1.398zm3.826-3.417h-2.644l1.29-3.725h.067l1.287 3.725zm5.008 3.417v-4.035c0-.296.062-.556.186-.78s.286-.4.49-.526a1.23 1.23 0 0 1 .667-.19c.355 0 .643.108.865.324s.332.501.332.856v4.351h1.27v-4.172c0-.397.115-.723.345-.978s.553-.381.967-.381a1.32 1.32 0 0 1 .865.298c.242.2.363.52.363.963v4.27h1.274v-4.39c0-.75-.188-1.31-.565-1.682s-.861-.559-1.455-.559c-.472 0-.878.105-1.219.314s-.59.488-.746.837h-.068a1.804 1.804 0 0 0-.658-.844c-.297-.204-.664-.307-1.102-.307-.432 0-.802.102-1.112.305s-.533.485-.669.846h-.08v-1.065h-1.224v6.545h1.274zm12.15.132a3.48 3.48 0 0 0 1.276-.22c.373-.146.684-.351.933-.617a2.19 2.19 0 0 0 .518-.931l-1.206-.218a1.37 1.37 0 0 1-.333.516 1.38 1.38 0 0 1-.515.313c-.2.07-.42.105-.66.105a1.92 1.92 0 0 1-.977-.241 1.637 1.637 0 0 1-.65-.701c-.154-.307-.232-.68-.232-1.117l.003.09h4.65v-.452c0-.594-.079-1.098-.238-1.515a2.705 2.705 0 0 0-.652-1.016 2.601 2.601 0 0 0-.933-.575 3.207 3.207 0 0 0-1.074-.184c-.608 0-1.139.144-1.592.43a2.892 2.892 0 0 0-1.057 1.198c-.251.512-.377 1.103-.377 1.773 0 .679.126 1.27.377 1.775s.61.895 1.074 1.172 1.02.415 1.664.415zm-1.837-4.05c.023-.253.092-.492.206-.716.144-.28.348-.507.614-.682a1.66 1.66 0 0 1 .935-.262c.33 0 .618.075.863.226s.437.356.573.616.205.557.205.892l-3.4.001.004-.074zm7.34 3.918v-3.997a1.429 1.429 0 0 1 .76-1.285 1.67 1.67 0 0 1 .803-.19 2.86 2.86 0 0 1 .392.028l.273.05v-1.22a1.804 1.804 0 0 0-1.57.275 1.59 1.59 0 0 0-.633.833h-.068v-1.04h-1.232v6.546h1.274zm3.981-7.555a.798.798 0 0 0 .57-.224.71.71 0 0 0 .236-.535c0-.21-.08-.39-.237-.539a.798.798 0 0 0-.569-.224.798.798 0 0 0-.569.224.715.715 0 0 0-.236.54.71.71 0 0 0 .236.534c.158.15.348.224.57.224zm.631 7.555v-6.545h-1.274v6.545h1.274zm4.47.132c.516 0 .967-.095 1.352-.285s.693-.452.923-.784.368-.71.413-1.134h-1.24a1.473 1.473 0 0 1-.283.605 1.343 1.343 0 0 1-.499.386c-.197.09-.417.134-.658.134a1.57 1.57 0 0 1-.94-.285 1.829 1.829 0 0 1-.616-.806c-.144-.346-.217-.758-.217-1.236 0-.465.074-.87.222-1.212s.354-.606.62-.793a1.58 1.58 0 0 1 .93-.279c.407 0 .732.111.975.333s.398.486.466.792h1.24a2.329 2.329 0 0 0-.428-1.155 2.419 2.419 0 0 0-.944-.769 3.086 3.086 0 0 0-1.33-.275c-.616 0-1.151.144-1.606.43a2.875 2.875 0 0 0-1.057 1.196c-.25.51-.375 1.097-.375 1.762 0 .656.122 1.239.367 1.747a2.83 2.83 0 0 0 1.05 1.196c.456.288 1 .432 1.634.432zm5.962.013a2.47 2.47 0 0 0 .929-.158 1.97 1.97 0 0 0 .635-.396c.165-.159.288-.321.37-.486h.052v.895h1.244v-4.346c0-.478-.082-.866-.247-1.166a1.85 1.85 0 0 0-.633-.692 2.49 2.49 0 0 0-.827-.335 4.103 4.103 0 0 0-.833-.092 3.77 3.77 0 0 0-1.13.169 2.543 2.543 0 0 0-.947.537 2.31 2.31 0 0 0-.625.965l1.198.273c.094-.23.263-.44.51-.629s.582-.283 1.011-.283c.412 0 .723.102.931.307s.314.492.314.865v.03c0 .153-.056.264-.167.332s-.288.117-.532.147l-.955.113a8.05 8.05 0 0 0-.912.162 3.005 3.005 0 0 0-.81.315 1.58 1.58 0 0 0-.575.567c-.142.238-.213.542-.213.912 0 .429.097.79.292 1.086a1.87 1.87 0 0 0 .795.676c.335.155.71.232 1.125.232zm.277-1.023c-.361 0-.658-.08-.89-.24s-.35-.399-.35-.714c0-.228.06-.41.18-.548s.284-.243.487-.317.428-.127.675-.158l.392-.053.482-.073c.164-.027.311-.06.44-.098a.646.646 0 0 0 .263-.125v.843c0 .259-.066.501-.198.727a1.476 1.476 0 0 1-.576.547c-.251.14-.553.21-.905.21z" class="C"/><path fill="#ef3e36" d="m90.592 222.182-.08-1.798 1.516.975.465-.81-1.61-.822 1.61-.822-.465-.81-1.517.976.081-1.798h-.924l.08 1.798-1.516-.976-.465.81 1.61.822-1.61.823.465.81 1.517-.976-.081 1.798z"/><path d="M39.602 226.12c.48 0 .924-.072 1.33-.214a3.53 3.53 0 0 0 1.084-.603c.317-.26.577-.57.78-.929a3.57 3.57 0 0 0 .411-1.182l-1.33-.005a2.042 2.042 0 0 1-.805 1.283 2.2 2.2 0 0 1-.675.335c-.249.075-.51.113-.786.113a2.47 2.47 0 0 1-1.343-.375c-.397-.25-.71-.62-.94-1.108s-.342-1.088-.342-1.799c0-.704.114-1.3.343-1.79s.541-.859.937-1.112.846-.379 1.35-.379c.277 0 .541.038.79.115s.473.19.675.341a2.033 2.033 0 0 1 .797 1.3h1.33a3.608 3.608 0 0 0-.427-1.25 3.225 3.225 0 0 0-.797-.93 3.482 3.482 0 0 0-1.084-.58 4.132 4.132 0 0 0-1.298-.198c-.753 0-1.424.18-2.015.54s-1.057.873-1.398 1.542-.511 1.47-.511 2.401.17 1.73.509 2.4.804 1.185 1.395 1.544 1.265.54 2.02.54zm7.838.012c.613 0 1.149-.14 1.606-.422a2.845 2.845 0 0 0 1.066-1.18c.252-.506.379-1.097.379-1.773s-.127-1.273-.38-1.781a2.84 2.84 0 0 0-1.065-1.185c-.457-.281-.993-.422-1.606-.422s-1.15.14-1.607.422a2.84 2.84 0 0 0-1.065 1.185c-.253.508-.38 1.102-.38 1.781s.127 1.267.38 1.773.608.899 1.065 1.18.993.422 1.607.422zm.004-1.07c-.4 0-.732-.105-.995-.315a1.855 1.855 0 0 1-.584-.84 3.373 3.373 0 0 1-.19-1.154 3.39 3.39 0 0 1 .19-1.153 1.89 1.89 0 0 1 .584-.846c.263-.213.594-.32.995-.32s.727.107.989.32.455.495.581.846.19.735.19 1.153-.063.805-.19 1.155-.32.629-.581.84-.591.315-.989.315zm6.614 1.023c.491 0 .902-.116 1.233-.347a2.04 2.04 0 0 0 .723-.872h.068V226h1.253v-6.545h-1.279v3.83c.003.373-.074.68-.232.921a1.576 1.576 0 0 1-1.306.72c-.395 0-.716-.132-.963-.396s-.37-.62-.37-1.066v-4.01H51.91v4.164c0 .54.092.993.275 1.36s.436.642.758.828.694.28 1.115.28zm6.261-.085v-3.886c0-.347.066-.643.198-.889s.313-.432.542-.56.49-.192.786-.192c.432 0 .771.134 1.018.403s.371.64.371 1.114V226h1.274v-4.163c0-.54-.092-.993-.277-1.36a1.894 1.894 0 0 0-.78-.829c-.335-.186-.725-.279-1.171-.279-.492 0-.899.105-1.221.316s-.56.488-.71.835h-.08v-1.065h-1.224V226h1.274zm8.244.085c.204-.003.375-.019.51-.049s.242-.059.316-.087l-.23-1.053a13.6 13.6 0 0 1-.179.034 1.49 1.49 0 0 1-.268.022c-.14 0-.268-.022-.386-.066a.563.563 0 0 1-.288-.252c-.073-.123-.11-.309-.11-.556l-.001-3.6h1.343v-1.023h-1.343v-1.569h-1.274v1.569h-.958v1.022l.958.001v3.864c0 .33.063.612.187.848l.082.137c.179.261.413.454.703.58s.602.184.938.178zM71.95 226v-3.997a1.429 1.429 0 0 1 .76-1.285c.235-.126.503-.19.804-.19a2.88 2.88 0 0 1 .392.028l.273.05v-1.22a1.804 1.804 0 0 0-1.57.275 1.59 1.59 0 0 0-.633.833h-.068v-1.04h-1.232V226h1.274zm4.144 2.438c.352 0 .662-.06.929-.18a1.89 1.89 0 0 0 .69-.528 2.91 2.91 0 0 0 .478-.856l2.705-7.407-1.376-.012-1.658 5.08h-.068l-1.657-5.08h-1.364l2.395 6.63-.158.435c-.162.423-.361.675-.599.756s-.53.073-.88-.023l-.306 1.044c.076.034.193.066.349.096a2.77 2.77 0 0 0 .52.044z" fill="#8497b9"/><path d="M40.676 48l2.335-8.165h.091L45.432 48h2.08l3.283-11.636h-2.267l-2.096 8.556h-.102l-2.245-8.556h-2.062l-2.239 8.55h-.108l-2.096-8.55h-2.267L38.596 48h2.08zm13.547 0v-5.114c0-.42.08-.778.241-1.074a1.67 1.67 0 0 1 .67-.678 1.99 1.99 0 0 1 .975-.236c.542 0 .963.164 1.264.491s.452.785.452 1.372V48h2.057v-5.557c0-.704-.124-1.301-.372-1.79a2.584 2.584 0 0 0-1.049-1.113c-.45-.254-.979-.38-1.585-.38-.666 0-1.215.142-1.645.428a2.53 2.53 0 0 0-.951 1.168h-.103v-4.392h-2.011V48h2.057zm8.786-9.966c.326 0 .605-.109.838-.327s.35-.48.35-.787-.117-.574-.35-.792a1.184 1.184 0 0 0-.838-.327 1.19 1.19 0 0 0-.84.327 1.041 1.041 0 0 0-.353.792c0 .307.116.57.35.787s.514.327.843.327zM64.032 48v-8.727h-2.057V48h2.057zm5.918.17c.731 0 1.368-.133 1.91-.4a3.2 3.2 0 0 0 1.283-1.114 3.41 3.41 0 0 0 .546-1.639h-1.966c-.06.314-.173.581-.335.801s-.365.387-.606.503a1.86 1.86 0 0 1-.815.173 1.85 1.85 0 0 1-1.116-.343c-.317-.23-.562-.557-.736-.983s-.261-.937-.261-1.532c0-.587.088-1.09.264-1.511s.423-.743.741-.969a1.868 1.868 0 0 1 1.108-.338c.496 0 .893.141 1.19.423s.486.634.566 1.054h1.966c-.046-.628-.231-1.179-.557-1.65a3.246 3.246 0 0 0-1.31-1.097c-.547-.26-1.175-.389-1.883-.389-.853 0-1.59.19-2.213.571a3.833 3.833 0 0 0-1.446 1.591c-.341.68-.512 1.463-.512 2.35 0 .882.168 1.661.503 2.338a3.803 3.803 0 0 0 1.438 1.588c.623.382 1.37.573 2.241.573zm7.491-.17v-5.114c0-.42.08-.778.242-1.074s.384-.521.67-.678a1.99 1.99 0 0 1 .974-.236c.542 0 .963.164 1.265.491s.451.785.451 1.372V48H83.1v-5.557c0-.704-.124-1.301-.372-1.79a2.584 2.584 0 0 0-1.048-1.113c-.451-.254-.98-.38-1.586-.38-.666 0-1.215.142-1.644.428a2.53 2.53 0 0 0-.952 1.168h-.102v-4.392h-2.012V48h2.057zm15.532.17c.73 0 1.367-.133 1.909-.4a3.2 3.2 0 0 0 1.284-1.114 3.41 3.41 0 0 0 .545-1.639h-1.965a1.95 1.95 0 0 1-.336.801c-.163.22-.364.387-.605.503a1.86 1.86 0 0 1-.815.173c-.428 0-.8-.114-1.117-.343s-.561-.557-.735-.983-.262-.937-.262-1.532c0-.587.088-1.09.264-1.511s.424-.743.742-.969a1.868 1.868 0 0 1 1.108-.338c.496 0 .893.141 1.19.423s.486.634.566 1.054h1.965c-.045-.628-.23-1.179-.556-1.65a3.246 3.246 0 0 0-1.31-1.097c-.547-.26-1.175-.389-1.884-.389-.852 0-1.59.19-2.213.571a3.833 3.833 0 0 0-1.446 1.591c-.34.68-.511 1.463-.511 2.35 0 .882.168 1.661.503 2.338a3.803 3.803 0 0 0 1.437 1.588c.623.382 1.37.573 2.242.573zm8.343-.056c.655 0 1.207-.156 1.656-.466s.772-.71.969-1.2h.09V48h1.995v-8.727h-2.057v5.057c0 .443-.091.811-.275 1.105a1.805 1.805 0 0 1-.702.662 1.886 1.886 0 0 1-.88.221c-.493 0-.89-.163-1.194-.488s-.454-.766-.454-1.319v-5.238h-2.057v5.557c0 .697.123 1.29.37 1.78s.587.864 1.025 1.12.942.384 1.514.384zm8.88-.114v-5.13c0-.372.085-.7.255-.984s.405-.506.702-.667a2.084 2.084 0 0 1 1.009-.242 4.27 4.27 0 0 1 .542.037c.188.025.325.052.412.083v-1.892a2.811 2.811 0 0 0-.355-.043 5.82 5.82 0 0 0-.384-.014c-.5 0-.944.137-1.332.412s-.662.663-.821 1.167h-.09v-1.454h-1.995V48h2.057zm6.345 0v-5.13a1.87 1.87 0 0 1 .256-.984 1.8 1.8 0 0 1 .701-.667 2.084 2.084 0 0 1 1.009-.242c.174 0 .355.013.543.037s.324.052.412.083v-1.892a2.811 2.811 0 0 0-.356-.043 5.82 5.82 0 0 0-.383-.014c-.5 0-.944.137-1.332.412s-.662.663-.822 1.167h-.09v-1.454h-1.995V48h2.057zm8.152.17c.678 0 1.28-.103 1.807-.31s.96-.497 1.298-.874a2.97 2.97 0 0 0 .69-1.327l-1.92-.216a1.58 1.58 0 0 1-.403.62 1.769 1.769 0 0 1-.63.377 2.438 2.438 0 0 1-.813.128c-.447 0-.837-.095-1.17-.287a1.964 1.964 0 0 1-.78-.83c-.185-.361-.277-.796-.277-1.303v.051h6.08v-.63c0-.766-.107-1.426-.32-1.98s-.502-1.013-.871-1.373a3.504 3.504 0 0 0-1.273-.798 4.473 4.473 0 0 0-1.526-.259c-.833 0-1.558.19-2.176.571a3.871 3.871 0 0 0-1.44 1.591c-.343.68-.514 1.469-.514 2.366 0 .913.17 1.706.511 2.378s.829 1.192 1.463 1.557 1.39.548 2.264.548zm-2.19-5.425c.028-.316.115-.611.261-.884a2.12 2.12 0 0 1 .742-.796 2.018 2.018 0 0 1 1.108-.304c.394 0 .74.09 1.037.267a1.87 1.87 0 0 1 .696.73 2.23 2.23 0 0 1 .255 1.054l-4.102.001.004-.068zM132.369 48v-5.114c0-.42.079-.778.236-1.074a1.65 1.65 0 0 1 .654-.678c.278-.158.597-.236.957-.236.53 0 .946.164 1.247.494s.452.786.452 1.37V48h2.057v-5.557c.003-.697-.119-1.29-.367-1.778a2.625 2.625 0 0 0-1.045-1.12c-.45-.257-.975-.386-1.577-.386-.651 0-1.198.144-1.64.432a2.489 2.489 0 0 0-.962 1.165h-.103v-1.483h-1.965V48h2.056zm11.505.17c.731 0 1.367-.133 1.91-.4a3.2 3.2 0 0 0 1.283-1.114 3.41 3.41 0 0 0 .546-1.639h-1.966c-.06.314-.173.581-.336.801s-.364.387-.605.503a1.86 1.86 0 0 1-.815.173 1.85 1.85 0 0 1-1.116-.343c-.317-.23-.562-.557-.736-.983s-.262-.937-.262-1.532c0-.587.088-1.09.265-1.511s.423-.743.741-.969a1.868 1.868 0 0 1 1.108-.338c.496 0 .893.141 1.19.423s.486.634.566 1.054h1.966c-.046-.628-.231-1.179-.557-1.65a3.246 3.246 0 0 0-1.31-1.097c-.547-.26-1.175-.389-1.883-.389-.853 0-1.59.19-2.213.571a3.833 3.833 0 0 0-1.446 1.591c-.341.68-.512 1.463-.512 2.35 0 .882.168 1.661.503 2.338a3.803 3.803 0 0 0 1.437 1.588c.624.382 1.37.573 2.242.573zm6.712 3.086c.538 0 1.001-.088 1.39-.265a2.69 2.69 0 0 0 .985-.758c.27-.33.485-.722.648-1.176l3.506-9.773-2.199-.011-2.017 6.59h-.09l-2.012-6.59h-2.182l3.165 8.909-.176.471c-.197.481-.448.765-.753.85s-.681.063-1.128-.066l-.477 1.597c.14.06.328.113.565.156a4.25 4.25 0 0 0 .775.066zM166.454 48l1.636-5.898h.12L169.845 48h2.142l2.471-8.727h-2.102l-1.511 6.102h-.086l-1.568-6.102h-2.074l-1.568 6.136h-.08l-1.533-6.136h-2.097L164.306 48h2.148zm13.258.17c.852 0 1.59-.187 2.216-.562a3.8 3.8 0 0 0 1.451-1.574c.343-.674.514-1.462.514-2.364s-.171-1.69-.514-2.369a3.793 3.793 0 0 0-1.451-1.58c-.625-.374-1.364-.562-2.216-.562s-1.591.188-2.216.563a3.793 3.793 0 0 0-1.452 1.58c-.343.677-.514 1.467-.514 2.368s.171 1.69.514 2.364a3.8 3.8 0 0 0 1.452 1.574c.625.375 1.363.562 2.216.562zm.011-1.647c-.473 0-.866-.128-1.179-.384a2.285 2.285 0 0 1-.699-1.031 4.288 4.288 0 0 1-.23-1.443c0-.534.077-1.018.23-1.452s.387-.78.699-1.037.706-.386 1.179-.386c.462 0 .848.129 1.16.386s.542.603.695 1.037a4.32 4.32 0 0 1 .23 1.452c0 .53-.076 1.011-.23 1.443s-.385.776-.696 1.031-.697.384-1.159.384zm8.818 1.59c.655 0 1.208-.155 1.656-.465s.772-.71.97-1.2h.09V48h1.994v-8.727h-2.056v5.057c0 .443-.092.811-.276 1.105a1.805 1.805 0 0 1-.702.662 1.886 1.886 0 0 1-.88.221c-.493 0-.89-.163-1.194-.488s-.454-.766-.454-1.319v-5.238h-2.057v5.557c0 .697.123 1.29.37 1.78s.587.864 1.025 1.12.942.384 1.514.384zm8.88-.113V36.364h-2.057V48h2.057zm5.35.153c.5 0 .915-.083 1.244-.25a2.51 2.51 0 0 0 .796-.605c.2-.236.354-.46.46-.673h.125V48h2.023V36.364h-2.063v4.352h-.085a3.867 3.867 0 0 0-.45-.68 2.431 2.431 0 0 0-.783-.618c-.33-.173-.75-.259-1.262-.259-.67 0-1.278.171-1.823.514s-.979.849-1.299 1.517-.48 1.488-.48 2.458c0 .958.157 1.772.472 2.443s.742 1.182 1.284 1.534a3.302 3.302 0 0 0 1.84.528zm.574-1.687c-.451 0-.83-.122-1.14-.367s-.541-.58-.698-1.005a4.193 4.193 0 0 1-.236-1.458c0-.541.077-1.022.233-1.443s.386-.75.693-.988.69-.358 1.148-.358c.443 0 .817.115 1.122.346s.536.555.693.972.236.907.236 1.471-.08 1.06-.239 1.483-.392.755-.699.992-.678.355-1.113.355zm11.525 4.79c.538 0 1-.088 1.389-.265a2.69 2.69 0 0 0 .986-.758c.269-.33.484-.722.647-1.176l3.506-9.773-2.199-.011-2.017 6.59h-.09l-2.012-6.59h-2.182l3.165 8.909-.176.471c-.197.481-.448.765-.753.85s-.681.063-1.128-.066l-.477 1.597c.14.06.328.113.565.156s.495.066.776.066zm11.753-3.086c.852 0 1.591-.187 2.216-.562a3.8 3.8 0 0 0 1.452-1.574c.342-.674.514-1.462.514-2.364s-.172-1.69-.514-2.369a3.793 3.793 0 0 0-1.452-1.58c-.625-.374-1.364-.562-2.216-.562s-1.59.188-2.216.563a3.793 3.793 0 0 0-1.452 1.58c-.342.677-.514 1.467-.514 2.368s.172 1.69.514 2.364a3.8 3.8 0 0 0 1.452 1.574c.625.375 1.364.562 2.216.562zm.011-1.647c-.473 0-.866-.128-1.179-.384a2.285 2.285 0 0 1-.698-1.031 4.288 4.288 0 0 1-.23-1.443 4.32 4.32 0 0 1 .23-1.452c.153-.434.386-.78.698-1.037s.706-.386 1.18-.386c.462 0 .848.129 1.159.386s.542.603.696 1.037.23.918.23 1.452a4.3 4.3 0 0 1-.23 1.443c-.154.432-.386.776-.696 1.031s-.697.384-1.16.384zm8.819 1.59c.655 0 1.207-.155 1.656-.465s.772-.71.969-1.2h.09V48h1.995v-8.727h-2.057v5.057c0 .443-.092.811-.276 1.105a1.805 1.805 0 0 1-.701.662 1.886 1.886 0 0 1-.88.221c-.493 0-.891-.163-1.194-.488s-.455-.766-.455-1.319v-5.238h-2.056v5.557c0 .697.123 1.29.369 1.78a2.62 2.62 0 0 0 1.025 1.12c.438.256.943.384 1.515.384zM248.305 48V36.364h-2.057V48h2.057zm3.145-9.966c.326 0 .605-.109.838-.327s.35-.48.35-.787-.117-.574-.35-.792a1.184 1.184 0 0 0-.838-.327 1.19 1.19 0 0 0-.84.327 1.041 1.041 0 0 0-.353.792c0 .307.117.57.35.787a1.19 1.19 0 0 0 .843.327zM252.473 48v-8.727h-2.057V48h2.057zm4.168-11.636h-2.057V48h2.057v-2.933l.748-.802L260.062 48h2.46l-3.582-4.959 3.383-3.768h-2.403l-3.137 3.505-.142.001v-6.415zm10.912 11.806c.678 0 1.28-.103 1.806-.31s.96-.497 1.299-.874a2.99 2.99 0 0 0 .69-1.327l-1.92-.216c-.091.246-.226.453-.404.62a1.769 1.769 0 0 1-.63.377 2.438 2.438 0 0 1-.813.128c-.447 0-.837-.095-1.17-.287a1.964 1.964 0 0 1-.779-.83c-.185-.361-.278-.796-.278-1.303v.051h6.08v-.63c0-.766-.107-1.426-.319-1.98s-.503-1.013-.872-1.373a3.504 3.504 0 0 0-1.273-.798 4.473 4.473 0 0 0-1.525-.259c-.834 0-1.559.19-2.176.571a3.871 3.871 0 0 0-1.44 1.591c-.344.68-.515 1.469-.515 2.366 0 .913.17 1.706.511 2.378s.829 1.192 1.463 1.557 1.39.548 2.265.548zm-2.19-5.425c.027-.316.114-.611.26-.884a2.12 2.12 0 0 1 .742-.796 2.018 2.018 0 0 1 1.108-.304c.394 0 .74.09 1.037.267a1.87 1.87 0 0 1 .696.73c.167.31.252.66.256 1.054l-4.103.001.004-.068zm15.087 5.374a3.912 3.912 0 0 0 1.21-.204l-.346-1.608a3.35 3.35 0 0 1-.247.051 2.06 2.06 0 0 1-.355.028c-.17 0-.326-.026-.466-.08a.659.659 0 0 1-.338-.297c-.085-.146-.128-.357-.128-.634l-.001-4.511h1.723v-1.591h-1.723v-2.091h-2.056v2.091h-1.239v1.59l1.239.001v4.852c-.003.477.087.885.27 1.223l.085.14a2.13 2.13 0 0 0 .98.805c.413.172.877.25 1.392.235zm6.582.051c.852 0 1.591-.187 2.216-.562a3.8 3.8 0 0 0 1.452-1.574c.343-.674.514-1.462.514-2.364s-.171-1.69-.514-2.369a3.793 3.793 0 0 0-1.452-1.58c-.625-.374-1.364-.562-2.216-.562s-1.59.188-2.216.563a3.793 3.793 0 0 0-1.451 1.58c-.343.677-.515 1.467-.515 2.368s.172 1.69.515 2.364a3.8 3.8 0 0 0 1.451 1.574c.625.375 1.364.562 2.216.562zm.012-1.647c-.474 0-.867-.128-1.18-.384a2.285 2.285 0 0 1-.698-1.031 4.288 4.288 0 0 1-.23-1.443 4.32 4.32 0 0 1 .23-1.452c.153-.434.386-.78.699-1.037s.705-.386 1.179-.386c.462 0 .848.129 1.159.386s.542.603.696 1.037.23.918.23 1.452a4.3 4.3 0 0 1-.23 1.443c-.154.432-.386.776-.696 1.031s-.697.384-1.16.384zm12.393 1.653a3.39 3.39 0 0 0 1.19-.19c.34-.127.621-.296.847-.506a2.49 2.49 0 0 0 .525-.679h.068V48h1.978v-5.84c0-.58-.105-1.063-.316-1.45a2.5 2.5 0 0 0-.832-.917 3.57 3.57 0 0 0-1.142-.486 5.442 5.442 0 0 0-1.256-.148c-.61 0-1.166.09-1.67.27a3.31 3.31 0 0 0-1.279.807 3.088 3.088 0 0 0-.75 1.332l1.92.273c.103-.3.301-.559.595-.779s.692-.329 1.196-.329c.477 0 .842.117 1.096.352s.38.567.38.995v.034c0 .197-.072.341-.218.434s-.378.161-.696.205l-1.244.145a8.822 8.822 0 0 0-1.23.218c-.396.1-.751.248-1.066.44a2.11 2.11 0 0 0-.744.774c-.182.322-.273.729-.273 1.221 0 .572.128 1.053.384 1.443s.604.685 1.045.884.939.298 1.492.298zm.534-1.511c-.428 0-.78-.097-1.057-.29s-.415-.48-.415-.858c0-.265.07-.482.21-.65s.332-.3.574-.395a3.6 3.6 0 0 1 .824-.205l.483-.068.563-.091a4.72 4.72 0 0 0 .514-.12.966.966 0 0 0 .327-.147v1.028a1.69 1.69 0 0 1-.248.892 1.807 1.807 0 0 1-.701.657c-.303.164-.661.247-1.074.247zm9.388 1.488c.5 0 .915-.083 1.245-.25a2.51 2.51 0 0 0 .795-.605c.201-.236.354-.46.46-.673h.125V48h2.023V36.364h-2.062v4.352h-.086a3.867 3.867 0 0 0-.448-.68 2.431 2.431 0 0 0-.784-.618c-.33-.173-.75-.259-1.262-.259-.67 0-1.278.171-1.824.514s-.978.849-1.298 1.517-.48 1.488-.48 2.458c0 .958.157 1.772.471 2.443s.743 1.182 1.285 1.534a3.302 3.302 0 0 0 1.84.528zm.574-1.687c-.45 0-.83-.122-1.139-.367s-.542-.58-.699-1.005a4.193 4.193 0 0 1-.236-1.458 4.16 4.16 0 0 1 .233-1.443c.156-.42.387-.75.694-.988s.689-.358 1.147-.358c.444 0 .818.115 1.122.346s.536.555.694.972.235.907.235 1.471-.08 1.06-.238 1.483-.392.755-.699.992-.678.355-1.114.355zm9.513 1.687c.5 0 .915-.083 1.244-.25a2.51 2.51 0 0 0 .796-.605c.2-.236.354-.46.46-.673h.125V48h2.023V36.364h-2.063v4.352h-.085a3.867 3.867 0 0 0-.449-.68 2.431 2.431 0 0 0-.784-.618c-.33-.173-.75-.259-1.261-.259-.67 0-1.279.171-1.824.514s-.979.849-1.299 1.517-.48 1.488-.48 2.458c0 .958.157 1.772.472 2.443s.742 1.182 1.284 1.534a3.302 3.302 0 0 0 1.84.528zm.574-1.687c-.451 0-.83-.122-1.14-.367s-.541-.58-.698-1.005a4.193 4.193 0 0 1-.236-1.458c0-.541.077-1.022.233-1.443s.386-.75.693-.988.69-.358 1.148-.358c.443 0 .817.115 1.122.346s.536.555.693.972.236.907.236 1.471-.08 1.06-.239 1.483-.392.755-.699.992-.678.355-1.113.355zm10.132-1.886v-.148c.003-.402.052-.74.144-1.014s.237-.515.432-.72.446-.4.753-.59a4.24 4.24 0 0 0 .903-.71c.254-.265.45-.568.589-.91a3.06 3.06 0 0 0 .207-1.158c0-.64-.154-1.195-.463-1.662a3.014 3.014 0 0 0-1.29-1.083c-.551-.254-1.188-.38-1.912-.38-.663 0-1.268.12-1.815.363a3.069 3.069 0 0 0-1.318 1.091c-.332.485-.507 1.087-.526 1.807h2.023c.019-.356.107-.65.264-.884a1.49 1.49 0 0 1 .597-.522c.24-.116.495-.174.764-.174.291 0 .556.061.792.182a1.43 1.43 0 0 1 .566.512c.14.22.21.479.21.778 0 .265-.053.505-.16.719s-.25.407-.434.58a3.93 3.93 0 0 1-.622.474 4.245 4.245 0 0 0-.858.684c-.235.248-.416.575-.542.98s-.193.951-.197 1.637v.148h1.893zm-.904 3.545a1.19 1.19 0 0 0 .622-.168 1.3 1.3 0 0 0 .455-.451c.115-.19.173-.4.173-.631a1.18 1.18 0 0 0-.372-.875 1.215 1.215 0 0 0-.878-.364c-.34 0-.634.122-.88.364a1.18 1.18 0 0 0-.37.875c0 .348.123.644.37.886a1.21 1.21 0 0 0 .88.364zM40.676 188l2.335-8.165h.091l2.33 8.165h2.08l3.283-11.636h-2.267l-2.096 8.556h-.102l-2.245-8.556h-2.062l-2.239 8.55h-.108l-2.096-8.55h-2.267L38.596 188h2.08zm13.547 0v-5.114c0-.42.08-.778.241-1.073s.385-.522.67-.68a1.99 1.99 0 0 1 .975-.235c.542 0 .963.164 1.264.491s.452.785.452 1.372V188h2.057v-5.557c0-.704-.124-1.301-.372-1.79a2.584 2.584 0 0 0-1.049-1.113c-.45-.254-.979-.38-1.585-.38-.666 0-1.215.142-1.645.428a2.53 2.53 0 0 0-.951 1.168h-.103v-4.392h-2.011V188h2.057zm8.786-9.966c.326 0 .605-.109.838-.327s.35-.48.35-.787-.117-.574-.35-.792a1.184 1.184 0 0 0-.838-.327 1.19 1.19 0 0 0-.84.327 1.041 1.041 0 0 0-.353.792c0 .307.116.57.35.787s.514.327.843.327zM64.032 188v-8.727h-2.057V188h2.057zm5.918.17c.731 0 1.368-.133 1.91-.4a3.2 3.2 0 0 0 1.283-1.114 3.41 3.41 0 0 0 .546-1.639h-1.966c-.06.314-.173.581-.335.801s-.365.387-.606.503a1.86 1.86 0 0 1-.815.173 1.85 1.85 0 0 1-1.116-.343c-.317-.23-.562-.557-.736-.983s-.261-.937-.261-1.532c0-.587.088-1.09.264-1.511s.423-.743.741-.969a1.868 1.868 0 0 1 1.108-.338c.496 0 .893.141 1.19.423s.486.634.566 1.054h1.966c-.046-.628-.231-1.179-.557-1.65a3.246 3.246 0 0 0-1.31-1.097c-.547-.26-1.175-.389-1.883-.389-.853 0-1.59.19-2.213.571a3.833 3.833 0 0 0-1.446 1.591c-.341.68-.512 1.463-.512 2.35s.168 1.661.503 2.338a3.803 3.803 0 0 0 1.438 1.588c.623.382 1.37.573 2.241.573zm7.491-.17v-5.114c0-.42.08-.778.242-1.073s.384-.522.67-.68a1.99 1.99 0 0 1 .974-.235c.542 0 .963.164 1.265.491s.451.785.451 1.372V188H83.1v-5.557c0-.704-.124-1.301-.372-1.79a2.584 2.584 0 0 0-1.048-1.113c-.451-.254-.98-.38-1.586-.38-.666 0-1.215.142-1.644.428a2.53 2.53 0 0 0-.952 1.168h-.102v-4.392h-2.012V188h2.057zm15.532.17c.73 0 1.367-.133 1.909-.4a3.2 3.2 0 0 0 1.284-1.114 3.41 3.41 0 0 0 .545-1.639h-1.965a1.95 1.95 0 0 1-.336.801c-.163.22-.364.387-.605.503a1.86 1.86 0 0 1-.815.173c-.428 0-.8-.114-1.117-.343s-.561-.557-.735-.983-.262-.937-.262-1.532c0-.587.088-1.09.264-1.511s.424-.743.742-.969a1.868 1.868 0 0 1 1.108-.338c.496 0 .893.141 1.19.423s.486.634.566 1.054h1.965c-.045-.628-.23-1.179-.556-1.65a3.246 3.246 0 0 0-1.31-1.097c-.547-.26-1.175-.389-1.884-.389-.852 0-1.59.19-2.213.571a3.833 3.833 0 0 0-1.446 1.591c-.34.68-.511 1.463-.511 2.35s.168 1.661.503 2.338a3.803 3.803 0 0 0 1.437 1.588c.623.382 1.37.573 2.242.573zm9.24 0c.853 0 1.592-.187 2.217-.562a3.8 3.8 0 0 0 1.451-1.574c.343-.674.515-1.462.515-2.364s-.172-1.69-.515-2.369a3.793 3.793 0 0 0-1.451-1.58c-.625-.374-1.364-.562-2.216-.562s-1.591.188-2.216.563a3.793 3.793 0 0 0-1.452 1.58c-.343.677-.514 1.467-.514 2.368s.171 1.69.514 2.364a3.8 3.8 0 0 0 1.452 1.574c.625.375 1.363.562 2.216.562zm.012-1.647c-.473 0-.866-.128-1.179-.384a2.285 2.285 0 0 1-.699-1.031 4.288 4.288 0 0 1-.23-1.443c0-.534.077-1.018.23-1.452s.387-.78.7-1.037.705-.386 1.178-.386c.462 0 .849.129 1.16.386s.542.603.695 1.037a4.32 4.32 0 0 1 .23 1.452c0 .53-.076 1.011-.23 1.443s-.385.776-.696 1.031-.697.384-1.159.384zm8.818 1.59c.656 0 1.208-.155 1.657-.465s.771-.71.968-1.2h.091V188h1.995v-8.727h-2.057v5.057c0 .443-.092.811-.276 1.105a1.805 1.805 0 0 1-.702.662 1.886 1.886 0 0 1-.88.221c-.493 0-.89-.163-1.193-.488s-.455-.766-.455-1.319v-5.238h-2.057v5.557c0 .697.123 1.29.37 1.78a2.62 2.62 0 0 0 1.025 1.12c.438.256.942.384 1.514.384zm8.88-.113v-5.114c0-.42.078-.778.236-1.073a1.65 1.65 0 0 1 .653-.68c.279-.157.598-.235.957-.235.53 0 .947.165 1.248.494s.451.786.451 1.37V188h2.057v-5.557c.004-.697-.118-1.29-.366-1.778a2.625 2.625 0 0 0-1.046-1.12c-.449-.257-.974-.386-1.576-.386-.652 0-1.198.144-1.64.432a2.489 2.489 0 0 0-.963 1.165h-.102v-1.483h-1.966V188h2.057zm11.004.12a3.911 3.911 0 0 0 1.21-.205l-.346-1.608a3.35 3.35 0 0 1-.247.051 2.06 2.06 0 0 1-.355.028c-.17 0-.326-.026-.466-.08a.659.659 0 0 1-.338-.297c-.085-.146-.128-.357-.128-.634v-4.511h1.722v-1.591h-1.722v-2.091H128.2v2.091h-1.238v1.59l1.238.001v4.852c-.003.477.087.885.27 1.223l.085.14c.24.364.568.632.98.805s.877.25 1.392.235zm4.832-.12v-5.13c0-.372.086-.7.256-.984s.404-.506.702-.667a2.084 2.084 0 0 1 1.008-.242c.174 0 .355.013.543.037s.325.052.412.083v-1.892a2.811 2.811 0 0 0-.355-.043 5.82 5.82 0 0 0-.384-.014c-.5 0-.944.137-1.332.412s-.662.663-.821 1.167h-.091v-1.454h-1.995V188h2.057zm5.567 3.256c.538 0 1.001-.088 1.39-.265a2.69 2.69 0 0 0 .985-.758c.27-.33.485-.722.648-1.176l3.506-9.773-2.2-.011-2.016 6.59h-.091l-2.011-6.59h-2.182l3.165 8.909-.177.471c-.197.481-.448.765-.752.85s-.681.063-1.128-.065l-.478 1.596c.14.06.33.113.566.156a4.25 4.25 0 0 0 .775.066zM157.195 188l1.636-5.898h.12l1.636 5.898h2.142l2.471-8.727h-2.102l-1.511 6.102h-.086l-1.568-6.102h-2.074l-1.568 6.136h-.08l-1.534-6.136h-2.096l2.466 8.727h2.148zm13.258.17c.852 0 1.59-.187 2.215-.562a3.8 3.8 0 0 0 1.452-1.574c.343-.674.514-1.462.514-2.364s-.171-1.69-.514-2.369a3.793 3.793 0 0 0-1.452-1.58c-.625-.374-1.363-.562-2.215-.562s-1.591.188-2.216.563a3.793 3.793 0 0 0-1.452 1.58c-.343.677-.514 1.467-.514 2.368s.171 1.69.514 2.364a3.8 3.8 0 0 0 1.452 1.574c.625.375 1.363.562 2.216.562zm.01-1.647c-.473 0-.866-.128-1.178-.384a2.285 2.285 0 0 1-.699-1.031 4.288 4.288 0 0 1-.23-1.443c0-.534.077-1.018.23-1.452s.386-.78.699-1.037.705-.386 1.179-.386c.462 0 .848.129 1.159.386s.543.603.696 1.037.23.918.23 1.452a4.3 4.3 0 0 1-.23 1.443c-.153.432-.385.776-.696 1.031s-.697.384-1.16.384zm8.82 1.59c.654 0 1.206-.155 1.655-.465s.772-.71.97-1.2h.09V188h1.994v-8.727h-2.057v5.057c0 .443-.091.811-.275 1.105a1.805 1.805 0 0 1-.702.662 1.886 1.886 0 0 1-.88.221c-.493 0-.89-.163-1.194-.488s-.454-.766-.454-1.319v-5.238h-2.057v5.557c0 .697.123 1.29.37 1.78s.587.864 1.025 1.12.942.384 1.514.384zm8.879-.113v-11.636h-2.057V188h2.057zm5.35.153c.5 0 .914-.083 1.244-.25a2.51 2.51 0 0 0 .795-.605 3.34 3.34 0 0 0 .46-.673h.126V188h2.022v-11.636h-2.062v4.352h-.085a3.868 3.868 0 0 0-.45-.68 2.431 2.431 0 0 0-.783-.618c-.33-.173-.75-.259-1.262-.259-.67 0-1.278.171-1.824.514s-.978.849-1.298 1.517-.48 1.488-.48 2.458c0 .958.157 1.772.472 2.443s.742 1.182 1.284 1.534a3.302 3.302 0 0 0 1.84.528zm.574-1.687c-.451 0-.831-.122-1.14-.367s-.541-.58-.699-1.005a4.193 4.193 0 0 1-.235-1.458c0-.541.077-1.022.233-1.443s.386-.75.693-.988.69-.358 1.148-.358c.443 0 .817.115 1.122.346s.536.555.693.972.236.907.236 1.471-.08 1.06-.239 1.483-.392.755-.699.992-.678.355-1.113.355zM206.389 188v-11.636h-2.057V188h2.057zm3.145-9.966a1.18 1.18 0 0 0 .838-.327c.233-.217.35-.48.35-.787s-.117-.574-.35-.792a1.184 1.184 0 0 0-.838-.327 1.19 1.19 0 0 0-.84.327 1.041 1.041 0 0 0-.353.792c0 .307.117.57.35.787a1.19 1.19 0 0 0 .843.327zm1.023 9.966v-8.727H208.5V188h2.057zm4.168-11.636h-2.056V188h2.056v-2.933l.748-.802 2.673 3.735h2.46l-3.582-4.96 3.383-3.767h-2.403l-3.137 3.505-.142.001v-6.415zm10.912 11.806c.678 0 1.28-.103 1.807-.31s.959-.497 1.298-.874a2.99 2.99 0 0 0 .69-1.327l-1.92-.216c-.091.246-.226.453-.404.62a1.769 1.769 0 0 1-.63.377 2.438 2.438 0 0 1-.813.128c-.447 0-.837-.095-1.17-.287a1.964 1.964 0 0 1-.779-.83c-.185-.361-.278-.796-.278-1.303v.051h6.08v-.63c0-.766-.107-1.426-.319-1.98s-.503-1.013-.872-1.373a3.504 3.504 0 0 0-1.273-.798 4.473 4.473 0 0 0-1.525-.259c-.834 0-1.559.19-2.176.571a3.871 3.871 0 0 0-1.44 1.591c-.344.68-.515 1.469-.515 2.367 0 .912.17 1.705.511 2.377a3.66 3.66 0 0 0 1.464 1.557c.634.366 1.389.548 2.264.548zm-2.19-5.425c.027-.316.114-.611.26-.884a2.12 2.12 0 0 1 .742-.796 2.018 2.018 0 0 1 1.108-.304c.394 0 .74.09 1.037.267a1.87 1.87 0 0 1 .696.73c.167.31.252.66.256 1.054l-4.103.001.004-.068zm15.087 5.374a3.911 3.911 0 0 0 1.21-.204l-.346-1.608a3.35 3.35 0 0 1-.247.051 2.06 2.06 0 0 1-.355.028c-.17 0-.326-.026-.466-.08a.659.659 0 0 1-.338-.297c-.085-.146-.128-.357-.128-.634l-.001-4.511h1.723v-1.591h-1.723l.001-2.091h-2.057v2.091h-1.238v1.59l1.238.001v4.852c-.003.477.087.885.27 1.223l.085.14a2.13 2.13 0 0 0 .98.805c.413.172.877.25 1.392.235zm6.582.051c.853 0 1.591-.187 2.216-.562a3.8 3.8 0 0 0 1.452-1.574c.343-.674.514-1.462.514-2.364s-.171-1.69-.514-2.369a3.793 3.793 0 0 0-1.452-1.58c-.625-.374-1.363-.562-2.216-.562s-1.59.188-2.216.563a3.793 3.793 0 0 0-1.451 1.58c-.343.677-.515 1.467-.515 2.368s.172 1.69.515 2.364a3.8 3.8 0 0 0 1.451 1.574c.625.375 1.364.562 2.216.562zm.012-1.647c-.474 0-.867-.128-1.18-.384a2.285 2.285 0 0 1-.698-1.031 4.288 4.288 0 0 1-.23-1.443 4.32 4.32 0 0 1 .23-1.452c.153-.434.386-.78.699-1.037s.705-.386 1.179-.386c.462 0 .848.129 1.159.386s.542.603.696 1.037.23.918.23 1.452a4.3 4.3 0 0 1-.23 1.443c-.154.432-.386.776-.696 1.031s-.697.384-1.16.384zm13.188 1.596a3.911 3.911 0 0 0 1.21-.204l-.346-1.608a3.35 3.35 0 0 1-.247.051 2.06 2.06 0 0 1-.355.028c-.17 0-.326-.026-.466-.08a.659.659 0 0 1-.338-.297c-.086-.146-.128-.357-.128-.634l-.001-4.511h1.722v-1.591h-1.722v-2.091h-2.056l-.001 2.091h-1.238v1.59l1.238.001.001 4.852c-.003.477.087.885.27 1.223l.085.14a2.13 2.13 0 0 0 .98.805c.413.172.877.25 1.392.235zm4.832-.119v-5.13a1.87 1.87 0 0 1 .256-.984 1.8 1.8 0 0 1 .701-.667 2.084 2.084 0 0 1 1.009-.242c.174 0 .355.013.543.037s.324.052.412.083v-1.892a2.811 2.811 0 0 0-.356-.043 5.82 5.82 0 0 0-.383-.014 2.25 2.25 0 0 0-1.333.412c-.388.274-.661.663-.82 1.167h-.091v-1.454h-1.995V188h2.057zm6.8.176a3.39 3.39 0 0 0 1.19-.19c.34-.127.622-.296.847-.506s.4-.436.526-.679h.068V188h1.977v-5.84c0-.58-.105-1.063-.315-1.45a2.5 2.5 0 0 0-.833-.917 3.57 3.57 0 0 0-1.142-.486 5.442 5.442 0 0 0-1.255-.148c-.61 0-1.167.09-1.67.27s-.93.449-1.28.807a3.088 3.088 0 0 0-.75 1.332l1.921.273c.102-.3.3-.559.594-.779s.692-.329 1.196-.329c.477 0 .843.117 1.097.352s.38.567.38.995v.034c0 .197-.073.341-.219.434s-.377.161-.696.205a39.9 39.9 0 0 1-1.244.145 8.822 8.822 0 0 0-1.23.218c-.396.1-.75.248-1.065.44a2.11 2.11 0 0 0-.745.774c-.181.322-.272.729-.272 1.221 0 .572.127 1.053.383 1.443a2.4 2.4 0 0 0 1.046.884c.44.199.938.298 1.491.298zm.534-1.511c-.428 0-.78-.097-1.057-.29s-.414-.48-.414-.858c0-.265.07-.482.21-.65s.331-.3.574-.395.517-.163.824-.205l.482-.068.563-.091c.19-.034.36-.074.514-.12a.966.966 0 0 0 .327-.147v1.028a1.69 1.69 0 0 1-.247.892 1.807 1.807 0 0 1-.702.657c-.303.164-.66.247-1.074.247zM278.69 188v-5.114c0-.42.079-.778.236-1.073a1.65 1.65 0 0 1 .653-.68c.279-.157.598-.235.958-.235.53 0 .946.165 1.247.494s.451.786.451 1.37V188h2.057v-5.557c.004-.697-.118-1.29-.366-1.778a2.625 2.625 0 0 0-1.046-1.12c-.449-.257-.974-.386-1.576-.386-.652 0-1.198.144-1.64.432a2.489 2.489 0 0 0-.963 1.165h-.102v-1.483h-1.966V188h2.057zm11.056.17c.727 0 1.37-.117 1.932-.352s.999-.561 1.315-.98a2.37 2.37 0 0 0 .48-1.452c-.004-.625-.207-1.13-.61-1.517s-1.019-.668-1.845-.846l-1.488-.318c-.443-.103-.76-.233-.952-.393a.752.752 0 0 1-.281-.619c-.004-.295.14-.536.429-.721s.649-.279 1.077-.279c.318 0 .587.051.806.154s.395.236.526.403.222.345.275.534l1.875-.204a2.75 2.75 0 0 0-1.093-1.768c-.59-.435-1.395-.653-2.418-.653-.697 0-1.311.109-1.844.327s-.947.524-1.244.92-.444.863-.44 1.4c-.004.637.195 1.163.596 1.578s1.021.709 1.858.883l1.489.313c.401.087.698.212.89.375a.78.78 0 0 1 .286.619c0 .295-.149.543-.446.744s-.69.301-1.179.301c-.473 0-.858-.1-1.153-.3s-.489-.499-.58-.893l-2.006.193c.125.803.514 1.43 1.165 1.878s1.512.673 2.58.673zm8.037-.17v-7.136h1.807v-1.591h-1.807v-.688c0-.284.055-.513.164-.688l.072-.099c.157-.183.427-.275.81-.275a2.15 2.15 0 0 1 .443.042l.33.083.409-1.591a5.429 5.429 0 0 0-.614-.154 4.745 4.745 0 0 0-.949-.085c-.504 0-.962.097-1.375.29a2.283 2.283 0 0 0-.986.875c-.244.39-.366.879-.366 1.466l-.001.824h-1.289v1.59l1.289.001V188h2.063zm7.287.17c.678 0 1.28-.103 1.806-.31s.96-.497 1.299-.874a2.99 2.99 0 0 0 .69-1.327l-1.92-.216c-.091.246-.226.453-.404.62a1.769 1.769 0 0 1-.63.377 2.438 2.438 0 0 1-.813.128c-.447 0-.837-.095-1.17-.287a1.964 1.964 0 0 1-.779-.83c-.185-.361-.278-.796-.278-1.303v.051h6.08v-.63c0-.766-.107-1.426-.319-1.98s-.503-1.013-.872-1.373a3.504 3.504 0 0 0-1.273-.798 4.473 4.473 0 0 0-1.525-.259c-.834 0-1.559.19-2.176.571a3.871 3.871 0 0 0-1.44 1.591c-.344.68-.515 1.469-.515 2.367 0 .912.17 1.705.511 2.377s.829 1.192 1.463 1.557 1.39.548 2.265.548zm-2.19-5.425c.027-.316.114-.611.26-.884a2.12 2.12 0 0 1 .742-.796 2.018 2.018 0 0 1 1.108-.304c.394 0 .74.09 1.037.267a1.87 1.87 0 0 1 .696.73c.167.31.252.66.256 1.054l-4.103.001.004-.068zm9.865 5.255v-5.13c0-.372.085-.7.255-.984s.405-.506.702-.667a2.084 2.084 0 0 1 1.009-.242 4.27 4.27 0 0 1 .542.037c.188.025.325.052.412.083v-1.892a2.811 2.811 0 0 0-.355-.043 5.82 5.82 0 0 0-.384-.014c-.5 0-.944.137-1.332.412s-.662.663-.821 1.167h-.09v-1.454h-1.995V188h2.057zm11.568.12a3.911 3.911 0 0 0 1.21-.205l-.347-1.608a3.14 3.14 0 0 1-.247.051 2.06 2.06 0 0 1-.355.028c-.17 0-.326-.026-.466-.08a.659.659 0 0 1-.338-.297c-.085-.146-.128-.357-.128-.634v-4.511h1.722v-1.591h-1.722v-2.091h-2.056l-.001 2.091h-1.238v1.59l1.238.001v4.852c-.003.477.087.885.271 1.223l.085.14a2.13 2.13 0 0 0 .98.805c.413.172.877.25 1.392.235zm4.832-.12v-5.114c0-.42.08-.778.241-1.073s.385-.522.67-.68a1.99 1.99 0 0 1 .975-.235c.542 0 .963.164 1.264.491s.452.785.452 1.372V188h2.057v-5.557c0-.704-.124-1.301-.372-1.79a2.584 2.584 0 0 0-1.049-1.113c-.45-.254-.979-.38-1.585-.38-.667 0-1.215.142-1.645.428s-.747.675-.952 1.168h-.102v-4.392h-2.011V188h2.057zm11.616.17c.678 0 1.28-.103 1.806-.31s.96-.497 1.299-.874a2.99 2.99 0 0 0 .69-1.327l-1.92-.216c-.091.246-.226.453-.404.62a1.769 1.769 0 0 1-.63.377 2.438 2.438 0 0 1-.813.128c-.447 0-.837-.095-1.17-.287a1.964 1.964 0 0 1-.779-.83c-.185-.361-.278-.796-.278-1.303v.051h6.08v-.63c0-.766-.107-1.426-.319-1.98s-.503-1.013-.872-1.373a3.504 3.504 0 0 0-1.273-.798 4.473 4.473 0 0 0-1.525-.259c-.834 0-1.56.19-2.177.571a3.871 3.871 0 0 0-1.44 1.591c-.343.68-.514 1.469-.514 2.367 0 .912.17 1.705.511 2.377s.829 1.192 1.463 1.557 1.39.548 2.265.548zm-2.19-5.425c.027-.316.114-.611.26-.884a2.12 2.12 0 0 1 .742-.796 2.018 2.018 0 0 1 1.108-.304c.394 0 .74.09 1.037.267a1.87 1.87 0 0 1 .696.73c.167.31.252.66.256 1.054l-4.103.001.004-.068zM352.407 188v-5.307c0-.36.072-.675.216-.946a1.61 1.61 0 0 1 .58-.63 1.5 1.5 0 0 1 .807-.225c.435 0 .788.135 1.06.403s.405.63.405 1.08V188h2.017v-5.443c0-.493.14-.893.418-1.202s.666-.463 1.162-.463c.417 0 .769.126 1.057.378s.432.649.432 1.19V188h2.062v-5.858c0-.973-.254-1.714-.761-2.222s-1.163-.76-1.966-.76c-.633 0-1.18.144-1.64.434a2.4 2.4 0 0 0-.98 1.162h-.09a2.278 2.278 0 0 0-.861-1.168c-.407-.286-.906-.429-1.497-.429-.584 0-1.085.141-1.506.423a2.33 2.33 0 0 0-.903 1.174h-.103v-1.483h-1.966V188h2.057zm16.114.17c.852 0 1.59-.187 2.216-.562a3.8 3.8 0 0 0 1.452-1.574c.342-.674.514-1.462.514-2.364s-.172-1.69-.514-2.369a3.793 3.793 0 0 0-1.452-1.58c-.625-.374-1.364-.562-2.216-.562s-1.591.188-2.216.563a3.793 3.793 0 0 0-1.452 1.58c-.342.677-.514 1.467-.514 2.368s.172 1.69.514 2.364a3.8 3.8 0 0 0 1.452 1.574c.625.375 1.364.562 2.216.562zm.011-1.647c-.473 0-.866-.128-1.179-.384a2.285 2.285 0 0 1-.699-1.031 4.288 4.288 0 0 1-.23-1.443c0-.534.077-1.018.23-1.452s.387-.78.7-1.037.705-.386 1.178-.386c.462 0 .849.129 1.16.386s.542.603.695 1.037a4.32 4.32 0 0 1 .23 1.452c0 .53-.076 1.011-.23 1.443s-.385.776-.696 1.031-.697.384-1.159.384zm7.966 1.477v-5.114c0-.42.079-.778.236-1.073a1.65 1.65 0 0 1 .653-.68c.279-.157.598-.235.958-.235.53 0 .946.165 1.247.494s.452.786.452 1.37V188h2.056v-5.557c.004-.697-.118-1.29-.366-1.778a2.625 2.625 0 0 0-1.045-1.12c-.45-.257-.975-.386-1.577-.386-.652 0-1.198.144-1.64.432a2.489 2.489 0 0 0-.962 1.165h-.103v-1.483h-1.966V188h2.057zm11.562.17c.678 0 1.28-.103 1.806-.31s.96-.497 1.299-.874a2.99 2.99 0 0 0 .69-1.327l-1.92-.216c-.091.246-.226.453-.404.62a1.769 1.769 0 0 1-.63.377 2.438 2.438 0 0 1-.813.128c-.447 0-.837-.095-1.17-.287a1.964 1.964 0 0 1-.779-.83c-.185-.361-.278-.796-.278-1.303v.051h6.08v-.63c0-.766-.107-1.426-.319-1.98s-.503-1.013-.872-1.373a3.505 3.505 0 0 0-1.273-.798 4.473 4.473 0 0 0-1.525-.259c-.834 0-1.56.19-2.176.571a3.871 3.871 0 0 0-1.44 1.591c-.344.68-.515 1.469-.515 2.367 0 .912.17 1.705.511 2.377s.829 1.192 1.463 1.557 1.39.548 2.265.548zm-2.19-5.425c.027-.316.114-.611.26-.884a2.12 2.12 0 0 1 .742-.796 2.018 2.018 0 0 1 1.108-.304c.394 0 .74.09 1.037.267a1.87 1.87 0 0 1 .696.73c.167.31.252.66.256 1.054l-4.103.001.004-.068zm9.086 8.51c.538 0 1.001-.087 1.39-.264a2.69 2.69 0 0 0 .985-.758c.27-.33.485-.722.648-1.176l3.506-9.773-2.2-.011-2.016 6.59h-.091l-2.012-6.59h-2.181l3.164 8.909-.176.471c-.197.481-.448.765-.753.85s-.68.063-1.127-.065l-.478 1.596c.14.06.329.113.566.156a4.24 4.24 0 0 0 .775.066zm11.805-6.675v-.148c.004-.402.052-.74.145-1.014a1.91 1.91 0 0 1 .431-.72c.196-.204.447-.4.753-.59a4.27 4.27 0 0 0 .904-.71c.254-.265.45-.568.588-.91a3.06 3.06 0 0 0 .207-1.158c0-.64-.154-1.195-.463-1.662a3.014 3.014 0 0 0-1.29-1.083c-.55-.254-1.188-.38-1.912-.38-.662 0-1.268.12-1.815.363a3.069 3.069 0 0 0-1.318 1.091c-.332.485-.507 1.087-.526 1.807h2.023c.019-.356.107-.65.264-.884a1.49 1.49 0 0 1 .597-.522c.24-.116.495-.174.764-.174.292 0 .556.061.793.182a1.43 1.43 0 0 1 .565.512c.14.22.21.479.21.778a1.6 1.6 0 0 1-.159.719 2.01 2.01 0 0 1-.435.58 3.93 3.93 0 0 1-.622.474 4.245 4.245 0 0 0-.858.684c-.234.248-.415.575-.542.98s-.192.951-.196 1.637v.148h1.892zm-.904 3.545c.228 0 .435-.056.623-.168s.339-.262.454-.451.173-.4.173-.631a1.18 1.18 0 0 0-.372-.875 1.215 1.215 0 0 0-.878-.364c-.34 0-.634.122-.88.364a1.18 1.18 0 0 0-.37.875c0 .348.123.644.37.886a1.21 1.21 0 0 0 .88.364z" class="C"/></g><rect stroke="#b9c2ca" fill="#fcfcfc" x="35.5" y="94.5" width="459" height="35" rx="4"/><path d="M474 110l3.002 3.261L480 110" stroke="#18335e" stroke-width="1.6" class="D E"/><path d="M87.55 116.002c.7 0 1.309-.134 1.829-.403s.923-.637 1.21-1.108.43-1.01.43-1.621v-5.74H89.7v5.633c0 .395-.087.746-.259 1.053s-.43.558-.741.722c-.323.175-.705.262-1.149.262s-.82-.087-1.142-.262a1.86 1.86 0 0 1-.743-.722 2.09 2.09 0 0 1-.262-1.053v-5.633h-1.317v5.74c0 .61.143 1.151.43 1.621s.69.84 1.21 1.108 1.128.403 1.824.403zm8.305 0c.682 0 1.263-.11 1.745-.332s.85-.525 1.104-.908a2.33 2.33 0 0 0 .381-1.317c0-.392-.077-.728-.232-1.01a2.23 2.23 0 0 0-.607-.707c-.249-.19-.523-.344-.814-.46a6.5 6.5 0 0 0-.857-.277l-.852-.222a5.48 5.48 0 0 1-.533-.164c-.181-.065-.355-.149-.518-.251s-.29-.227-.387-.378a.96.96 0 0 1-.147-.536c0-.248.071-.469.215-.663a1.43 1.43 0 0 1 .607-.46 2.33 2.33 0 0 1 .93-.169c.5 0 .914.112 1.243.335a1.25 1.25 0 0 1 .563.94h1.27a2.17 2.17 0 0 0-.41-1.247c-.276-.374-.645-.668-1.071-.854-.453-.208-.975-.311-1.566-.311-.585 0-1.11.104-1.577.313s-.835.5-1.108.875-.409.814-.409 1.317c0 .608.204 1.097.612 1.466s.96.65 1.66.84l1.03.28a5.91 5.91 0 0 1 .842.286c.249.108.446.245.593.41s.22.376.22.634c0 .285-.085.532-.252.744a1.64 1.64 0 0 1-.689.494c-.317.123-.655.183-.995.177a2.74 2.74 0 0 1-.93-.151c-.268-.091-.508-.252-.695-.465a1.33 1.33 0 0 1-.31-.786h-1.32c.028.526.177.98.447 1.362s.644.677 1.12.884 1.044.311 1.697.311zm7.628-.145c.886 0 1.642-.175 2.267-.526a3.5 3.5 0 0 0 1.434-1.507c.33-.653.496-1.434.496-2.343s-.164-1.684-.492-2.333c-.31-.63-.802-1.151-1.413-1.496s-1.348-.522-2.203-.522h-2.914v8.727h2.825zm-.073-1.15h-1.436v-6.427h1.517c.637 0 1.17.124 1.598.371a2.33 2.33 0 0 1 .97 1.087c.217.477.326 1.058.326 1.743s-.11 1.275-.328 1.753a2.35 2.35 0 0 1-.989 1.095c-.44.252-.993.378-1.658.378zm12.173 2.224c-.278-.375-.53-.86-.758-1.453-.236-.626-.417-1.272-.541-1.93a10.84 10.84 0 0 1-.2-2.054 10.67 10.67 0 0 1 .114-1.541 12.32 12.32 0 0 1 .32-1.513 9.84 9.84 0 0 1 .477-1.344 5.4 5.4 0 0 1 .588-1.036h-1.167a8.79 8.79 0 0 0-1.232 2.485c-.281.897-.422 1.88-.422 2.949s.141 2.055.422 2.953a8.79 8.79 0 0 0 1.232 2.484h1.167zm4.91-.929c.698 0 1.308-.134 1.828-.403s.923-.637 1.21-1.108.43-1.01.43-1.621v-5.74h-1.32v5.633c0 .395-.087.746-.259 1.053s-.43.558-.741.722c-.323.175-.705.262-1.149.262s-.82-.087-1.142-.262a1.86 1.86 0 0 1-.743-.722 2.09 2.09 0 0 1-.262-1.053v-5.633h-1.317v5.74c0 .61.143 1.151.43 1.621s.69.84 1.21 1.108 1.128.403 1.824.403zm6.557-.145v-3.886c0-.347.066-.643.198-.889s.313-.432.541-.56.491-.192.786-.192c.432 0 .772.134 1.019.403s.37.64.37 1.114v4.01h1.275v-4.163c0-.54-.093-.993-.277-1.36-.169-.349-.441-.638-.78-.828s-.726-.28-1.172-.28c-.491 0-.898.106-1.22.316s-.56.488-.71.835h-.081v-1.065h-1.223v6.545h1.274zm6.539-7.555a.8.8 0 0 0 .568-.224.71.71 0 0 0 .237-.535c0-.21-.079-.39-.237-.539a.8.8 0 0 0-.568-.224.8.8 0 0 0-.57.224c-.153.138-.239.334-.236.54a.71.71 0 0 0 .237.534c.157.15.347.224.569.224zm.63 7.555v-6.545h-1.274v6.545h1.274zm4.06.085a2.55 2.55 0 0 0 .512-.049c.136-.03.241-.059.315-.087l-.23-1.053-.179.035a1.49 1.49 0 0 1-.268.02c-.14 0-.268-.021-.386-.065s-.224-.137-.288-.252c-.074-.123-.11-.309-.11-.556l-.001-3.6h1.343v-1.023h-1.343v-1.568h-1.274v1.568h-.958v1.022l.958.001v3.865c0 .33.062.612.187.849l.082.136c.179.261.413.454.703.58s.602.184.937.178zm4.936.047a3.48 3.48 0 0 0 1.276-.22 2.49 2.49 0 0 0 .933-.617 2.17 2.17 0 0 0 .518-.931l-1.206-.218a1.37 1.37 0 0 1-.332.516c-.145.14-.317.244-.516.313s-.419.105-.66.105a1.92 1.92 0 0 1-.976-.241c-.282-.164-.508-.408-.65-.701-.155-.307-.232-.68-.232-1.117l.002.09h4.651v-.452c0-.594-.08-1.098-.238-1.515-.138-.383-.361-.731-.652-1.016a2.6 2.6 0 0 0-.934-.575c-.345-.122-.708-.184-1.074-.184-.608 0-1.138.144-1.591.43a2.89 2.89 0 0 0-1.057 1.198c-.251.512-.377 1.103-.377 1.773 0 .679.126 1.27.377 1.775a2.77 2.77 0 0 0 1.074 1.172c.464.277 1.019.415 1.664.415zm-1.837-4.05a1.94 1.94 0 0 1 .207-.716c.143-.28.348-.507.614-.682s.577-.262.935-.262c.33 0 .617.075.863.226s.437.356.573.616.205.557.205.892l-3.4.001.003-.074zm8.516 4.046c.398 0 .722-.067.972-.2s.447-.29.59-.47.254-.337.33-.476h.107v1.018h1.244v-8.727h-1.274v3.243h-.077a4.08 4.08 0 0 0-.321-.473 1.8 1.8 0 0 0-.58-.471c-.249-.135-.576-.203-.982-.203-.526 0-.996.134-1.41.401s-.742.652-.979 1.155-.356 1.108-.356 1.815.118 1.313.352 1.818.558.892.972 1.163.884.407 1.412.407zm.281-1.087c-.377 0-.695-.101-.952-.304-.267-.217-.469-.505-.582-.83a3.35 3.35 0 0 1-.196-1.18 3.29 3.29 0 0 1 .194-1.163c.13-.344.322-.615.578-.814s.575-.298.958-.298c.373 0 .685.095.938.285s.445.456.575.797.196.739.196 1.193c0 .46-.066.864-.198 1.21a1.8 1.8 0 0 1-.58.812c-.254.195-.564.292-.93.292zm10.974 1.104c.682 0 1.264-.11 1.745-.332s.85-.525 1.104-.908a2.33 2.33 0 0 0 .381-1.317c0-.392-.077-.728-.232-1.01a2.23 2.23 0 0 0-.607-.707c-.249-.19-.523-.344-.814-.46a6.5 6.5 0 0 0-.857-.277l-.852-.222-.532-.164c-.181-.065-.355-.149-.518-.251a1.25 1.25 0 0 1-.388-.378.96.96 0 0 1-.147-.536 1.09 1.09 0 0 1 .215-.663c.144-.195.346-.348.607-.46s.571-.169.93-.169c.5 0 .914.112 1.244.335s.517.536.562.94h1.27a2.17 2.17 0 0 0-.409-1.247c-.276-.374-.646-.668-1.072-.854-.453-.208-.975-.311-1.566-.311-.585 0-1.11.104-1.576.313s-.836.5-1.108.875-.41.814-.41 1.317c0 .608.204 1.097.612 1.466s.96.65 1.66.84l1.031.28c.313.083.593.178.842.286s.446.245.592.41.22.376.22.634a1.16 1.16 0 0 1-.252.744 1.64 1.64 0 0 1-.688.494c-.317.123-.655.183-.995.177-.338 0-.649-.05-.931-.151-.268-.091-.508-.252-.695-.465a1.33 1.33 0 0 1-.309-.786h-1.32c.028.526.177.98.447 1.362s.643.677 1.12.884 1.043.311 1.696.311zm7.049-.06a2.54 2.54 0 0 0 .511-.049c.136-.03.241-.059.315-.087l-.23-1.053-.179.035a1.49 1.49 0 0 1-.268.02c-.14 0-.268-.021-.386-.065s-.224-.137-.288-.252c-.073-.123-.11-.309-.11-.556l-.001-3.6h1.343v-1.023h-1.343v-1.568h-1.273l-.001 1.568h-.958v1.022l.958.001v3.865c0 .33.063.612.187.849l.082.136c.179.261.413.454.703.58s.602.184.938.178zm4.019.06a2.47 2.47 0 0 0 .929-.158 1.97 1.97 0 0 0 .635-.396c.165-.159.288-.321.37-.486h.052v.895h1.244v-4.346c0-.478-.082-.866-.247-1.166a1.85 1.85 0 0 0-.633-.692 2.49 2.49 0 0 0-.827-.335c-.274-.059-.553-.09-.833-.092a3.76 3.76 0 0 0-1.129.169c-.351.108-.675.292-.948.537a2.31 2.31 0 0 0-.624.965l1.197.273c.094-.23.264-.44.51-.629s.582-.283 1.011-.283c.412 0 .723.102.931.307s.314.492.314.865v.03c0 .153-.056.264-.167.332s-.288.117-.532.147l-.955.113a8.05 8.05 0 0 0-.912.162c-.284.065-.557.171-.81.315-.24.14-.433.328-.575.567s-.213.542-.213.912c0 .429.098.79.292 1.086a1.87 1.87 0 0 0 .795.676c.335.155.71.232 1.125.232zm.277-1.023c-.36 0-.658-.08-.89-.24s-.35-.399-.35-.714c0-.228.06-.41.181-.548a1.15 1.15 0 0 1 .486-.317c.203-.074.428-.127.675-.158l.392-.053.482-.073a3.6 3.6 0 0 0 .44-.098c.096-.021.186-.064.263-.125v.843c0 .259-.066.501-.198.727-.138.232-.338.421-.576.547-.251.14-.553.21-.905.21zm6.998.963a2.54 2.54 0 0 0 .511-.049c.137-.03.242-.059.316-.087l-.23-1.053-.18.035a1.49 1.49 0 0 1-.268.02c-.14 0-.268-.021-.386-.065s-.224-.137-.287-.252c-.074-.123-.111-.309-.111-.556l-.001-3.6h1.343v-1.023h-1.343l.001-1.568h-1.274l-.001 1.568h-.958v1.022l.958.001v3.865c0 .33.063.612.187.849l.082.136a1.63 1.63 0 0 0 .703.58c.29.124.603.184.938.178zm4.935.047a3.48 3.48 0 0 0 1.277-.22c.373-.146.684-.351.933-.617a2.18 2.18 0 0 0 .518-.931l-1.206-.218a1.37 1.37 0 0 1-.333.516 1.38 1.38 0 0 1-.515.313c-.2.07-.42.105-.66.105a1.92 1.92 0 0 1-.977-.241c-.282-.164-.508-.408-.65-.701-.154-.307-.232-.68-.232-1.117l.003.09h4.65v-.452c0-.594-.079-1.098-.238-1.515-.138-.383-.361-.731-.652-1.016a2.6 2.6 0 0 0-.933-.575c-.345-.122-.708-.184-1.074-.184-.608 0-1.139.144-1.592.43a2.89 2.89 0 0 0-1.056 1.198c-.252.512-.378 1.103-.378 1.773 0 .679.126 1.27.378 1.775s.609.895 1.073 1.172 1.02.415 1.664.415zm-1.836-4.05c.023-.253.092-.492.206-.716.144-.28.348-.507.614-.682s.578-.262.935-.262c.33 0 .618.075.863.226s.437.356.574.616.204.557.204.892l-3.4.001.004-.074zm8.422 4.05c.528 0 .994-.086 1.396-.26s.715-.412.941-.718.34-.654.34-1.046c0-.463-.149-.84-.444-1.13s-.744-.503-1.347-.643l-1.04-.238c-.36-.085-.622-.195-.784-.328a.65.65 0 0 1-.242-.529c0-.253.12-.46.362-.62s.542-.24.903-.24c.264 0 .485.042.66.127a1.15 1.15 0 0 1 .42.328c.104.134.18.275.228.422l1.155-.204a2.15 2.15 0 0 0-.805-1.225c-.406-.306-.963-.459-1.67-.459a3.29 3.29 0 0 0-1.309.245c-.38.164-.679.39-.895.68a1.65 1.65 0 0 0-.324 1.014c0 .466.146.851.437 1.155s.742.526 1.353.665l1.108.243c.313.07.545.176.697.315a.67.67 0 0 1 .228.516c0 .253-.125.466-.375.641s-.584.262-1.002.262c-.383 0-.694-.081-.933-.245s-.396-.405-.473-.726l-1.231.187c.105.58.389 1.026.852 1.34s1.061.471 1.794.471zm10.178-.132c.886 0 1.642-.175 2.267-.526a3.5 3.5 0 0 0 1.434-1.507c.33-.653.496-1.434.496-2.343s-.164-1.684-.492-2.333c-.31-.63-.802-1.151-1.413-1.496s-1.348-.522-2.203-.522h-2.914v8.727h2.825zm-.073-1.15h-1.436v-6.427h1.517c.637 0 1.17.124 1.598.371a2.33 2.33 0 0 1 .97 1.087c.217.477.326 1.058.326 1.743s-.11 1.275-.328 1.753a2.35 2.35 0 0 1-.989 1.095c-.44.252-.993.378-1.658.378zm8.561 1.282c.614 0 1.15-.14 1.607-.422s.829-.693 1.065-1.18c.253-.506.38-1.097.38-1.773s-.127-1.272-.38-1.781a2.84 2.84 0 0 0-1.065-1.185c-.457-.28-.993-.422-1.607-.422s-1.149.141-1.606.422a2.84 2.84 0 0 0-1.065 1.185c-.253.509-.38 1.102-.38 1.781s.127 1.267.38 1.773a2.83 2.83 0 0 0 1.065 1.18c.457.282.993.422 1.606.422zm.005-1.07c-.4 0-.733-.104-.995-.315-.27-.22-.472-.511-.584-.84-.13-.371-.194-.761-.19-1.154 0-.418.063-.802.19-1.153s.32-.633.584-.846.594-.32.995-.32.727.107.988.32.456.495.582.846a3.39 3.39 0 0 1 .19 1.153c0 .42-.064.805-.19 1.155s-.32.63-.582.84-.59.315-.988.315zm5.74.938v-8.727h-1.274v8.727h1.274zm2.986 0v-8.727h-1.274v8.727h1.274zm3.617.145c.361 0 .67-.053.93-.158a1.97 1.97 0 0 0 .634-.396c.165-.159.288-.321.37-.486h.052v.895h1.244v-4.346c0-.478-.082-.866-.247-1.166a1.85 1.85 0 0 0-.633-.692 2.49 2.49 0 0 0-.826-.335c-.274-.059-.553-.09-.833-.092-.395 0-.772.057-1.13.169-.351.108-.675.292-.948.537a2.31 2.31 0 0 0-.624.965l1.197.273c.094-.23.264-.44.51-.629s.583-.283 1.012-.283c.412 0 .722.102.93.307s.314.492.314.865v.03c0 .153-.056.264-.166.332s-.289.117-.533.147l-.955.113a8.05 8.05 0 0 0-.911.162c-.284.065-.557.171-.81.315a1.57 1.57 0 0 0-.575.567c-.142.238-.213.542-.213.912 0 .429.097.79.291 1.086a1.87 1.87 0 0 0 .795.676c.335.155.71.232 1.125.232zm.277-1.023c-.36 0-.657-.08-.89-.24s-.35-.399-.35-.714c0-.228.06-.41.181-.548s.283-.243.486-.317.428-.127.675-.158l.392-.053.482-.073a3.66 3.66 0 0 0 .441-.098c.096-.021.185-.064.262-.125v.843c0 .259-.066.501-.198.727-.138.231-.337.421-.575.547-.252.14-.554.21-.906.21zm5.924.878v-3.997a1.43 1.43 0 0 1 .761-1.285c.234-.126.502-.19.803-.19a2.87 2.87 0 0 1 .392.028l.273.05v-1.22c-.538-.157-1.118-.055-1.57.275a1.59 1.59 0 0 0-.633.833h-.068v-1.04h-1.232v6.546h1.274zm4.136 1.815a8.76 8.76 0 0 0 1.231-2.484c.281-.898.422-1.882.422-2.953s-.14-2.051-.422-2.949a8.79 8.79 0 0 0-1.231-2.484h-1.168c.278.375.531.86.758 1.453s.408 1.237.542 1.93.2 1.377.2 2.05a10.58 10.58 0 0 1-.115 1.543 12.17 12.17 0 0 1-.32 1.515 9.84 9.84 0 0 1-.477 1.344 5.36 5.36 0 0 1-.588 1.035h1.168z" class="B C"/><text font-family="InterV_Medium, Inter V" font-size="12" fill="#ef3e36"><tspan x="94" y="86">*</tspan></text><path d="M39.602 86.12c.48 0 .924-.072 1.33-.214a3.53 3.53 0 0 0 1.084-.603c.317-.26.577-.57.78-.929a3.57 3.57 0 0 0 .411-1.182l-1.33-.004a2.042 2.042 0 0 1-.805 1.282 2.2 2.2 0 0 1-.675.335c-.249.075-.51.113-.786.113a2.47 2.47 0 0 1-1.343-.375c-.397-.25-.71-.62-.94-1.108s-.342-1.088-.342-1.799c0-.704.114-1.3.343-1.79s.541-.859.937-1.112.846-.379 1.35-.379c.277 0 .541.038.79.115s.473.19.675.341a2.033 2.033 0 0 1 .797 1.3h1.33a3.608 3.608 0 0 0-.427-1.25 3.225 3.225 0 0 0-.797-.93 3.482 3.482 0 0 0-1.084-.58 4.132 4.132 0 0 0-1.298-.198c-.753 0-1.424.18-2.015.54s-1.057.873-1.398 1.542-.511 1.47-.511 2.401.17 1.73.509 2.4.804 1.185 1.395 1.544 1.265.54 2.02.54zm7.228-.035c.492 0 .903-.116 1.234-.347a2.03 2.03 0 0 0 .722-.872h.069V86h1.252v-6.545H48.83v3.83c.003.373-.075.68-.232.921a1.576 1.576 0 0 1-1.306.72c-.395 0-.716-.132-.963-.396s-.371-.62-.371-1.066v-4.01h-1.274v4.164c0 .54.091.993.275 1.36s.436.642.758.828.694.28 1.114.28zM53.092 86v-3.997a1.429 1.429 0 0 1 .76-1.285c.235-.126.503-.19.804-.19a2.88 2.88 0 0 1 .392.028l.273.05v-1.22a1.804 1.804 0 0 0-1.57.275 1.59 1.59 0 0 0-.633.833h-.069v-1.04h-1.231V86h1.274zm4.613 0v-3.997a1.429 1.429 0 0 1 .76-1.285 1.67 1.67 0 0 1 .803-.19c.131 0 .262.01.393.028l.272.05v-1.22a1.804 1.804 0 0 0-1.57.275 1.59 1.59 0 0 0-.633.833h-.068v-1.04H56.43V86h1.275zm6.159.132a3.48 3.48 0 0 0 1.276-.22 2.5 2.5 0 0 0 .933-.617 2.16 2.16 0 0 0 .518-.931l-1.206-.218a1.37 1.37 0 0 1-.332.516c-.145.14-.317.244-.516.313s-.419.105-.66.105a1.92 1.92 0 0 1-.976-.241 1.637 1.637 0 0 1-.65-.701c-.155-.307-.232-.68-.232-1.117l.002.09h4.651v-.452c0-.594-.08-1.099-.238-1.515a2.705 2.705 0 0 0-.652-1.016 2.601 2.601 0 0 0-.934-.575 3.207 3.207 0 0 0-1.074-.184c-.607 0-1.138.144-1.591.43a2.892 2.892 0 0 0-1.057 1.198c-.251.512-.377 1.102-.377 1.773 0 .679.126 1.27.377 1.775a2.77 2.77 0 0 0 1.074 1.172c.464.277 1.02.415 1.664.415zm-1.837-4.05c.023-.254.092-.492.207-.716.143-.28.348-.507.614-.682s.577-.262.935-.262c.33 0 .617.075.863.226a1.55 1.55 0 0 1 .573.615 1.9 1.9 0 0 1 .205.893l-3.4.001.003-.075zM69.367 86v-3.886c0-.347.066-.643.198-.889s.313-.432.541-.56.491-.192.787-.192c.431 0 .771.134 1.018.403s.37.64.37 1.114V86h1.275v-4.163c0-.54-.092-.993-.277-1.36a1.894 1.894 0 0 0-.78-.829c-.335-.186-.726-.279-1.172-.279-.491 0-.898.105-1.22.316s-.56.488-.71.835h-.081v-1.065h-1.223V86h1.274zm8.652.132c.517 0 .968-.095 1.353-.285s.693-.452.923-.784.368-.71.413-1.134h-1.24a1.473 1.473 0 0 1-.283.605 1.343 1.343 0 0 1-.499.386c-.197.09-.417.134-.658.134a1.57 1.57 0 0 1-.94-.286 1.829 1.829 0 0 1-.616-.805c-.144-.347-.217-.758-.217-1.236 0-.466.074-.87.222-1.212s.354-.607.62-.793a1.58 1.58 0 0 1 .93-.279c.407 0 .732.111.975.333s.398.485.466.792h1.24a2.329 2.329 0 0 0-.428-1.155 2.419 2.419 0 0 0-.944-.769 3.086 3.086 0 0 0-1.33-.275c-.616 0-1.151.144-1.606.43a2.875 2.875 0 0 0-1.057 1.196c-.25.51-.375 1.097-.375 1.762 0 .656.122 1.239.367 1.747a2.83 2.83 0 0 0 1.05 1.196c.456.288 1 .432 1.634.432zm4.863 2.305c.353 0 .662-.06.93-.178a1.89 1.89 0 0 0 .69-.529 2.91 2.91 0 0 0 .477-.856l2.706-7.407-1.376-.012-1.658 5.08h-.068l-1.658-5.08h-1.364l2.395 6.63-.157.435c-.162.423-.362.675-.6.756s-.53.073-.88-.023l-.306 1.044c.077.034.193.066.35.096a2.77 2.77 0 0 0 .52.044z" fill="#8497b9" class="B"/><rect fill="#009bd2" width="140" height="36" rx="4" x="355" y="300"/><path d="M421.812 321.976c.764 0 1.448-.177 2.052-.532s1.081-.867 1.432-1.536.526-1.474.526-2.414-.175-1.746-.526-2.415-.828-1.18-1.432-1.536-1.288-.532-2.052-.532-1.448.177-2.052.532-1.08.867-1.431 1.536-.527 1.474-.527 2.415.176 1.74.527 2.41.828 1.181 1.431 1.538 1.288.534 2.052.534zm0-1.419a2.27 2.27 0 0 1-1.257-.351c-.364-.235-.648-.58-.854-1.036s-.31-1.015-.31-1.676.104-1.221.31-1.677.49-.801.854-1.036a2.27 2.27 0 0 1 1.257-.351c.475 0 .894.117 1.257.351s.649.58.855 1.036.309 1.015.309 1.677-.103 1.22-.31 1.676-.49.801-.854 1.036a2.27 2.27 0 0 1-1.257.351zm7.093 1.3v-2.6l.967-1.141 2.604 3.741h1.9l-3.404-4.81 3.375-3.917h-1.93l-3.406 4.01h-.106v-4.01h-1.581v8.727h1.58z" fill="#fff" class="B"/><g transform="translate(49 104)"><mask id="C" fill="#fff"><use xlink:href="#B"/></mask><use fill="#000" filter="url(#A)" xlink:href="#B"/><use fill="#fff" xlink:href="#B"/><g mask="url(#C)"><path d="M25 14.77V16H0v-1.23h25zm0-2.463v1.23H0v-1.23h25zm0-2.461v1.23H0v-1.23h25zm0-2.461v1.23H0v-1.23h25zm0-2.462v1.23H0v-1.23h25zm0-2.462v1.23H0v-1.23h25zM25 0v1.23H0V0h25z" fill="#cc2229"/><path fill="#1e71b8" d="M10.152 8.625V0H0v8.625z"/><path d="m.793 1.407.089-.275-.234-.17h.29l.088-.276.09.275h.289l-.234.17.09.276-.235-.17-.233.17zm1.624 0 .089-.275-.234-.17h.29L2.65.685l.09.275h.289l-.234.17.09.276-.235-.17-.233.17zm1.623 0 .09-.275-.234-.17h.29l.088-.276.09.275h.289l-.234.17.09.276-.235-.17-.234.17zm1.624 0 .09-.275-.234-.17h.29l.088-.276.09.275h.288l-.233.17.09.276-.235-.17-.234.17zm1.624 0 .09-.275-.234-.17h.29l.088-.276.09.275H7.9l-.233.17.09.276-.235-.17-.234.17zm1.624 0 .09-.275-.234-.17h.29l.088-.276.09.275h.288l-.233.17.09.276-.235-.17-.234.17zM1.61 2.21l.089-.275-.234-.17h.29l.089-.275.089.275h.289l-.234.17.09.275-.234-.17-.234.17zm1.624 0 .089-.275-.234-.17h.29l.089-.275.089.275h.289l-.234.17.09.275-.234-.17-.234.17zm1.624 0 .089-.275-.234-.17h.29l.089-.275.089.275h.289l-.234.17.09.275-.234-.17-.234.17zm1.624 0 .089-.275-.234-.17h.29l.089-.275.089.275h.289l-.234.17.09.275-.234-.17-.234.17zm1.624 0 .089-.275-.234-.17h.29l.089-.275.089.275h.289l-.234.17.09.275-.234-.17-.234.17zm-7.313.811.089-.275-.234-.17h.29l.088-.275.09.275h.289l-.234.17.09.275-.235-.17-.233.17zm1.624 0 .089-.275-.234-.17h.29L2.65 2.3l.09.275h.289l-.234.17.09.275-.235-.17-.233.17zm1.623 0 .09-.275-.234-.17h.29l.088-.275.09.275h.289l-.234.17.09.275-.235-.17-.234.17zm1.624 0 .09-.275-.234-.17h.29l.088-.275.09.275h.288l-.233.17.09.275-.235-.17-.234.17zm1.624 0 .09-.275-.234-.17h.29l.088-.275.09.275H7.9l-.233.17.09.275-.235-.17-.234.17zm1.624 0 .09-.275-.234-.17h.29l.088-.275.09.275h.288l-.233.17.09.275-.235-.17-.234.17zm-7.302.804.089-.275-.234-.17h.29l.089-.276.089.275h.289l-.234.17.09.276-.234-.17-.234.17zm1.624 0 .089-.275-.234-.17h.29l.089-.276.089.275h.289l-.234.17.09.276-.234-.17-.234.17zm1.624 0 .089-.275-.234-.17h.29l.089-.276.089.275h.289l-.234.17.09.276-.234-.17-.234.17zm1.624 0 .089-.275-.234-.17h.29l.089-.276.089.275h.289l-.234.17.09.276-.234-.17-.234.17zm1.624 0 .089-.275-.234-.17h.29l.089-.276.089.275h.289l-.234.17.09.276-.234-.17-.234.17zm-7.313.81.089-.275-.234-.17h.29l.088-.275.09.275h.289l-.234.17.09.275-.235-.17-.233.17zm1.624 0 .089-.275-.234-.17h.29l.088-.275.09.275h.289l-.234.17.09.275-.235-.17-.233.17zm1.623 0 .09-.275-.234-.17h.29l.088-.275.09.275h.289l-.234.17.09.275-.235-.17-.234.17zm1.624 0 .09-.275-.234-.17h.29l.088-.275.09.275h.288l-.233.17.09.275-.235-.17-.234.17zm1.624 0 .09-.275-.234-.17h.29l.088-.275.09.275H7.9l-.233.17.09.275-.235-.17-.234.17zm1.624 0 .09-.275-.234-.17h.29l.088-.275.09.275h.288l-.233.17.09.275-.235-.17-.234.17zM1.61 5.44l.089-.275-.234-.17h.29l.089-.275.089.274h.289l-.234.171.09.275-.234-.17-.234.17zm1.624 0 .089-.275-.234-.17h.29l.089-.275.089.274h.289l-.234.171.09.275-.234-.17-.234.17zm1.624 0 .089-.275-.234-.17h.29l.089-.275.089.274h.289l-.234.171.09.275-.234-.17-.234.17zm1.624 0 .089-.275-.234-.17h.29l.089-.275.089.274h.289l-.234.171.09.275-.234-.17-.234.17zm1.624 0 .089-.275-.234-.17h.29l.089-.275.089.274h.289l-.234.171.09.275-.234-.17-.234.17zm-7.313.81.089-.274-.234-.17h.29l.088-.276.09.275h.289l-.234.17.09.276-.235-.17-.233.17zm1.624 0 .089-.274-.234-.17h.29l.088-.276.09.275h.289l-.234.17.09.276-.235-.17-.233.17zm1.623 0 .09-.274-.234-.17h.29l.088-.276.09.275h.289l-.234.17.09.276-.235-.17-.234.17zm1.624 0 .09-.274-.234-.17h.29l.088-.276.09.275h.288l-.233.17.09.276-.235-.17-.234.17zm1.624 0 .09-.274-.234-.17h.29l.088-.276.09.275H7.9l-.233.17.09.276-.235-.17-.234.17zm1.624 0 .09-.274-.234-.17h.29l.088-.276.09.275h.288l-.233.17.09.276-.235-.17-.234.17zm-7.302.804.089-.275-.234-.17h.29l.089-.275.089.275h.289l-.234.17.09.275-.234-.17-.234.17zm1.624 0 .089-.275-.234-.17h.29l.089-.275.089.275h.289l-.234.17.09.275-.234-.17-.234.17zm1.624 0 .089-.275-.234-.17h.29l.089-.275.089.275h.289l-.234.17.09.275-.234-.17-.234.17zm1.624 0 .089-.275-.234-.17h.29l.089-.275.089.275h.289l-.234.17.09.275-.234-.17-.234.17zm1.624 0 .089-.275-.234-.17h.29l.089-.275.089.275h.289l-.234.17.09.275-.234-.17-.234.17zm-7.313.811.089-.275-.234-.17h.29l.088-.275.09.275h.289l-.234.17.09.275-.235-.17-.233.17zm1.624 0 .089-.275-.234-.17h.29l.088-.275.09.275h.289l-.234.17.09.275-.235-.17-.233.17zm1.623 0 .09-.275-.234-.17h.29l.088-.275.09.275h.289l-.234.17.09.275-.235-.17-.234.17zm1.624 0 .09-.275-.234-.17h.29l.088-.275.09.275h.288l-.233.17.09.275-.235-.17-.234.17zm1.624 0 .09-.275-.234-.17h.29l.088-.275.09.275H7.9l-.233.17.09.275-.235-.17-.234.17zm1.624 0 .09-.275-.234-.17h.29l.088-.275.09.275h.288l-.233.17.09.275-.235-.17-.234.17z" fill="#fff"/></g></g></g></svg>