<svg width="484" height="535" viewBox="0 0 484 535" fill="none" xmlns="http://www.w3.org/2000/svg">
<g filter="url(#filter0_d_1116_3521)">
<rect x="7" y="7" width="460" height="511" rx="20" fill="white"/>
</g>
<mask id="mask0_1116_3521" style="mask-type:alpha" maskUnits="userSpaceOnUse" x="7" y="7" width="460" height="511">
<rect x="7" y="7" width="460" height="511" rx="20" fill="#EEF5F8"/>
</mask>
<g mask="url(#mask0_1116_3521)">
<path d="M301.652 267.88C303.407 267.504 305.179 267.226 306.951 267.03" stroke="#81B6C9" stroke-width="3" stroke-linecap="round" stroke-linejoin="round"/>
<path d="M317.111 266.904C339.005 268.641 359.994 283.126 367.96 303.797C376.535 326.053 369.097 353.134 351.366 368.801" stroke="#81B6C9" stroke-width="3" stroke-linecap="round" stroke-linejoin="round"/>
<path d="M347.391 371.988C345.95 373.035 344.446 374.02 342.889 374.915" stroke="#81B6C9" stroke-width="3" stroke-linecap="round" stroke-linejoin="round"/>
<path d="M303 473.053C358.781 417.261 358.781 326.806 303 271.015C247.219 215.223 156.781 215.223 101 271.015C45.2192 326.806 45.2192 417.261 101 473.053C156.781 528.844 247.219 528.844 303 473.053Z" fill="#C9E3EE"/>
<path d="M151.914 502.075C154.223 493.033 162.073 486.05 170.961 483.212C179.849 480.374 189.588 481.252 198.503 483.982C207.418 486.713 215.679 491.216 223.869 495.683C227.718 497.787 231.575 499.891 235.424 501.994C237.456 503.105 239.747 504.6 239.864 506.909C239.953 508.655 238.656 510.24 237.089 511.018C235.523 511.797 233.724 511.932 231.969 512.039C206.361 513.624 180.547 511.958 155.36 507.088" fill="#81B6C9"/>
<path d="M109.488 263.189C113.945 260.091 125.232 273.207 125.617 278.614C126.458 290.592 136.465 299.509 144.879 308.085C153.292 316.662 161.214 328.73 156.837 339.911C152.317 351.469 137.172 355.256 130.826 365.918C125.957 374.1 127.326 384.476 129.797 393.67C132.267 402.864 135.731 412.166 134.567 421.62C133.395 431.065 125.474 440.581 116.031 439.39C109.174 438.522 104.162 432.56 100.662 426.588C93.1346 413.724 89.2858 398.746 89.6796 383.85C89.9481 373.787 91.8009 362.614 85.7682 354.557C82.6891 350.448 77.9721 347.861 74.6961 343.922C71.4112 339.983 65.8081 328.846 69.2899 318.148C69.2899 318.148 86.699 279.071 109.488 263.198V263.189Z" fill="#81B6C9"/>
<path d="M286.965 259.85C267.479 260.843 247.994 261.837 228.499 262.84C223.2 263.108 217.051 263.86 214.294 268.399C210.884 274.012 215.064 281.022 218.975 286.295C222.887 291.568 226.745 298.918 222.86 304.209C220.032 308.067 214.554 308.56 210.392 310.923C203.876 314.629 201.172 323.788 204.627 330.448C208.082 337.1 217.123 340.162 223.907 336.966C228.23 334.925 231.972 330.69 236.734 331.138C242.041 331.63 245.013 338.174 243.742 343.358C242.471 348.532 238.372 352.471 234.389 356.008C230.397 359.544 226.154 363.214 224.391 368.245C221.875 375.407 225.08 383.321 229.251 389.669C233.413 396.016 238.667 401.871 240.905 409.122C243.751 418.361 241.603 429.516 247.85 436.893C255.772 446.239 272.161 442.049 279.429 432.193C286.688 422.327 287.618 409.364 289.077 397.206C290.536 385.049 293.383 371.889 302.915 364.19C307.131 363.322 310.711 367.44 312.296 371.441C313.88 375.443 314.721 380.063 318.006 382.838C322.705 386.813 330.439 384.754 334.359 380.009C338.28 375.264 345.002 360.376 343.757 354.342C334.672 310.27 323.582 285.722 292.783 263.073" fill="#81B6C9"/>
<path d="M198.685 228.883C174.133 231.22 150.879 240.504 132.342 256.922C117.251 270.288 105.66 287.593 97.8905 306.134C86.1293 334.217 84.2675 365.667 88.9219 395.532C93.3525 423.938 103.816 451.986 122.228 474.34C139.646 495.486 164.726 510.947 192.168 514.197C195.453 514.582 198.756 514.778 202.059 514.805C203.5 514.814 203.5 512.576 202.059 512.567C174.867 512.379 149.008 499.309 130.283 480.016C110.529 459.65 98.7229 432.703 92.9587 405.192C86.8811 376.213 86.9706 345.363 96.2167 317.056C102.661 297.324 113.706 278.596 128.332 263.816C144.658 247.316 165.63 236.538 188.463 232.509C191.846 231.909 195.256 231.462 198.685 231.139C200.108 231.005 200.117 228.767 198.685 228.901V228.883Z" fill="#D9EAF1"/>
<path d="M198.12 229.036C189.67 233.897 182.187 240.351 175.465 247.361C168.108 255.042 161.556 263.529 155.854 272.508C150.484 280.977 145.794 289.957 142.41 299.41C138.382 310.664 136.1 322.597 134.65 334.441C133.128 346.912 132.69 359.49 132.815 372.05C132.94 384.61 133.469 396.92 134.596 409.292C135.724 421.664 137.496 433.634 140.477 445.514C143.189 456.319 146.662 467.277 152.471 476.856C162.648 493.624 179.046 505.441 196.759 513.265C198.925 514.223 201.109 515.128 203.32 515.978C204.663 516.497 205.244 514.34 203.911 513.821C186.135 506.909 169.092 496.417 157.752 480.759C151.531 472.165 147.673 462.389 144.657 452.282C141.193 440.67 139 428.701 137.604 416.669C136.216 404.718 135.563 392.694 135.223 380.671C134.883 368.648 134.954 356.052 135.948 343.796C136.941 331.541 138.857 319.473 142.16 307.682C144.845 298.121 148.81 289.07 153.706 280.431C158.898 271.282 164.984 262.616 171.858 254.648C178.303 247.173 185.481 240.172 193.608 234.532C195.434 233.261 197.314 232.07 199.247 230.96C200.491 230.244 199.373 228.31 198.12 229.027V229.036Z" fill="#D9EAF1"/>
<path d="M204.732 513.668C202.942 495.638 201.528 477.572 200.409 459.488C199.29 441.405 198.44 422.211 197.894 403.554C197.339 384.816 197.062 366.061 197.026 347.315C196.99 328.694 197.187 310.064 197.617 291.443C198.028 273.162 198.655 254.881 199.496 236.609C199.595 234.407 199.702 232.196 199.809 229.993C199.881 228.552 197.643 228.561 197.572 229.993C196.695 248.095 196.023 266.215 195.549 284.335C195.075 302.454 194.806 321.684 194.788 340.359C194.77 359.105 194.985 377.86 195.468 396.598C195.952 415.21 196.695 433.813 197.76 452.398C198.798 470.643 200.141 488.879 201.859 507.079C202.065 509.282 202.28 511.475 202.495 513.677C202.638 515.101 204.876 515.11 204.732 513.677V513.668Z" fill="#D9EAF1"/>
<path d="M204.401 515.692C223.09 501.019 239.533 483.364 252.207 463.222C264.881 443.079 273.367 421.208 276.652 398.012C278.307 386.329 278.451 374.557 277.833 362.784C277.233 351.299 275.864 339.848 273.564 328.577C269.375 308.103 262.026 288.005 250.319 270.593C239.363 254.299 224.585 240.727 206.943 231.999C204.724 230.898 202.459 229.886 200.177 228.928C198.852 228.373 198.27 230.54 199.586 231.086C217.568 238.606 233.106 251.023 244.769 266.609C257.005 282.974 264.989 302.168 269.795 321.944C272.454 332.848 274.163 343.975 275.094 355.157C276.061 366.75 276.401 378.487 275.354 390.08C273.277 413.07 265.759 435.353 254.329 455.361C242.898 475.37 227.333 493.543 209.575 508.619C207.364 510.499 205.108 512.334 202.826 514.125C201.698 515.011 203.291 516.587 204.41 515.71L204.401 515.692Z" fill="#D9EAF1"/>
<path d="M199.881 231.121C210.872 231.104 221.747 234.058 231.924 238.033C243.507 242.554 254.489 248.677 264.648 255.839C274.216 262.589 283.212 270.387 290.65 279.464C298.75 289.339 304.255 301.174 308.175 313.26C317.046 340.609 317.332 370.385 312.526 398.54C310.091 412.784 306.233 426.857 300.496 440.142C295.107 452.64 288.126 464.869 278.969 475.012C270.305 484.618 259.788 492.505 248.528 498.825C237.268 505.146 225.122 509.953 212.474 512.469C209.539 513.051 206.585 513.498 203.613 513.794C202.19 513.937 202.181 516.175 203.613 516.032C216.395 514.769 228.818 510.884 240.436 505.486C252.055 500.088 263.843 492.523 273.662 483.535C294.481 464.466 306.475 436.892 312.579 409.767C318.979 381.352 320.107 350.923 313.116 322.517C309.858 309.258 304.81 295.847 297.139 284.469C290.641 274.836 282.156 266.591 273.089 259.402C263.144 251.524 252.278 244.765 240.768 239.42C230.224 234.532 219.008 230.674 207.417 229.34C204.911 229.053 202.396 228.901 199.872 228.901C198.431 228.901 198.431 231.139 199.872 231.139L199.881 231.121Z" fill="#D9EAF1"/>
<path d="M76.2449 307.852H329.326C330.767 307.852 330.767 305.614 329.326 305.614H76.2449C74.8038 305.614 74.8038 307.852 76.2449 307.852Z" fill="#D9EAF1"/>
<path d="M105.075 474.206H302.975C304.416 474.206 304.416 471.968 302.975 471.968H105.075C103.634 471.968 103.634 474.206 105.075 474.206Z" fill="#D9EAF1"/>
<path d="M63.698 388.281H343.059C344.5 388.281 344.5 386.043 343.059 386.043H63.698C62.2569 386.043 62.2569 388.281 63.698 388.281Z" fill="#D9EAF1"/>
<path d="M134.362 303.654C131.453 301.908 127.569 301.935 124.678 303.708C124.006 299.008 120.006 294.979 115.306 294.272C110.607 293.564 105.604 296.25 103.581 300.547C100.43 298.059 95.9997 297.289 92.1867 298.56C88.3737 299.831 85.2946 303.108 84.2653 306.984C81.8218 304.325 77.8655 303.152 74.3658 304.066C70.8661 304.979 67.9839 307.924 67.1426 311.433L138.892 312.212C139.088 308.819 137.271 305.391 134.362 303.645V303.654Z" fill="white"/>
<path d="M249.048 361.227C245.683 359.212 241.208 359.239 237.86 361.289C237.081 355.855 232.463 351.209 227.039 350.394C221.614 349.58 215.832 352.677 213.505 357.646C209.862 354.772 204.751 353.877 200.348 355.345C195.944 356.813 192.39 360.591 191.2 365.076C188.38 362.006 183.807 360.654 179.77 361.71C175.733 362.758 172.394 366.16 171.428 370.224L254.267 371.119C254.499 367.207 252.396 363.241 249.039 361.227H249.048Z" fill="white"/>
<path d="M57.6184 364.808C56.3653 363.519 55.1927 362.167 54.0918 360.761" stroke="#81B6C9" stroke-width="3" stroke-linecap="round" stroke-linejoin="round"/>
<path d="M48.4163 351.657C40.0832 334.665 40.5576 313.224 49.0608 296C59.9628 273.905 82.1158 258.695 105.907 252.303C129.698 245.911 155.019 247.558 179.124 252.652C215.598 260.36 250.38 275.955 280.446 298.005" stroke="#81B6C9" stroke-width="3" stroke-linecap="round" stroke-linejoin="round"/>
<path d="M284.76 301.228C286.183 302.32 287.588 303.421 288.993 304.54" stroke="#81B6C9" stroke-width="3" stroke-linecap="round" stroke-linejoin="round"/>
<g clip-path="url(#clip0_1116_3521)">
<path d="M291.171 425.422L99.2383 386.532L80.5066 478.973L272.44 517.863L291.171 425.422Z" fill="#A2CEAC"/>
<path d="M291.151 425.424L285.336 424.248L105.042 387.709L99.2178 386.532L98.0414 392.346L81.6673 473.155L80.4899 478.978L86.3043 480.155L266.609 516.694L272.404 517.868L272.414 517.869L291.15 425.433L291.14 425.432L291.151 425.424ZM267.786 510.871L87.4828 474.322L103.865 393.523L284.159 430.071L267.785 510.88L267.786 510.871Z" fill="#89B282"/>
<path d="M212.485 458.763C215.993 441.45 206.802 424.975 191.957 421.967C177.111 418.959 162.232 430.556 158.724 447.87C155.215 465.184 164.406 481.658 179.252 484.666C194.097 487.674 208.976 476.077 212.485 458.763Z" fill="#89B282"/>
<path d="M141.27 442.234C140.461 446.211 136.587 448.782 132.609 447.973C128.631 447.165 126.061 443.291 126.869 439.313C127.677 435.335 131.552 432.765 135.53 433.573C139.508 434.382 142.078 438.256 141.27 442.234Z" fill="#89B282"/>
<path d="M245.154 463.292C244.346 467.27 240.471 469.84 236.494 469.032C232.516 468.223 229.945 464.349 230.754 460.371C231.562 456.394 235.437 453.824 239.414 454.632C243.392 455.44 245.963 459.315 245.154 463.292Z" fill="#89B282"/>
<path d="M100.353 476.938L87.4915 474.332L90.0958 461.481C97.1994 462.916 101.798 469.835 100.353 476.938V476.938Z" fill="#89B282"/>
<path d="M270.389 498.019L267.784 510.88L254.932 508.276C256.367 501.173 263.287 496.574 270.389 498.019Z" fill="#89B282"/>
<path d="M271.308 427.457L284.169 430.062L281.565 442.914C274.462 441.479 269.863 434.559 271.308 427.457V427.457Z" fill="#89B282"/>
<path d="M101.26 406.375L103.865 393.514L116.718 396.118C115.282 403.221 108.363 407.819 101.26 406.375Z" fill="#89B282"/>
<path d="M190.708 429.724C191.413 429.87 191.883 430.577 191.747 431.283L191.305 433.443C195.134 434.557 197.683 436.428 200.163 439.173C200.574 439.646 200.778 440.029 200.67 440.567C200.518 441.328 199.745 441.791 198.995 441.63C198.67 441.565 198.408 441.45 198.101 441.055C195.876 438.415 193.506 436.801 190.706 435.898L187.636 451.03C195.505 454.43 198.332 458.21 197.262 463.504C196.104 469.235 190.465 472.318 183.662 471.163L182.807 475.382C182.661 476.086 181.954 476.557 181.25 476.411C180.545 476.265 180.075 475.558 180.211 474.853L181.081 470.578C176.45 469.251 172.967 466.744 169.98 462.87C169.664 462.474 169.517 462.097 169.618 461.615C169.764 460.911 170.543 460.391 171.248 460.537C171.729 460.639 172.011 460.917 172.141 461.112C174.601 464.538 177.552 466.881 181.684 468.171L184.803 452.769C177.06 449.346 174.304 445.688 175.406 440.283C176.514 434.822 182.109 431.63 188.74 432.803L189.16 430.754C189.306 430.05 190.013 429.58 190.718 429.725L190.708 429.724ZM185.359 450.025L188.348 435.272C183.078 434.318 178.991 436.751 178.201 440.645C177.456 444.317 178.725 446.945 185.359 450.025ZM187.068 453.802L184.041 468.721C189.468 469.711 193.621 467.286 194.453 463.179C195.205 459.451 193.778 456.796 187.068 453.802V453.802Z" fill="#A2CEAC"/>
<path d="M433.83 343.338L248.291 280.686L218.111 370.049L403.65 432.701L433.83 343.338Z" fill="#A2CEAC"/>
<path d="M433.812 343.339L428.195 341.442L253.91 282.579L248.284 280.679L246.387 286.295L220.013 364.409L218.112 370.034L223.729 371.932L398.022 430.797L403.63 432.692L403.639 432.695L433.833 343.336L433.824 343.333L433.812 343.339ZM399.917 425.19L225.627 366.315L252.019 288.208L426.3 347.079L399.926 425.192L399.917 425.19Z" fill="#89B282"/>
<path d="M351.564 366.557C357.217 349.82 350.165 332.323 335.814 327.477C321.463 322.631 305.247 332.271 299.594 349.008C293.942 365.745 300.993 383.242 315.344 388.088C329.695 392.934 345.912 383.294 351.564 366.557Z" fill="#89B282"/>
<path d="M283.007 341.226C281.708 345.075 277.539 347.139 273.689 345.84C269.84 344.541 267.777 340.371 269.076 336.522C270.375 332.673 274.544 330.61 278.394 331.909C282.243 333.208 284.306 337.377 283.007 341.226Z" fill="#89B282"/>
<path d="M383.431 375.138C382.132 378.987 377.963 381.05 374.113 379.751C370.264 378.452 368.201 374.283 369.5 370.434C370.799 366.585 374.968 364.521 378.817 365.82C382.667 367.119 384.73 371.289 383.431 375.138Z" fill="#89B282"/>
<path d="M238.058 370.515L225.628 366.314L229.826 353.893C236.693 356.214 240.378 363.648 238.067 370.518L238.058 370.515Z" fill="#89B282"/>
<path d="M404.11 412.757L399.909 425.187L387.488 420.989C389.808 414.122 397.243 410.437 404.113 412.748L404.11 412.757Z" fill="#89B282"/>
<path d="M413.864 342.868L426.294 347.069L422.096 359.489C415.229 357.169 411.543 349.735 413.855 342.865L413.864 342.868Z" fill="#89B282"/>
<path d="M247.811 300.626L252.011 288.196L264.433 292.394C262.112 299.26 254.678 302.946 247.808 300.635L247.811 300.626Z" fill="#89B282"/>
<path d="M333.618 335.008C334.297 335.236 334.674 336.002 334.446 336.68L333.743 338.771C337.401 340.355 339.692 342.528 341.812 345.567C342.157 346.094 342.316 346.492 342.137 347.018C341.891 347.751 341.072 348.111 340.339 347.865C340.025 347.764 339.785 347.618 339.519 347.185C337.65 344.287 335.488 342.392 332.831 341.141L327.892 355.769C335.272 360.125 337.603 364.232 335.876 369.349C334.004 374.885 328.028 377.238 321.424 375.24L320.052 379.314C319.824 379.992 319.059 380.37 318.38 380.141C317.701 379.913 317.324 379.148 317.552 378.469L318.95 374.345C314.522 372.444 311.383 369.522 308.899 365.306C308.641 364.877 308.539 364.487 308.692 364.012C308.921 363.333 309.757 362.919 310.436 363.148C310.911 363.301 311.144 363.623 311.257 363.828C313.262 367.533 315.909 370.227 319.835 372.026L324.869 357.132C317.614 352.756 315.345 348.797 317.109 343.564C318.888 338.285 324.851 335.819 331.28 337.81L331.948 335.827C332.177 335.148 332.942 334.77 333.621 334.999L333.618 335.008ZM325.763 354.479L330.583 340.219C325.476 338.614 321.111 340.515 319.841 344.275C318.637 347.828 319.571 350.584 325.763 354.479ZM326.981 358.445L322.109 372.867C327.366 374.53 331.794 372.649 333.133 368.674C334.354 365.067 333.258 362.259 326.981 358.445V358.445Z" fill="#A2CEAC"/>
<path d="M384.78 318.58L182.482 319.409L182.883 416.838L385.181 416.009L384.78 318.58Z" fill="#009BD2"/>
<path opacity="0.1" d="M384.78 318.58L182.482 319.409L182.883 416.838L385.181 416.009L384.78 318.58Z" fill="black"/>
<path opacity="0.1" d="M384.782 318.546L378.651 318.576L188.612 319.379L182.473 319.409L182.494 325.538L182.862 410.707L182.892 416.847L189.021 416.826L379.069 416.024L385.18 416.001L385.189 416.002L384.789 318.565L384.78 318.564L384.782 318.546ZM379.049 409.885L189.002 410.678L188.652 325.51L378.689 324.726L379.057 409.896L379.049 409.885Z" fill="black"/>
<path opacity="0.1" d="M283.971 401.931C299.618 401.867 312.241 387.022 312.166 368.773C312.091 350.525 299.346 335.783 283.699 335.847C268.052 335.912 255.428 350.757 255.503 369.005C255.578 387.254 268.324 401.995 283.971 401.931Z" fill="black"/>
<path opacity="0.1" d="M236.684 366.939C236.705 371.133 233.314 374.545 229.12 374.566C224.925 374.587 221.513 371.196 221.492 367.002C221.471 362.808 224.862 359.396 229.057 359.375C233.251 359.354 236.663 362.745 236.684 366.939Z" fill="black"/>
<path opacity="0.1" d="M346.178 366.484C346.199 370.678 342.808 374.09 338.614 374.111C334.419 374.132 331.007 370.741 330.986 366.547C330.966 362.353 334.356 358.941 338.551 358.92C342.745 358.899 346.157 362.29 346.178 366.484Z" fill="black"/>
<path opacity="0.1" d="M202.564 410.612L189.004 410.669L188.945 397.128C196.431 397.099 202.525 403.124 202.564 410.612V410.612Z" fill="black"/>
<path opacity="0.1" d="M378.983 396.325L379.04 409.884L365.499 409.943C365.469 402.457 371.495 396.364 378.982 396.335L378.983 396.325Z" fill="black"/>
<path opacity="0.1" d="M365.123 324.754L378.683 324.697L378.742 338.237C371.255 338.267 365.162 332.241 365.123 324.754V324.754Z" fill="black"/>
<path opacity="0.1" d="M188.701 339.05L188.644 325.491L202.185 325.431C202.215 332.918 196.189 339.011 188.702 339.04L188.701 339.05Z" fill="black"/>
<path d="M284.072 343.927C284.812 343.925 285.444 344.547 285.446 345.287L285.455 347.564C289.563 347.884 292.531 349.243 295.615 351.506C296.129 351.905 296.414 352.24 296.416 352.81C296.421 353.607 295.743 354.242 294.947 354.238C294.605 354.237 294.317 354.186 293.919 353.847C291.114 351.634 288.376 350.51 285.359 350.18L285.422 366.13C294.089 367.921 297.747 371.15 297.773 376.729C297.795 382.764 292.749 387.061 285.625 387.321L285.647 391.762C285.649 392.502 285.028 393.134 284.288 393.136C283.548 393.138 282.916 392.516 282.914 391.777L282.899 387.279C277.943 386.902 273.887 385.098 270.057 381.803C269.658 381.464 269.422 381.124 269.422 380.612C269.42 379.872 270.105 379.181 270.845 379.179C271.357 379.18 271.701 379.408 271.873 379.57C275.079 382.52 278.562 384.268 283.007 384.712L282.939 368.477C274.383 366.632 270.836 363.51 270.813 357.817C270.787 352.067 275.79 347.651 282.735 347.457L282.723 345.293C282.721 344.553 283.342 343.921 284.082 343.919L284.072 343.927ZM282.904 365.581L282.835 350.029C277.309 350.165 273.672 353.483 273.693 357.592C273.713 361.463 275.54 363.85 282.903 365.59L282.904 365.581ZM285.425 369.051L285.495 384.774C291.192 384.638 294.885 381.317 294.86 376.989C294.847 373.062 292.84 370.673 285.425 369.051Z" fill="#009BD2"/>
<path d="M423.286 472.88L349.09 464.525L344.851 502.174L419.047 510.529L423.286 472.88Z" fill="#009BD2"/>
<path d="M412.453 492.669C414.027 488.263 411.731 483.415 407.324 481.841C402.917 480.267 398.068 482.563 396.494 486.97C394.92 491.376 397.217 496.225 401.624 497.799C406.031 499.372 410.879 497.076 412.453 492.669Z" fill="#EBEBEB"/>
<path d="M403.949 494.432C406.494 494.718 408.79 492.888 409.076 490.343C409.363 487.798 407.532 485.503 404.987 485.216C402.442 484.93 400.147 486.76 399.86 489.305C399.574 491.85 401.404 494.145 403.949 494.432Z" fill="#DBDBDB"/>
<path d="M385.92 401.327L161.346 376.039L142.466 543.705L367.04 568.993L385.92 401.327Z" fill="#009BD2"/>
<path opacity="0.1" d="M385.92 401.327L161.346 376.039L142.466 543.705L367.04 568.993L385.92 401.327Z" fill="black"/>
<path d="M354.833 336.711L365.836 440.472C366.453 446.28 362.245 451.477 356.457 452.087L191.869 469.536C186.08 470.155 180.872 465.946 180.265 460.139L169.261 356.378C168.693 350.984 172.596 346.141 177.999 345.574L344.027 327.974C349.421 327.405 354.264 331.317 354.833 336.711V336.711Z" fill="#455A64"/>
<path d="M216.606 359.498L189.642 362.358C187.467 362.588 185.892 364.538 186.123 366.711L187.842 382.915C188.072 385.089 190.022 386.665 192.196 386.434L219.16 383.574C221.334 383.343 222.91 381.394 222.679 379.22L220.96 363.016C220.729 360.842 218.78 359.267 216.606 359.498Z" fill="#009BD2"/>
<path d="M335.624 360.231L319.862 361.899C316.215 362.285 312.946 359.641 312.56 355.993C312.174 352.346 314.818 349.078 318.466 348.692L334.228 347.024C337.875 346.638 341.144 349.282 341.53 352.93C341.916 356.577 339.271 359.845 335.624 360.231Z" fill="white"/>
<path d="M189.302 408.938L187.967 409.926C187.967 409.926 187.855 409.999 187.798 410.002C187.673 410.016 187.547 409.955 187.472 409.861C187.35 409.686 187.392 409.472 187.556 409.368L189.382 407.98C189.536 407.874 189.769 407.91 189.875 408.064C189.923 408.145 189.951 408.234 189.941 408.318L190.926 417.6C190.942 417.791 190.819 417.958 190.617 417.982C190.425 417.999 190.252 417.856 190.234 417.674L189.312 408.939L189.302 408.938Z" fill="#F8F8F8"/>
<path d="M193.378 417.06L197.65 412.306C198.161 411.728 198.385 411.004 198.314 410.285C198.251 409.661 197.948 409.068 197.448 408.622C196.88 408.113 196.145 407.897 195.434 407.978C194.8 408.049 194.199 408.333 193.745 408.831L193.299 409.331C193.168 409.487 192.939 409.499 192.811 409.371C192.655 409.24 192.643 409.011 192.771 408.883L193.208 408.373C193.782 407.745 194.564 407.368 195.351 407.286C196.234 407.196 197.164 407.443 197.894 408.113C198.55 408.69 198.91 409.451 198.994 410.229C199.092 411.122 198.825 412.059 198.173 412.801L194.517 416.885L199.297 416.38C199.488 416.364 199.662 416.506 199.677 416.707C199.694 416.899 199.56 417.073 199.369 417.09L193.734 417.688L193.678 417.682C193.57 417.708 193.468 417.687 193.409 417.623C193.264 417.484 193.241 417.263 193.372 417.107L193.378 417.06Z" fill="#F8F8F8"/>
<path d="M207.067 406.661L204.741 409.624C205.389 409.688 206.025 409.93 206.574 410.362C207.304 410.956 207.731 411.801 207.83 412.684C207.921 413.567 207.685 414.479 207.08 415.217C206.485 415.957 205.639 416.392 204.766 416.484C203.902 416.576 202.98 416.34 202.252 415.727C202.094 415.614 202.073 415.384 202.196 415.218C202.308 415.059 202.538 415.038 202.705 415.161C203.297 415.626 203.998 415.809 204.689 415.735C205.38 415.661 206.043 415.328 206.525 414.757C207 414.165 207.185 413.446 207.12 412.756C207.046 412.065 206.713 411.402 206.121 410.936C205.54 410.454 204.821 410.268 204.129 410.342C204.014 410.358 203.906 410.308 203.829 410.233L203.819 410.232C203.662 410.11 203.632 409.878 203.764 409.713L206.001 406.864L202.132 407.272C201.93 407.297 201.757 407.154 201.732 406.952C201.707 406.75 201.85 406.577 202.052 406.552L206.775 406.05C206.977 406.025 207.151 406.168 207.175 406.37C207.179 406.427 207.172 406.484 207.156 406.539C207.151 406.586 207.127 406.63 207.095 406.665L207.067 406.661Z" fill="#F8F8F8"/>
<path d="M216.334 413.149L210.863 413.728L210.853 413.726L210.825 413.723C210.758 413.735 210.664 413.724 210.604 413.67C210.434 413.575 210.394 413.343 210.507 413.185L215.579 405.287L215.581 405.268C215.705 405.092 215.908 405.058 216.075 405.172C216.138 405.207 216.177 405.278 216.209 405.329C216.206 405.357 216.224 405.369 216.231 405.389L216.226 405.435L216.972 412.367L217.654 412.292C217.856 412.267 218.03 412.41 218.055 412.603C218.072 412.794 217.929 412.968 217.728 412.983L217.046 413.058L217.23 414.795C217.246 414.987 217.104 415.161 216.903 415.176C216.711 415.192 216.537 415.049 216.52 414.867L216.336 413.13L216.334 413.149ZM216.26 412.457L215.637 406.536L211.489 412.963L216.27 412.459L216.26 412.457Z" fill="#F8F8F8"/>
<path d="M229.11 412.89C228.954 412.758 228.923 412.527 229.054 412.381C229.185 412.225 229.416 412.194 229.572 412.325C230.165 412.79 230.865 412.973 231.566 412.901C232.257 412.827 232.911 412.493 233.385 411.901C233.86 411.31 234.053 410.601 233.979 409.91C233.908 409.2 233.575 408.537 233.001 408.074C232.427 407.611 231.708 407.425 231.007 407.498C230.297 407.57 229.653 407.905 229.169 408.496C229.037 408.652 228.806 408.682 228.66 408.552C228.615 408.528 228.582 408.486 228.558 408.446C228.558 408.446 228.543 408.406 228.546 408.388C228.53 408.357 228.525 408.319 228.521 408.271C228.522 408.262 228.526 408.224 228.529 408.196L228.585 404.077C228.57 403.961 228.618 403.872 228.701 403.805C228.755 403.745 228.835 403.707 228.922 403.697L233.626 403.193C233.828 403.169 234.002 403.312 234.026 403.513C234.049 403.734 233.908 403.889 233.706 403.914L229.3 404.385L229.261 407.425C229.748 407.062 230.322 406.843 230.927 406.778C231.81 406.688 232.705 406.912 233.443 407.516C234.191 408.113 234.6 408.946 234.699 409.839C234.791 410.703 234.572 411.636 233.958 412.373C233.365 413.094 232.509 413.538 231.635 413.629C230.753 413.72 229.84 413.484 229.101 412.889L229.11 412.89Z" fill="#F8F8F8"/>
<path d="M237.998 404.966C238.562 403.664 239.637 402.628 241.304 402.398C241.488 402.362 241.662 402.505 241.698 402.689C241.722 402.891 241.58 403.065 241.395 403.101C239.987 403.312 239.165 404.121 238.65 405.248C238.37 405.88 238.211 406.612 238.139 407.343C238.669 406.587 239.517 406.048 240.516 405.942C242.378 405.744 244.029 407.087 244.221 408.92C244.42 410.773 243.087 412.415 241.225 412.613C239.42 412.808 237.799 411.535 237.545 409.752C237.493 409.537 237.469 409.326 237.449 409.087C237.325 407.745 237.438 406.24 238.008 404.967L237.998 404.966ZM238.243 409.612C238.254 409.689 238.277 409.739 238.289 409.798C238.284 409.844 238.299 409.875 238.277 409.901C238.59 411.169 239.8 412.045 241.135 411.901C242.603 411.744 243.662 410.431 243.511 408.991C243.36 407.552 242.047 406.494 240.578 406.651C239.139 406.802 238.08 408.114 238.231 409.554L238.225 409.61L238.243 409.612Z" fill="#F8F8F8"/>
<path d="M248.193 411.378L250.991 402.114L246.115 402.627C245.923 402.643 245.75 402.5 245.732 402.318C245.716 402.127 245.859 401.953 246.041 401.936L251.378 401.37C251.447 401.35 251.524 401.339 251.598 401.357C251.688 401.396 251.775 401.472 251.813 401.552C251.828 401.592 251.852 401.623 251.858 401.661C251.868 401.738 251.852 401.793 251.817 401.856L248.892 411.57C248.848 411.707 248.723 411.807 248.598 411.822C248.541 411.825 248.512 411.831 248.449 411.805C248.266 411.746 248.155 411.544 248.195 411.359L248.193 411.378Z" fill="#F8F8F8"/>
<path d="M257.163 400.703C258.315 400.577 259.368 401.416 259.494 402.578C259.565 403.288 259.284 403.93 258.808 404.369C260.057 404.737 261.024 405.833 261.166 407.186C261.36 409 260.058 410.618 258.235 410.811C256.43 411.006 254.803 409.703 254.61 407.88C254.468 406.527 255.181 405.251 256.312 404.638C255.762 404.301 255.37 403.736 255.289 403.025C255.163 401.872 255.991 400.837 257.162 400.713L257.163 400.703ZM258.161 410.12C259.6 409.969 260.626 408.69 260.474 407.26C260.32 405.848 259.064 404.796 257.615 404.946C256.184 405.098 255.157 406.386 255.301 407.806C255.453 409.236 256.73 410.271 258.161 410.12ZM257.534 404.226C258.313 404.133 258.876 403.429 258.793 402.651C258.71 401.873 258.013 401.321 257.226 401.403C256.449 401.486 255.888 402.172 255.971 402.95C256.054 403.727 256.739 404.298 257.524 404.234L257.534 404.226Z" fill="#F8F8F8"/>
<path d="M275.123 398.799C276.86 398.616 278.392 399.755 278.758 401.39C278.773 401.42 278.772 401.43 278.797 401.461C278.843 401.731 278.886 402.021 278.918 402.328C279.061 403.672 278.928 405.184 278.377 406.459C277.807 407.732 276.729 408.796 275.072 409.027L275.062 409.026C274.86 409.05 274.684 408.926 274.668 408.735C274.643 408.533 274.777 408.358 274.971 408.323C276.369 408.12 277.211 407.295 277.726 406.177C278.007 405.535 278.182 404.815 278.237 404.082C277.706 404.837 276.852 405.348 275.843 405.462C274.01 405.654 272.356 404.339 272.157 402.477C271.966 400.644 273.307 399.003 275.142 398.801L275.123 398.799ZM278.119 401.84C277.968 400.4 276.673 399.353 275.204 399.51C273.764 399.661 272.699 400.954 272.858 402.404C273.015 403.873 274.322 404.902 275.762 404.751C277.23 404.594 278.285 403.319 278.129 401.841L278.119 401.84Z" fill="#F8F8F8"/>
<path d="M281.567 403.224C281.426 401.871 281.637 400.586 282.157 399.582C282.683 398.617 283.493 397.911 284.521 397.8C285.548 397.688 286.493 398.221 287.206 399.05C287.914 399.927 288.423 401.132 288.565 402.485C288.706 403.838 288.467 405.12 287.957 406.115C287.43 407.09 286.619 407.804 285.591 407.916C284.564 408.028 283.619 407.495 282.898 406.655C282.179 405.796 281.697 404.595 281.557 403.232L281.567 403.224ZM282.277 403.152C282.413 404.391 282.86 405.475 283.461 406.197C284.064 406.91 284.8 407.277 285.529 407.207C286.249 407.127 286.886 406.611 287.339 405.789C287.774 404.956 288.008 403.807 287.872 402.568C287.737 401.329 287.279 400.254 286.668 399.53C286.049 398.797 285.329 398.45 284.61 398.521C283.89 398.601 283.238 399.087 282.8 399.939C282.365 400.772 282.15 401.924 282.285 403.162L282.277 403.152Z" fill="#F8F8F8"/>
<path d="M292.812 397.955L291.477 398.943C291.477 398.943 291.365 399.016 291.307 399.019C291.182 399.033 291.057 398.972 290.982 398.878C290.859 398.703 290.902 398.49 291.066 398.385L292.891 396.997C293.046 396.891 293.279 396.927 293.385 397.081C293.432 397.162 293.46 397.251 293.451 397.335L294.435 406.617C294.452 406.809 294.329 406.975 294.127 407C293.935 407.016 293.761 406.882 293.744 406.691L292.821 397.957L292.812 397.955Z" fill="#F8F8F8"/>
<path d="M296.884 406.087L301.158 401.323C301.669 400.745 301.892 400.021 301.822 399.302C301.759 398.679 301.456 398.085 300.956 397.64C300.387 397.13 299.653 396.914 298.942 396.996C298.308 397.067 297.707 397.35 297.252 397.849L296.807 398.349C296.676 398.504 296.447 398.517 296.319 398.388C296.163 398.257 296.151 398.028 296.279 397.9L296.716 397.39C297.289 396.762 298.072 396.386 298.859 396.303C299.741 396.213 300.672 396.46 301.402 397.13C302.058 397.707 302.418 398.468 302.501 399.246C302.6 400.139 302.333 401.076 301.681 401.818L298.024 405.902L302.805 405.397C302.996 405.381 303.17 405.524 303.185 405.724C303.201 405.916 303.059 406.09 302.876 406.107L297.242 406.705L297.185 406.699C297.078 406.725 296.976 406.704 296.917 406.64C296.772 406.491 296.749 406.28 296.88 406.124L296.884 406.087Z" fill="#F8F8F8"/>
<path d="M319.235 394.766L316.91 397.729C317.557 397.792 318.194 398.035 318.743 398.466C319.472 399.061 319.899 399.905 319.999 400.789C320.089 401.672 319.853 402.584 319.249 403.322C318.653 404.061 317.807 404.497 316.934 404.589C316.07 404.681 315.148 404.444 314.421 403.831C314.263 403.719 314.241 403.489 314.364 403.322C314.477 403.164 314.707 403.143 314.873 403.266C315.466 403.731 316.166 403.914 316.866 403.841C317.558 403.767 318.221 403.434 318.703 402.862C319.177 402.271 319.363 401.552 319.298 400.862C319.224 400.171 318.891 399.507 318.298 399.042C317.727 398.561 316.998 398.374 316.307 398.448C316.192 398.464 316.083 398.414 316.007 398.338L315.997 398.337C315.84 398.215 315.809 397.984 315.942 397.819L318.178 394.97L314.31 395.378C314.108 395.403 313.935 395.26 313.91 395.058C313.885 394.856 314.028 394.683 314.23 394.658L318.953 394.156C319.155 394.131 319.329 394.274 319.353 394.476C319.356 394.533 319.35 394.589 319.334 394.645C319.329 394.691 319.305 394.736 319.273 394.77L319.235 394.766Z" fill="#F8F8F8"/>
<path d="M328.501 401.253L323.03 401.832L323.011 401.83L322.982 401.836C322.914 401.848 322.82 401.837 322.76 401.783C322.591 401.688 322.55 401.456 322.663 401.298L327.735 393.4L327.737 393.381C327.86 393.215 328.064 393.171 328.232 393.285C328.294 393.32 328.334 393.391 328.366 393.442C328.363 393.47 328.38 393.482 328.388 393.502L328.382 393.549L329.129 400.48L329.811 400.405C330.013 400.38 330.186 400.523 330.212 400.716C330.228 400.907 330.085 401.081 329.885 401.096L329.203 401.171L329.386 402.909C329.403 403.1 329.269 403.275 329.059 403.289C328.868 403.305 328.693 403.172 328.677 402.98L328.492 401.252L328.501 401.253ZM328.427 400.562L327.804 394.64L323.656 401.068L328.437 400.563L328.427 400.562Z" fill="#F8F8F8"/>
<path d="M332.619 401.916C332.463 401.785 332.432 401.554 332.562 401.407C332.694 401.251 332.925 401.22 333.081 401.352C333.673 401.817 334.373 402 335.074 401.927C335.765 401.853 336.419 401.519 336.894 400.928C337.368 400.336 337.562 399.628 337.488 398.936C337.416 398.227 337.083 397.563 336.509 397.1C335.935 396.637 335.216 396.452 334.516 396.525C333.806 396.597 333.161 396.932 332.677 397.522C332.546 397.678 332.315 397.709 332.168 397.579C332.123 397.555 332.09 397.513 332.066 397.472L332.068 397.454C332.068 397.454 332.053 397.423 332.045 397.413C332.029 397.383 332.024 397.344 332.02 397.296C332.022 397.278 332.025 397.25 332.028 397.222L332.084 393.102C332.069 392.987 332.117 392.897 332.2 392.831C332.254 392.771 332.335 392.732 332.421 392.723L337.124 392.228C337.326 392.204 337.5 392.346 337.524 392.548C337.547 392.769 337.406 392.924 337.204 392.949L332.799 393.41L332.76 396.45C333.247 396.088 333.821 395.868 334.426 395.803C335.309 395.713 336.204 395.937 336.942 396.542C337.69 397.138 338.099 397.972 338.198 398.865C338.29 399.729 338.071 400.662 337.457 401.399C336.864 402.119 336.008 402.563 335.134 402.655C334.252 402.745 333.339 402.51 332.6 401.914L332.619 401.916Z" fill="#F8F8F8"/>
<path d="M341.516 393.994C342.08 392.691 343.155 391.655 344.821 391.426C345.005 391.39 345.179 391.532 345.215 391.717C345.24 391.919 345.097 392.092 344.913 392.128C343.504 392.34 342.683 393.148 342.167 394.276C341.887 394.908 341.729 395.639 341.656 396.371C342.187 395.615 343.035 395.075 344.033 394.969C345.896 394.771 347.547 396.114 347.738 397.947C347.939 399.791 346.605 401.443 344.743 401.641C342.938 401.836 341.317 400.563 341.063 398.77C341.012 398.556 340.988 398.344 340.967 398.114C340.843 396.773 340.955 395.268 341.525 393.995L341.516 393.994ZM341.761 398.64C341.771 398.717 341.794 398.767 341.807 398.825C341.801 398.872 341.817 398.902 341.795 398.928C342.107 400.196 343.318 401.072 344.652 400.929C346.121 400.772 347.179 399.459 347.028 398.019C346.878 396.58 345.565 395.521 344.096 395.678C342.656 395.829 341.598 397.142 341.749 398.582L341.742 398.638L341.761 398.64Z" fill="#F8F8F8"/>
<path d="M281.516 425.854L193.387 435.202L193.846 439.532L281.975 430.184L281.516 425.854Z" fill="#A6A6A6"/>
<path d="M256.799 438.206L194.406 444.823L194.866 449.153L257.258 442.535L256.799 438.206Z" fill="#A6A6A6"/>
<path d="M305.809 350.033L261.861 354.694L262.321 359.024L306.268 354.363L305.809 350.033Z" fill="#A6A6A6"/>
<path d="M369.333 420.362L173.287 398.286L166.826 455.667L362.872 477.743L369.333 420.362Z" fill="#009BD2"/>
<path opacity="0.3" d="M369.333 420.362L173.287 398.286L166.826 455.667L362.872 477.743L369.333 420.362Z" fill="black"/>
<path d="M364.061 418.317L352.657 522.04C352.023 527.839 346.8 532.021 341.01 531.388L176.497 513.3C170.707 512.667 166.524 507.444 167.158 501.645L178.562 397.923C179.16 392.527 184.009 388.635 189.405 389.233L355.36 407.484C360.756 408.082 364.649 412.93 364.051 418.326L364.061 418.317Z" fill="#DBDBDB"/>
<path d="M327.518 504.471C326.927 509.801 322.131 513.652 316.8 513.061C311.47 512.471 307.619 507.674 308.209 502.344C308.8 497.014 313.597 493.163 318.927 493.754C324.257 494.345 328.108 499.141 327.518 504.471Z" fill="#A6A6A6"/>
<path d="M339.416 505.782C338.826 511.112 334.029 514.963 328.699 514.373C323.369 513.782 319.517 508.985 320.108 503.656C320.699 498.326 325.495 494.475 330.825 495.065C336.156 495.656 340.007 500.452 339.416 505.782Z" fill="#009BD2"/>
<path d="M224.154 411.056L197.2 408.093C195.027 407.854 193.072 409.422 192.833 411.595L191.052 427.792C190.813 429.965 192.381 431.92 194.554 432.159L221.508 435.123C223.681 435.362 225.636 433.794 225.875 431.621L227.656 415.424C227.895 413.251 226.327 411.295 224.154 411.056Z" fill="#009BD2"/>
<path d="M340.272 437.196L324.515 435.459C320.871 435.049 318.243 431.775 318.644 428.131C319.054 424.488 322.328 421.86 325.973 422.26L341.73 423.997C345.374 424.398 348.002 427.681 347.601 431.325C347.191 434.968 343.917 437.597 340.272 437.196Z" fill="white"/>
<path d="M186.927 453.53L185.408 454.213C185.408 454.213 185.29 454.256 185.224 454.249C185.093 454.234 184.989 454.146 184.943 454.047C184.861 453.848 184.941 453.648 185.128 453.584L187.21 452.614C187.379 452.547 187.607 452.63 187.673 452.799C187.71 452.888 187.71 452.973 187.69 453.066L186.674 462.341C186.653 462.528 186.495 462.671 186.289 462.648C186.102 462.627 185.96 462.45 185.981 462.263L186.945 453.532L186.927 453.53Z" fill="#F8F8F8"/>
<path d="M189.168 462.337L194.35 458.596C194.971 458.135 195.349 457.476 195.43 456.754C195.5 456.136 195.335 455.492 194.942 454.945C194.499 454.326 193.82 453.956 193.117 453.886C192.48 453.814 191.837 453.96 191.281 454.353L190.743 454.747C190.587 454.872 190.354 454.836 190.257 454.683C190.133 454.527 190.168 454.294 190.322 454.197L190.86 453.793C191.56 453.303 192.399 453.103 193.195 453.193C194.075 453.292 194.927 453.729 195.499 454.543C196.018 455.246 196.21 456.065 196.122 456.842C196.022 457.732 195.565 458.591 194.769 459.174L190.329 462.383L195.106 462.92C195.294 462.932 195.437 463.1 195.413 463.306C195.392 463.493 195.215 463.635 195.028 463.614L189.397 462.998L189.341 462.992C189.238 462.98 189.138 462.941 189.09 462.86C188.977 462.686 189.001 462.47 189.157 462.346L189.168 462.337Z" fill="#F8F8F8"/>
<path d="M204.771 455.103L201.864 457.498C202.486 457.701 203.061 458.069 203.494 458.611C204.084 459.35 204.322 460.269 204.223 461.149C204.123 462.029 203.696 462.873 202.947 463.462C202.207 464.052 201.288 464.299 200.407 464.21C199.545 464.112 198.701 463.686 198.112 462.936C197.987 462.789 198.003 462.564 198.169 462.431C198.317 462.296 198.542 462.321 198.675 462.488C199.151 463.063 199.805 463.402 200.498 463.48C201.191 463.558 201.914 463.374 202.507 462.91C203.101 462.436 203.432 461.771 203.51 461.078C203.588 460.385 203.404 459.663 202.928 459.088C202.463 458.495 201.799 458.164 201.106 458.086C200.993 458.073 200.897 458.005 200.831 457.913L200.812 457.91C200.678 457.753 200.705 457.519 200.87 457.395L203.662 455.092L199.794 454.657C199.587 454.643 199.446 454.466 199.468 454.269C199.491 454.063 199.668 453.922 199.865 453.944L204.585 454.475C204.792 454.489 204.934 454.666 204.911 454.863C204.905 454.919 204.88 454.973 204.847 455.017C204.823 455.062 204.79 455.096 204.759 455.121L204.771 455.103Z" fill="#F8F8F8"/>
<path d="M212.436 463.421L206.964 462.824L206.917 462.818C206.842 462.81 206.76 462.782 206.71 462.719C206.563 462.589 206.571 462.353 206.718 462.227L213.364 455.597L213.385 455.58C213.534 455.436 213.733 455.439 213.877 455.588C213.928 455.641 213.949 455.71 213.971 455.769C213.967 455.797 213.984 455.818 213.983 455.828L213.978 455.874L213.217 462.797L213.891 462.873C214.097 462.897 214.239 463.074 214.218 463.261C214.197 463.448 214.019 463.59 213.823 463.567L213.148 463.492L212.953 465.224C212.932 465.411 212.755 465.553 212.558 465.531C212.371 465.509 212.23 465.332 212.251 465.145L212.446 463.412L212.436 463.421ZM212.514 462.728L213.16 456.816L207.735 462.209L212.511 462.746L212.514 462.728Z" fill="#F8F8F8"/>
<path d="M224.971 465.894C224.837 465.737 224.863 465.503 225.028 465.389C225.184 465.264 225.42 465.281 225.543 465.447C226.019 466.022 226.673 466.361 227.366 466.439C228.059 466.517 228.763 466.331 229.357 465.857C229.951 465.384 230.281 464.728 230.359 464.035C230.438 463.333 230.254 462.61 229.789 462.027C229.322 461.453 228.658 461.112 227.965 461.034C227.263 460.955 226.55 461.141 225.956 461.614C225.799 461.739 225.565 461.713 225.45 461.557C225.406 461.524 225.384 461.474 225.378 461.435L225.38 461.417C225.38 461.417 225.365 461.386 225.367 461.368C225.351 461.338 225.357 461.291 225.361 461.253C225.363 461.235 225.376 461.207 225.379 461.179L226.315 457.159C226.328 457.047 226.395 456.96 226.485 456.913C226.548 456.863 226.635 456.844 226.729 456.855L231.43 457.384C231.638 457.398 231.779 457.575 231.757 457.772C231.732 457.987 231.556 458.119 231.36 458.097L226.958 457.602L226.262 460.577C226.812 460.326 227.42 460.233 228.029 460.302C228.909 460.401 229.736 460.807 230.334 461.567C230.942 462.309 231.164 463.206 231.063 464.105C230.966 464.967 230.555 465.831 229.797 466.419C229.058 467 228.129 467.246 227.258 467.148C226.378 467.049 225.534 466.622 224.944 465.882L224.971 465.894Z" fill="#F8F8F8"/>
<path d="M235.35 460.055C236.181 458.906 237.444 458.128 239.128 458.251C239.318 458.254 239.459 458.431 239.457 458.62C239.433 458.826 239.256 458.968 239.068 458.956C237.647 458.853 236.675 459.483 235.92 460.46C235.507 461.011 235.202 461.698 234.981 462.403C235.668 461.778 236.608 461.429 237.601 461.541C239.465 461.751 240.786 463.408 240.579 465.243C240.372 467.088 238.724 468.411 236.869 468.211C235.061 468.008 233.751 466.418 233.887 464.622C233.883 464.404 233.907 464.188 233.933 463.954C234.094 462.616 234.531 461.176 235.359 460.056L235.35 460.055ZM234.595 464.645C234.587 464.72 234.599 464.778 234.602 464.836C234.597 464.883 234.594 464.911 234.572 464.937C234.606 466.24 235.608 467.358 236.929 467.507C238.399 467.672 239.713 466.616 239.876 465.173C240.038 463.731 238.982 462.417 237.511 462.252C236.069 462.089 234.755 463.146 234.592 464.588L234.586 464.644L234.595 464.645Z" fill="#F8F8F8"/>
<path d="M243.942 468.486L248.65 460.035L243.77 459.485C243.582 459.474 243.439 459.306 243.461 459.118C243.482 458.931 243.659 458.79 243.846 458.811L249.185 459.412C249.263 459.392 249.328 459.4 249.4 459.436C249.479 459.493 249.545 459.585 249.563 459.673C249.577 459.722 249.583 459.751 249.579 459.788C249.57 459.863 249.545 459.917 249.501 459.969L244.567 468.831C244.496 468.956 244.356 469.026 244.225 469.011C244.168 469.005 244.14 469.001 244.087 468.967C243.918 468.872 243.858 468.647 243.933 468.485L243.942 468.486Z" fill="#F8F8F8"/>
<path d="M254.974 459.978C256.126 460.108 256.976 461.152 256.846 462.304C256.767 463.007 256.352 463.576 255.792 463.912C256.936 464.534 257.646 465.809 257.493 467.167C257.289 468.983 255.673 470.281 253.855 470.086C252.047 469.882 250.74 468.265 250.935 466.447C251.088 465.089 252.055 464.003 253.291 463.639C252.828 463.199 252.559 462.552 252.639 461.849C252.768 460.697 253.793 459.855 254.963 459.987L254.974 459.978ZM253.943 469.384C255.385 469.547 256.649 468.513 256.81 467.09C256.969 465.675 255.957 464.385 254.515 464.223C253.091 464.063 251.807 465.104 251.648 466.518C251.487 467.951 252.519 469.224 253.943 469.384ZM254.587 463.501C255.366 463.57 256.075 463.005 256.162 462.227C256.25 461.45 255.682 460.76 254.905 460.673C254.128 460.585 253.439 461.143 253.351 461.92C253.264 462.698 253.82 463.405 254.596 463.502L254.587 463.501Z" fill="#F8F8F8"/>
<path d="M272.932 461.953C274.664 462.148 275.926 463.58 275.926 465.259C275.942 465.289 275.94 465.308 275.946 465.337C275.934 465.611 275.911 465.902 275.877 466.202C275.726 467.541 275.278 468.999 274.468 470.121C273.64 471.242 272.355 472.046 270.69 471.925L270.671 471.923C270.465 471.899 270.321 471.741 270.342 471.554C270.366 471.348 270.523 471.214 270.731 471.218C272.134 471.31 273.142 470.693 273.879 469.714C274.294 469.144 274.615 468.478 274.818 467.771C274.131 468.395 273.194 468.717 272.183 468.603C270.347 468.396 269.013 466.766 269.214 464.902C269.42 463.066 271.077 461.745 272.913 461.951L272.932 461.953ZM275.21 465.558C275.372 464.116 274.323 462.821 272.852 462.656C271.41 462.493 270.097 463.541 269.936 464.973C269.77 466.444 270.83 467.73 272.272 467.892C273.743 468.058 275.044 467.028 275.2 465.557L275.21 465.558Z" fill="#F8F8F8"/>
<path d="M278.286 467.649C278.439 466.291 278.915 465.093 279.64 464.217C280.359 463.387 281.309 462.868 282.33 462.983C283.351 463.098 284.171 463.816 284.689 464.776C285.193 465.781 285.428 467.059 285.284 468.418C285.132 469.776 284.627 470.971 283.914 471.83C283.193 472.669 282.242 473.197 281.221 473.082C280.201 472.967 279.38 472.249 278.865 471.271C278.35 470.283 278.134 468.998 278.287 467.64L278.286 467.649ZM278.988 467.728C278.849 468.964 279.061 470.117 279.498 470.953C279.936 471.78 280.579 472.298 281.301 472.38C282.022 472.461 282.747 472.087 283.367 471.379C283.97 470.66 284.442 469.585 284.581 468.348C284.72 467.112 284.49 465.958 284.062 465.122C283.618 464.266 282.981 463.777 282.259 463.696C281.538 463.615 280.798 463.958 280.193 464.696C279.59 465.415 279.137 466.493 278.997 467.739L278.988 467.728Z" fill="#F8F8F8"/>
<path d="M290.394 464.906L288.875 465.588C288.875 465.588 288.756 465.632 288.691 465.625C288.56 465.61 288.456 465.522 288.41 465.422C288.328 465.223 288.407 465.024 288.595 464.959L290.677 463.989C290.846 463.923 291.073 464.006 291.14 464.174C291.177 464.264 291.177 464.349 291.157 464.442L290.141 473.717C290.12 473.904 289.962 474.047 289.756 474.024C289.568 474.003 289.427 473.826 289.448 473.638L290.412 464.908L290.394 464.906Z" fill="#F8F8F8"/>
<path d="M292.636 473.713L297.818 469.972C298.439 469.511 298.817 468.851 298.898 468.13C298.968 467.512 298.803 466.868 298.409 466.321C297.967 465.702 297.288 465.331 296.584 465.262C295.947 465.19 295.304 465.345 294.749 465.728L294.211 466.123C294.055 466.248 293.822 466.212 293.725 466.059C293.6 465.902 293.636 465.669 293.789 465.573L294.328 465.169C295.028 464.679 295.866 464.479 296.663 464.559C297.544 464.658 298.396 465.096 298.968 465.909C299.486 466.613 299.679 467.431 299.591 468.208C299.491 469.098 299.034 469.957 298.238 470.541L293.798 473.749L298.575 474.287C298.763 474.299 298.904 474.476 298.882 474.672C298.861 474.86 298.684 475.001 298.497 474.98L292.866 474.365L292.809 474.358C292.706 474.347 292.607 474.307 292.559 474.226C292.446 474.052 292.47 473.837 292.626 473.712L292.636 473.713Z" fill="#F8F8F8"/>
<path d="M316.884 467.434L313.977 469.828C314.6 470.031 315.175 470.399 315.607 470.941C316.197 471.681 316.435 472.599 316.336 473.48C316.237 474.36 315.81 475.203 315.061 475.792C314.321 476.382 313.401 476.63 312.529 476.541C311.668 476.444 310.815 476.016 310.226 475.267C310.1 475.12 310.116 474.894 310.283 474.761C310.43 474.635 310.655 474.651 310.788 474.818C311.264 475.393 311.918 475.732 312.611 475.811C313.305 475.889 314.027 475.704 314.62 475.24C315.214 474.766 315.545 474.102 315.623 473.409C315.701 472.716 315.517 471.993 315.041 471.418C314.577 470.825 313.912 470.494 313.219 470.416C313.106 470.403 313.01 470.336 312.944 470.243L312.926 470.241C312.792 470.083 312.818 469.849 312.984 469.726L315.775 467.423L311.907 466.987C311.7 466.973 311.559 466.796 311.581 466.599C311.604 466.393 311.781 466.252 311.978 466.274L316.698 466.806C316.906 466.82 317.047 466.997 317.025 467.193C317.018 467.25 316.993 467.304 316.96 467.347C316.936 467.392 316.904 467.426 316.872 467.451L316.884 467.434Z" fill="#F8F8F8"/>
<path d="M324.55 475.751L319.08 475.135L319.06 475.143L319.032 475.139C318.957 475.131 318.874 475.112 318.825 475.04C318.679 474.91 318.686 474.674 318.833 474.548L325.479 467.918L325.5 467.901C325.649 467.757 325.848 467.76 325.992 467.909C326.043 467.962 326.064 468.031 326.086 468.09C326.083 468.118 326.09 468.138 326.098 468.149L326.093 468.195L325.332 475.119L326.007 475.194C326.213 475.218 326.354 475.395 326.333 475.582C326.312 475.769 326.135 475.911 325.938 475.889L325.264 475.813L325.069 477.545C325.047 477.732 324.87 477.874 324.674 477.852C324.486 477.831 324.345 477.653 324.366 477.466L324.561 475.734L324.55 475.751ZM324.628 475.058L325.274 469.147L319.849 474.539L324.626 475.077L324.628 475.058Z" fill="#F8F8F8"/>
<path d="M328.438 477.27C328.304 477.113 328.33 476.879 328.495 476.764C328.651 476.64 328.885 476.666 329.01 476.822C329.486 477.398 330.14 477.737 330.833 477.815C331.526 477.893 332.23 477.707 332.824 477.233C333.418 476.759 333.748 476.104 333.826 475.411C333.905 474.709 333.721 473.986 333.255 473.403C332.79 472.819 332.125 472.488 331.432 472.41C330.73 472.331 330.017 472.516 329.423 472.99C329.266 473.115 329.031 473.098 328.917 472.933C328.873 472.9 328.85 472.85 328.845 472.811L328.847 472.792C328.847 472.792 328.832 472.762 328.834 472.743C328.818 472.713 328.824 472.666 328.828 472.629C328.83 472.61 328.842 472.583 328.846 472.555L329.782 468.535C329.795 468.423 329.861 468.335 329.952 468.289C330.014 468.239 330.102 468.22 330.196 468.231L334.897 468.76C335.104 468.774 335.246 468.951 335.223 469.148C335.199 469.363 335.023 469.495 334.826 469.473L330.425 468.977L329.729 471.953C330.278 471.711 330.887 471.609 331.496 471.678C332.376 471.777 333.203 472.183 333.8 472.942C334.409 473.684 334.631 474.582 334.529 475.481C334.432 476.342 334.022 477.207 333.263 477.795C332.525 478.375 331.596 478.622 330.725 478.524C329.844 478.424 329.001 477.997 328.411 477.258L328.438 477.27Z" fill="#F8F8F8"/>
<path d="M338.816 471.43C339.648 470.281 340.912 469.494 342.595 469.627C342.784 469.629 342.926 469.807 342.923 469.996C342.9 470.202 342.723 470.343 342.535 470.332C341.113 470.238 340.142 470.859 339.387 471.836C338.974 472.387 338.669 473.073 338.448 473.779C339.134 473.154 340.075 472.805 341.068 472.917C342.931 473.127 344.253 474.783 344.046 476.619C343.838 478.464 342.191 479.786 340.335 479.587C338.528 479.383 337.218 477.794 337.354 475.998C337.35 475.78 337.374 475.564 337.4 475.33C337.56 473.992 337.998 472.552 338.826 471.431L338.816 471.43ZM338.062 476.021C338.054 476.096 338.066 476.154 338.069 476.211C338.064 476.258 338.061 476.286 338.039 476.312C338.072 477.615 339.075 478.734 340.396 478.882C341.866 479.048 343.18 477.991 343.343 476.549C343.505 475.107 342.448 473.793 340.978 473.627C339.536 473.465 338.222 474.521 338.059 475.964L338.053 476.02L338.062 476.021Z" fill="#F8F8F8"/>
<path d="M273.405 489.761L185.312 480.075L184.837 484.403L272.929 494.089L273.405 489.761Z" fill="#A6A6A6"/>
<path d="M246.613 496.543L184.246 489.686L183.77 494.014L246.137 500.871L246.613 496.543Z" fill="#A6A6A6"/>
<path d="M313.312 420.869L269.383 416.039L268.907 420.367L312.836 425.197L313.312 420.869Z" fill="#A6A6A6"/>
<path d="M367.261 438.755L171.215 416.68L160.396 512.758L356.442 534.833L367.261 438.755Z" fill="#009BD2"/>
<path opacity="0.2" d="M367.261 438.755L171.215 416.68L160.396 512.758L356.442 534.833L367.261 438.755Z" fill="black"/>
<path d="M365.339 455.828L169.293 433.753L158.474 529.831L354.52 551.906L365.339 455.828Z" fill="#009BD2"/>
<path opacity="0.3" d="M365.339 455.828L169.293 433.753L158.474 529.831L354.52 551.906L365.339 455.828Z" fill="black"/>
<path d="M363.357 473.425L167.311 451.35L158.473 529.831L354.519 551.906L363.357 473.425Z" fill="#009BD2"/>
<path opacity="0.2" d="M363.357 473.425L167.311 451.35L158.473 529.831L354.519 551.906L363.357 473.425Z" fill="black"/>
<path d="M343.451 595.785L142.466 543.705L161.346 376.039L167.354 381.638C170.239 384.324 173.794 386.195 177.652 387.056L362.341 428.12L343.461 595.786L343.451 595.785Z" fill="#009BD2"/>
<path d="M160.824 383.281L160.164 383.954L161.51 385.274L162.17 384.601L160.824 383.281Z" fill="white"/>
<path d="M348.233 434.137L344.506 433.291L344.713 432.375L348.44 433.222L348.233 434.137ZM341.704 432.653L337.977 431.806L338.184 430.891L341.911 431.737L341.704 432.653ZM335.175 431.168L331.448 430.322L331.655 429.406L335.382 430.253L335.175 431.168ZM328.646 429.684L324.919 428.838L325.126 427.922L328.853 428.768L328.646 429.684ZM322.117 428.2L318.39 427.353L318.597 426.438L322.324 427.284L322.117 428.2ZM315.588 426.715L311.861 425.869L312.068 424.953L315.795 425.8L315.588 426.715ZM309.059 425.231L305.332 424.384L305.539 423.469L309.266 424.315L309.059 425.231ZM302.53 423.746L298.803 422.9L299.01 421.984L302.737 422.831L302.53 423.746ZM296.001 422.262L292.274 421.415L292.481 420.5L296.208 421.346L296.001 422.262ZM289.472 420.777L285.745 419.931L285.952 419.015L289.679 419.862L289.472 420.777ZM282.943 419.293L279.216 418.447L279.423 417.531L283.15 418.377L282.943 419.293ZM276.414 417.809L272.687 416.962L272.894 416.047L276.621 416.893L276.414 417.809ZM269.885 416.324L266.158 415.478L266.365 414.562L270.092 415.409L269.885 416.324ZM263.356 414.84L259.629 413.993L259.836 413.078L263.563 413.924L263.356 414.84ZM256.827 413.355L253.1 412.509L253.307 411.593L257.034 412.44L256.827 413.355ZM250.298 411.871L246.571 411.024L246.778 410.109L250.505 410.955L250.298 411.871ZM243.769 410.386L240.042 409.54L240.249 408.624L243.976 409.471L243.769 410.386ZM237.24 408.902L233.513 408.056L233.72 407.14L237.447 407.986L237.24 408.902ZM230.711 407.418L226.984 406.571L227.191 405.656L230.918 406.502L230.711 407.418ZM224.182 405.933L220.455 405.087L220.662 404.171L224.389 405.018L224.182 405.933ZM217.653 404.449L213.926 403.602L214.133 402.687L217.86 403.533L217.653 404.449ZM211.124 402.964L207.397 402.118L207.604 401.202L211.331 402.049L211.124 402.964ZM204.595 401.48L200.868 400.633L201.075 399.718L204.802 400.564L204.595 401.48ZM198.066 399.996L194.339 399.149L194.546 398.233L198.273 399.08L198.066 399.996ZM191.537 398.511L187.81 397.665L188.017 396.749L191.744 397.596L191.537 398.511ZM185.008 397.027L181.281 396.18L181.488 395.265L185.215 396.111L185.008 397.027ZM178.479 395.542L176.26 395.036C175.741 394.921 175.235 394.788 174.73 394.636L175.002 393.738C175.488 393.887 175.977 394.009 176.467 394.121L178.686 394.627L178.479 395.542ZM171.991 393.607C170.809 393.076 169.657 392.434 168.582 391.706L169.107 390.921C170.138 391.616 171.236 392.232 172.373 392.74L171.983 393.597L171.991 393.607ZM166.271 389.909C165.986 389.659 165.704 389.39 165.43 389.122L163.508 387.237L164.172 386.562L166.094 388.448C166.359 388.705 166.624 388.963 166.901 389.202L166.271 389.909Z" fill="white"/>
<path d="M353.242 436.655L352.305 436.549L352.469 435.098L351.036 434.766L351.244 433.85L353.5 434.36L353.242 436.655Z" fill="white"/>
<path d="M336.809 582.584L335.872 582.479L336.299 578.686L337.236 578.791L336.809 582.584ZM337.555 575.954L336.619 575.848L337.046 572.055L337.983 572.161L337.555 575.954ZM338.302 569.323L337.365 569.218L337.793 565.425L338.729 565.53L338.302 569.323ZM339.049 562.692L338.112 562.587L338.539 558.794L339.476 558.9L339.049 562.692ZM339.795 556.062L338.859 555.956L339.286 552.164L340.222 552.269L339.795 556.062ZM340.542 549.431L339.605 549.326L340.032 545.533L340.969 545.638L340.542 549.431ZM341.289 542.801L340.352 542.695L340.779 538.902L341.716 539.008L341.289 542.801ZM342.035 536.17L341.099 536.065L341.526 532.272L342.462 532.377L342.035 536.17ZM342.782 529.54L341.845 529.434L342.272 525.641L343.209 525.747L342.782 529.54ZM343.528 522.909L342.592 522.803L343.019 519.011L343.956 519.116L343.528 522.909ZM344.275 516.278L343.338 516.173L343.766 512.38L344.702 512.485L344.275 516.278ZM345.022 509.648L344.085 509.542L344.512 505.749L345.449 505.855L345.022 509.648ZM345.768 503.017L344.832 502.912L345.259 499.119L346.195 499.224L345.768 503.017ZM346.515 496.387L345.578 496.281L346.005 492.488L346.942 492.594L346.515 496.387ZM347.262 489.756L346.325 489.65L346.752 485.858L347.689 485.963L347.262 489.756ZM348.008 483.125L347.072 483.02L347.499 479.227L348.435 479.332L348.008 483.125ZM348.755 476.495L347.818 476.389L348.245 472.596L349.182 472.702L348.755 476.495ZM349.501 469.864L348.565 469.759L348.992 465.966L349.929 466.071L349.501 469.864ZM350.248 463.234L349.312 463.128L349.739 459.335L350.675 459.441L350.248 463.234ZM350.995 456.603L350.058 456.497L350.485 452.705L351.422 452.81L350.995 456.603ZM351.741 449.972L350.805 449.867L351.232 446.074L352.168 446.179L351.741 449.972ZM352.488 443.342L351.551 443.236L351.979 439.443L352.915 439.549L352.488 443.342Z" fill="white"/>
<path d="M325.623 517.26C330.118 517.766 334.229 514.026 334.806 508.905C335.383 503.785 332.206 499.223 327.711 498.717C323.216 498.211 319.105 501.952 318.528 507.072C317.952 512.193 321.128 516.754 325.623 517.26Z" fill="#EBEBEB"/>
<path d="M330.452 508.415C330.184 510.793 328.271 512.532 326.183 512.297C324.094 512.061 322.616 509.941 322.884 507.563C323.152 505.184 325.064 503.445 327.153 503.681C329.242 503.916 330.719 506.036 330.452 508.415Z" fill="#DBDBDB"/>
<path d="M66.3626 449.036C32.5742 461.064 49.624 509.139 83.4692 497.091C117.314 485.042 100.208 436.988 66.3626 449.036Z" fill="#FFC727"/>
<path opacity="0.1" d="M66.3626 449.036C32.5742 461.064 49.624 509.139 83.4692 497.091C117.314 485.042 100.208 436.988 66.3626 449.036Z" fill="black"/>
<path opacity="0.1" d="M97.0667 470.254C98.2073 479.166 93.9013 488.773 82.0076 493.007C53.9224 503.005 39.7658 463.109 67.8104 453.125C67.9972 453.059 68.176 452.995 68.3657 452.937C42.1439 462.821 55.7162 500.535 82.5015 491C93.4285 487.11 97.6859 478.473 97.0638 470.246L97.0667 470.254Z" fill="black"/>
<g opacity="0.1">
<path d="M69.8822 458.31C70.3534 458.142 70.8898 458.363 71.0459 458.802L71.5231 460.143C74.2277 459.409 76.415 459.536 78.8635 460.166C79.2723 460.286 79.5315 460.422 79.6501 460.755C79.8178 461.227 79.5092 461.748 78.9974 461.93C78.7781 462.009 78.5796 462.043 78.2555 461.929C76.0026 461.257 74.0106 461.216 71.9966 461.704L75.3312 471.071C81.2698 470.165 84.2863 471.234 85.4547 474.516C86.7157 478.058 84.3597 481.725 79.8349 483.491L80.7633 486.099C80.9195 486.538 80.6434 487.048 80.1722 487.216C79.701 487.384 79.1647 487.163 79.0085 486.724L78.0686 484.084C74.8081 484.979 71.8267 484.832 68.693 483.769C68.3688 483.655 68.1451 483.515 68.0381 483.215C67.8819 482.776 68.1789 482.222 68.6501 482.054C68.9832 481.935 69.2436 481.998 69.392 482.055C72.0582 483.065 74.6544 483.313 77.6014 482.566L74.2061 473.028C68.329 473.875 65.4087 472.846 64.2172 469.499C63.0257 466.152 65.3145 462.398 69.7399 460.713L69.2859 459.438C69.1326 459.007 69.3977 458.492 69.877 458.321L69.8822 458.31ZM73.604 471.311L70.3533 462.179C66.8262 463.508 65.1858 466.28 66.0418 468.684C66.8516 470.959 68.5218 471.948 73.604 471.311ZM75.9385 472.777L79.2239 482.006C82.8566 480.64 84.5458 477.851 83.6406 475.308C82.8192 473.001 81.0353 472.052 75.9385 472.777Z" fill="black"/>
</g>
<path d="M367.453 247.779C403.206 254.195 393.763 307.152 357.95 300.728C322.205 294.312 331.639 241.354 367.453 247.779Z" fill="#FFC727"/>
<path opacity="0.2" d="M367.453 247.779C403.206 254.195 393.763 307.152 357.95 300.728C322.205 294.312 331.639 241.354 367.453 247.779Z" fill="black"/>
<path d="M364.098 247.175C398.17 253.289 388.727 306.247 354.595 300.124C320.524 294.01 329.966 241.052 364.098 247.175V247.175Z" fill="#FFC727"/>
<path opacity="0.1" d="M364.098 247.175C398.17 253.289 388.727 306.247 354.595 300.124C320.524 294.01 329.966 241.052 364.098 247.175V247.175Z" fill="black"/>
<path opacity="0.1" d="M337.737 274.891C337.918 284.325 343.411 293.466 355.407 295.622C383.727 300.702 391.565 256.747 363.289 251.677C363.108 251.642 362.918 251.608 362.728 251.59C389.246 256.903 381.648 298.494 354.639 293.648C343.627 291.673 338.315 283.532 337.729 274.9L337.737 274.891Z" fill="black"/>
<g opacity="0.1">
<path d="M362.296 257.17C362.771 257.291 363.073 257.791 362.952 258.256L362.59 259.714C365.151 260.585 366.824 261.93 368.419 263.87C368.678 264.207 368.807 264.474 368.721 264.836C368.592 265.345 368.057 265.638 367.548 265.509C367.333 265.457 367.16 265.371 366.953 265.095C365.53 263.232 363.961 262.077 362.089 261.378L359.554 271.554C364.789 274.098 366.6 276.745 365.711 280.307C364.754 284.162 360.839 286.076 356.26 285.093L355.553 287.93C355.432 288.404 354.932 288.706 354.466 288.586C353.992 288.465 353.69 287.965 353.811 287.499L354.527 284.627C351.431 283.584 349.137 281.782 347.231 279.065C347.033 278.781 346.938 278.53 347.024 278.203C347.145 277.728 347.688 277.401 348.162 277.521C348.49 277.599 348.671 277.806 348.757 277.935C350.318 280.333 352.259 282.014 355.018 283.006L357.605 272.649C352.457 270.088 350.698 267.527 351.603 263.896C352.517 260.223 356.415 258.222 360.874 259.222L361.219 257.843C361.339 257.368 361.839 257.066 362.305 257.187L362.296 257.17ZM358.054 270.778L360.529 260.861C356.984 260.05 354.139 261.585 353.483 264.198C352.871 266.673 353.647 268.484 358.054 270.778ZM359.097 273.391L356.596 283.42C360.253 284.256 363.133 282.739 363.823 279.971C364.452 277.461 363.555 275.616 359.097 273.391Z" fill="black"/>
</g>
<path d="M188.922 238C153.056 238 152.996 289.008 188.922 289.008C224.847 289.008 224.847 238 188.922 238Z" fill="#FFC727"/>
<path opacity="0.1" d="M188.922 238C153.056 238 152.996 289.008 188.922 289.008C224.847 289.008 224.847 238 188.922 238Z" fill="black"/>
<path opacity="0.1" d="M210.731 268.286C208.816 277.065 201.538 284.671 188.913 284.671C159.101 284.671 159.144 242.338 188.913 242.338C189.111 242.338 189.301 242.338 189.499 242.346C161.481 242.864 161.619 282.946 190.051 282.946C201.65 282.946 208.557 276.237 210.731 268.277V268.286Z" fill="black"/>
<g opacity="0.1">
<path d="M189.127 247.917C189.627 247.917 190.058 248.305 190.058 248.771V250.194C192.852 250.409 194.87 251.263 196.966 252.677C197.31 252.927 197.509 253.143 197.509 253.497C197.509 253.997 197.043 254.385 196.5 254.385C196.267 254.385 196.069 254.35 195.801 254.135C193.904 252.746 192.041 252.039 189.98 251.824V261.767C195.879 262.905 198.363 264.923 198.363 268.407C198.363 272.167 194.913 274.831 190.058 274.978V277.746C190.058 278.212 189.627 278.6 189.127 278.6C188.627 278.6 188.195 278.212 188.195 277.746V274.943C184.824 274.693 182.064 273.555 179.468 271.503C179.201 271.287 179.037 271.08 179.037 270.761C179.037 270.295 179.503 269.873 180.003 269.873C180.357 269.873 180.581 270.019 180.701 270.123C182.875 271.968 185.237 273.072 188.264 273.357V263.233C182.443 262.06 180.037 260.111 180.037 256.558C180.037 253.005 183.452 250.237 188.187 250.133V248.779C188.187 248.322 188.609 247.926 189.118 247.926L189.127 247.917ZM188.273 261.413V251.72C184.504 251.789 182.029 253.85 182.029 256.403C182.029 258.817 183.271 260.309 188.273 261.413ZM189.98 263.578V273.374C193.861 273.305 196.388 271.244 196.388 268.545C196.388 266.096 195.025 264.604 189.98 263.578Z" fill="black"/>
</g>
<path d="M129.958 328.228C156.07 332.911 149.171 371.596 123.016 366.905C96.9037 362.222 103.803 323.537 129.958 328.228Z" fill="#FFC727"/>
<path opacity="0.2" d="M129.958 328.228C156.07 332.911 149.171 371.596 123.016 366.905C96.9037 362.222 103.803 323.537 129.958 328.228Z" fill="black"/>
<path d="M127.509 327.788C152.397 332.255 145.498 370.932 120.567 366.465C95.6793 361.998 102.578 323.321 127.509 327.788V327.788Z" fill="#FFC727"/>
<path opacity="0.1" d="M127.509 327.788C152.397 332.255 145.498 370.932 120.567 366.465C95.6793 361.998 102.578 323.321 127.509 327.788V327.788Z" fill="black"/>
<path opacity="0.1" d="M108.252 348.036C108.381 354.927 112.4 361.601 121.161 363.179C141.841 366.888 147.575 334.791 126.922 331.082C126.784 331.057 126.655 331.031 126.517 331.013C145.885 334.894 140.332 365.275 120.61 361.731C112.564 360.29 108.683 354.34 108.261 348.036H108.252Z" fill="black"/>
<g opacity="0.1">
<path d="M125.5 333.894C125.854 333.963 126.087 334.308 126.026 334.661L125.828 335.739C127.734 336.265 129.01 337.171 130.26 338.516C130.467 338.749 130.571 338.939 130.519 339.206C130.45 339.585 130.071 339.818 129.691 339.749C129.527 339.723 129.398 339.672 129.243 339.473C128.122 338.18 126.932 337.404 125.535 336.972L124.129 344.501C128.053 346.122 129.493 347.976 129.001 350.615C128.467 353.469 125.699 355.039 122.318 354.521L121.93 356.617C121.861 356.97 121.516 357.203 121.163 357.143C120.809 357.074 120.576 356.729 120.637 356.375L121.033 354.254C118.731 353.633 116.98 352.417 115.471 350.52C115.316 350.322 115.238 350.141 115.281 349.899C115.35 349.546 115.73 349.287 116.075 349.356C116.316 349.399 116.454 349.537 116.523 349.632C117.765 351.313 119.257 352.452 121.309 353.055L122.741 345.389C118.869 343.75 117.48 341.957 117.981 339.275C118.489 336.558 121.24 334.929 124.534 335.463L124.724 334.437C124.793 334.083 125.138 333.851 125.492 333.911L125.5 333.894ZM123.008 344.001L124.379 336.662C121.758 336.231 119.748 337.473 119.386 339.404C119.05 341.232 119.697 342.526 123.008 344.001ZM123.888 345.863L122.508 353.288C125.207 353.737 127.242 352.503 127.63 350.46C127.975 348.606 127.242 347.303 123.896 345.872L123.888 345.863Z" fill="black"/>
</g>
</g>
</g>
<defs>
<filter id="filter0_d_1116_3521" x="0" y="0" width="484" height="535" filterUnits="userSpaceOnUse" color-interpolation-filters="sRGB">
<feFlood flood-opacity="0" result="BackgroundImageFix"/>
<feColorMatrix in="SourceAlpha" type="matrix" values="0 0 0 0 0 0 0 0 0 0 0 0 0 0 0 0 0 0 127 0" result="hardAlpha"/>
<feMorphology radius="4" operator="dilate" in="SourceAlpha" result="effect1_dropShadow_1116_3521"/>
<feOffset dx="5" dy="5"/>
<feGaussianBlur stdDeviation="4"/>
<feComposite in2="hardAlpha" operator="out"/>
<feColorMatrix type="matrix" values="0 0 0 0 0 0 0 0 0 0 0 0 0 0 0 0 0 0 0.05 0"/>
<feBlend mode="normal" in2="BackgroundImageFix" result="effect1_dropShadow_1116_3521"/>
<feBlend mode="normal" in="SourceGraphic" in2="effect1_dropShadow_1116_3521" result="shape"/>
</filter>
<clipPath id="clip0_1116_3521">
<rect width="379" height="364" fill="white" transform="translate(72.7305 199) rotate(6.42465)"/>
</clipPath>
</defs>
</svg>
